<svg xmlns="http://www.w3.org/2000/svg" width="74" height="32" fill="none" viewBox="0 0 74 32"><g clip-path="url(#a)"><path stroke="#4B5563" stroke-miterlimit="10" stroke-width="2.233" d="M73.197.802H.803v30.397h72.394V.802Z"></path><path fill="#4B5563" d="M16.307 22.579a5.722 5.722 0 0 1-4.077-1.687 5.705 5.705 0 0 1-1.658-4.083c0-3.661 3.082-5.812 5.844-5.812 1.976 0 3.823.74 4.812 2.466l-1.848 1.075a3.485 3.485 0 0 0-2.927-1.555c-1.625 0-3.56 1.272-3.56 3.794 0 2.466 1.848 3.814 3.706 3.814a3.442 3.442 0 0 0 1.762-.506c.53-.325.962-.787 1.248-1.338l1.89.878c-1.064 1.925-2.973 2.954-5.192 2.954Zm12.023-2.086c2.107 0 3.556-1.578 3.556-3.699 0-2.12-1.45-3.698-3.556-3.698-2.108 0-3.607 1.558-3.607 3.663 0 2.134 1.452 3.734 3.607 3.734Zm-.223 2.086c-3.337 0-5.713-2.523-5.713-5.792 0-3.334 2.354-5.79 5.713-5.79 1.541 0 3.026.65 3.737 1.645v-1.358h2.282V22.27h-2.282v-1.362c-.748.99-2.198 1.67-3.737 1.67Zm17.549-.313v-8.86h-1.757v-2.195h1.78V7.964h2.35v3.247h2.438v2.195H48.03v8.859h-2.374v.001Zm11.54-1.773c2.107 0 3.56-1.578 3.56-3.699 0-2.12-1.453-3.698-3.56-3.698-2.106 0-3.603 1.558-3.603 3.663 0 2.134 1.45 3.734 3.603 3.734Zm-.222 2.086c-3.34 0-5.71-2.523-5.71-5.792 0-3.334 2.351-5.79 5.71-5.79 1.542 0 3.026.65 3.738 1.645v-1.358h2.284V22.27h-2.284v-1.362c-.749.99-2.199 1.67-3.738 1.67Zm-20.497-.326V11.266h2.174v1.909c.45-1.234 1.4-2.084 2.66-2.084.274-.005.547.025.813.09v2.124c-1.774-.205-3.273 1.034-3.273 3.861v5.087h-2.374Z"></path></g><defs><clipPath id="a"><path fill="#fff" d="M0 0h74v32H0z"></path></clipPath></defs></svg>