<svg xmlns="http://www.w3.org/2000/svg" width="98" height="36" fill="none" viewBox="0 0 98 36"><path fill="#4B5563" d="M35.886 12.734 40.1 24.062h-2.565l-.853-2.533h-4.214l-.878 2.533h-2.5l4.262-11.328h2.534Zm.142 6.95-1.416-4.158h-.03l-1.47 4.156 2.916.002Zm6.936-3.824V17h.049a2.589 2.589 0 0 1 1.095-1.04 3.186 3.186 0 0 1 1.39-.327 3.793 3.793 0 0 1 1.476.247c.357.143.67.379.908.682.233.318.392.684.465 1.072.093.458.138.922.134 1.388v5.047h-2.233v-4.637c0-.678-.105-1.183-.316-1.516-.21-.334-.584-.5-1.12-.5-.612 0-1.05.182-1.317.545-.266.364-.403.964-.41 1.8v4.3h-2.254v-8.183l2.133-.018ZM57.7 24.667c-.095.434-.293.84-.577 1.18-.349.405-.775.722-1.28.928a5.467 5.467 0 0 1-2.241.39 5.17 5.17 0 0 1-1.224-.15 4.12 4.12 0 0 1-1.136-.468 2.798 2.798 0 0 1-.853-.817 2.376 2.376 0 0 1-.386-1.198h2.226a1.288 1.288 0 0 0 .617.881c.326.17.69.254 1.056.247.632 0 1.092-.19 1.382-.571.301-.419.449-.929.419-1.444v-1.087h-.031a2.225 2.225 0 0 1-1.036.96c-.443.195-.924.31-1.412.31a3.563 3.563 0 0 1-1.58-.327 2.999 2.999 0 0 1-1.096-.882 3.708 3.708 0 0 1-.622-1.322 6.28 6.28 0 0 1-.198-1.596 5.137 5.137 0 0 1 .219-1.531c.142-.472.368-.912.67-1.3a3.25 3.25 0 0 1 1.096-.897c.47-.23.987-.344 1.509-.333.487-.009.969.09 1.413.292.432.23.787.583 1.017 1.016h.032v-1.093h2.133v7.68c-.001.39-.041.76-.119 1.13l.002.002Zm-3.07-2.728c.236-.121.441-.294.6-.506a2.06 2.06 0 0 0 .356-.723c.079-.276.119-.561.118-.848a4.644 4.644 0 0 0-.094-.96 2.398 2.398 0 0 0-.316-.802 1.64 1.64 0 0 0-.584-.556 1.834 1.834 0 0 0-.916-.207 1.619 1.619 0 0 0-.815.19 1.71 1.71 0 0 0-.568.515 2.176 2.176 0 0 0-.331.746c-.07.288-.104.584-.103.881 0 .296.03.592.087.882.053.277.155.543.3.784.142.231.334.427.562.571.265.158.57.234.878.22.285.005.568-.06.824-.187h.002Zm7.21.156c.336.327.82.491 1.452.491.416.01.824-.097 1.169-.34.276-.167.488-.42.6-.724h1.975c-.323.984-.807 1.688-1.451 2.111a4.26 4.26 0 0 1-2.37.634 4.642 4.642 0 0 1-1.736-.308 3.614 3.614 0 0 1-1.315-.882 3.97 3.97 0 0 1-.83-1.364 4.99 4.99 0 0 1-.29-1.744 4.803 4.803 0 0 1 .31-1.711 3.968 3.968 0 0 1 2.17-2.286 4.21 4.21 0 0 1 1.698-.333 3.87 3.87 0 0 1 1.816.405c.501.258.936.63 1.27 1.086.337.468.581.996.72 1.556.147.596.2 1.212.157 1.825H61.29c.033.729.217 1.257.553 1.584h-.003Zm2.535-4.316c-.268-.293-.676-.44-1.223-.44a1.943 1.943 0 0 0-.892.183c-.22.098-.413.263-.568.452a1.658 1.658 0 0 0-.3.569 2.615 2.615 0 0 0-.103.54h3.645a2.58 2.58 0 0 0-.56-1.303h.001Zm6.24-5.046V24.06H68.37V12.734l2.243-.001Zm4.265 0v9.232h5.494v2.095H72.4V12.734l2.478-.001Zm6.423 1.858v-1.853h2.241v1.855l-2.241-.002Zm2.241 1.269v8.203h-2.241V15.86h2.241Zm3.498 6.163c.097.17.228.316.386.429.165.114.35.198.544.246a2.488 2.488 0 0 0 1.137.023c.166-.034.326-.093.474-.175.14-.078.262-.186.355-.317a.83.83 0 0 0 .143-.5c0-.338-.224-.592-.671-.763a13.404 13.404 0 0 0-1.87-.507 10.494 10.494 0 0 1-.956-.263 3.281 3.281 0 0 1-.83-.396 1.915 1.915 0 0 1-.583-.62 1.72 1.72 0 0 1-.219-.912 2.474 2.474 0 0 1 .307-1.3c.2-.333.48-.609.814-.802a3.534 3.534 0 0 1 1.136-.412c.427-.08.86-.12 1.294-.119a6.43 6.43 0 0 1 1.288.127c.394.076.77.22 1.115.428.328.203.606.477.814.802.231.382.364.815.386 1.26h-2.133a.988.988 0 0 0-.488-.88 2.23 2.23 0 0 0-1.042-.221c-.135 0-.274.01-.41.024-.138.015-.274.05-.403.104a.852.852 0 0 0-.308.22.598.598 0 0 0-.126.405.618.618 0 0 0 .22.491c.17.14.366.244.576.309.267.09.538.162.815.22.306.063.616.132.93.207.323.073.642.163.957.27.295.097.575.24.829.42.24.175.44.4.583.662.156.295.231.626.22.96a2.502 2.502 0 0 1-1.174 2.22c-.365.229-.77.387-1.192.467a6.83 6.83 0 0 1-2.748-.009c-.43-.084-.84-.249-1.208-.487a2.708 2.708 0 0 1-.877-.881 2.744 2.744 0 0 1-.37-1.364h2.132c-.001.221.056.439.167.63l-.014.004Zm10.956-6.163v1.507h-1.642v4.063c0 .38.063.634.19.762.128.128.381.192.76.19l.363-.015c.112-.01.222-.027.332-.049v1.754c-.209.034-.42.055-.631.064-.233.01-.46.016-.679.016-.33 0-.66-.023-.987-.07a2.318 2.318 0 0 1-.82-.278 1.465 1.465 0 0 1-.562-.587 2.103 2.103 0 0 1-.207-1v-4.848h-1.357v-1.507h1.357V13.4h2.242v2.46h1.641Zm-77.09-.499c1.487.28 2.528.907 3.124 1.878.603.971.906 2.504.91 4.599 0 4.153-1.243 7.552-3.729 10.197C18.727 34.678 15.55 36 11.678 36a12.278 12.278 0 0 1-4.437-.827 10.991 10.991 0 0 1-3.698-2.312 11.704 11.704 0 0 1-2.658-3.449A8.401 8.401 0 0 1 0 25.697c0-1.418.303-2.513.91-3.287.606-.775 1.564-1.307 2.874-1.596-.209-.475-.39-.963-.542-1.46a3.563 3.563 0 0 1-.172-.913c0-.742.389-1.5 1.168-2.274.779-.775 1.512-1.162 2.2-1.162.319.004.634.058.935.16.395.139.774.318 1.132.533-1.264-3.591-2.183-6.365-2.757-8.32-.573-1.953-.859-3.3-.858-4.038 0-1.022.259-1.834.776-2.435a2.712 2.712 0 0 1 2.14-.902c1.541 0 3.491 3.46 5.85 10.382.41 1.186.72 2.101.935 2.745.18-.51.435-1.235.762-2.175C17.72 4.098 19.756.669 21.46.669a2.533 2.533 0 0 1 2.004.853c.493.568.74 1.33.74 2.286 0 .725-.275 2.051-.825 3.979-.549 1.927-1.377 4.452-2.485 7.575h.012ZM3.291 25.446c.23.28.553.693.97 1.238 1.082 1.493 2.083 2.24 3 2.24a1.3 1.3 0 0 0 .836-.297.816.816 0 0 0 .369-.616c0-.247-.162-.66-.485-1.238a15.96 15.96 0 0 0-1.353-1.952 14.66 14.66 0 0 0-1.638-1.84c-.433-.387-.781-.58-1.045-.58-.573 0-1.103.308-1.588.925a3.445 3.445 0 0 0-.725 2.188c.019.778.186 1.546.493 2.262.375.898.867 1.742 1.465 2.51a9.773 9.773 0 0 0 3.605 3.002 10.695 10.695 0 0 0 4.765 1.04c1.52.027 3.026-.28 4.414-.902a10.392 10.392 0 0 0 3.619-2.695c2.156-2.397 3.234-5.401 3.234-9.011.022-.884-.06-1.768-.246-2.633a2.522 2.522 0 0 0-.812-1.423c-.672-.56-1.98-1.063-3.924-1.51a27.2 27.2 0 0 0-6.09-.666c-.59 0-1.008.099-1.255.297-.245.198-.368.536-.368 1.013 0 1.122.623 1.934 1.87 2.436 1.246.502 3.263.75 6.052.743h1.008a.674.674 0 0 1 .555.247c.16.23.259.498.283.778-.279.264-.854.565-1.726.902a9.248 9.248 0 0 0-1.992.99 8.862 8.862 0 0 0-2.36 2.612 5.533 5.533 0 0 0-.898 2.832c.024.67.153 1.334.382 1.965.178.459.306.936.382 1.422v.174l-.048.224c-.721-.05-1.29-.474-1.708-1.274-.418-.799-.627-1.865-.627-3.2v-.224a1.362 1.362 0 0 1-.382.247 1.08 1.08 0 0 1-.407.074c-.14.001-.28-.011-.419-.037a4.295 4.295 0 0 1-.444-.11 4.374 4.374 0 0 1 .147.941 2.062 2.062 0 0 1-.712 1.57c-.46.431-1.07.666-1.699.655-1.034 0-2.083-.507-3.148-1.52s-1.598-2.005-1.6-2.974a1.72 1.72 0 0 1 .062-.483.828.828 0 0 1 .208-.36l-.02.018Zm7.382.593a1.009 1.009 0 0 0 .762-.384c.216-.222.34-.517.345-.827 0-.312-.225-1.041-.676-2.187a21.964 21.964 0 0 0-1.686-3.374A7.89 7.89 0 0 0 7.966 17.4c-.477-.42-.928-.63-1.354-.63-.345 0-.726.218-1.144.654-.417.435-.626.843-.626 1.223 0 .395.204.988.614 1.78a16.823 16.823 0 0 0 1.649 2.521 13.74 13.74 0 0 0 2.042 2.274c.646.54 1.155.809 1.526.809v.007Zm2.41-11.941-2.656-7.72c-.688-1.96-1.221-3.242-1.6-3.845-.377-.603-.788-.904-1.23-.902a1.022 1.022 0 0 0-.829.396 1.64 1.64 0 0 0-.32 1.063c0 .758.286 2.08.86 3.965.573 1.884 1.434 4.348 2.583 7.392a.822.822 0 0 1 .42-.383 1.99 1.99 0 0 1 .739-.111c.099 0 .295.008.59.024.293.016.776.055 1.447.117l-.003.004Zm2.78 7.484a15.068 15.068 0 0 1-2.004-.224 10.578 10.578 0 0 1-1.808-.495c.261.528.495 1.056.7 1.583.195.51.36 1.03.494 1.558.377-.479.789-.93 1.232-1.347.431-.397.894-.757 1.386-1.075Zm3.27-6.65c1.1-2.999 1.957-5.476 2.572-7.433.617-1.948.924-3.147.921-3.596a1.775 1.775 0 0 0-.308-1.113 1.018 1.018 0 0 0-.849-.397c-.452 0-.92.384-1.402 1.15-.477.766-1.002 1.998-1.576 3.696l-2.447 7.155 3.09.539Z"></path></svg>