<svg xmlns="http://www.w3.org/2000/svg" width="144" height="18" fill="none" viewBox="0 0 144 18"><path fill="#4B5563" d="M5.236 8.204a.502.502 0 0 0-.69-.104.504.504 0 0 0-.163.198L.055 17.024a.525.525 0 0 0 .21.689.515.515 0 0 0 .251.066h6.027a.497.497 0 0 0 .464-.295c1.299-2.689.512-6.82-1.77-9.28ZM8.412.28a11.588 11.588 0 0 0-.667 11.363l2.92 5.84a.52.52 0 0 0 .462.291h6.026a.532.532 0 0 0 .489-.5.54.54 0 0 0-.043-.25L9.292.28A.49.49 0 0 0 8.852 0a.485.485 0 0 0-.44.28ZM135.736 9.58l4.376 8.2H144V3.144h-3.093v9.444l-1.171-2.74-3.514-6.704h-4.883v14.634h3.093V6.618l1.304 2.962ZM111.664 3.145h-3.382v14.634h3.382V3.145ZM104.381 13.452c0-2.562-1.347-3.764-5.15-4.59-2.098-.467-2.605-.935-2.605-1.612 0-.847.75-1.204 2.133-1.204 1.68 0 3.339.513 4.907 1.225V3.925a11.01 11.01 0 0 0-4.8-1.003c-3.757 0-5.701 1.648-5.701 4.344 0 2.15.994 3.874 4.882 4.632 2.32.489 2.808.868 2.808 1.648 0 .78-.488 1.247-2.133 1.247a11.926 11.926 0 0 1-5.635-1.535v3.519c1.171.578 2.718 1.223 5.6 1.223 4.064 0 5.678-1.825 5.678-4.543M90.306 13.452c0-2.562-1.333-3.764-5.146-4.59-2.1-.467-2.608-.935-2.608-1.612 0-.847.752-1.204 2.133-1.204 1.68 0 3.336.513 4.904 1.225V3.925a11.01 11.01 0 0 0-4.8-1.003c-3.755 0-5.701 1.648-5.701 4.344 0 2.15.994 3.874 4.885 4.632 2.32.489 2.805.868 2.805 1.648 0 .78-.485 1.247-2.133 1.247a11.925 11.925 0 0 1-5.635-1.535v3.519c1.174.578 2.72 1.223 5.6 1.223 4.067 0 5.678-1.825 5.678-4.543M56.245 14.615V3.145h-3.403v14.634h6.95l1.093-3.164h-4.64ZM46.271 17.78V6.305h4.022V3.145H39.11v3.161h3.758V17.78h3.402ZM34.177 3.145h-4.459l-5.066 14.634h3.88l.72-2.465a9.526 9.526 0 0 0 5.413 0l.718 2.465h3.866L34.177 3.145Zm-2.23 9.532a6.549 6.549 0 0 1-1.866-.269l1.867-6.387 1.867 6.387a6.563 6.563 0 0 1-1.867.27ZM71.77 3.145h-4.46l-5.066 14.634h3.867l.72-2.465a9.526 9.526 0 0 0 5.413 0l.718 2.465h3.866L71.77 3.145Zm-2.23 9.532a6.534 6.534 0 0 1-1.867-.269l1.867-6.387 1.867 6.387a6.53 6.53 0 0 1-1.867.27ZM123.846 3.145h-4.459l-5.066 14.634h3.866l.718-2.465a9.525 9.525 0 0 0 5.413 0l.717 2.465h3.87l-5.059-14.634Zm-2.229 9.532c-.632.001-1.261-.09-1.867-.269l1.867-6.387 1.866 6.387a6.555 6.555 0 0 1-1.866.27Z"></path></svg>