<svg xmlns="http://www.w3.org/2000/svg" width="108" height="32" fill="none" viewBox="0 0 108 32"><path fill="#4B5563" fill-rule="evenodd" d="M32.02 16v7.454l-.001.385c-.026 2.682-.334 3.712-.89 4.75a6.06 6.06 0 0 1-2.521 2.52l-.145.076c-1.042.533-2.153.815-4.994.815H16.01V16h16.01Z" clip-rule="evenodd" opacity=".4"></path><path fill="#4B5563" fill-rule="evenodd" d="M28.608.89a6.06 6.06 0 0 1 2.522 2.52l.076.145c.532 1.041.815 2.152.815 4.991V16H16.01V0h7.458c2.973 0 4.052.31 5.139.89Z" clip-rule="evenodd" opacity=".7"></path><path fill="#4B5563" fill-rule="evenodd" d="M16.01 0v32H8.553l-.386-.002c-2.684-.026-3.714-.334-4.753-.889A6.06 6.06 0 0 1 .89 28.59l-.076-.145C.283 27.404 0 26.294 0 23.454V8.545c0-2.972.31-4.05.891-5.136A6.06 6.06 0 0 1 3.413.89l.145-.075C4.599.283 5.71 0 8.552 0h7.459Z" clip-rule="evenodd"></path><path fill="#4B5563" d="M54.602 12.047a2.893 2.893 0 0 0-1.31-.995 4.341 4.341 0 0 0-1.577-.313 4.37 4.37 0 0 0-1.793.358 4.205 4.205 0 0 0-1.39.986 4.38 4.38 0 0 0-.897 1.469 5.194 5.194 0 0 0-.313 1.828c0 .693.101 1.326.304 1.9.204.573.494 1.066.87 1.478.377.412.828.731 1.354.958.526.227 1.118.34 1.775.34.682 0 1.285-.134 1.811-.402a3.54 3.54 0 0 0 1.273-1.067l1.812 1.273a5.802 5.802 0 0 1-2.063 1.64c-.813.388-1.763.582-2.85.582-.993 0-1.904-.165-2.735-.493a6.3 6.3 0 0 1-2.143-1.38 6.28 6.28 0 0 1-1.399-2.114c-.335-.819-.502-1.724-.502-2.715 0-1.016.176-1.933.53-2.75a6.125 6.125 0 0 1 1.452-2.089 6.45 6.45 0 0 1 2.178-1.326 7.773 7.773 0 0 1 4-.35c.441.079.866.198 1.272.36a6.16 6.16 0 0 1 1.148.6c.358.239.663.525.914.86l-1.721 1.362Zm3.246-3.835h2.151v13.547h-2.151V8.212Zm10.19 8.386a2.65 2.65 0 0 0-.117-.788c-.077-.251-.2-.472-.367-.663a1.796 1.796 0 0 0-.637-.457 2.227 2.227 0 0 0-.905-.17c-.646 0-1.193.194-1.641.582a2.123 2.123 0 0 0-.744 1.496h4.41Zm2.152.968v.287c0 .095-.006.19-.018.286h-6.545a2.128 2.128 0 0 0 .789 1.515c.227.185.484.331.77.439.288.107.586.161.897.161.538 0 .993-.099 1.363-.296.37-.197.676-.469.915-.815l1.434 1.147c-.849 1.147-2.08 1.72-3.694 1.72-.67 0-1.285-.104-1.847-.314a4.36 4.36 0 0 1-1.461-.887 3.998 3.998 0 0 1-.968-1.406c-.233-.556-.35-1.186-.35-1.89 0-.694.117-1.324.35-1.891a4.304 4.304 0 0 1 .959-1.452c.406-.4.888-.71 1.443-.932a4.832 4.832 0 0 1 1.803-.331c.597 0 1.15.098 1.658.296.508.197.948.49 1.318.878.37.388.66.872.87 1.451.21.58.314 1.258.314 2.034Zm7.316 3.1h-.054c-.215.382-.562.696-1.04.94-.478.246-1.022.368-1.632.368-.346 0-.708-.044-1.085-.134a3.23 3.23 0 0 1-1.04-.448 2.606 2.606 0 0 1-.789-.824c-.209-.34-.314-.762-.314-1.264 0-.645.183-1.159.547-1.54.365-.383.834-.676 1.408-.879a7.938 7.938 0 0 1 1.91-.403c.7-.066 1.384-.099 2.053-.099v-.215c0-.537-.194-.935-.583-1.191-.388-.257-.852-.386-1.39-.386-.454 0-.89.096-1.308.287a3.524 3.524 0 0 0-1.04.699l-1.112-1.308a4.857 4.857 0 0 1 1.694-1.022 5.778 5.778 0 0 1 1.946-.34c.765 0 1.395.107 1.892.322.496.215.887.496 1.174.843.287.346.487.734.6 1.164.114.43.171.86.171 1.29v5.233h-2.008v-1.093Zm-.036-2.831h-.484c-.347 0-.711.015-1.094.045-.382.03-.735.095-1.058.197a2.26 2.26 0 0 0-.807.43c-.215.185-.323.439-.323.761 0 .203.045.374.135.511.09.137.206.248.35.332.143.083.304.143.484.179.179.036.358.054.538.054.74 0 1.303-.198 1.685-.592.383-.394.574-.932.574-1.613v-.304Zm3.914-4.677h2.062v1.433h.036c.24-.502.574-.908 1.005-1.218.43-.31.932-.466 1.506-.466.083 0 .173.003.269.009.095.006.179.02.25.045v1.97a2.545 2.545 0 0 0-.663-.09c-.49.001-.884.09-1.183.27a2.15 2.15 0 0 0-.7.645c-.167.251-.28.508-.34.77-.06.264-.09.473-.09.628v4.605h-2.152v-8.601ZM90.1 8.212v6.039h.054c.107-.143.245-.293.412-.448.168-.155.368-.299.601-.43a3.8 3.8 0 0 1 .816-.332c.31-.09.663-.134 1.058-.134a4.021 4.021 0 0 1 3.013 1.308c.37.406.657.884.86 1.434.203.55.305 1.14.305 1.774a5.29 5.29 0 0 1-.296 1.783 4.372 4.372 0 0 1-.843 1.451c-.364.412-.807.74-1.327.986-.52.245-1.108.367-1.766.367-.61 0-1.18-.131-1.712-.394a2.929 2.929 0 0 1-1.247-1.147h-.035v1.29h-2.045V8.212H90.1Zm4.931 9.21c0-.334-.05-.665-.152-.994a2.779 2.779 0 0 0-.457-.887 2.297 2.297 0 0 0-.771-.636c-.311-.161-.676-.242-1.094-.242-.395 0-.747.084-1.058.25a2.709 2.709 0 0 0-1.3 1.542 3.027 3.027 0 0 0 0 1.998c.113.329.28.624.502.887.221.263.487.475.798.636.31.162.663.242 1.058.242.418 0 .783-.084 1.094-.25.31-.168.567-.383.77-.646.204-.263.356-.561.458-.896.102-.334.152-.669.152-1.003Zm3.664-4.264h2.151v8.601h-2.151v-8.601Zm-.305-2.921c0-.347.128-.648.385-.905s.583-.385.977-.385c.395 0 .727.122.996.367s.403.552.403.923c0 .37-.134.678-.403.923a1.424 1.424 0 0 1-.996.367c-.394 0-.72-.128-.977-.385a1.238 1.238 0 0 1-.385-.905Zm3.837 4.641v-1.72h1.506v-2.491h2.116v2.49H108v1.721h-2.152v3.996c0 .382.069.699.207.95.137.25.445.376.923.376.143 0 .299-.015.466-.045.168-.03.317-.074.449-.134l.071 1.684a3.535 3.535 0 0 1-.681.17 4.802 4.802 0 0 1-.753.063c-.574 0-1.04-.08-1.399-.241a2.125 2.125 0 0 1-.852-.663 2.46 2.46 0 0 1-.43-.968 5.602 5.602 0 0 1-.117-1.174v-4.014h-1.506Z"></path></svg>