<svg xmlns="http://www.w3.org/2000/svg" width="101" height="22" fill="none" viewBox="0 0 101 22"><path fill="#4B5563" d="M14.623 1.129a2.348 2.348 0 0 0-.86-.827 2.38 2.38 0 0 0-2.321 0c-.354.198-.65.482-.86.827l-3.324 5.63a16.215 16.215 0 0 1 6.275 5.479 15.973 15.973 0 0 1 2.69 7.839H13.89c-.19-2.4-1.01-4.71-2.38-6.701a13.939 13.939 0 0 0-5.43-4.649l-3.076 5.26a8.028 8.028 0 0 1 3.117 2.45 7.907 7.907 0 0 1 1.546 3.63h-5.36A.386.386 0 0 1 2 19.873a.376.376 0 0 1-.005-.36l1.485-2.498a5.442 5.442 0 0 0-1.697-.95l-1.47 2.498a2.25 2.25 0 0 0 .854 3.117c.348.195.741.298 1.141.3h7.34a9.597 9.597 0 0 0-.872-4.849 9.716 9.716 0 0 0-3.17-3.798l1.168-1.998a11.962 11.962 0 0 1 4.03 4.64 11.81 11.81 0 0 1 1.173 6.005h6.218a17.76 17.76 0 0 0-2-9.038 17.996 17.996 0 0 0-6.29-6.848l2.36-3.996a.389.389 0 0 1 .53-.135c.268.145 10.249 17.37 10.436 17.57a.376.376 0 0 1-.15.517.388.388 0 0 1-.194.047h-2.404c.03.636.03 1.27 0 1.903h2.415a2.342 2.342 0 0 0 1.652-.67 2.291 2.291 0 0 0 .681-1.633c0-.4-.108-.794-.313-1.139L14.622 1.128Zm48.149 12.998-7.456-9.521h-1.859v12.763h1.884V7.588l7.668 9.781h1.647V4.606h-1.884v9.521ZM43.996 11.76h6.683v-1.658H43.99V6.259h7.541V4.601h-9.46v12.768h9.556v-1.658h-7.637l.005-3.952Zm-7.86-1.618c-2.601-.62-3.329-1.11-3.329-2.298 0-1.07.955-1.794 2.38-1.794a6.134 6.134 0 0 1 3.57 1.274l1.01-1.413a7.174 7.174 0 0 0-4.545-1.5c-2.556 0-4.34 1.5-4.34 3.633 0 2.298 1.516 3.092 4.274 3.756 2.455.56 3.208 1.08 3.208 2.243 0 1.164-1.01 1.883-2.571 1.883a6.272 6.272 0 0 1-4.193-1.628l-1.137 1.344a8.106 8.106 0 0 0 5.264 1.923c2.768 0 4.546-1.474 4.546-3.752-.015-1.928-1.167-2.962-4.137-3.671Zm62.692-5.535L94.943 10.6l-3.859-5.994h-2.253l5.097 7.718v5.05h1.94v-5.11L101 4.606h-2.172ZM66.18 6.334h4.228v11.04h1.94V6.334h4.228V4.606h-10.39l-.006 1.728Zm19.367 6.055c1.95-.535 3.03-1.884 3.03-3.812 0-2.453-1.813-3.996-4.737-3.996h-5.739v12.783h1.92v-4.586h3.258l3.273 4.596h2.243L85.26 12.47l.288-.08Zm-5.531-1.25V6.295h3.622c1.889 0 2.97.884 2.97 2.418 0 1.534-1.157 2.428-2.95 2.428h-3.642Z"></path></svg>