<svg width="87" height="26" viewBox="0 0 87 26" fill="none" xmlns="http://www.w3.org/2000/svg">
<g clip-path="url(#clip0_48_2437)">
<path d="M28.3781 25.6533C28.3867 25.6711 28.3908 25.6909 28.3898 25.7107C28.3888 25.7305 28.3828 25.7498 28.3725 25.7666C28.3621 25.7835 28.3476 25.7974 28.3304 25.8071C28.3132 25.8168 28.2938 25.8219 28.2741 25.822H12.941C5.76347 25.822 0 20.0957 0 12.911C0 5.72625 5.76347 0 12.941 0C20.1186 0 25.8805 5.72625 25.8805 12.911C25.8838 14.6263 25.5472 16.3251 24.8902 17.908C24.8745 17.9458 24.8479 17.978 24.8139 18.0005C24.7799 18.023 24.74 18.0349 24.6993 18.0345H18.8473C18.824 18.0347 18.8011 18.0283 18.7813 18.0159C18.7615 18.0035 18.7456 17.9857 18.7355 17.9646C18.7254 17.9434 18.7215 17.9198 18.7242 17.8965C18.727 17.8732 18.7363 17.8512 18.7511 17.833C19.853 16.4337 20.4472 14.6978 20.4352 12.9126C20.4352 8.60889 17.1476 5.19375 12.941 5.19375C8.73446 5.19375 5.44526 8.60733 5.44526 12.911C5.44526 17.2147 9.07595 20.6298 13.2841 20.6298H25.7206C25.7688 20.6298 25.816 20.6434 25.8569 20.6691C25.8978 20.6948 25.9307 20.7315 25.9519 20.775L28.3781 25.6533Z" fill="#4B5563"></path>
<path d="M31.0729 15.6H33.9616L35.3912 20.7141C35.475 21.0368 35.5573 21.3601 35.638 21.6838C35.7187 22.0076 35.787 22.3017 35.8429 22.5661C35.9102 22.8784 35.9718 23.1777 36.0276 23.464H36.0556C36.113 23.1798 36.1735 22.88 36.2403 22.5661C36.2962 22.3006 36.3598 22.0065 36.4312 21.6838C36.5026 21.3611 36.5854 21.0379 36.6796 20.7141L38.1092 15.6H41.0414V25.786H39.1306V19.9458C39.1306 19.7366 39.1306 19.5117 39.1306 19.2681C39.1306 19.0245 39.1461 18.7996 39.1647 18.5779C39.174 18.3311 39.188 18.0844 39.2082 17.8377H39.1787C39.1321 18.0751 39.0855 18.3062 39.0374 18.5341C38.9909 18.734 38.9391 18.9422 38.8822 19.1588C38.831 19.3774 38.7813 19.582 38.727 19.7709L36.9854 25.7829H35.0373L33.3391 19.7709C33.2817 19.582 33.2305 19.3774 33.1839 19.1588C33.1374 18.9402 33.0892 18.7309 33.0427 18.5341C32.9961 18.3077 32.948 18.0751 32.9014 17.8377H32.8735C32.8828 18.0844 32.8968 18.3311 32.9154 18.5779C32.9247 18.7965 32.934 19.026 32.9433 19.2681C32.9526 19.5101 32.9573 19.7366 32.9573 19.9458V25.786H31.0729V15.6Z" fill="#4B5563"></path>
<path d="M45.5738 26C45.0238 26.01 44.4775 25.9085 43.9673 25.7017C43.5204 25.5184 43.1183 25.2401 42.7882 24.886C42.4582 24.5319 42.208 24.1102 42.0549 23.6498C41.8865 23.1592 41.8025 22.6432 41.8065 22.1242C41.8025 21.6088 41.8903 21.0968 42.0658 20.6126C42.2293 20.1617 42.4799 19.7477 42.8031 19.3946C43.1327 19.0382 43.5328 18.7552 43.9776 18.5637C44.4224 18.3722 44.9022 18.2765 45.386 18.2827C45.9183 18.2717 46.4463 18.3816 46.9305 18.6044C47.3689 18.8133 47.7523 19.123 48.0496 19.5086C48.3639 19.9233 48.5968 20.3944 48.7357 20.8968C48.8973 21.4787 48.9763 22.0806 48.9701 22.6848H43.7049C43.7482 23.1816 43.949 23.6513 44.2777 24.0246C44.5882 24.3473 45.0155 24.5087 45.5599 24.5087C45.8797 24.5252 46.1967 24.4406 46.4664 24.2666C46.6941 24.104 46.8669 23.8751 46.9615 23.6108H48.8599C48.7921 23.9358 48.6698 24.2468 48.4982 24.5305C48.3192 24.8238 48.0889 25.082 47.8184 25.2926C47.522 25.5208 47.1892 25.6966 46.8342 25.8126C46.4273 25.9452 46.0016 26.0101 45.5738 26.0047M45.4186 19.7787C44.9074 19.7787 44.5204 19.9187 44.2575 20.1988C43.9734 20.5206 43.7908 20.9201 43.7329 21.3465H46.9615C46.9499 20.9244 46.7841 20.5214 46.4959 20.2144C46.355 20.0694 46.1856 19.9558 45.9985 19.8807C45.8113 19.8057 45.6106 19.771 45.4093 19.7787" fill="#4B5563"></path>
<path d="M49.0152 18.478H50.0211V16.1981H51.904V18.478H53.1458V19.76H51.904V23.6358C51.904 23.9107 51.9707 24.1043 52.1026 24.2058C52.2542 24.3164 52.4388 24.3715 52.6258 24.362H52.9936C53.0601 24.362 53.1265 24.3573 53.1923 24.3479V25.7658C53.0976 25.7752 52.9936 25.7799 52.8819 25.7799C52.7701 25.7799 52.649 25.7939 52.4985 25.7939H51.9893C51.7533 25.7944 51.5179 25.7683 51.2877 25.7158C51.0613 25.6666 50.847 25.5721 50.6575 25.4379C50.4607 25.2988 50.3008 25.1133 50.1918 24.8976C50.0655 24.6307 50.0048 24.3372 50.0149 24.0418V19.76H49.009L49.0152 18.478Z" fill="#4B5563"></path>
<path d="M55.7131 19.646H55.755C55.9298 19.2833 56.1815 18.9635 56.4923 18.709C56.7972 18.4904 57.166 18.3805 57.5401 18.3967C57.6933 18.3908 57.8464 18.4103 57.9933 18.4545V20.1441H57.9498C57.3186 20.0785 56.8012 20.2164 56.3976 20.5579C55.994 20.8994 55.7912 21.4548 55.7891 22.2241V25.786H53.8628V18.4779H55.7177L55.7131 19.646Z" fill="#4B5563"></path>
<path d="M58.5459 15.6H60.4707V17.3333H58.5459V15.6ZM58.5459 18.4779H60.4707V25.786H58.5459V18.4779Z" fill="#4B5563"></path>
<path d="M64.8045 26C64.2721 26.0089 63.7436 25.9068 63.2523 25.7002C62.8101 25.5126 62.4119 25.2339 62.0835 24.8819C61.7582 24.5263 61.5055 24.1098 61.3399 23.6561C61.1634 23.1705 61.0751 22.6569 61.0792 22.1398C61.0745 21.6227 61.1606 21.1089 61.3337 20.622C61.493 20.1689 61.7411 19.7526 62.0633 19.3977C62.3827 19.0482 62.7706 18.769 63.2026 18.5779C63.6761 18.3719 64.1878 18.2697 64.7036 18.2781C65.1366 18.2721 65.5674 18.3396 65.978 18.4779C66.3361 18.5997 66.6695 18.7854 66.9622 19.0261C67.2416 19.259 67.4726 19.545 67.642 19.8677C67.822 20.2094 67.9442 20.5788 68.0037 20.9608H66.1255C66.0674 20.6509 65.9111 20.3682 65.68 20.1551C65.4374 19.9371 65.1202 19.8224 64.7952 19.8349C64.2106 19.8349 63.7718 20.0432 63.4789 20.4596C63.1861 20.876 63.0396 21.4387 63.0396 22.1476C63.0396 22.8409 63.1788 23.3989 63.4572 23.8216C63.7356 24.2443 64.1723 24.4556 64.7673 24.4556C65.1188 24.4678 65.4637 24.3575 65.7436 24.1433C66.0176 23.9046 66.1898 23.5692 66.2248 23.2064H68.0798C68.0314 23.9644 67.6885 24.6728 67.1251 25.1786C66.8302 25.4401 66.489 25.6435 66.1193 25.7782C65.6992 25.9298 65.2555 26.0044 64.8092 25.9984" fill="#4B5563"></path>
<path d="M41.968 12.4785L40.3133 10.6265C41.1942 9.53653 41.6687 8.17101 41.6544 6.7663C41.6544 4.03981 39.8926 1.05566 36.0415 1.05566C32.1904 1.05566 30.424 4.03981 30.424 6.7663C30.424 9.49278 32.1702 12.4785 36.0353 12.4785C37.0563 12.5003 38.0651 12.2527 38.9613 11.7602L39.6101 12.4785H41.968ZM36.0415 10.4828C33.7861 10.4828 32.6095 8.63861 32.6095 6.7663C32.6095 4.89398 33.7644 3.1466 36.0415 3.1466C38.4133 3.1466 39.4751 4.89554 39.4751 6.7663C39.4908 7.55989 39.2854 8.34207 38.8821 9.02431L38.1448 8.19825H35.7373L37.541 10.1924C37.0663 10.3918 36.5559 10.4907 36.0415 10.4828Z" fill="#4B5563"></path>
<path d="M47.2767 11.8678V11.0059H47.2332C47.0083 11.3214 46.7215 11.5872 46.3903 11.7866C46.0081 11.9881 45.5796 12.084 45.1485 12.0646C44.3362 12.0646 43.7153 11.8272 43.2858 11.3525C42.8564 10.8778 42.6391 10.2365 42.6339 9.42868V4.55193H44.5494V9.09607C44.5256 9.44842 44.6286 9.79761 44.8396 10.0799C45.0321 10.3078 45.3364 10.4218 45.7524 10.4218C45.9543 10.431 46.1557 10.3935 46.3411 10.3123C46.5265 10.2311 46.6909 10.1083 46.8219 9.95337C47.091 9.61746 47.2295 9.19452 47.2115 8.76346V4.54724H49.1378V11.8678H47.2767Z" fill="#4B5563"></path>
<path d="M54.6685 11.8678C54.5998 11.7641 54.5518 11.648 54.5272 11.5258C54.4881 11.3718 54.4596 11.2153 54.4418 11.0574H54.4139C54.3202 11.1982 54.2131 11.3294 54.0941 11.4493C53.9697 11.5748 53.8268 11.6801 53.6704 11.7616C53.4844 11.8492 53.2884 11.9132 53.0867 11.9522C52.8215 12.0092 52.5508 12.036 52.2796 12.0318C51.5345 12.0318 50.9255 11.8418 50.4526 11.4618C49.9869 11.0808 49.7448 10.5249 49.7448 9.79407C49.7339 9.44341 49.8119 9.09574 49.9714 8.78374C50.1206 8.5088 50.3336 8.27416 50.5923 8.09978C50.878 7.90937 51.1925 7.76697 51.5236 7.67816C51.8979 7.57485 52.2785 7.49661 52.663 7.44392C53.1135 7.39033 53.5589 7.29999 53.9948 7.17377C54.1187 7.14493 54.2288 7.07375 54.3063 6.97238C54.3839 6.87101 54.4241 6.74571 54.4201 6.61786C54.4232 6.49479 54.3966 6.37281 54.3425 6.26237C54.2885 6.15194 54.2086 6.05637 54.1097 5.98386C53.9027 5.82666 53.5979 5.74807 53.1954 5.74807C52.7421 5.74807 52.4022 5.83135 52.1756 5.99792C52.0576 6.09076 51.962 6.20919 51.8959 6.34438C51.8298 6.47957 51.7949 6.62803 51.7937 6.7787H50.0863C50.092 6.46015 50.1622 6.14612 50.2927 5.85581C50.4283 5.56161 50.6265 5.30094 50.8732 5.09221C51.1586 4.85788 51.485 4.67938 51.8356 4.56596C52.28 4.4265 52.744 4.36109 53.2094 4.37233C54.2959 4.37233 55.0772 4.60761 55.5533 5.07816C56.0293 5.54871 56.2678 6.21133 56.2688 7.06602V10.7747C56.2688 11.3265 56.3537 11.6638 56.5234 11.7866V11.8678H54.6685ZM52.7421 10.6857C52.9907 10.6901 53.2379 10.6488 53.4717 10.5639C53.6684 10.4931 53.8508 10.3873 54.0103 10.2516C54.151 10.1297 54.2642 9.97906 54.3425 9.80969C54.4176 9.64676 54.4563 9.46927 54.4558 9.28969V8.19659C54.2627 8.3112 54.0533 8.39546 53.8349 8.44644C53.5943 8.50891 53.3506 8.56668 53.1054 8.62446C52.7098 8.69703 52.328 8.83139 51.9738 9.02266C51.851 9.10085 51.7517 9.21122 51.6866 9.34191C51.6216 9.4726 51.5931 9.61866 51.6044 9.7644C51.6044 10.1059 51.7078 10.3458 51.9148 10.4843C52.1626 10.6323 52.4481 10.704 52.7359 10.6904" fill="#4B5563"></path>
<path d="M59.0877 5.54819H59.1296C59.345 5.17941 59.6493 4.87115 60.0144 4.65186C60.3678 4.47188 60.7555 4.37038 61.1513 4.35422C61.5472 4.33805 61.9418 4.4076 62.3086 4.55816C62.6072 4.69067 62.8748 4.88486 63.094 5.12813C63.3174 5.37998 63.4908 5.67259 63.6047 5.99011C63.7304 6.34053 63.7929 6.71069 63.7894 7.08321V11.8678H61.8631V7.3721C61.8791 7.01965 61.7627 6.67405 61.5371 6.40393C61.4182 6.27747 61.2732 6.17879 61.1123 6.11484C60.9514 6.0509 60.7785 6.02324 60.6058 6.03384C60.4065 6.02973 60.2088 6.06954 60.0264 6.15047C59.8441 6.2314 59.6816 6.35148 59.5502 6.50231C59.2619 6.83998 59.1126 7.27563 59.1327 7.72032V11.8678H57.2032V4.55192H59.0877V5.54819Z" fill="#4B5563"></path>
<path d="M64.1293 4.55197H65.1336V2.27209H67.018V4.55197H68.2598V5.83402H67.018V9.70825C67.018 9.98465 67.0832 10.1767 67.2152 10.2782C67.3674 10.3886 67.5524 10.4437 67.7398 10.4344H68.1077C68.1742 10.4344 68.2406 10.4297 68.3064 10.4203V11.8445C68.2112 11.8538 68.1077 11.8585 67.996 11.8585C67.8842 11.8585 67.7569 11.8632 67.6141 11.8726H67.1034C66.8679 11.8731 66.6331 11.8469 66.4034 11.7945C66.1768 11.7455 65.9624 11.651 65.7732 11.5165C65.5765 11.3773 65.4166 11.1918 65.3075 10.9762C65.1811 10.7094 65.1204 10.4159 65.1305 10.1205V5.83402H64.1262L64.1293 4.55197Z" fill="#4B5563"></path>
<path d="M73.5608 11.8678V11.0059H73.5173C73.2926 11.321 73.0063 11.5867 72.676 11.7866C72.2937 11.988 71.8653 12.0839 71.4342 12.0646C70.6229 12.0646 70.002 11.8272 69.5715 11.3525C69.141 10.8778 68.9237 10.235 68.9196 9.424V4.55193H70.8319V9.09607C70.8081 9.44842 70.9112 9.79761 71.1222 10.0799C71.3147 10.3078 71.6205 10.4218 72.0349 10.4218C72.2369 10.431 72.4383 10.3935 72.6236 10.3123C72.809 10.2311 72.9734 10.1083 73.1044 9.95337C73.3735 9.61746 73.512 9.19452 73.494 8.76346V4.54724H75.4203V11.8678H73.5608Z" fill="#4B5563"></path>
<path d="M76.3781 4.55201H78.2407V5.53423H78.2827C78.4884 5.19433 78.7694 4.90682 79.1038 4.69411C79.4907 4.45579 79.9387 4.33688 80.3921 4.35213C80.824 4.34341 81.2484 4.46526 81.6107 4.70192C81.9576 4.93269 82.2326 5.25751 82.4039 5.63886H82.424C82.6555 5.25612 82.9749 4.93482 83.3554 4.70192C83.733 4.47251 84.1669 4.35405 84.608 4.35994C85.3738 4.35994 85.9642 4.59053 86.3791 5.05171C86.7941 5.51289 87.0011 6.14689 87 6.95369V11.8679H85.0737V7.27225C85.0737 6.85584 84.977 6.54352 84.7834 6.33532C84.6748 6.22766 84.5448 6.14421 84.402 6.0904C84.2592 6.03659 84.1068 6.01363 83.9545 6.023C83.7727 6.01454 83.5914 6.04945 83.4255 6.1249C83.2596 6.20034 83.1138 6.31418 82.9999 6.45712C82.7533 6.79136 82.6303 7.20169 82.6522 7.61736V11.8679H80.7259V7.27225C80.7259 6.85584 80.6291 6.54352 80.4356 6.33532C80.327 6.22766 80.197 6.14421 80.0542 6.0904C79.9114 6.03659 79.7589 6.01363 79.6067 6.023C79.4259 6.01603 79.246 6.05165 79.0814 6.12702C78.9167 6.20239 78.7718 6.31543 78.6583 6.45712C78.4083 6.78991 78.283 7.20076 78.3044 7.61736V11.8679H76.3781V4.55201Z" fill="#4B5563"></path>
</g>
<defs>
<clipPath id="clip0_48_2437">
<rect width="87" height="26" fill="white"></rect>
</clipPath>
</defs>
</svg>