<svg width="123" height="22" viewBox="0 0 123 22" fill="none" xmlns="http://www.w3.org/2000/svg">
<g clip-path="url(#clip0_1662_20677)">
<mask id="mask0_1662_20677" style="mask-type:luminance" maskUnits="userSpaceOnUse" x="0" y="0" width="123" height="22">
<path d="M122.931 0H0V22H122.931V0Z" fill="white"></path>
</mask>
<g mask="url(#mask0_1662_20677)">
<path d="M33.9918 16.0026C32.9981 16.0026 32.1649 15.7654 31.492 15.291C30.8191 14.8166 30.3128 14.1715 29.9733 13.3555C29.6337 12.5332 29.4639 11.6129 29.4639 10.5946C29.4639 9.56359 29.6337 8.6401 29.9733 7.82412C30.3128 7.00817 30.8096 6.36617 31.4637 5.89811C32.124 5.42371 32.9384 5.18652 33.9069 5.18652C34.869 5.18652 35.7023 5.42371 36.4066 5.89811C37.1173 6.36617 37.6675 7.00817 38.0574 7.82412C38.4473 8.63372 38.6423 9.55721 38.6423 10.5946C38.6423 11.6193 38.4504 12.5395 38.0669 13.3555C37.6832 14.1715 37.1424 14.8166 36.4444 15.291C35.7463 15.7654 34.9288 16.0026 33.9918 16.0026ZM29.0771 20.2721V5.47115H31.0863V12.6629H31.3694V20.2721H29.0771ZM33.6427 13.9532C34.2339 13.9532 34.7212 13.8046 35.1049 13.5073C35.4885 13.21 35.7715 12.8084 35.9538 12.3024C36.1425 11.79 36.2368 11.2208 36.2368 10.5946C36.2368 9.97469 36.1425 9.41171 35.9538 8.90571C35.7652 8.3934 35.4728 7.9886 35.0766 7.69131C34.6804 7.38771 34.1773 7.23588 33.5673 7.23588C32.9887 7.23588 32.5171 7.37818 32.1523 7.66286C31.7876 7.94116 31.5172 8.33327 31.3411 8.83934C31.1713 9.33904 31.0863 9.92409 31.0863 10.5946C31.0863 11.2587 31.1713 11.8438 31.3411 12.3498C31.5172 12.8558 31.7907 13.2512 32.1618 13.5358C32.5391 13.8141 33.0328 13.9532 33.6427 13.9532Z" fill="#4B5563"></path>
<path d="M45.3529 16.0026C44.3216 16.0026 43.416 15.7781 42.6362 15.329C41.8564 14.8799 41.2464 14.2568 40.8061 13.4599C40.3723 12.6629 40.1553 11.7458 40.1553 10.7084C40.1553 9.58888 40.3691 8.61795 40.7967 7.79566C41.2244 6.96706 41.8187 6.32505 42.5796 5.86964C43.3405 5.41422 44.2209 5.18652 45.2209 5.18652C46.2773 5.18652 47.1735 5.43636 47.9093 5.93606C48.6513 6.42942 49.2016 7.12835 49.5601 8.03282C49.9185 8.93739 50.0537 10.0031 49.9657 11.2302H47.7112V10.3953C47.7049 9.28206 47.51 8.46931 47.1263 7.95693C46.7427 7.44462 46.139 7.18844 45.3152 7.18844C44.3844 7.18844 43.6927 7.47938 43.2399 8.06135C42.7871 8.63694 42.5607 9.48131 42.5607 10.5946C42.5607 11.6319 42.7871 12.4352 43.2399 13.0045C43.6927 13.5737 44.353 13.8584 45.2209 13.8584C45.7805 13.8584 46.2616 13.735 46.6641 13.4883C47.0729 13.2353 47.3873 12.8717 47.6075 12.3973L49.8525 13.0804C49.4626 14.0038 48.8589 14.7218 48.0413 15.2341C47.2301 15.7464 46.3339 16.0026 45.3529 16.0026ZM41.8438 11.2302V9.50345H48.8526V11.2302H41.8438Z" fill="#4B5563"></path>
<path d="M58.8408 15.7186V10.785C58.8408 10.4624 58.8188 10.105 58.7747 9.71293C58.7307 9.32074 58.6269 8.9444 58.4634 8.58382C58.3062 8.217 58.0673 7.91656 57.7465 7.68248C57.4321 7.44847 57.0045 7.33146 56.4636 7.33146C56.1743 7.33146 55.8882 7.37888 55.6052 7.47377C55.3222 7.56866 55.0644 7.73308 54.8317 7.96716C54.6053 8.19486 54.4229 8.51114 54.2846 8.91594C54.1462 9.31444 54.077 9.82674 54.077 10.4529L52.7281 9.87419C52.7281 9.0013 52.8948 8.21062 53.2281 7.50222C53.5677 6.79382 54.0645 6.23087 54.7185 5.81342C55.3725 5.38962 56.1775 5.17773 57.1334 5.17773C57.888 5.17773 58.5106 5.30423 59.0011 5.55724C59.4917 5.81025 59.8815 6.13283 60.1708 6.525C60.4601 6.91716 60.6739 7.33466 60.8123 7.77737C60.9506 8.22016 61.0387 8.6408 61.0764 9.03929C61.1204 9.4314 61.1424 9.75084 61.1424 9.99754V15.7186H58.8408ZM51.7754 15.7186V5.47185H53.8035V8.65026H54.077V15.7186H51.7754Z" fill="#4B5563"></path>
<path d="M70.6504 15.7186V10.785C70.6504 10.4624 70.6283 10.105 70.5843 9.71293C70.5403 9.32074 70.4365 8.9444 70.273 8.58382C70.1158 8.217 69.8768 7.91656 69.5561 7.68248C69.2417 7.44847 68.814 7.33146 68.2732 7.33146C67.9839 7.33146 67.6978 7.37888 67.4148 7.47377C67.1318 7.56866 66.874 7.73308 66.6413 7.96716C66.4149 8.19486 66.2325 8.51114 66.0942 8.91594C65.9558 9.31444 65.8867 9.82674 65.8867 10.4529L64.5377 9.87419C64.5377 9.0013 64.7044 8.21062 65.0376 7.50222C65.3772 6.79382 65.8741 6.23087 66.5281 5.81342C67.1821 5.38962 67.9871 5.17773 68.9429 5.17773C69.6976 5.17773 70.3202 5.30423 70.8107 5.55724C71.3012 5.81025 71.6912 6.13283 71.9804 6.525C72.2697 6.91716 72.4835 7.33466 72.6219 7.77737C72.7602 8.22016 72.8482 8.6408 72.886 9.03929C72.9301 9.4314 72.952 9.75084 72.952 9.99754V15.7186H70.6504ZM63.585 15.7186V5.47185H65.6131V8.65026H65.8867V15.7186H63.585Z" fill="#4B5563"></path>
<path d="M76.3846 20.2726L78.3467 14.8551L78.3846 16.4491L73.9414 5.47168H76.3095L79.46 13.5932H78.8563L81.9222 5.47168H84.1955L78.5165 20.2726H76.3846Z" fill="#4B5563"></path>
<path d="M85.791 15.7185V1.77148H88.0644V15.7185H85.791Z" fill="#4B5563"></path>
<path d="M93.7389 16.0026C93.0032 16.0026 92.3805 15.8634 91.8709 15.5851C91.3613 15.3005 90.9748 14.9242 90.7109 14.4561C90.4528 13.988 90.3237 13.4725 90.3237 12.9096C90.3237 12.4162 90.4054 11.9735 90.5694 11.5813C90.7328 11.1828 90.9843 10.8413 91.3241 10.5566C91.6631 10.2657 92.1035 10.0284 92.6445 9.84504C93.0535 9.71216 93.5311 9.59204 94.0779 9.48446C94.6313 9.37695 95.2292 9.27891 95.8708 9.19039C96.5182 9.0955 97.1941 8.9943 97.8984 8.88679L97.0876 9.35165C97.0935 8.64325 96.9367 8.12141 96.6159 7.7862C96.2951 7.45092 95.7541 7.28332 94.9929 7.28332C94.5343 7.28332 94.091 7.39086 93.663 7.60588C93.2358 7.82096 92.9368 8.191 92.767 8.716L90.6919 8.06135C90.9435 7.19476 91.421 6.499 92.1254 5.97401C92.8362 5.44901 93.7921 5.18652 94.9929 5.18652C95.8985 5.18652 96.6947 5.33516 97.38 5.63245C98.0712 5.92973 98.5838 6.41677 98.9177 7.09356C99.1 7.45408 99.2101 7.82412 99.2472 8.20362C99.2852 8.57681 99.3041 8.98477 99.3041 9.42755V15.7179H97.3137V13.4978L97.6439 13.8584C97.1846 14.5984 96.6473 15.1423 96.0312 15.4902C95.4209 15.8318 94.6568 16.0026 93.7389 16.0026ZM94.1916 14.1809C94.7071 14.1809 95.1475 14.0892 95.512 13.9058C95.8766 13.7224 96.1661 13.4978 96.3797 13.2322C96.5999 12.9665 96.7479 12.7166 96.823 12.4826C96.9425 12.1917 97.0089 11.8596 97.0213 11.4864C97.0402 11.1069 97.0497 10.8001 97.0497 10.5661L97.7475 10.7748C97.0621 10.8823 96.4745 10.9772 95.9838 11.0594C95.4931 11.1417 95.0717 11.2208 94.7195 11.2967C94.3673 11.3663 94.056 11.4453 93.7855 11.5338C93.5216 11.6287 93.2985 11.7394 93.1162 11.866C92.9339 11.9925 92.7925 12.1379 92.6919 12.3024C92.5971 12.4669 92.5504 12.6597 92.5504 12.8811C92.5504 13.1341 92.6131 13.3587 92.7385 13.5548C92.8647 13.7445 93.0469 13.8963 93.2861 14.0102C93.5311 14.124 93.8329 14.1809 94.1916 14.1809Z" fill="#4B5563"></path>
<path d="M108.806 15.7186V10.785C108.806 10.4624 108.785 10.105 108.74 9.71293C108.696 9.32074 108.593 8.9444 108.429 8.58382C108.272 8.217 108.033 7.91656 107.712 7.68248C107.398 7.44847 106.97 7.33146 106.43 7.33146C106.14 7.33146 105.854 7.37888 105.571 7.47377C105.288 7.56866 105.03 7.73308 104.797 7.96716C104.571 8.19486 104.389 8.51114 104.25 8.91594C104.112 9.31444 104.043 9.82674 104.043 10.4529L102.694 9.87419C102.694 9.0013 102.861 8.21062 103.194 7.50222C103.534 6.79382 104.03 6.23087 104.684 5.81342C105.338 5.38962 106.143 5.17773 107.099 5.17773C107.854 5.17773 108.476 5.30423 108.967 5.55724C109.458 5.81025 109.847 6.13283 110.136 6.525C110.426 6.91716 110.639 7.33466 110.778 7.77737C110.917 8.22016 111.004 8.6408 111.042 9.03929C111.086 9.4314 111.108 9.75084 111.108 9.99754V15.7186H108.806ZM101.741 15.7186V5.47185H103.769V8.65026H104.043V15.7186H101.741Z" fill="#4B5563"></path>
<path d="M118.036 16.0026C117.005 16.0026 116.098 15.7781 115.319 15.329C114.539 14.8799 113.929 14.2568 113.489 13.4599C113.055 12.6629 112.838 11.7458 112.838 10.7084C112.838 9.58888 113.052 8.61795 113.48 7.79566C113.907 6.96706 114.502 6.32505 115.262 5.86964C116.023 5.41422 116.904 5.18652 117.904 5.18652C118.96 5.18652 119.856 5.43636 120.592 5.93606C121.334 6.42942 121.885 7.12835 122.243 8.03282C122.601 8.93739 122.736 10.0031 122.649 11.2302H120.394V10.3953C120.388 9.28206 120.193 8.46931 119.809 7.95693C119.425 7.44462 118.822 7.18844 117.998 7.18844C117.067 7.18844 116.376 7.47938 115.923 8.06135C115.47 8.63694 115.243 9.48131 115.243 10.5946C115.243 11.6319 115.47 12.4352 115.923 13.0045C116.376 13.5737 117.036 13.8584 117.904 13.8584C118.464 13.8584 118.944 13.735 119.347 13.4883C119.756 13.2353 120.07 12.8717 120.29 12.3973L122.535 13.0804C122.146 14.0038 121.542 14.7218 120.724 15.2341C119.913 15.7464 119.017 16.0026 118.036 16.0026ZM114.526 11.2302V9.50345H121.535V11.2302H114.526Z" fill="#4B5563"></path>
<path d="M10.9469 14.6761C10.305 15.0524 9.57572 15.252 8.83261 15.2546C8.08958 15.2571 7.35909 15.0626 6.71473 14.6908C6.07034 14.3189 5.53494 13.7828 5.16265 13.1365C4.79037 12.4903 4.59424 11.7568 4.59424 11.0101C4.59424 10.2634 4.79037 9.52986 5.16265 8.88365C5.53494 8.23736 6.07034 7.7013 6.71473 7.3294C7.35909 6.95753 8.08958 6.76307 8.83261 6.76565C9.57572 6.76822 10.305 6.96773 10.9469 7.34409C10.3093 7.71787 9.78045 8.25306 9.41283 8.89634C9.04522 9.53954 8.85179 10.2683 8.85179 11.0101C8.85179 11.7519 9.04522 12.4806 9.41283 13.1239C9.78045 13.7671 10.3093 14.3023 10.9469 14.6761Z" fill="#4B5563"></path>
<path d="M17.3052 11.0087C17.3057 11.5664 17.1969 12.1188 16.9849 12.6342C16.7729 13.1496 16.4617 13.6179 16.0695 14.0124C15.6772 14.407 15.2114 14.72 14.6987 14.9335C14.186 15.1471 13.6364 15.257 13.0814 15.257C12.331 15.2595 11.5941 15.0577 10.9487 14.6729C11.5853 14.2983 12.1133 13.7628 12.4801 13.1197C12.8471 12.4765 13.0401 11.7481 13.0401 11.0068C13.0401 10.2655 12.8471 9.53705 12.4801 8.89392C12.1133 8.25086 11.5853 7.71538 10.9487 7.34079C11.5911 6.96584 12.3205 6.76748 13.0635 6.76564C13.8065 6.7638 14.5368 6.95856 15.181 7.33032C15.8253 7.7021 16.3608 8.23773 16.7337 8.88343C17.1066 9.5292 17.3037 10.2622 17.3052 11.0087Z" fill="#4B5563"></path>
<path d="M10.9466 22C8.78156 22 6.66525 21.3549 4.86509 20.1461C3.06494 18.9375 1.66182 17.2195 0.833301 15.2095C0.00477746 13.1995 -0.212048 10.9878 0.210328 8.85397C0.632704 6.72022 1.67539 4.76021 3.2063 3.22184C4.73721 1.68346 6.68757 0.635804 8.81101 0.211367C10.9345 -0.213071 13.1354 0.00476678 15.1356 0.837327C17.1359 1.6699 18.8456 3.07979 20.0484 4.88873C21.2512 6.69766 21.8932 8.82442 21.8932 11C21.8932 13.9174 20.74 16.7152 18.6871 18.7782C16.6342 20.841 13.8498 22 10.9466 22ZM10.9466 2.27588C9.22952 2.27588 7.55112 2.78752 6.12338 3.74615C4.69567 4.70477 3.58288 6.06729 2.92577 7.66143C2.26868 9.25555 2.09665 11.0097 2.43164 12.702C2.76663 14.3943 3.59361 15.9488 4.80778 17.1689C6.02194 18.389 7.56891 19.2199 9.253 19.5565C10.9371 19.8931 12.6826 19.7204 14.269 19.0601C15.8554 18.3998 17.2113 17.2815 18.1653 15.8469C19.1193 14.4122 19.6284 12.7255 19.6284 11C19.6274 8.68692 18.7122 6.46883 17.0842 4.83356C15.4561 3.19829 13.2485 2.27965 10.9466 2.27965V2.27588Z" fill="#4B5563"></path>
</g>
</g>
<defs>
<clipPath id="clip0_1662_20677">
<rect width="123" height="22" fill="white"></rect>
</clipPath>
</defs>
</svg>