<svg width="78" height="18" viewBox="0 0 78 18" fill="none" xmlns="http://www.w3.org/2000/svg">
<g clip-path="url(#clip0_1662_20703)">
<path d="M38.0142 4.79133C36.4411 4.79133 34.8854 5.47074 33.7023 6.81191V0.211914H31.3579V11.3252C31.3579 14.934 34.2632 17.859 37.8477 17.859C41.4322 17.859 44.3375 14.934 44.3375 11.3252C44.3375 7.71633 41.5987 4.79133 38.0142 4.79133ZM37.8433 15.3399C35.6391 15.3399 33.8557 13.5399 33.8557 11.3252C33.8557 9.11044 35.6435 7.31044 37.8433 7.31044C40.0475 7.31044 41.8309 9.11044 41.8309 11.3252C41.8309 13.5399 40.0475 15.3399 37.8433 15.3399Z" fill="#4B5563"></path>
<path d="M52.5494 4.79133C50.9762 4.79133 49.4206 5.47074 48.2374 6.81191V0.211914H45.8931V11.3252C45.8931 14.934 48.7983 17.859 52.3828 17.859C55.9673 17.859 58.8726 14.934 58.8726 11.3252C58.8726 7.71633 56.1295 4.79133 52.5494 4.79133ZM52.3785 15.3399C50.1743 15.3399 48.3908 13.5399 48.3908 11.3252C48.3908 9.11044 50.1787 7.31044 52.3785 7.31044C54.5826 7.31044 56.3661 9.11044 56.3661 11.3252C56.3661 13.5399 54.5826 15.3399 52.3785 15.3399Z" fill="#4B5563"></path>
<path d="M18.1592 12.4681V5.14453H20.6745V12.446C20.6745 14.3122 21.7481 15.5078 23.5578 15.5078C25.3895 15.5078 26.4412 14.3563 26.4412 12.446V5.14453H28.9784V12.4681C28.9784 15.8519 26.9408 17.8548 23.5578 17.8548C20.2625 17.8592 18.1592 15.7857 18.1592 12.4681Z" fill="#4B5563"></path>
<path d="M63.4079 17.559H60.8926V0.211914H63.4079V17.559Z" fill="#4B5563"></path>
<path d="M77.6496 12.3305H68.0223C68.3904 14.2629 69.7357 15.5776 72.1151 15.5776C73.5086 15.5776 75.2045 15.0482 76.3 14.2408L77.3517 16.107C76.094 17.0511 74.1046 17.832 72.0231 17.832C67.4045 17.832 65.415 14.5849 65.415 11.3158C65.415 9.44963 65.9847 7.90993 67.1547 6.68787C68.3203 5.46581 69.854 4.84375 71.7076 4.84375C73.4692 4.84375 74.9328 5.39522 76.0546 6.52463C77.1764 7.65404 77.746 9.17169 77.746 11.1085C77.7373 11.457 77.7154 11.8717 77.6496 12.3305ZM68.018 10.257H75.2001C74.9941 8.29816 73.5525 7.03198 71.6989 7.03198C69.8014 7.03198 68.386 8.32463 68.018 10.257Z" fill="#4B5563"></path>
<path d="M10.1704 4.79133C8.59729 4.79133 7.04168 5.47074 5.85853 6.81191V0.211914H3.50977V11.3252C3.50977 14.934 6.41505 17.859 9.99954 17.859C13.584 17.859 16.4893 14.934 16.4893 11.3252C16.4893 7.71633 13.7506 4.79133 10.1704 4.79133ZM9.99954 15.3399C7.79538 15.3399 6.0119 13.5399 6.0119 11.3252C6.0119 9.11044 7.79977 7.31044 9.99954 7.31044C12.2037 7.31044 13.9872 9.11044 13.9872 11.3252C13.9872 13.5399 12.2037 15.3399 9.99954 15.3399Z" fill="#4B5563"></path>
<path d="M1.80548 17.8544C2.69125 17.8544 3.4093 17.1315 3.4093 16.2397C3.4093 15.3479 2.69125 14.625 1.80548 14.625C0.919715 14.625 0.20166 15.3479 0.20166 16.2397C0.20166 17.1315 0.919715 17.8544 1.80548 17.8544Z" fill="#4B5563"></path>
</g>
<defs>
<clipPath id="clip0_1662_20703">
<rect width="78" height="18" fill="white"></rect>
</clipPath>
</defs>
</svg>