<svg width="24" height="24" viewBox="0 0 24 24" fill="none" xmlns="http://www.w3.org/2000/svg">
<g clip-path="url(#clip0_2888_433)">
<path d="M5.22811 13.259C5.18828 13.3388 5.12699 13.406 5.05112 13.4529C4.97526 13.4998 4.88782 13.5247 4.79861 13.5247C4.7094 13.5247 4.62196 13.4998 4.54609 13.4529C4.47022 13.406 4.40894 13.3388 4.36911 13.259L3.94611 12.413C3.91267 12.3463 3.89526 12.2726 3.89526 12.198C3.89526 12.1234 3.91267 12.0497 3.94611 11.983L4.36911 11.137C4.40894 11.0572 4.47022 10.99 4.54609 10.9431C4.62196 10.8962 4.7094 10.8713 4.79861 10.8713C4.88782 10.8713 4.97526 10.8962 5.05112 10.9431C5.12699 10.99 5.18828 11.0572 5.22811 11.137L5.65111 11.983C5.68454 12.0497 5.70195 12.1234 5.70195 12.198C5.70195 12.2726 5.68454 12.3463 5.65111 12.413L5.22811 13.259ZM5.22811 18.057C5.18828 18.1368 5.12699 18.204 5.05112 18.2509C4.97526 18.2978 4.88782 18.3227 4.79861 18.3227C4.7094 18.3227 4.62196 18.2978 4.54609 18.2509C4.47022 18.204 4.40894 18.1368 4.36911 18.057L3.94611 17.211C3.91267 17.1443 3.89526 17.0706 3.89526 16.996C3.89526 16.9214 3.91267 16.8477 3.94611 16.781L4.36911 15.936C4.40894 15.8562 4.47022 15.789 4.54609 15.7421C4.62196 15.6952 4.7094 15.6703 4.79861 15.6703C4.88782 15.6703 4.97526 15.6952 5.05112 15.7421C5.12699 15.789 5.18828 15.8562 5.22811 15.936L5.65111 16.782C5.68454 16.8487 5.70195 16.9224 5.70195 16.997C5.70195 17.0716 5.68454 17.1453 5.65111 17.212L5.22811 18.057Z" fill="#1D4AFF"></path>
<path d="M1.451e-06 16.236C-0.000232347 16.1409 0.0277923 16.0479 0.0805193 15.9687C0.133246 15.8896 0.208299 15.8279 0.296153 15.7914C0.384007 15.755 0.480702 15.7455 0.573968 15.7641C0.667235 15.7827 0.752868 15.8286 0.820001 15.896L3.02 18.096C3.08737 18.1631 3.13327 18.2488 3.15189 18.342C3.17051 18.4353 3.161 18.532 3.12458 18.6198C3.08815 18.7077 3.02645 18.7828 2.94729 18.8355C2.86814 18.8882 2.77511 18.9162 2.68 18.916H0.480001C0.352698 18.916 0.230608 18.8654 0.14059 18.7754C0.0505727 18.6854 1.451e-06 18.5633 1.451e-06 18.436V16.236ZM1.451e-06 13.919C1.451e-06 14.046 0.0500014 14.168 0.140001 14.258L4.658 18.775C4.748 18.865 4.87 18.915 4.998 18.915H7.478C7.5729 18.915 7.66568 18.8869 7.74462 18.8343C7.82356 18.7816 7.88511 18.7067 7.9215 18.619C7.95788 18.5314 7.96747 18.4349 7.94905 18.3418C7.93063 18.2487 7.88502 18.1632 7.818 18.096L0.819001 11.098C0.751815 11.031 0.666269 10.9854 0.573174 10.967C0.480078 10.9485 0.383611 10.9581 0.295963 10.9945C0.208315 11.0309 0.133419 11.0924 0.0807412 11.1714C0.028063 11.2503 -3.37454e-05 11.3431 1.451e-06 11.438V13.919ZM1.451e-06 9.12C1.451e-06 9.247 0.0500014 9.37 0.140001 9.46L9.457 18.775C9.547 18.865 9.669 18.915 9.796 18.915H12.277C12.3719 18.915 12.4647 18.8869 12.5436 18.8343C12.6226 18.7816 12.6841 18.7067 12.7205 18.619C12.7569 18.5314 12.7665 18.4349 12.7481 18.3418C12.7296 18.2487 12.684 18.1632 12.617 18.096L0.819001 6.3C0.751815 6.23298 0.666269 6.18737 0.573174 6.16895C0.480078 6.15053 0.383611 6.16012 0.295963 6.19651C0.208315 6.23289 0.133419 6.29444 0.0807412 6.37338C0.028063 6.45232 -3.37454e-05 6.5451 1.451e-06 6.64V9.12ZM4.799 9.12C4.799 9.247 4.849 9.37 4.939 9.46L13.576 18.096C13.6431 18.1633 13.7286 18.2092 13.8218 18.2278C13.915 18.2465 14.0116 18.2371 14.0994 18.2008C14.1872 18.1645 14.2623 18.1029 14.3151 18.0239C14.3679 17.9449 14.396 17.852 14.396 17.757V15.276C14.3962 15.2129 14.3839 15.1504 14.3598 15.0921C14.3358 15.0337 14.3005 14.9807 14.256 14.936L5.617 6.3C5.54987 6.23263 5.46423 6.18673 5.37097 6.16811C5.2777 6.14949 5.18101 6.159 5.09315 6.19542C5.0053 6.23185 4.93025 6.29356 4.87752 6.37271C4.82479 6.45186 4.79677 6.54489 4.797 6.64V9.12H4.799ZM10.416 6.3C10.3489 6.23304 10.2634 6.18745 10.1704 6.169C10.0774 6.15055 9.98103 6.16005 9.89342 6.19631C9.80582 6.23258 9.73091 6.29397 9.67816 6.37276C9.6254 6.45154 9.59716 6.54419 9.597 6.639V9.12C9.597 9.247 9.647 9.37 9.737 9.46L13.577 13.298C13.6442 13.365 13.7297 13.4106 13.8228 13.429C13.9159 13.4475 14.0124 13.4379 14.1 13.4015C14.1877 13.3651 14.2626 13.3036 14.3153 13.2246C14.3679 13.1457 14.396 13.0529 14.396 12.958V10.478C14.3962 10.4149 14.3839 10.3524 14.3598 10.2941C14.3358 10.2357 14.3005 10.1827 14.256 10.138L10.416 6.299V6.3Z" fill="#F9BD2B"></path>
<path d="M20.412 16.295L15.894 11.777C15.8268 11.7096 15.7412 11.6637 15.6479 11.6451C15.5547 11.6265 15.458 11.636 15.3701 11.6724C15.2823 11.7088 15.2072 11.7706 15.1545 11.8497C15.1018 11.9289 15.0737 12.0219 15.074 12.117V18.436C15.074 18.701 15.289 18.916 15.554 18.916H22.554C22.6813 18.916 22.8034 18.8654 22.8934 18.7754C22.9834 18.6854 23.034 18.5633 23.034 18.436V17.86C23.034 17.595 22.817 17.384 22.554 17.35C21.7432 17.2442 20.9901 16.8733 20.412 16.295ZM17.378 17.38C17.1743 17.38 16.9789 17.2991 16.8349 17.1551C16.6909 17.011 16.61 16.8157 16.61 16.612C16.61 16.4083 16.6909 16.213 16.8349 16.0689C16.9789 15.9249 17.1743 15.844 17.378 15.844C17.5818 15.844 17.7773 15.925 17.9214 16.0691C18.0655 16.2132 18.1465 16.4087 18.1465 16.6125C18.1465 16.8163 18.0655 17.0118 17.9214 17.1559C17.7773 17.3 17.5818 17.381 17.378 17.381V17.38Z" fill="black"></path>
<path d="M1.451e-06 18.436C1.451e-06 18.701 0.215001 18.916 0.480001 18.916H2.68C2.77511 18.9162 2.86814 18.8882 2.94729 18.8355C3.02645 18.7828 3.08815 18.7077 3.12458 18.6198C3.161 18.532 3.17051 18.4353 3.15189 18.342C3.13327 18.2488 3.08737 18.1631 3.02 18.096L0.820001 15.896C0.752868 15.8286 0.667235 15.7827 0.573968 15.7641C0.480702 15.7455 0.384007 15.755 0.296153 15.7914C0.208299 15.8279 0.133246 15.8896 0.0805193 15.9687C0.0277923 16.0479 -0.000232347 16.1409 1.451e-06 16.236V18.436ZM4.799 10.278L0.819001 6.3C0.751815 6.23298 0.666269 6.18737 0.573174 6.16895C0.480078 6.15053 0.383611 6.16012 0.295963 6.1965C0.208315 6.23289 0.133419 6.29444 0.0807412 6.37338C0.028063 6.45232 -3.37454e-05 6.5451 1.451e-06 6.64V9.12C1.451e-06 9.247 0.0500014 9.37 0.140001 9.46L4.8 14.116V10.277L4.799 10.278ZM0.819001 11.098C0.751815 11.031 0.666269 10.9854 0.573174 10.967C0.480078 10.9485 0.383611 10.9581 0.295963 10.9945C0.208315 11.0309 0.133419 11.0924 0.0807412 11.1714C0.028063 11.2503 -3.37454e-05 11.3431 1.451e-06 11.438V13.918C1.451e-06 14.046 0.0500014 14.168 0.140001 14.258L4.8 18.916V15.077L0.820001 11.097L0.819001 11.098Z" fill="#1D4AFF"></path>
<path d="M9.5971 10.477C9.59725 10.4139 9.58497 10.3514 9.56094 10.2931C9.53692 10.2347 9.50163 10.1817 9.4571 10.137L5.6181 6.3C5.55096 6.23263 5.46533 6.18673 5.37206 6.16811C5.2788 6.14949 5.1821 6.159 5.09425 6.19542C5.00639 6.23185 4.93134 6.29356 4.87862 6.37271C4.82589 6.45186 4.79786 6.54489 4.7981 6.64V9.12C4.7981 9.247 4.8491 9.37 4.9391 9.46L9.5971 14.117V10.477ZM4.8001 18.916H7.4801C7.57512 18.916 7.66801 18.8879 7.74701 18.8351C7.82601 18.7823 7.88756 18.7072 7.92386 18.6194C7.96017 18.5316 7.96959 18.435 7.95094 18.3418C7.93229 18.2486 7.8864 18.1631 7.8191 18.096L4.7991 15.077V18.916H4.8001ZM4.8001 10.278V13.918C4.8001 14.046 4.8501 14.168 4.9401 14.258L9.5981 18.916V15.276C9.59825 15.2129 9.58597 15.1504 9.56194 15.0921C9.53792 15.0337 9.50263 14.9807 9.4581 14.936L4.8001 10.278Z" fill="#F54E00"></path>
</g>
<defs>
<clipPath id="clip0_2888_433">
<rect width="24" height="24" fill="white"></rect>
</clipPath>
</defs>
</svg>