<svg width="32" height="32" viewBox="0 0 32 32" fill="none" xmlns="http://www.w3.org/2000/svg">
<g clip-path="url(#clip0_2646_7015)">
<path d="M14.1279 7.31193C14.039 7.1978 13.944 7.13416 13.8294 7.13416C13.7471 7.14074 13.6708 7.16598 13.6011 7.21042C12.7572 7.87051 11.6082 10.6694 10.6628 14.3627L11.5007 14.3693C13.1506 14.3885 14.8582 14.4071 16.5399 14.4329C16.0955 12.7446 15.6768 11.2977 15.2895 10.124C14.7243 8.41591 14.3435 7.64828 14.1279 7.31193Z" fill="#1E61F0"></path>
<path d="M16 0.19754C7.27351 0.19754 0.19751 7.27354 0.19751 16C0.19751 24.7265 7.27351 31.8025 16 31.8025C24.7265 31.8025 31.8025 24.7265 31.8025 16C31.8025 7.27354 24.7265 0.19754 16 0.19754ZM27.6647 15.8096C27.6203 15.9874 27.5122 16.1586 27.3602 16.2853C27.341 16.298 27.3223 16.3106 27.3031 16.3232L27.2839 16.3358L27.2461 16.3611L27.2142 16.3803C27.0935 16.4439 26.9602 16.4752 26.8208 16.4752H19.3317C19.3887 16.7226 19.4584 17.0085 19.5287 17.313C19.9413 19.0837 21.0266 23.7926 22.1876 23.7926H22.2129H22.2255H22.2507C23.1517 23.7926 23.6153 22.4851 24.6304 19.6231L24.6431 19.5912C24.8082 19.1342 24.992 18.614 25.189 18.0615L25.24 17.9221C25.3163 17.7383 25.5254 17.6428 25.7097 17.7191C25.8431 17.7701 25.938 17.9029 25.938 18.0488C25.938 18.0867 25.9314 18.1185 25.9254 18.1504L25.8809 18.2897C25.7728 18.6327 25.6653 19.0958 25.5319 19.6351C24.9289 22.1355 24.0153 25.9117 21.6795 25.9117H21.6603C20.1498 25.8991 19.2488 23.4875 18.8614 22.4527C18.1377 20.5235 17.5923 18.4735 17.0655 16.4807H10.1865L8.75883 21.0563L8.73962 21.037C8.52398 21.3734 8.0735 21.4749 7.73715 21.2593C7.52755 21.1259 7.4008 20.8977 7.4008 20.6502V20.625L7.48969 20.1048C7.68667 18.9306 7.92755 17.7059 8.19422 16.4746H5.27515L5.26253 16.462C4.6661 16.3731 4.25348 15.8146 4.34237 15.2181C4.41205 14.755 4.76761 14.3868 5.22467 14.304C5.3388 14.2914 5.45293 14.2848 5.56761 14.2914H5.70698C6.62714 14.304 7.60437 14.3232 8.68366 14.3358C10.2003 8.16736 11.9583 5.03211 13.9133 5.02552C16.0077 5.02552 17.5627 9.7915 18.8066 14.456L18.8131 14.4752C21.3646 14.5262 24.0933 14.6019 26.7396 14.7923L26.8538 14.8049C26.8982 14.8049 26.9361 14.8115 26.9805 14.8176H26.9931L27.0057 14.8242H27.0123C27.4617 14.9147 27.7597 15.3591 27.6647 15.8096Z" fill="#1E61F0"></path>
</g>
<defs>
<clipPath id="clip0_2646_7015">
<rect width="32" height="32" fill="white"></rect>
</clipPath>
</defs>
</svg>