<svg width="31" height="32" viewBox="0 0 31 32" fill="none" xmlns="http://www.w3.org/2000/svg">
<g clip-path="url(#clip0_2646_6863)">
<path fill-rule="evenodd" clip-rule="evenodd" d="M22.4163 23.0596C20.0261 23.0596 18.0885 21.1421 18.0885 18.7771C18.0885 16.4118 20.0261 14.4943 22.4163 14.4943C24.8065 14.4943 26.744 16.4118 26.744 18.7771C26.744 21.1421 24.8065 23.0596 22.4163 23.0596ZM23.7119 10.532V6.72218C24.7168 6.25247 25.4206 5.24649 25.4206 4.07901V3.99106C25.4206 2.37976 24.0885 1.06146 22.4603 1.06146H22.3718C20.7436 1.06146 19.4115 2.37976 19.4115 3.99106V4.07901C19.4115 5.24649 20.1153 6.25289 21.1203 6.72259V10.532C19.6241 10.7609 18.2571 11.3716 17.1297 12.2703L6.55936 4.13325C6.62912 3.86819 6.67812 3.59533 6.67854 3.30849C6.6802 1.48391 5.18778 0.00246779 3.34322 2.1407e-06C1.49949 -0.00205257 0.00207844 1.47528 2.16377e-06 3.30027C-0.00207411 5.12526 1.49035 6.60671 3.33491 6.60876C3.93578 6.60958 4.49222 6.44069 4.97973 6.16618L15.3773 14.1709C14.4932 15.4917 13.975 17.0738 13.975 18.7771C13.975 20.5602 14.5443 22.2097 15.506 23.5663L12.3443 26.6956C12.0943 26.6212 11.8352 26.5694 11.5603 26.5694C10.045 26.5694 8.81627 27.785 8.81627 29.2845C8.81627 30.7844 10.045 32 11.5603 32C13.0759 32 14.3043 30.7844 14.3043 29.2845C14.3043 29.0133 14.252 28.7564 14.1768 28.5091L17.3045 25.4138C18.7242 26.486 20.4924 27.1303 22.4163 27.1303C27.0783 27.1303 30.8571 23.3904 30.8571 18.7771C30.8571 14.6007 27.7569 11.1505 23.7119 10.532Z" fill="#F95C35"></path>
</g>
<defs>
<clipPath id="clip0_2646_6863">
<rect width="30.8571" height="32" fill="white"></rect>
</clipPath>
</defs>
</svg>