<svg width="24" height="24" viewBox="0 0 24 24" fill="none" xmlns="http://www.w3.org/2000/svg">
<g clip-path="url(#clip0_2888_439)">
<mask id="mask0_2888_439" style="mask-type:luminance" maskUnits="userSpaceOnUse" x="0" y="0" width="24" height="24">
<path d="M0 0H24V24H0V0Z" fill="white"></path>
</mask>
<g mask="url(#mask0_2888_439)">
<path d="M5.042 15.166C5.04042 15.834 4.77444 16.4741 4.30222 16.9465C3.83 17.4189 3.18995 17.6852 2.522 17.687C1.85388 17.6857 1.21346 17.4198 0.74084 16.9476C0.268217 16.4753 0.00184946 15.8351 0 15.167C0.00132044 14.4987 0.267317 13.8581 0.739782 13.3855C1.21225 12.9128 1.8527 12.6466 2.521 12.645H5.042V15.166ZM6.313 15.166C6.31458 14.498 6.58056 13.8579 7.05278 13.3855C7.525 12.9131 8.16505 12.6468 8.833 12.645C9.5013 12.6463 10.1419 12.9123 10.6145 13.3848C11.0872 13.8572 11.3534 14.4977 11.355 15.166V21.479C11.3532 22.147 11.0869 22.787 10.6145 23.2592C10.1421 23.7314 9.50195 23.9974 8.834 23.999C8.16605 23.9974 7.52589 23.7314 7.05349 23.2592C6.58108 22.787 6.31485 22.147 6.313 21.479V15.166Z" fill="#E01E5A"></path>
<path d="M8.834 5.042C8.16605 5.04042 7.52589 4.77444 7.05349 4.30222C6.58108 3.83 6.31485 3.18995 6.313 2.522C6.31432 1.85388 6.58018 1.21346 7.05243 0.74084C7.52468 0.268217 8.16488 0.00184946 8.833 0C9.5013 0.00132044 10.1419 0.267317 10.6145 0.739782C11.0872 1.21225 11.3534 1.8527 11.355 2.521V5.042H8.834ZM8.834 6.313C9.50195 6.31458 10.1421 6.58056 10.6145 7.05278C11.0869 7.525 11.3532 8.16505 11.355 8.833C11.3537 9.5013 11.0877 10.1419 10.6152 10.6145C10.1428 11.0872 9.5023 11.3534 8.834 11.355H2.52C1.85205 11.3532 1.212 11.0869 0.73978 10.6145C0.267559 10.1421 0.0015834 9.50195 0 8.834C0.00158449 8.16588 0.267698 7.52557 0.740134 7.05313C1.21257 6.5807 1.85288 6.31458 2.521 6.313H8.834Z" fill="#36C5F0"></path>
<path d="M18.958 8.834C18.9596 8.16605 19.2256 7.52589 19.6978 7.05349C20.17 6.58108 20.8101 6.31485 21.478 6.313C22.1461 6.31432 22.7866 6.58018 23.2592 7.05243C23.7318 7.52468 23.9982 8.16488 24 8.833C23.9987 9.5013 23.7327 10.1419 23.2602 10.6145C22.7878 11.0872 22.1473 11.3534 21.479 11.355H18.958V8.834ZM17.687 8.834C17.6854 9.50195 17.4195 10.1421 16.9472 10.6145C16.475 11.0869 15.835 11.3532 15.167 11.355C14.4987 11.3537 13.8582 11.0877 13.3855 10.6152C12.9129 10.1428 12.6466 9.5023 12.645 8.834V2.52C12.6469 1.85205 12.9131 1.212 13.3855 0.73978C13.8579 0.267559 14.4981 0.0015834 15.166 0C15.8341 0.00158449 16.4744 0.267698 16.9469 0.740134C17.4193 1.21257 17.6854 1.85288 17.687 2.521V8.834Z" fill="#2EB67D"></path>
<path d="M15.166 18.958C15.834 18.9596 16.4741 19.2256 16.9465 19.6978C17.4189 20.17 17.6852 20.8101 17.687 21.478C17.6857 22.1461 17.4198 22.7865 16.9476 23.2592C16.4753 23.7318 15.8351 23.9982 15.167 24C14.4987 23.9987 13.8582 23.7327 13.3855 23.2602C12.9129 22.7878 12.6466 22.1473 12.645 21.479V18.958H15.166ZM15.166 17.687C14.4981 17.6854 13.8579 17.4194 13.3855 16.9472C12.9131 16.475 12.6469 15.835 12.645 15.167C12.6463 14.4987 12.9123 13.8581 13.3848 13.3855C13.8573 12.9128 14.4977 12.6466 15.166 12.645H21.479C22.1471 12.6466 22.7874 12.9127 23.2599 13.3851C23.7323 13.8576 23.9984 14.4979 24 15.166C23.9984 15.8341 23.7323 16.4744 23.2599 16.9469C22.7874 17.4193 22.1471 17.6854 21.479 17.687H15.166Z" fill="#ECB22E"></path>
</g>
</g>
<defs>
<clipPath id="clip0_2888_439">
<rect width="24" height="24" fill="white"></rect>
</clipPath>
</defs>
</svg>