<svg width="20" height="20" viewBox="0 0 20 20" fill="none" xmlns="http://www.w3.org/2000/svg">
<g clip-path="url(#clip0_2049_38103)">
<path opacity="0.04" d="M10.0003 18.3327C14.6027 18.3327 18.3337 14.6017 18.3337 9.99935C18.3337 5.39697 14.6027 1.66602 10.0003 1.66602C5.39795 1.66602 1.66699 5.39697 1.66699 9.99935C1.66699 14.6017 5.39795 18.3327 10.0003 18.3327Z" fill="#111827"></path>
<path d="M6.25033 9.99935L8.75033 12.4993L13.7503 7.49935M18.3337 9.99935C18.3337 14.6017 14.6027 18.3327 10.0003 18.3327C5.39795 18.3327 1.66699 14.6017 1.66699 9.99935C1.66699 5.39697 5.39795 1.66602 10.0003 1.66602C14.6027 1.66602 18.3337 5.39697 18.3337 9.99935Z" stroke="#111827" stroke-width="2" stroke-linecap="round" stroke-linejoin="round"></path>
</g>
<defs>
<clipPath id="clip0_2049_38103">
<rect width="20" height="20" fill="white"></rect>
</clipPath>
</defs>
</svg>