<svg width="108" height="26" viewBox="0 0 108 26" fill="none" xmlns="http://www.w3.org/2000/svg">
<g clip-path="url(#clip0_2217_1011)">
<path d="M25.4153 23.8144L20.8888 14.77C20.8124 15.3818 20.6847 15.9919 20.4559 16.5525C20.2519 17.1138 19.9715 17.6467 19.6436 18.1566L21.4749 21.8244L11.0718 17.4675C10.0554 17.0338 9.2908 16.2455 8.88378 15.1999C8.50149 14.1544 8.55295 13.0344 9.06205 12.0651L12.8268 4.49707L16.5917 12.0393C17.076 13.0344 17.1522 14.1535 16.77 15.1743C16.1318 16.9194 14.6369 17.4267 14.5315 17.4675L17.4555 18.6895C18.2451 17.9747 18.8552 17.0842 19.2364 16.0901C19.8732 14.3841 19.7712 12.4739 18.9561 10.8413L13.9958 0.989212C13.7918 0.529727 13.3333 0.249512 12.8269 0.249512C12.3205 0.249512 11.862 0.529727 11.658 0.989212L6.72424 10.8725C5.9119 12.5024 5.80988 14.4126 6.44396 16.1215C7.08083 17.8277 8.40312 19.2049 10.0811 19.9169L23.7364 25.6483C23.8891 25.7246 24.0673 25.7503 24.2456 25.7503C24.6021 25.7503 24.9587 25.5969 25.2114 25.3424C25.5679 24.9088 25.6442 24.2968 25.4153 23.8144Z" fill="#4B5563"></path>
<path d="M7.99526 20.223L4.17889 21.8272L6.01034 18.1852C5.67951 17.6752 5.39923 17.1395 5.198 16.581C4.99403 15.9939 4.84147 15.3847 4.76522 14.7985L0.238521 23.8145C-0.0160597 24.2997 0.0859547 24.9087 0.442485 25.291C0.697066 25.5712 1.0536 25.699 1.40739 25.699C1.58566 25.699 1.76392 25.6732 1.91747 25.597L11.0975 21.7509L9.52067 21.0875C8.98587 20.8836 8.4786 20.5804 7.99526 20.223V20.223ZM41.153 6.85567V8.48749C40.0759 7.25171 38.468 6.54737 36.7049 6.54737C33.0202 6.54737 30.2408 9.4246 30.2408 13.2424C30.2408 17.0601 33.0202 19.886 36.7049 19.886C38.468 19.886 40.0741 19.1816 41.153 17.9459V19.5768H43.7101V6.85573L41.153 6.85567ZM36.9367 17.4569C34.5489 17.4569 32.7467 15.634 32.7467 13.2163C32.7467 10.7986 34.5872 8.94951 36.9367 8.94951C39.2862 8.94951 41.153 10.7837 41.153 13.2162C41.153 15.6488 39.3792 17.4568 36.9367 17.4568V17.4569ZM52.6324 6.54737C50.8631 6.54737 49.2371 7.25431 48.1348 8.491V6.85567H45.629V24.4141H48.1348V17.9415C49.2371 19.18 50.8631 19.886 52.6324 19.886C56.3327 19.886 59.1235 17.0071 59.1235 13.1911C59.1235 9.37507 56.3327 6.54737 52.6324 6.54737ZM52.4006 8.97642C54.8039 8.97642 56.6167 10.8107 56.6167 13.2432C56.6167 15.6756 54.7649 17.4839 52.4006 17.4839C50.0363 17.4839 48.1348 15.661 48.1348 13.2432C48.1348 10.8253 49.9285 8.97642 52.4006 8.97642ZM67.5084 6.54737C65.7392 6.54737 64.113 7.25431 63.009 8.491V6.85567H60.5049V24.4141H63.009V17.9415C64.113 19.18 65.7392 19.886 67.5084 19.886C71.2086 19.886 73.9995 17.0071 73.9995 13.1911C73.9995 9.37507 71.2086 6.54737 67.5084 6.54737ZM67.2765 8.97642C69.6799 8.97642 71.4927 10.8107 71.4927 13.2432C71.4927 15.6756 69.6408 17.4839 67.2765 17.4839C64.9121 17.4839 63.009 15.661 63.009 13.2432C63.009 10.8253 64.8045 8.97642 67.2765 8.97642ZM80.7196 1.55719H82.1658V3.6771H81.0027C79.6721 3.6771 79.0519 4.29545 79.0519 5.62762V6.85567H82.1657V9.07802H79.0519V19.5768H76.5208V9.07886H73.9991V6.85651H76.5208V5.78219C76.5208 2.93883 77.8932 1.55713 80.7196 1.55713V1.55719ZM95.3683 6.8556V9.07795H93.8709C92.0191 9.07795 90.9159 10.2591 90.9159 12.2383V19.5768H88.3848V6.8556H90.9159V8.35717C91.6716 7.37495 92.7245 6.85567 93.9743 6.85567H95.3684L95.3683 6.8556ZM101.749 6.54737C98.1275 6.54737 95.1825 9.58528 95.1825 13.3197C95.1825 17.0542 97.982 19.8869 101.698 19.8869C104.714 19.8869 107.156 18.1553 107.774 15.5786L107.797 15.4779H105.29L105.272 15.5386C104.927 16.8212 103.509 17.7166 101.826 17.7166C99.5854 17.7166 97.8787 16.1169 97.6432 13.8155H107.814L107.826 13.747C107.903 13.3023 107.903 12.9419 107.903 12.6779C107.903 9.18494 105.258 6.54737 101.749 6.54737ZM101.749 8.74463C103.651 8.74463 105.168 10.0065 105.316 11.693H97.8439C98.3928 9.92399 99.9486 8.74463 101.749 8.74463ZM86.2813 6.8556H83.7484V19.5768H86.2813V6.8556ZM86.2813 3.67704V4.16779C86.2813 5.61462 85.0147 6.8556 83.7484 6.8556V3.6771L86.2813 3.67704Z" fill="#4B5563"></path>
</g>
<defs>
<clipPath id="clip0_2217_1011">
<rect width="108" height="26" fill="white"></rect>
</clipPath>
</defs>
</svg>