<svg width="146" height="26" viewBox="0 0 146 26" fill="none" xmlns="http://www.w3.org/2000/svg">
<mask id="mask0_2217_1046" style="mask-type:luminance" maskUnits="userSpaceOnUse" x="0" y="0" width="23" height="26">
<path fill-rule="evenodd" clip-rule="evenodd" d="M0 0H22.9141V26H0V0Z" fill="white"></path>
</mask>
<g mask="url(#mask0_2217_1046)">
<path fill-rule="evenodd" clip-rule="evenodd" d="M20.707 18.1193C20.707 18.2852 20.5966 18.4505 20.4861 18.5051L13.3634 22.5835C13.1426 22.6937 12.8665 22.6381 12.7561 22.4182C12.7008 22.3625 12.7008 22.2523 12.7008 22.1972V14.042C12.7008 13.8766 12.8113 13.7108 12.9217 13.6557L20.0445 9.52263C20.2653 9.41242 20.5414 9.46753 20.6518 9.68795C20.707 9.74306 20.707 9.85327 20.707 9.90895V18.1193ZM10.2141 22.2531C10.2141 22.5287 9.99331 22.6946 9.77248 22.6946C9.71723 22.6946 9.60681 22.6946 9.55157 22.6389L2.42888 18.5615C2.26323 18.5059 2.20802 18.3405 2.20802 18.1758V9.90976C2.20802 9.63423 2.42888 9.46834 2.64974 9.46834C2.70496 9.46834 2.81538 9.46834 2.8706 9.52344L9.99331 13.6019C10.159 13.6565 10.2141 13.8218 10.2141 13.9871V22.2531ZM4.08648 6.60278L11.2092 2.46976C11.3749 2.4141 11.5405 2.4141 11.6509 2.46976L18.7737 6.60278C18.9945 6.71244 19.0497 6.98798 18.9392 7.2084L18.7737 7.37372L11.6509 11.5067C11.4853 11.5624 11.3196 11.5624 11.2092 11.5067L4.08648 7.37372C3.86562 7.26351 3.8104 6.98798 3.92084 6.76755L4.08648 6.60278ZM22.9142 7.04312C22.9142 6.76759 22.8037 6.49205 22.6381 6.32728H22.5829L22.5277 6.27163L22.4725 6.21652H22.4172L11.9265 0.154759L11.8712 0.0996518C11.5951 -0.0656692 11.2086 -0.0100113 10.9325 0.154759L0.441719 6.16141H0.386504L0.33129 6.21652L0.276075 6.27163L0.220859 6.32728C0.0552149 6.49205 0 6.71248 0 6.98802V7.04312V19.112C0 19.4422 0.220859 19.7728 0.496934 19.9386L10.9878 25.9448C10.9878 25.9448 11.043 25.9448 11.043 26.0004H11.0982H11.1534H11.2086H11.2639H11.319H11.5399H11.5951H11.6504H11.7055H11.7608H11.816C11.816 26.0004 11.8712 26.0004 11.8712 25.9448L22.362 19.9386C22.6933 19.7728 22.859 19.4422 22.859 19.112L22.9142 7.04312Z" fill="#4B5563"></path>
</g>
<path fill-rule="evenodd" clip-rule="evenodd" d="M39.5348 18.0644V14.2069C39.5348 14.0967 39.4243 13.9865 39.3139 13.9865H35.9458C35.8354 13.9865 35.7249 14.0967 35.7249 14.2069V18.0644C35.7249 18.1746 35.6145 18.2848 35.5041 18.2848H33.4611C33.3507 18.2848 33.2402 18.1746 33.2402 18.0644V8.09006C33.2402 7.97984 33.3507 7.86963 33.4611 7.86963H35.5041C35.6145 7.86963 35.7249 7.97984 35.7249 8.09006V11.5618C35.7249 11.672 35.8354 11.7822 35.9458 11.7822H39.3139C39.4243 11.7822 39.5348 11.672 39.5348 11.5618V8.09006C39.5348 7.97984 39.6452 7.86963 39.7556 7.86963H41.7985C41.909 7.86963 42.0195 7.97984 42.0195 8.09006V18.0644C42.0195 18.1746 41.909 18.2848 41.7985 18.2848H39.7556C39.6452 18.2848 39.5348 18.1746 39.5348 18.0644Z" fill="#4B5563"></path>
<path fill-rule="evenodd" clip-rule="evenodd" d="M50.6869 13.2706C50.3004 12.0032 49.9139 10.7357 49.6378 9.46826H49.5826C49.2513 10.7357 48.92 12.0032 48.5335 13.2706L48.4231 13.6564C48.3679 13.7666 48.4783 13.9319 48.5888 13.987H48.644H50.5213C50.6317 13.987 50.7422 13.8774 50.7422 13.7666V13.7115L50.6869 13.2706ZM47.7058 16.2458L47.1537 18.1195C47.0985 18.2297 47.0433 18.2854 46.9328 18.2854H44.7794C44.669 18.2854 44.5586 18.1746 44.5586 18.0644V18.0098L47.9819 8.03495C48.0372 7.92474 48.0923 7.86963 48.2027 7.86963H51.1844C51.2948 7.86963 51.4052 7.92474 51.4052 8.03495L54.8286 18.0098C54.8838 18.1195 54.8286 18.2854 54.6629 18.3399H54.6077H52.4543C52.3439 18.3399 52.2335 18.2854 52.2335 18.1746L51.6813 16.301C51.6261 16.1907 51.5709 16.1356 51.4605 16.1356H48.0372C47.8163 16.0811 47.7058 16.1356 47.7058 16.2458Z" fill="#4B5563"></path>
<path fill-rule="evenodd" clip-rule="evenodd" d="M65.6525 11.5618H63.4991C63.3887 11.5618 63.2783 11.4516 63.2783 11.3414C63.1679 10.4046 62.3396 9.68821 61.401 9.74331C60.0206 9.74331 59.1371 10.9557 59.1371 12.9946C59.1371 15.0336 59.9654 16.2459 61.3458 16.2459C62.3396 16.301 63.1679 15.5846 63.2783 14.5927C63.2783 14.4825 63.3887 14.3723 63.4991 14.3723H65.7077C65.8182 14.3723 65.9286 14.4825 65.9286 14.5927V14.6478C65.5973 17.0725 63.8856 18.4502 61.2905 18.4502C58.2537 18.4502 56.4316 16.3561 56.4316 12.9946C56.4316 9.6331 58.309 7.53906 61.3458 7.53906C63.9409 7.53906 65.6525 8.97182 65.8734 11.2863C65.9286 11.4516 65.8182 11.5618 65.6525 11.5618Z" fill="#4B5563"></path>
<path fill-rule="evenodd" clip-rule="evenodd" d="M77.5782 18.2853H74.9832C74.9274 18.2853 74.8175 18.2296 74.7618 18.1751L71.6151 13.4353H71.5599V18.0098C71.5599 18.1194 71.4489 18.2296 71.339 18.2296H69.296C69.1856 18.2296 69.0752 18.1194 69.0752 18.0098V8.09048C69.0752 7.98026 69.1856 7.87005 69.296 7.87005H71.339C71.4489 7.87005 71.5599 7.98026 71.5599 8.09048V12.3337H71.6151L74.5967 7.92515C74.6514 7.87005 74.7071 7.81494 74.8175 7.81494H77.2464C77.3574 7.81494 77.4678 7.92516 77.4678 8.03482C77.4678 8.09048 77.4678 8.14562 77.4121 8.20073L73.9893 12.6093C73.9335 12.7189 73.9335 12.8297 73.9893 12.8848L77.6882 17.8439C77.7439 17.9541 77.7439 18.1194 77.6335 18.1751C77.6882 18.2853 77.6335 18.2853 77.5782 18.2853Z" fill="#4B5563"></path>
<path fill-rule="evenodd" clip-rule="evenodd" d="M84.6991 9.24727V18.0093C84.6991 18.1195 84.5881 18.2297 84.4787 18.2297H83.5941C83.4839 18.2297 83.3737 18.1195 83.3737 18.0093V9.24727C83.3737 9.13706 83.2628 9.02684 83.1526 9.02684H80.0612C79.9503 9.02684 79.8398 8.91663 79.8398 8.80641V8.09006C79.8398 7.97984 79.9503 7.86963 80.0612 7.86963H88.1217C88.2327 7.86963 88.3437 7.97984 88.3437 8.09006V8.80641C88.3437 8.91663 88.2327 9.02684 88.1217 9.02684H85.0304C84.8092 9.02684 84.6991 9.13706 84.6991 9.24727Z" fill="#4B5563"></path>
<path fill-rule="evenodd" clip-rule="evenodd" d="M97.7303 18.0644V13.7109C97.7303 13.6007 97.6201 13.4905 97.5091 13.4905H92.6502C92.54 13.4905 92.429 13.6007 92.429 13.7109V18.0644C92.429 18.1746 92.3188 18.2848 92.2087 18.2848H91.3248C91.2147 18.2848 91.1045 18.1746 91.1045 18.0644V8.09006C91.1045 7.97984 91.2147 7.86963 91.3248 7.86963H92.2087C92.3188 7.86963 92.429 7.97984 92.429 8.09006V12.0577C92.429 12.1679 92.54 12.2781 92.6502 12.2781H97.5091C97.6201 12.2781 97.7303 12.1679 97.7303 12.0577V8.09006C97.7303 7.97984 97.8405 7.86963 97.9507 7.86963H98.8345C98.9446 7.86963 99.0548 7.97984 99.0548 8.09006V18.0644C99.0548 18.1746 98.9446 18.2848 98.8345 18.2848H97.9507C97.8405 18.2848 97.7303 18.1746 97.7303 18.0644Z" fill="#4B5563"></path>
<path fill-rule="evenodd" clip-rule="evenodd" d="M104.689 9.24727V12.0577C104.689 12.1679 104.799 12.2781 104.909 12.2781H109.492C109.603 12.2781 109.713 12.3884 109.713 12.4986V13.215C109.713 13.3252 109.603 13.4354 109.492 13.4354H104.909C104.799 13.4354 104.689 13.5456 104.689 13.6558V16.7418C104.689 16.852 104.799 16.9622 104.909 16.9622H109.989C110.099 16.9622 110.209 17.0724 110.209 17.1827V17.8991C110.209 18.0093 110.099 18.1195 109.989 18.1195H103.584C103.473 18.1195 103.363 18.0093 103.363 17.8991V8.09006C103.363 7.97984 103.473 7.86963 103.584 7.86963H109.878C109.989 7.86963 110.099 7.97984 110.099 8.09006V8.80641C110.099 8.91663 109.989 9.02684 109.878 9.02684H104.964C104.799 9.02684 104.689 9.13705 104.689 9.24727Z" fill="#4B5563"></path>
<path fill-rule="evenodd" clip-rule="evenodd" d="M116.117 16.0811C116.117 16.1907 116.227 16.301 116.337 16.301H117.497C118.712 16.301 119.154 15.9152 119.154 15.1443C119.154 14.3177 118.657 13.9319 117.442 13.9319H116.337C116.227 13.9319 116.117 14.0421 116.117 14.1524V16.0811ZM116.117 11.8378C116.117 11.948 116.227 12.0582 116.337 12.0582H117.442C118.602 12.0582 119.043 11.6725 119.043 10.901C119.043 10.1295 118.546 9.79883 117.497 9.79883H116.337C116.227 9.79883 116.117 9.90904 116.117 10.0193V11.8378ZM117.718 7.81494C120.313 7.81494 121.528 8.91712 121.528 10.5147C121.583 11.6168 120.865 12.6644 119.761 12.9399V12.9945C121.141 13.3257 121.804 14.0966 121.804 15.4197C121.804 17.1832 120.368 18.3404 117.994 18.3404H113.909C113.798 18.3404 113.688 18.2296 113.688 18.1194V8.09048C113.688 7.98026 113.798 7.87005 113.909 7.87005L117.718 7.81494Z" fill="#4B5563"></path>
<path fill-rule="evenodd" clip-rule="evenodd" d="M126.885 13.0509C126.885 15.0898 127.768 16.3022 129.314 16.3022C130.805 16.3022 131.688 15.0898 131.688 13.0509C131.688 11.0119 130.805 9.79958 129.314 9.79958C127.768 9.79958 126.885 11.0119 126.885 13.0509ZM134.394 13.0503C134.394 16.4118 132.461 18.5059 129.313 18.5059C126.166 18.5059 124.233 16.4118 124.233 13.0503C124.233 9.6888 126.166 7.59473 129.313 7.59473C132.461 7.59473 134.394 9.6888 134.394 13.0503Z" fill="#4B5563"></path>
<path fill-rule="evenodd" clip-rule="evenodd" d="M145.106 18.2853H142.676C142.565 18.2853 142.51 18.2296 142.455 18.1751L140.632 14.7033H140.578L138.755 18.1751C138.7 18.2296 138.645 18.2853 138.535 18.2853H136.161C136.05 18.2853 135.939 18.1751 135.939 18.0649C135.939 18.0098 135.939 17.9541 135.995 17.9541L138.921 13.1052C138.976 13.0501 138.976 12.9399 138.921 12.8297L136.161 8.20073C136.106 8.09048 136.106 7.92516 136.271 7.87005C136.326 7.87005 136.326 7.81494 136.382 7.81494H138.755C138.866 7.81494 138.921 7.87005 138.976 7.92515L140.688 11.2867H140.743L142.455 7.92515C142.51 7.87005 142.565 7.81494 142.676 7.81494H144.995C145.106 7.81494 145.216 7.92516 145.216 8.03482C145.216 8.09048 145.216 8.14562 145.161 8.14562L142.4 12.7746C142.345 12.8297 142.345 12.9399 142.4 13.0501L145.381 17.8995C145.437 18.0098 145.437 18.1751 145.326 18.2296C145.161 18.2853 145.106 18.2853 145.106 18.2853Z" fill="#4B5563"></path>
</svg>