<svg width="58" height="18" viewBox="0 0 58 18" fill="none" xmlns="http://www.w3.org/2000/svg">
<g clip-path="url(#clip0_2337_10684)">
<path d="M36.043 3.3655C35.4224 3.3655 34.9193 2.86585 34.9193 2.2495C34.9193 1.63314 35.4224 1.1335 36.043 1.1335C36.6637 1.1335 37.1668 1.63314 37.1668 2.2495C37.1668 2.86585 36.6637 3.3655 36.043 3.3655ZM36.043 0C34.7921 0 33.778 1.00714 33.778 2.2495V8.99989C33.778 11.4818 31.7447 13.5011 29.2456 13.5011C26.7464 13.5011 24.7132 11.4818 24.7132 8.99989V2.2495C24.7132 1.00714 23.6991 0 22.4482 0C21.1972 0 20.1831 1.00714 20.1831 2.2495V8.99989C20.1831 13.9626 24.2485 18 29.2456 18C34.2427 18 38.3081 13.9626 38.3081 8.99989V2.2495C38.3081 1.00714 37.294 0 36.043 0Z" fill="#4B5563"></path>
<path d="M55.7347 16.8664C55.114 16.8664 54.6109 16.3667 54.6109 15.7504C54.6109 15.134 55.114 14.6344 55.7347 14.6344C56.3553 14.6344 56.8584 15.134 56.8584 15.7504C56.8584 16.3667 56.3553 16.8664 55.7347 16.8664ZM45.7339 9.00005L40.5382 14.1599C39.6536 15.0384 39.6536 16.4627 40.5382 17.3411C41.4228 18.2196 42.857 18.2196 43.7416 17.3411L48.9373 12.1813L54.1329 17.3411C55.0175 18.2195 56.4517 18.2196 57.3363 17.3411C58.2209 16.4627 58.2209 15.0384 57.3363 14.1599L52.1406 9.00005L52.1407 8.99991L57.3363 3.84007C58.2209 2.96159 58.2209 1.53733 57.3363 0.658854C56.4518 -0.219618 55.0175 -0.219618 54.1329 0.658854L48.9373 5.81866L43.7416 0.658854C42.857 -0.219582 41.4228 -0.219618 40.5382 0.658854C39.6536 1.53733 39.6536 2.96159 40.5382 3.84007L45.7339 8.99991V9.00005Z" fill="#4B5563"></path>
<path d="M15.8596 16.8667C15.2389 16.8667 14.7358 16.3671 14.7358 15.7507C14.7358 15.1344 15.2389 14.6347 15.8596 14.6347C16.4802 14.6347 16.9833 15.1344 16.9833 15.7507C16.9833 16.3671 16.4802 16.8667 15.8596 16.8667ZM16.7265 0.171317C15.8801 -0.176875 14.9058 0.0155448 14.258 0.658901L9.06226 5.81874L3.86654 0.658901C3.21872 0.0155448 2.24446 -0.176875 1.39806 0.171317C0.551662 0.519473 -0.000244141 1.3397 -0.000244141 2.24956V15.7505C-0.000244141 16.9929 1.01392 18 2.26491 18C3.5159 18 4.53003 16.9929 4.53003 15.7505V7.68027L7.46059 10.5907C8.34523 11.4691 9.77932 11.4691 10.664 10.5907L13.5945 7.68027V15.7505C13.5945 16.9929 14.6087 18 15.8596 18C17.1106 18 18.1248 16.9929 18.1248 15.7505V2.24956C18.1248 1.3397 17.5729 0.519473 16.7265 0.171317Z" fill="#4B5563"></path>
</g>
<defs>
<clipPath id="clip0_2337_10684">
<rect width="58" height="18" fill="white"></rect>
</clipPath>
</defs>
</svg>