<svg width="66" height="18" viewBox="0 0 66 18" fill="none" xmlns="http://www.w3.org/2000/svg">
<g clip-path="url(#clip0_2363_10681)">
<path d="M15.5506 12.3347L15.5414 12.305L21.3718 6.89814V4.29297H12.0179V6.89814H17.605L17.6142 6.9231L11.8408 12.3347V14.9398H21.4657V12.3347H15.5506Z" fill="#4B5563"></path>
<path d="M27.208 4.04492C26.1291 4.04492 25.2498 4.20973 24.5702 4.53943C23.937 4.82672 23.4037 5.30012 23.0394 5.89816C22.6909 6.50012 22.472 7.16999 22.3972 7.86373L25.2354 8.26778C25.3381 7.6552 25.5434 7.22102 25.8514 6.96518C26.2015 6.6976 26.633 6.56241 27.0711 6.583C27.6471 6.583 28.065 6.73898 28.3245 7.05098C28.5819 7.36298 28.7128 7.79509 28.7128 8.36449V8.64839H25.9839C24.5948 8.64839 23.5969 8.96039 22.9901 9.58439C22.3834 10.2084 22.0805 11.0321 22.0815 12.0554C22.0815 13.1037 22.3844 13.8837 22.9901 14.3954C23.5959 14.907 24.3576 15.1613 25.2755 15.1582C26.414 15.1582 27.2899 14.7614 27.9026 13.9679C28.2648 13.4803 28.5232 12.9221 28.6619 12.3284H28.765L29.1562 14.9335H31.7279V8.33639C31.7279 6.97298 31.3733 5.91689 30.6639 5.16809C29.9544 4.41929 28.8024 4.04492 27.208 4.04492ZM28.1075 12.177C27.6994 12.5218 27.1649 12.6934 26.4997 12.6934C25.9515 12.6934 25.5706 12.5962 25.3571 12.4017C25.253 12.3097 25.1703 12.1956 25.1146 12.0675C25.059 11.9395 25.0319 11.8006 25.0352 11.6607C25.0292 11.5288 25.0497 11.397 25.0954 11.2734C25.1412 11.1498 25.2114 11.0369 25.3017 10.9416C25.3992 10.8488 25.5144 10.7771 25.6401 10.7307C25.7658 10.6844 25.8995 10.6643 26.0331 10.6717H28.7173V10.8511C28.7227 11.1047 28.6705 11.3561 28.5649 11.586C28.4591 11.8159 28.3027 12.0182 28.1075 12.177Z" fill="#4B5563"></path>
<path d="M47.2785 4.29297H44.2402V14.9414H47.2785V4.29297Z" fill="#4B5563"></path>
<path d="M65.2176 4.29297C64.3593 4.29297 63.6827 4.59976 63.1878 5.21337C62.8327 5.65431 62.5627 6.30586 62.378 7.168H62.2886L61.8912 4.29297H59.2964V14.9398H62.3349V9.47989C62.3349 8.79144 62.494 8.26363 62.8123 7.89651C63.1305 7.5294 63.7177 7.34585 64.5738 7.34585H65.7272V4.29297H65.2176Z" fill="#4B5563"></path>
<path d="M56.281 4.64058C55.5718 4.21313 54.6769 3.99994 53.597 4.00098C51.8968 4.00098 50.5663 4.49134 49.6054 5.47204C48.6442 6.45274 48.1639 7.80474 48.1639 9.52799C48.1394 10.5698 48.364 11.6022 48.8184 12.5372C49.2344 13.3703 49.8821 14.0618 50.6818 14.5262C51.4865 14.9973 52.4439 15.2333 53.5539 15.2344C54.5137 15.2344 55.3155 15.0846 55.9592 14.7851C56.5645 14.5161 57.0913 14.0945 57.4901 13.5605C57.8694 13.0363 58.1513 12.4464 58.3215 11.8196L55.7037 11.077C55.5933 11.4846 55.3812 11.8564 55.0877 12.1565C54.7918 12.456 54.2965 12.6058 53.6016 12.6058C52.775 12.6058 52.159 12.3661 51.7536 11.8867C51.4593 11.5404 51.2746 11.0458 51.193 10.4047H58.3616C58.3909 10.1052 58.4063 9.85401 58.4063 9.65121V8.98824C58.4235 8.09756 58.242 7.21444 57.8751 6.40491C57.5315 5.66745 56.9758 5.05243 56.281 4.64058ZM53.5092 6.53906C54.7412 6.53906 55.4396 7.15316 55.6049 8.38139H51.2469C51.3161 7.97159 51.4838 7.58533 51.735 7.25666C52.1345 6.77724 52.7258 6.53803 53.5092 6.53906Z" fill="#4B5563"></path>
<path d="M45.7925 0.000998874C45.564 -0.00687581 45.3362 0.0318747 45.1227 0.11495C44.9092 0.198026 44.7145 0.323727 44.5498 0.484587C44.3877 0.646991 44.2603 0.841794 44.1763 1.05663C44.0923 1.27147 44.0533 1.50164 44.0617 1.73257C44.0536 1.96499 44.0926 2.19664 44.1769 2.41304C44.2609 2.62944 44.3882 2.82597 44.5506 2.99035C44.7129 3.15472 44.907 3.28342 45.1208 3.36843C45.3346 3.45344 45.5632 3.49293 45.7925 3.48442C46.0206 3.49315 46.2478 3.45368 46.46 3.36856C46.6721 3.28342 46.8643 3.15447 47.0245 2.98991C47.1837 2.82365 47.3075 2.62657 47.3893 2.4105C47.4712 2.19442 47.5089 1.96382 47.5005 1.73257C47.511 1.50269 47.4742 1.27311 47.392 1.0585C47.3099 0.843884 47.1847 0.648957 47.0243 0.486158C46.8635 0.323359 46.6713 0.196267 46.4594 0.112998C46.2478 0.0297303 46.0211 -0.00788034 45.7942 0.00256037L45.7925 0.000998874Z" fill="#4B5563"></path>
<path d="M39.5157 4.00098C38.4808 4.00098 37.6491 4.33013 37.021 4.98844C36.5558 5.47619 36.2144 6.20418 35.9969 7.17241H35.8999L35.5026 4.29738H32.9077V18.0002H35.946V12.3562H36.0569C36.1495 12.7325 36.2796 13.0984 36.4449 13.4482C36.702 14.018 37.1236 14.4956 37.654 14.8179C38.2038 15.1218 38.8233 15.2731 39.4495 15.2562C40.7216 15.2562 41.69 14.7544 42.3553 13.7508C43.0206 12.7473 43.3533 11.3469 43.3533 9.54983C43.3533 7.81409 43.0313 6.45536 42.3879 5.47359C41.7441 4.49186 40.7868 4.00098 39.5157 4.00098ZM39.8237 11.7166C39.4694 12.2366 38.9151 12.4966 38.1604 12.4966C37.8494 12.5112 37.5393 12.4504 37.2561 12.3194C36.9726 12.1883 36.7241 11.9908 36.5313 11.7431C36.1379 11.2429 35.9419 10.5581 35.943 9.68865V9.48585C35.943 8.60289 36.139 7.92691 36.5313 7.45788C36.9233 6.98884 37.4666 6.75694 38.1604 6.76212C38.9285 6.76212 39.4864 7.00913 39.8345 7.50312C40.1826 7.99711 40.3565 8.6861 40.3565 9.57009C40.3587 10.4842 40.1821 11.1997 39.8267 11.7166H39.8237Z" fill="#4B5563"></path>
<path d="M10.6657 12.334H0.153809V14.9423H10.6657V12.334Z" fill="#4B5563"></path>
</g>
<defs>
<clipPath id="clip0_2363_10681">
<rect width="66" height="18" fill="white"></rect>
</clipPath>
</defs>
</svg>