<svg width="98" height="17" viewBox="0 0 98 17" fill="none" xmlns="http://www.w3.org/2000/svg">
<g clip-path="url(#clip0_2395_4022)">
<path d="M0.0283203 1.14276C0.0283203 0.721977 0.369437 0.380859 0.790225 0.380859H15.5712C15.8236 0.380859 16.0283 0.585529 16.0283 0.838002V15.6189C16.0283 16.0397 15.6872 16.3809 15.2664 16.3809C6.85065 16.3809 0.0283203 9.55853 0.0283203 1.14276Z" fill="#4B5563"></path>
<path d="M21.6788 7.64496C21.559 7.63082 21.604 7.50359 21.6489 7.39049C21.7688 7.0512 21.7987 6.81086 21.7987 6.54225V6.09104C21.7987 6.02792 21.7475 5.97676 21.6844 5.97676H20.7144C20.6513 5.97676 20.6001 6.02792 20.6001 6.09104V13.1008C20.6001 13.1639 20.6513 13.2151 20.7144 13.2151H21.6844C21.7475 13.2151 21.7987 13.1639 21.7987 13.1008V9.52524C21.7987 7.66599 22.4193 6.90976 24.5527 7.01597C24.6185 7.01925 24.6754 6.96713 24.6754 6.90117V5.97794C24.6754 5.91482 24.6232 5.86359 24.5601 5.86426C22.7263 5.88393 22.3278 6.38217 21.8287 7.53186C21.7987 7.58842 21.7688 7.6591 21.6788 7.64496Z" fill="#4B5563"></path>
<path d="M28.5148 13.2958C29.9096 13.2958 30.9406 12.3344 31.1984 11.6134C31.2135 11.571 31.2742 11.4862 31.3651 11.5145C31.4864 11.5569 31.4106 11.6841 31.3651 11.7972C31.2438 12.0941 31.2135 12.3203 31.2135 12.5747V13.0685C31.2135 13.1315 31.2647 13.1827 31.3278 13.1827H32.3121C32.3752 13.1827 32.4264 13.1315 32.4264 13.0685V6.05862C32.4264 5.9955 32.3752 5.94434 32.3121 5.94434H31.3278C31.2647 5.94434 31.2135 5.9955 31.2135 6.05862V9.54936C31.2135 11.2741 29.9248 12.3344 28.7422 12.3344C27.6658 12.3344 26.8471 11.8679 26.8471 10.1856V6.05862C26.8471 5.9955 26.7959 5.94434 26.7328 5.94434H25.7486C25.6854 5.94434 25.6343 5.9955 25.6343 6.05862V10.2421C25.6343 12.3627 26.7258 13.2958 28.5148 13.2958Z" fill="#4B5563"></path>
<path d="M39.6392 3.4668C39.5761 3.4668 39.5249 3.51796 39.5249 3.58108V6.41787C39.5249 6.67578 39.5553 6.91936 39.6612 7.20592C39.7067 7.33487 39.7976 7.46383 39.6612 7.5068C39.5704 7.53546 39.5098 7.40651 39.4946 7.36353C39.1462 6.37489 38.1312 5.73012 36.889 5.73012C34.8741 5.73012 33.4653 7.33487 33.4653 9.51274C33.4653 11.6906 34.8741 13.2954 36.889 13.2954C38.1009 13.2954 39.131 12.665 39.4946 11.6333C39.5098 11.5903 39.5704 11.4757 39.6764 11.5187C39.7673 11.5616 39.7218 11.6762 39.6764 11.7909C39.5553 12.1061 39.5249 12.3068 39.5249 12.5503V13.0665C39.5249 13.1295 39.5761 13.1807 39.6392 13.1807H40.6226C40.6857 13.1807 40.7369 13.1295 40.7369 13.0665V3.58108C40.7369 3.51796 40.6857 3.4668 40.6226 3.4668H39.6392ZM37.0708 12.2638C35.4953 12.2638 34.6773 11.0029 34.6773 9.51274C34.6773 8.02261 35.4953 6.76175 37.0708 6.76175C38.51 6.76175 39.5249 8.02261 39.5249 9.51274C39.5249 11.0029 38.51 12.2638 37.0708 12.2638Z" fill="#4B5563"></path>
<path d="M47.8161 3.4668C47.753 3.4668 47.7018 3.51796 47.7018 3.58108V6.41787C47.7018 6.67578 47.7315 6.91936 47.8352 7.20592C47.8796 7.33487 47.9685 7.46383 47.8352 7.5068C47.7464 7.53546 47.687 7.40651 47.6722 7.36353C47.3315 6.37489 46.3387 5.73012 45.1238 5.73012C43.1533 5.73012 41.7754 7.33487 41.7754 9.51274C41.7754 11.6906 43.1533 13.2954 45.1238 13.2954C46.3091 13.2954 47.3166 12.665 47.6722 11.6333C47.687 11.5903 47.7464 11.4757 47.85 11.5187C47.9389 11.5616 47.8945 11.6762 47.85 11.7909C47.7315 12.1061 47.7018 12.3068 47.7018 12.5503V13.0665C47.7018 13.1295 47.753 13.1807 47.8161 13.1807H48.7729C48.836 13.1807 48.8872 13.1295 48.8872 13.0665V3.58108C48.8872 3.51796 48.836 3.4668 48.7729 3.4668H47.8161ZM45.3017 12.2638C43.7608 12.2638 42.9608 11.0029 42.9608 9.51274C42.9608 8.02261 43.7608 6.76175 45.3017 6.76175C46.7092 6.76175 47.7018 8.02261 47.7018 9.51274C47.7018 11.0029 46.7092 12.2638 45.3017 12.2638Z" fill="#4B5563"></path>
<path d="M57.1974 9.36882C57.1974 6.8917 55.415 5.86426 53.7101 5.86426C51.5092 5.86426 50.0059 7.37024 50.0059 9.57993C50.0059 11.5645 51.3232 13.2956 53.7411 13.2956C55.6184 13.2956 56.6936 12.1121 57.0219 10.9578C57.0421 10.887 56.9876 10.8185 56.914 10.8185H55.8377C55.7888 10.8185 55.7456 10.8496 55.7287 10.8955C55.4412 11.6751 54.8832 12.2822 53.7876 12.2822C52.2567 12.2822 51.3361 11.1999 51.2232 9.98114C51.2172 9.91611 51.2694 9.86142 51.3348 9.86142H57.0653C57.1231 9.86142 57.1719 9.81836 57.1776 9.76089C57.1886 9.65028 57.1974 9.51756 57.1974 9.36882ZM53.8031 6.82132C55.004 6.82132 55.7979 7.58705 55.9452 8.83722C55.9531 8.90356 55.9003 8.96066 55.8335 8.96066H51.4087C51.3391 8.96066 51.2855 8.89884 51.2977 8.83033C51.498 7.70885 52.1763 6.82132 53.8031 6.82132Z" fill="#4B5563"></path>
<path d="M62.6823 6.00413C62.6968 5.93185 62.6414 5.86436 62.5677 5.86524C62.1649 5.87008 61.828 5.89577 61.5423 5.94389C61.1837 6.00426 60.9056 6.09994 60.6789 6.23402C60.2233 6.50344 59.9747 6.92792 59.6969 7.53261C59.6947 7.53639 59.6926 7.54023 59.6905 7.5441C59.6606 7.59823 59.6271 7.6589 59.5382 7.64571C59.4113 7.63157 59.4589 7.50434 59.5065 7.39123C59.6334 7.05194 59.665 6.81161 59.665 6.543V6.09431C59.665 6.0298 59.6128 5.97749 59.5482 5.97749H58.5128C58.4483 5.97749 58.396 6.0298 58.396 6.09432V13.0991C58.396 13.1636 58.4483 13.2159 58.5128 13.2159H59.5482C59.6128 13.2159 59.665 13.1636 59.665 13.0991V9.52599C59.665 8.47885 59.8735 7.7816 60.4591 7.39123C60.7323 7.20912 61.0877 7.09379 61.5423 7.0409C61.7912 7.01194 62.0699 7.0017 62.3813 7.00947C62.4386 7.0109 62.4889 6.97127 62.5001 6.91509L62.6823 6.00413Z" fill="#4B5563"></path>
<path d="M63.3101 10.7059C63.245 10.7059 63.1928 10.7606 63.1981 10.8256C63.3241 12.3462 64.4825 13.2956 66.372 13.2956C68.3252 13.2956 69.583 12.4089 69.583 10.9452C69.583 9.79105 68.4584 9.25622 66.6678 9.0451C64.7294 8.81991 64.5962 8.35545 64.5962 7.94729C64.5962 7.46875 65.0549 6.82132 66.372 6.82132C67.6913 6.82132 68.1053 7.46708 68.1824 8.12209C68.1894 8.18194 68.2389 8.22878 68.2992 8.22878H69.2377C69.3042 8.22878 69.3569 8.17205 69.3491 8.10596C69.1961 6.81668 68.2096 5.86426 66.4163 5.86426C64.463 5.86426 63.4124 7.00429 63.4124 8.08803C63.4124 9.03104 64.2558 9.79105 65.8836 9.97402C67.8961 10.1992 68.3992 10.4526 68.3992 11.1563C68.3992 11.6207 67.9404 12.3385 66.4312 12.3385C64.966 12.3385 64.4129 11.5604 64.3504 10.8178C64.3452 10.7558 64.2948 10.7059 64.2325 10.7059H63.3101Z" fill="#4B5563"></path>
<path d="M74.3408 5.84437C74.4052 5.84437 74.4576 5.89667 74.4576 5.96118V6.7065C74.4576 6.77101 74.4052 6.82331 74.3408 6.82331H72.8963C72.8318 6.82331 72.7795 6.8756 72.7795 6.94012V11.1422C72.7795 11.9772 72.9593 12.2363 73.7984 12.2363C74.0404 12.2363 74.2587 12.2018 74.4245 12.164C74.4905 12.1491 74.5571 12.1902 74.5705 12.2565L74.6948 12.8786C74.7052 12.9303 74.6797 12.9827 74.6315 13.004C74.4737 13.0738 74.1666 13.1879 73.7984 13.2152C72.2146 13.3325 71.5809 12.769 71.5809 11.0558V6.94012C71.5809 6.8756 71.5286 6.82331 71.4641 6.82331H70.2594C70.1948 6.82331 70.1426 6.77101 70.1426 6.7065V5.96118C70.1426 5.89667 70.1948 5.84437 70.2594 5.84437H71.4641C71.5286 5.84437 71.5809 5.79207 71.5809 5.72756V3.80204C71.5809 3.74636 71.6202 3.69842 71.6748 3.68749L72.6398 3.4945C72.7121 3.48004 72.7795 3.53532 72.7795 3.60903V5.72756C72.7795 5.79207 72.8318 5.84437 72.8963 5.84437H74.3408Z" fill="#4B5563"></path>
<path d="M75.2563 11.1704C75.2563 12.4089 76.4375 13.2956 77.8334 13.2956C79.2752 13.2956 80.4563 12.5918 80.8705 11.4518C80.8858 11.3955 80.9319 11.297 81.0239 11.3252C81.1466 11.3533 81.1006 11.48 81.0545 11.5926C80.9472 11.8882 80.9011 12.0993 80.9011 12.3808V13.0688C80.9011 13.1318 80.9523 13.183 81.0154 13.183H82.0141C82.0771 13.183 82.1283 13.1318 82.1283 13.0688V9.07325C82.1283 6.42723 80.6711 5.86426 78.9071 5.86426C77.2677 5.86426 75.8601 6.48867 75.5281 7.98276C75.5127 8.05201 75.5666 8.11618 75.6376 8.11618H76.6014C76.6573 8.11618 76.7043 8.07564 76.7175 8.0213C76.8659 7.40699 77.4713 6.82132 78.7843 6.82132C80.5791 6.82132 80.8858 7.60949 80.9011 8.17248C80.9166 8.97473 79.4593 8.86213 78.0174 8.97473C76.6369 9.08732 75.2563 9.57993 75.2563 11.1704ZM80.6713 9.33767C80.761 9.28471 80.8975 9.34725 80.891 9.45117C80.7771 11.2598 79.7383 12.2182 78.3395 12.3385C77.0664 12.4512 76.4834 11.7897 76.4834 11.1C76.4834 10.354 77.097 10.0303 78.0481 9.88957C79.08 9.73178 80.1118 9.66819 80.6713 9.33767Z" fill="#4B5563"></path>
<path d="M83.1675 9.57993C83.1675 11.6207 84.5775 13.2956 86.8919 13.2956C88.8989 13.2956 90.0839 12.0509 90.2653 10.7174C90.2743 10.6509 90.2214 10.5933 90.1543 10.5933H89.1814C89.1251 10.5933 89.0775 10.6343 89.0664 10.6895C88.8808 11.6115 88.1524 12.2822 86.9226 12.2822C85.1754 12.2822 84.3937 11.0437 84.3937 9.57993C84.3937 8.11618 85.1754 6.87763 86.9226 6.87763C88.1524 6.87763 88.8808 7.54842 89.0664 8.47042C89.0775 8.52555 89.1251 8.56657 89.1814 8.56657H90.1543C90.2214 8.56657 90.2743 8.50895 90.2652 8.44246C90.083 7.10898 88.8841 5.86426 86.8919 5.86426C84.5316 5.86426 83.1675 7.53913 83.1675 9.57993Z" fill="#4B5563"></path>
<path d="M97.7836 13.2155C97.8808 13.2155 97.9336 13.1015 97.8708 13.0273L94.4606 9.00064C94.4207 8.95351 94.4254 8.88317 94.4713 8.84185L97.5694 6.05245C97.6472 5.98237 97.5976 5.85324 97.4929 5.85324H96.2478C96.2183 5.85324 96.19 5.86465 96.1687 5.88507L92.6214 9.28989C92.5615 9.34741 92.5008 9.41931 92.4264 9.36179C92.3366 9.30427 92.3965 9.218 92.4564 9.1461C92.6813 8.85851 92.7557 8.61407 92.7557 8.2402V3.58108C92.7557 3.51796 92.7045 3.4668 92.6414 3.4668H91.6719C91.6088 3.4668 91.5576 3.51796 91.5576 3.58108V13.1012C91.5576 13.1643 91.6088 13.2155 91.6719 13.2155H92.6414C92.7045 13.2155 92.7557 13.1643 92.7557 13.1012V10.4333C92.7557 10.4011 92.7693 10.3704 92.7932 10.3487L93.5062 9.70153C93.5546 9.65754 93.6301 9.66316 93.6716 9.71386L96.4976 13.1734C96.5193 13.2001 96.5518 13.2155 96.5861 13.2155H97.7836Z" fill="#4B5563"></path>
</g>
<defs>
<clipPath id="clip0_2395_4022">
<rect width="97.9429" height="16" fill="white" transform="translate(0.0283203 0.380859)"></rect>
</clipPath>
</defs>
</svg>