<svg width="24" height="24" viewBox="0 0 24 24" fill="none" xmlns="http://www.w3.org/2000/svg">
<path d="M4.80371 19.3337C4.80371 17.3086 6.44535 15.667 8.47038 15.667H12.137V19.3337C12.137 21.3587 10.4954 23.0003 8.47038 23.0003C6.44535 23.0003 4.80371 21.3587 4.80371 19.3337Z" fill="#24CB71"></path>
<path d="M12.1377 1V8.33333H15.8044C17.8294 8.33333 19.471 6.69169 19.471 4.66667C19.471 2.64164 17.8294 1 15.8044 1H12.1377Z" fill="#FF7237"></path>
<path d="M15.7741 15.6663C17.7991 15.6663 19.4408 14.0247 19.4408 11.9997C19.4408 9.97463 17.7991 8.33301 15.7741 8.33301C13.749 8.33301 12.1074 9.97463 12.1074 11.9997C12.1074 14.0247 13.749 15.6663 15.7741 15.6663Z" fill="#00B6FF"></path>
<path d="M4.80371 4.66667C4.80371 6.69169 6.44535 8.33333 8.47038 8.33333H12.137V1H8.47038C6.44535 1 4.80371 2.64164 4.80371 4.66667Z" fill="#FF3737"></path>
<path d="M4.80371 11.9997C4.80371 14.0247 6.44535 15.6663 8.47038 15.6663H12.137V8.33301H8.47038C6.44535 8.33301 4.80371 9.97465 4.80371 11.9997Z" fill="#874FFF"></path>
</svg>