<svg width="24" height="24" viewBox="0 0 24 24" fill="none" xmlns="http://www.w3.org/2000/svg">
<g clip-path="url(#clip0_374_1263)">
<path d="M3.26878 2.40555L14.8214 1.53335C16.2237 1.39916 16.591 1.4998 17.4925 2.13718L21.1987 4.7538C21.7997 5.1899 22 5.32408 22 5.82728V20.1516C22 21.0573 21.6661 21.5941 20.5309 21.6611L7.10851 22.4663C6.2404 22.4998 5.83973 22.3992 5.40568 21.8289L2.70117 18.3065C2.20033 17.6356 2 17.1659 2 16.5956V3.84804C2 3.11003 2.33389 2.47265 3.26878 2.40555Z" fill="white"></path>
<path fill-rule="evenodd" clip-rule="evenodd" d="M14.8214 1.53361L3.26878 2.40581C2.33389 2.47291 2 3.11029 2 3.84831V16.5959C2 17.1662 2.20033 17.6694 2.70117 18.3068L5.40568 21.8627C5.83973 22.433 6.27379 22.5672 7.10851 22.5001L20.5309 21.695C21.6661 21.6279 22 21.0911 22 20.1854V5.82754C22 5.35789 21.8331 5.22371 21.2654 4.82115C21.2321 4.7876 21.1987 4.7876 21.1653 4.75406L17.4925 2.17099C16.6244 1.50006 16.2571 1.43297 14.8214 1.53361ZM7.40902 5.59272C6.30718 5.65981 6.07346 5.69335 5.43907 5.15661L3.86978 3.9154C3.70284 3.74767 3.76962 3.54639 4.20367 3.51284L15.3222 2.70773C16.2571 2.64064 16.7245 2.94256 17.0918 3.24447L18.995 4.61987C19.0952 4.65342 19.2955 4.88824 19.0284 4.88824L7.54257 5.59272H7.40902ZM6.14023 20.0512V7.87387C6.14023 7.33712 6.30718 7.1023 6.77462 7.06875L19.9633 6.29719C20.3973 6.26364 20.5977 6.53201 20.5977 7.06875V19.1454C20.5977 19.6822 20.4975 20.1183 19.7963 20.1518L7.17529 20.8898C6.47412 20.9569 6.14023 20.6886 6.14023 20.0512ZM18.5943 8.54479C18.6611 8.9138 18.5943 9.28281 18.227 9.31636L17.626 9.45054V18.441C17.0918 18.7429 16.6244 18.8771 16.2237 18.8771C15.5893 18.8771 15.4224 18.6758 14.9215 18.0719L10.9149 11.7652V17.8371L12.1836 18.139C12.1836 18.139 12.1836 18.8771 11.182 18.8771L8.3773 19.0448C8.31052 18.8771 8.3773 18.4745 8.64441 18.4074L9.37896 18.2061V10.155L8.3773 10.0544C8.31052 9.68537 8.51085 9.14863 9.07846 9.11508L12.0835 8.9138L16.2237 15.2876V9.65182L15.1553 9.51764C15.0885 9.08153 15.389 8.74607 15.7896 8.71252L18.5943 8.54479Z" fill="black"></path>
</g>
<defs>
<clipPath id="clip0_374_1263">
<rect width="20" height="21" fill="white" transform="translate(2 1.5)"></rect>
</clipPath>
</defs>
</svg>