<svg width="24" height="24" viewBox="0 0 24 24" fill="none" xmlns="http://www.w3.org/2000/svg">
<path fill-rule="evenodd" clip-rule="evenodd" d="M6.02992 8.55465C4.85021 7.82154 4.07031 6.55229 4.07031 5.10927C4.07031 2.83979 5.99944 1 8.37912 1H15.7615C18.1412 1 20.0703 2.83979 20.0703 5.10927C20.0703 6.55229 19.2905 7.82154 18.1107 8.55465C19.2905 9.28777 20.0703 10.5571 20.0703 12C20.0703 14.2695 18.1412 16.1093 15.7615 16.1093H15.683C14.5581 16.1093 13.5338 15.6982 12.7665 15.0249V18.8533C12.7665 21.1481 10.7951 23 8.39865 23C6.02385 23 4.07031 21.1649 4.07031 18.8907C4.07031 17.4477 4.85017 16.1785 6.02985 15.4454C4.85017 14.7123 4.07031 13.443 4.07031 12C4.07031 10.5571 4.85021 9.28777 6.02992 8.55465ZM12.7665 12C12.7665 13.5362 14.0723 14.7815 15.683 14.7815H15.7615C17.3722 14.7815 18.678 13.5362 18.678 12C18.678 10.4639 17.3722 9.21861 15.7615 9.21861H15.683C14.0723 9.21861 12.7665 10.4639 12.7665 12ZM11.3742 9.21861H8.37912C6.76838 9.21861 5.46264 10.4639 5.46264 12C5.46264 13.5331 6.76311 14.7764 8.36932 14.7815H8.37389H11.3742V9.21861ZM8.37912 16.1093C8.37585 16.1093 8.37258 16.1093 8.36932 16.1093C6.76311 16.1143 5.46264 17.3577 5.46264 18.8907C5.46264 20.4222 6.78303 21.6722 8.39865 21.6722C10.036 21.6722 11.3742 20.4055 11.3742 18.8533V16.1093H8.37912ZM11.3742 7.89069H8.37912C6.76838 7.89069 5.46264 6.64542 5.46264 5.10927C5.46264 3.57312 6.76838 2.32785 8.37912 2.32785H11.3742V7.89069ZM15.7615 7.89069H12.7665V2.32785H15.7615C17.3722 2.32785 18.678 3.57312 18.678 5.10927C18.678 6.64542 17.3722 7.89069 15.7615 7.89069Z" fill="white"></path>
</svg>