<svg width="105" height="18" viewBox="0 0 105 18" fill="none" xmlns="http://www.w3.org/2000/svg">
<path d="M38.4207 13.3293H33.8842L33.1946 15.4241H29.4565L34.1201 2.5821H38.2211L42.8665 15.4241H39.1103L38.4207 13.3293ZM37.5315 10.597L36.1524 6.44381L34.7915 10.597H37.5315Z" fill="#111827"></path>
<path d="M50.5039 15.4241L47.9634 10.6881H47.5823V15.4241H44.0257V2.5821H49.6328C50.6611 2.5821 51.5321 2.76426 52.2459 3.12857C52.9596 3.48074 53.498 3.97256 53.8609 4.60403C54.2238 5.22337 54.4053 5.92163 54.4053 6.69883C54.4053 7.57318 54.1633 8.34431 53.6794 9.01222C53.2076 9.66798 52.512 10.1355 51.5926 10.4148L54.4778 15.4241H50.5039ZM47.5823 8.24716H49.3425C49.8264 8.24716 50.1893 8.1318 50.4313 7.90107C50.6732 7.67033 50.7942 7.33638 50.7942 6.89921C50.7942 6.48632 50.6672 6.16451 50.4131 5.93378C50.1712 5.6909 49.8143 5.56946 49.3425 5.56946H47.5823V8.24716Z" fill="#111827"></path>
<path d="M55.5872 8.97579C55.5872 7.71284 55.8473 6.58954 56.3675 5.60589C56.8997 4.61011 57.6498 3.83898 58.6176 3.29251C59.5854 2.7339 60.6983 2.45459 61.9564 2.45459C63.5533 2.45459 64.8961 2.88569 65.9849 3.7479C67.0736 4.59796 67.7753 5.75769 68.0898 7.22709H64.261C64.0311 6.74134 63.7106 6.37095 63.2993 6.11593C62.9 5.86091 62.4343 5.7334 61.902 5.7334C61.0794 5.7334 60.4201 6.03093 59.9241 6.62597C59.4402 7.20887 59.1982 7.99214 59.1982 8.97579C59.1982 9.97158 59.4402 10.767 59.9241 11.362C60.4201 11.9449 61.0794 12.2364 61.902 12.2364C62.4343 12.2364 62.9 12.1089 63.2993 11.8539C63.7106 11.5988 64.0311 11.2285 64.261 10.7427H68.0898C67.7753 12.2121 67.0736 13.3779 65.9849 14.2401C64.8961 15.0902 63.5533 15.5152 61.9564 15.5152C60.6983 15.5152 59.5854 15.242 58.6176 14.6955C57.6498 14.1369 56.8997 13.3658 56.3675 12.3821C55.8473 11.3863 55.5872 10.2509 55.5872 8.97579Z" fill="#111827"></path>
<path d="M77.8671 13.3293H73.3306L72.6411 15.4241H68.903L73.5665 2.5821H77.6675L82.3129 15.4241H78.5567L77.8671 13.3293ZM76.978 10.597L75.5989 6.44381L74.2379 10.597H76.978Z" fill="#111827"></path>
<path d="M88.5349 2.5821C89.8777 2.5821 91.0512 2.85533 92.0552 3.4018C93.0714 3.93613 93.8517 4.68904 94.3961 5.66054C94.9405 6.63204 95.2127 7.7432 95.2127 8.994C95.2127 10.2327 94.9344 11.3377 94.3779 12.3092C93.8336 13.2808 93.0533 14.0458 92.0371 14.6044C91.033 15.1509 89.8656 15.4241 88.5349 15.4241H83.4721V2.5821H88.5349ZM88.2627 12.2728C89.3031 12.2728 90.1197 11.9874 90.7124 11.4167C91.3052 10.8459 91.6016 10.0384 91.6016 8.994C91.6016 7.9375 91.3052 7.12386 90.7124 6.55311C90.1197 5.97021 89.3031 5.67876 88.2627 5.67876H87.0288V12.2728H88.2627Z" fill="#111827"></path>
<path d="M100.373 5.44195V7.53675H104.455V10.2509H100.373V12.5643H105V15.4241H96.8159V2.5821H105V5.44195H100.373Z" fill="#111827"></path>
<path fill-rule="evenodd" clip-rule="evenodd" d="M23.3881 8.06629C23.396 7.97202 23.4 7.8772 23.4 7.78189C23.4 4.33758 18.1617 1.54541 11.7 1.54541C5.23827 1.54541 0 4.33758 0 7.78189C0 7.8772 0.00401145 7.97202 0.0119493 8.06629C0.00401145 8.16056 0 8.25537 0 8.35069C0 8.446 0.00401145 8.54082 0.0119493 8.63509C0.00401145 8.72936 0 8.82417 0 8.91949C0 9.0148 0.00401145 9.10962 0.0119493 9.20389C0.00401145 9.29816 0 9.39297 0 9.48829C0 9.5836 0.00401145 9.67842 0.0119493 9.77269C0.00401145 9.86696 0 9.96177 0 10.0571C0 10.1524 0.00401145 10.2472 0.0119493 10.3415C0.00401145 10.4358 0 10.5306 0 10.6259C0 10.7212 0.00401145 10.816 0.0119493 10.9103C0.00401145 11.0046 0 11.0994 0 11.1947C0 11.29 0.00401145 11.3848 0.0119493 11.4791C0.00401145 11.5734 0 11.6682 0 11.7635C0 15.2078 5.23827 18 11.7 18C18.1617 18 23.4 15.2078 23.4 11.7635C23.4 11.6682 23.396 11.5734 23.3881 11.4791C23.396 11.3848 23.4 11.29 23.4 11.1947C23.4 11.0994 23.396 11.0046 23.3881 10.9103C23.396 10.816 23.4 10.7212 23.4 10.6259C23.4 10.5306 23.396 10.4358 23.3881 10.3415C23.396 10.2472 23.4 10.1524 23.4 10.0571C23.4 9.96177 23.396 9.86696 23.3881 9.77269C23.396 9.67842 23.4 9.5836 23.4 9.48829C23.4 9.39297 23.396 9.29816 23.3881 9.20389C23.396 9.10962 23.4 9.0148 23.4 8.91949C23.4 8.82417 23.396 8.72936 23.3881 8.63509C23.396 8.54082 23.4 8.446 23.4 8.35069C23.4 8.25537 23.396 8.16056 23.3881 8.06629Z" fill="#111827"></path>
<ellipse cx="11.7" cy="7.78784" rx="11.7" ry="6.24243" fill="white"></ellipse>
<path fill-rule="evenodd" clip-rule="evenodd" d="M19.7509 11.7853C21.8074 10.6881 22.9279 9.25248 22.9279 7.78784C22.9279 6.32319 21.8074 4.88756 19.7509 3.79032C17.7146 2.70389 14.869 2.01754 11.7 2.01754C8.53097 2.01754 5.68537 2.70389 3.6491 3.79032C1.59258 4.88756 0.472131 6.32319 0.472131 7.78784C0.472131 9.25248 1.59258 10.6881 3.6491 11.7853C5.68537 12.8718 8.53097 13.5581 11.7 13.5581C14.869 13.5581 17.7146 12.8718 19.7509 11.7853ZM11.7 14.0303C18.1617 14.0303 23.4 11.2354 23.4 7.78784C23.4 4.34024 18.1617 1.54541 11.7 1.54541C5.23827 1.54541 0 4.34024 0 7.78784C0 11.2354 5.23827 14.0303 11.7 14.0303Z" fill="#111827"></path>
<path fill-rule="evenodd" clip-rule="evenodd" d="M20.4212 4.65152C20.4212 2.08255 16.5163 0 11.6994 0C6.88243 0 2.97754 2.08255 2.97754 4.65152C2.97754 5.64163 2.97754 6.63257 2.97754 7.62122C2.97754 10.1902 6.88243 12.2727 11.6994 12.2727C16.5163 12.2727 20.4212 10.1902 20.4212 7.62122C20.4212 6.63257 20.4212 5.64163 20.4212 4.65152Z" fill="#111827"></path>
<ellipse cx="11.6994" cy="4.65152" rx="8.72182" ry="4.65152" fill="white"></ellipse>
<path fill-rule="evenodd" clip-rule="evenodd" d="M17.6444 7.52405C19.1621 6.71466 19.949 5.67674 19.949 4.65152C19.949 3.62629 19.1621 2.58837 17.6444 1.77899C16.1471 0.980425 14.046 0.472131 11.6994 0.472131C9.3527 0.472131 7.25162 0.980425 5.75428 1.77899C4.23664 2.58837 3.44967 3.62629 3.44967 4.65152C3.44967 5.67674 4.23664 6.71466 5.75428 7.52405C7.25162 8.32261 9.3527 8.8309 11.6994 8.8309C14.046 8.8309 16.1471 8.32261 17.6444 7.52405ZM11.6994 9.30303C16.5163 9.30303 20.4212 7.22048 20.4212 4.65152C20.4212 2.08255 16.5163 0 11.6994 0C6.88243 0 2.97754 2.08255 2.97754 4.65152C2.97754 7.22048 6.88243 9.30303 11.6994 9.30303Z" fill="#111827"></path>
</svg>