<svg width="104" height="26" viewBox="0 0 104 26" fill="none" xmlns="http://www.w3.org/2000/svg">
<g clip-path="url(#clip0_789_2817)">
<path d="M12.9536 0C20.1077 0 25.9071 5.79951 25.9071 12.9536C25.9071 20.1077 20.1077 25.9071 12.9536 25.9071C5.7995 25.9071 0 20.1077 0 12.9536C3.063e-06 5.79951 5.7995 0 12.9536 0ZM17.0054 12.0727C14.2812 12.0727 12.0727 14.2812 12.0727 17.0054V21.762L21.762 12.0727H17.0054ZM4.1452 13.8344H8.90177C11.626 13.8344 13.8344 11.626 13.8345 8.90177V4.1452L4.1452 13.8344Z" fill="#4B5563"></path>
<path d="M44.8365 2.07251C49.9746 2.07251 53.9643 5.24613 54.9315 10.1426H51.5465C50.7305 7.12006 48.2518 5.0044 44.8968 5.0044C40.5747 5.00442 37.5823 8.35931 37.5823 12.9535C37.5823 17.4872 40.5444 20.9026 44.8968 20.9028C48.3426 20.9028 50.8211 18.787 51.4559 15.6737H44.9875V12.9232H55.0223V23.381H52.302V19.8448C50.8209 22.3837 48.2519 23.8345 44.7761 23.8345C38.7915 23.8345 34.1973 19.3309 34.1973 12.9838C34.1973 6.66675 38.7915 2.07251 44.8365 2.07251ZM86.1425 23.381H83.0897V20.8724C82.1225 22.5349 80.309 23.8345 77.891 23.8345C73.6595 23.8345 70.8185 20.4796 70.8185 15.976C70.8185 11.3214 73.8712 7.81533 78.1027 7.81533C80.3393 7.81535 82.1225 9.02424 83.0897 10.6564V2.52591H86.1425V23.381ZM96.3605 7.81533C100.955 7.81535 103.675 11.3215 103.675 15.825V16.3992H91.736C91.9174 19.3915 93.8821 21.1747 96.3605 21.1747C98.5367 21.1747 99.8666 20.1772 100.441 18.394H103.554C102.798 21.5374 100.018 23.8345 96.3605 23.8345C91.7965 23.8345 88.7137 20.661 88.7137 15.825C88.7137 11.0192 91.9174 7.81533 96.3605 7.81533ZM61.5439 23.381H58.4608V2.52591H61.5439V23.381ZM68.2816 23.381H65.1987V8.26855H68.2816V23.381ZM78.5861 10.596C75.8357 10.596 73.9919 12.8024 73.9919 15.8248C73.9919 18.8473 75.866 21.0538 78.5861 21.0538C81.1856 21.0538 83.1202 19.0286 83.1202 15.8248C83.12 12.621 81.1856 10.596 78.5861 10.596ZM96.3302 10.3845C94.0937 10.3845 92.1593 11.805 91.7966 14.2531H100.622C100.32 11.9258 98.6273 10.3845 96.3302 10.3845ZM68.3119 5.85064H65.1683V2.52591H68.3119V5.85064Z" fill="#4B5563"></path>
</g>
<defs>
<clipPath id="clip0_789_2817">
<rect width="103.814" height="26" fill="white"></rect>
</clipPath>
</defs>
</svg>