<svg width="133" height="26" viewBox="0 0 133 26" fill="none" xmlns="http://www.w3.org/2000/svg">
<g clip-path="url(#clip0_789_2820)">
<mask id="mask0_789_2820" style="mask-type:luminance" maskUnits="userSpaceOnUse" x="0" y="0" width="133" height="26">
<path d="M0.206055 0.30542H132.27V25.934H0.206055V0.30542Z" fill="white"></path>
</mask>
<g mask="url(#mask0_789_2820)">
<path d="M56.4469 25.3962H51.6332L41.1135 14.6429H39.1524V25.3962H35.5867V0.304932H47.5322C52.5602 0.304932 55.5555 2.99325 55.5555 7.47392C55.5555 11.9546 52.5602 14.6425 47.5322 14.6425H45.7494L56.4469 25.3962ZM51.9898 7.47392C51.9898 4.92922 50.5631 3.35188 47.5322 3.35188H39.1524V11.5959H47.5322C50.5631 11.5959 51.9898 10.019 51.9898 7.47392ZM65.5771 25.9339C59.8715 25.9339 56.3054 21.6683 56.3054 16.0766C56.3054 10.485 59.8715 6.21931 65.3988 6.21931C69.8559 6.21931 72.5306 8.72852 73.7072 12.4564C74.1352 13.8542 74.3135 15.3952 74.3135 16.9726V17.3312H59.7287C59.8356 20.3419 62.0469 23.2452 65.5771 23.2452C68.6079 23.2452 69.9987 21.4892 70.2839 20.1986H73.9569C73.101 23.2456 70.2484 25.9339 65.5771 25.9339ZM59.7287 14.6425H70.8901C70.7119 11.4168 69.0004 8.90763 65.3988 8.90763C61.7972 8.90763 59.8356 11.5955 59.7287 14.6425ZM74.4897 9.6249V6.75747H78.9473V2.4555H82.3706V6.75706H87.1843V9.62449H82.3706V20.9155C82.3706 22.1701 82.7272 22.6001 83.9752 22.6001H87.1843V25.3962H83.262C80.017 25.3962 78.9473 23.7829 78.9473 20.9155V9.62407L74.4897 9.6249ZM97.0268 6.21931C102.732 6.21931 106.476 10.485 106.476 16.0766C106.476 21.6683 102.732 25.9339 97.0268 25.9339C91.3212 25.9339 87.5768 21.6683 87.5768 16.0766C87.5768 10.485 91.3212 6.21931 97.0268 6.21931ZM97.0268 9.08674C93.14 9.08674 91.0001 12.3128 91.0001 16.0766C91.0001 19.8404 93.14 23.0661 97.0268 23.0661C100.914 23.0661 103.053 19.84 103.053 16.0766C103.053 12.3132 100.914 9.08674 97.0268 9.08674ZM117.438 6.21931C123.144 6.21931 126.888 10.485 126.888 16.0766C126.888 21.6683 123.144 25.9339 117.438 25.9339C111.732 25.9339 107.988 21.6683 107.988 16.0766C107.988 10.485 111.732 6.21931 117.438 6.21931ZM117.438 9.08674C113.551 9.08674 111.411 12.3128 111.411 16.0766C111.411 19.8404 113.551 23.0661 117.438 23.0661C121.325 23.0661 123.465 19.84 123.465 16.0766C123.465 12.3132 121.325 9.08674 117.438 9.08674ZM132.292 0.305344V25.3962H128.869V0.304932L132.292 0.305344ZM15.8869 1.48112C15.8869 1.32666 15.8565 1.17372 15.7974 1.03101C15.7383 0.888312 15.6517 0.758649 15.5424 0.64943C15.4332 0.54021 15.3036 0.453573 15.1609 0.394464C15.0182 0.335355 14.8652 0.304932 14.7108 0.304932H1.38225C1.22775 0.304932 1.07477 0.335368 0.932041 0.394503C0.789312 0.453638 0.659632 0.540313 0.550407 0.649576C0.441182 0.758839 0.354553 0.88855 0.295468 1.0313C0.236384 1.17405 0.206001 1.32704 0.206055 1.48153V6.97001C0.206055 7.28196 0.329974 7.58112 0.550553 7.8017C0.771131 8.02228 1.0703 8.1462 1.38225 8.1462H14.7112C14.8656 8.1462 15.0186 8.17662 15.1613 8.23573C15.304 8.29484 15.4336 8.38148 15.5429 8.4907C15.6521 8.59992 15.7387 8.72958 15.7978 8.87228C15.8569 9.01499 15.8874 9.16793 15.8874 9.32239V10.8902C15.8874 11.2022 15.7634 11.5013 15.5429 11.7219C15.3223 11.9425 15.0231 12.0664 14.7112 12.0664H6.08659C5.77465 12.0664 5.47548 12.1903 5.2549 12.4109C5.03432 12.6315 4.9104 12.9307 4.9104 13.2426V18.7307C4.9104 19.0426 5.03432 19.3418 5.2549 19.5624C5.47548 19.7829 5.77465 19.9069 6.08659 19.9069H14.7112C15.0231 19.9069 15.3223 20.0308 15.5429 20.2514C15.7634 20.4719 15.8874 20.7711 15.8874 21.0831V24.2192C15.8874 24.531 16.0112 24.8301 16.2317 25.0507C16.4522 25.2713 16.7513 25.3952 17.0631 25.3953H22.5516C22.7061 25.3953 22.859 25.3649 23.0017 25.3058C23.1444 25.2467 23.2741 25.1601 23.3833 25.0508C23.4925 24.9416 23.5792 24.812 23.6383 24.6693C23.6974 24.5266 23.7278 24.3736 23.7278 24.2192V18.7303C23.7278 18.5758 23.6974 18.4229 23.6383 18.2802C23.5792 18.1375 23.4925 18.0078 23.3833 17.8986C23.2741 17.7894 23.1444 17.7027 23.0017 17.6436C22.859 17.5845 22.7061 17.5541 22.5516 17.5541H17.0631C16.7512 17.5541 16.452 17.4302 16.2314 17.2096C16.0109 16.989 15.8869 16.6898 15.8869 16.3779V14.8096C15.8871 14.4978 16.011 14.1987 16.2316 13.9782C16.4522 13.7577 16.7513 13.6339 17.0631 13.6339H22.5516C22.8636 13.6339 23.1627 13.5099 23.3833 13.2894C23.6039 13.0688 23.7278 12.7696 23.7278 12.4577V6.9696C23.7278 6.65765 23.6039 6.35848 23.3833 6.13791C23.1627 5.91733 22.8636 5.79341 22.5516 5.79341H17.0631C16.7512 5.79341 16.452 5.66949 16.2314 5.44891C16.0109 5.22833 15.8869 4.92916 15.8869 4.61722V1.48112Z" fill="#4B5563"></path>
</g>
</g>
<defs>
<clipPath id="clip0_789_2820">
<rect width="132.476" height="26" fill="white"></rect>
</clipPath>
</defs>
</svg>