<svg width="150" height="24" viewBox="0 0 150 24" fill="none" xmlns="http://www.w3.org/2000/svg">
<g clip-path="url(#clip0_789_2872)">
<path d="M57.8596 12.87L55.8676 12.687C54.5616 12.573 54.0356 12.115 54.0356 11.313C54.0356 10.374 54.8366 9.756 56.3936 9.756C57.8596 9.756 58.5926 10.396 58.7066 11.427H63.3786C63.0806 8.382 60.9286 6.229 56.5316 6.229C51.9516 6.229 49.4316 8.565 49.4316 11.656C49.4316 14.542 51.0116 16.122 54.9286 16.443L56.8986 16.603C58.4316 16.718 58.9816 17.244 58.9816 18.16C58.9816 19.122 58.1806 19.832 56.5316 19.832C54.9966 19.832 54.0816 19.145 53.9216 17.932H48.9966C49.4316 21.252 51.7676 23.45 56.5086 23.45C61.1116 23.45 63.6536 21.092 63.6536 17.908C63.6536 14.817 61.9586 13.237 57.8596 12.87ZM41.7376 6.229C38.8066 6.229 37.0656 7.763 36.2416 10.901H35.9436V6.504H31.3176V23.176H36.2416V13.466C36.2416 11.244 37.3866 10.031 39.4476 10.031C41.4856 10.031 42.4936 11.291 42.4936 13.443V23.176H47.4166V12.573C47.4166 8.542 45.3106 6.229 41.7376 6.229ZM26.5316 0C24.8596 0 23.5996 1.1 23.5996 2.771C23.5996 4.443 24.8366 5.542 26.5086 5.542C28.1806 5.542 29.4166 4.442 29.4166 2.771C29.4166 1.122 28.1806 0 26.5316 0ZM28.9816 6.504H24.0576V23.176H28.9816V6.504ZM71.3936 2.977H68.2566C68.1646 5.657 67.0196 6.824 64.4546 7.03V10.42H66.4706V17.748C66.4706 21.435 68.5766 23.45 72.7676 23.45C73.5556 23.45 74.3406 23.35 75.1036 23.153V19.19C74.7104 19.2553 74.3122 19.2857 73.9136 19.281C72.1496 19.281 71.3936 18.617 71.3936 16.762V10.42H75.7226V6.504H71.3936V2.977ZM149.486 10.42V6.504H145.158V2.977H142.066C141.997 4.832 141.448 5.908 140.234 6.504V17.748C140.234 21.435 142.341 23.45 146.532 23.45C147.32 23.45 148.105 23.35 148.868 23.153V19.19C148.474 19.2553 148.076 19.2858 147.677 19.281C145.913 19.281 145.158 18.617 145.158 16.762V10.42H149.486ZM133.364 11.153H133.066V6.503H128.509V23.176H133.433V14.153C133.433 11.656 134.555 10.603 137.12 10.603C137.555 10.603 138.036 10.649 138.7 10.763V6.458C138.251 6.30053 137.778 6.22302 137.303 6.229C135.31 6.229 133.936 7.374 133.364 11.153ZM101.921 19.237C99.6076 19.237 97.9356 17.702 97.9356 14.725C97.9356 12.069 99.4926 10.42 101.875 10.42C103.913 10.42 105.081 11.565 105.425 13.397H110.417C109.936 9.114 106.868 6.229 101.944 6.229C96.5386 6.229 92.9896 9.893 92.9896 14.909C92.9896 20.107 96.4016 23.45 101.875 23.45C106.845 23.45 110.074 20.68 110.532 16.19H105.539C105.265 18.023 104.005 19.237 101.921 19.237ZM84.2646 6.229C79.9816 6.229 77.3946 8.336 76.9356 12.114H81.6536C81.8136 10.809 82.6616 10.122 84.1496 10.122C85.6606 10.122 86.3476 10.809 86.3476 11.794C86.3476 12.618 85.8216 13.054 84.4706 13.305L82.2256 13.718C78.2646 14.45 76.7526 16.076 76.7526 18.664C76.7526 21.618 78.8366 23.474 81.7226 23.474C84.0806 23.474 85.6156 22.374 86.3256 19.626H86.6226V23.176H91.2726V12.298C91.2726 8.519 89.0046 6.229 84.2646 6.229ZM83.7146 20.107C82.3866 20.107 81.6306 19.397 81.6306 18.343C81.6306 17.473 82.1576 16.878 83.4626 16.58L84.3786 16.374C85.1686 16.191 85.7816 15.947 86.3486 15.457V17.221C86.3486 19.259 85.2716 20.107 83.7146 20.107ZM119.257 6.229C114.974 6.229 112.387 8.336 111.929 12.114H116.646C116.807 10.809 117.654 10.122 119.142 10.122C120.654 10.122 121.341 10.809 121.341 11.794C121.341 12.618 120.814 13.054 119.463 13.305L117.219 13.718C113.257 14.45 111.745 16.076 111.745 18.664C111.745 21.618 113.829 23.474 116.715 23.474C119.074 23.474 120.608 22.374 121.318 19.626H121.616V23.176H126.265V12.298C126.265 8.519 123.997 6.229 119.257 6.229ZM118.707 20.107C117.379 20.107 116.623 19.397 116.623 18.343C116.623 17.473 117.15 16.878 118.455 16.58L119.371 16.374C120.161 16.191 120.775 15.947 121.341 15.457V17.221C121.341 19.259 120.265 20.107 118.707 20.107Z" fill="#4B5563"></path>
<path d="M15.77 3.9889C14.758 3.9889 14.036 4.4299 13.37 5.3879L11.45 8.1449V0.274902H6.87002V8.1449L4.95002 5.3879C4.28502 4.4299 3.56302 3.9889 2.55002 3.9889C1.02202 3.9889 0.00502124 5.1169 2.12364e-05 6.5069C-0.00397876 7.6969 0.557021 8.4729 1.74002 9.2349L9.16002 14.0149L16.58 9.2349C17.763 8.4729 18.324 7.6969 18.32 6.5069C18.316 5.1169 17.298 3.9889 15.77 3.9889Z" fill="#4B5563"></path>
<path d="M9.16541 15.1602C13.5754 15.1602 17.1904 18.4522 17.1804 23.1762H1.15041C1.14141 18.4542 4.75541 15.1602 9.16541 15.1602Z" fill="#4B5563"></path>
</g>
<defs>
<clipPath id="clip0_789_2872">
<rect width="150" height="24" fill="white"></rect>
</clipPath>
</defs>
</svg>