<svg width="58" height="40" viewBox="0 0 58 40" fill="none" xmlns="http://www.w3.org/2000/svg">
<g clip-path="url(#clip0_789_2828)">
<path d="M14.8711 0.115723C18.4521 0.115852 21.6556 1.82305 23.666 4.47217L24.0176 4.11084C25.8242 2.40337 28.2391 1.36182 30.8896 1.36182C34.6592 1.36186 37.9264 3.4554 39.6855 6.57568C41.2469 5.87774 42.9382 5.51724 44.6484 5.51807C51.4338 5.51807 56.9414 11.0683 56.9414 17.9165C56.9413 24.7646 51.4337 30.314 44.6484 30.314C43.8193 30.3139 43.0111 30.2312 42.2197 30.0737C40.6804 32.8171 37.7375 34.6812 34.3867 34.6812C33.0227 34.6838 31.6763 34.3737 30.4502 33.7759C28.89 37.4408 25.2558 40.0171 21.0254 40.0171C16.6067 40.017 12.8581 37.2311 11.4131 33.3149C10.7699 33.4507 10.1143 33.5194 9.45703 33.519C4.20065 33.519 -0.0505465 29.205 -0.0507812 23.9067C-0.0507812 20.3465 1.86333 17.2462 4.70312 15.5708C4.10077 14.1831 3.79042 12.6862 3.79199 11.1733C3.79199 5.05816 8.75591 0.115723 14.8711 0.115723ZM33.1924 14.0337C32.595 14.0337 32.1236 14.2033 31.793 14.5366C31.4649 14.8675 31.2419 15.3718 31.1299 16.0347L31.0889 16.2583H30.3389C30.3329 16.2582 30.2473 16.258 30.2285 16.354L30.1055 17.0415C30.097 17.1071 30.1251 17.1484 30.2129 17.1479H30.9434L30.2021 21.2827C30.1442 21.6155 30.0774 21.8897 30.0039 22.0972C29.9315 22.3017 29.8615 22.4556 29.7744 22.5669C29.69 22.6747 29.6096 22.754 29.4717 22.8003C29.3578 22.8386 29.2266 22.8559 29.083 22.856C29.0031 22.856 28.8968 22.8423 28.8184 22.8267C28.7398 22.8112 28.6985 22.7938 28.6396 22.769C28.6372 22.7681 28.5539 22.7378 28.5205 22.8218C28.4929 22.8923 28.2985 23.4273 28.2754 23.4937C28.252 23.5589 28.2847 23.6106 28.3262 23.6255C28.4233 23.6602 28.4956 23.6822 28.6279 23.7134C28.8118 23.7567 28.9672 23.7593 29.1123 23.7593C29.4162 23.7592 29.6932 23.7171 29.9229 23.6343C30.154 23.5507 30.3552 23.4046 30.5332 23.2075C30.7256 22.995 30.8471 22.7727 30.9629 22.4692C31.0774 22.1683 31.1748 21.7942 31.2529 21.3589L31.9971 17.1479H33.085C33.085 17.1479 33.1772 17.1506 33.1963 17.0513L33.3193 16.3647C33.3279 16.2991 33.2999 16.258 33.2119 16.2583H32.1553C32.1605 16.2344 32.2088 15.8629 32.3301 15.5132C32.3818 15.3639 32.479 15.2434 32.5615 15.1606C32.6385 15.082 32.7333 15.0231 32.8379 14.9888C32.9526 14.9533 33.0723 14.9354 33.1924 14.937C33.2918 14.937 33.3895 14.9498 33.4639 14.9653C33.5661 14.9871 33.606 14.9984 33.6328 15.0063C33.7404 15.0392 33.7552 15.0067 33.7764 14.9546L34.0293 14.2612C34.055 14.1869 33.9912 14.1552 33.9678 14.146C33.8607 14.1137 33.7518 14.088 33.6416 14.0688C33.4932 14.0441 33.3428 14.0321 33.1924 14.0337ZM10.207 16.1421C9.13691 16.1421 8.38871 16.7887 8.38867 17.7144V17.7339C8.38873 18.7097 9.2147 19.0286 9.98535 19.2485L10.1084 19.2866C10.6697 19.4592 11.1562 19.6097 11.1562 20.0034V20.0229C11.1562 20.3852 10.8397 20.6557 10.333 20.6558C10.1359 20.6558 9.50769 20.6522 8.82715 20.2222C8.74503 20.1743 8.698 20.1397 8.63477 20.1011C8.60126 20.0808 8.51691 20.0441 8.48047 20.1538L8.25 20.7944L8.23828 20.853C8.23735 20.8986 8.26667 20.9129 8.27539 20.9253C8.3824 21.0028 8.4917 21.0586 8.60059 21.1216C9.18264 21.4293 9.73101 21.52 10.3047 21.52C11.4732 21.52 12.2001 20.8979 12.2002 19.897V19.8774C12.2002 18.9518 11.3788 18.6144 10.6123 18.3735L10.5127 18.3413C9.93264 18.1533 9.43173 17.989 9.43164 17.6079V17.5884C9.43175 17.2618 9.72547 17.021 10.1777 17.021C10.6802 17.0211 11.279 17.1883 11.6621 17.3999C11.6641 17.4012 11.7765 17.4722 11.8174 17.3638C11.8402 17.3035 12.0344 16.7828 12.0557 16.7231C12.0779 16.6618 12.039 16.6152 11.999 16.5913C11.5592 16.3232 10.9515 16.1411 10.3232 16.1411L10.207 16.1421ZM27.3145 16.1401C26.2445 16.1402 25.4973 16.787 25.4971 17.7124V17.7329C25.4973 18.7085 26.3222 19.0267 27.0928 19.2466L27.2158 19.2856C27.7791 19.4582 28.2636 19.6078 28.2637 20.0015V20.021C28.2636 20.3832 27.9472 20.6538 27.4404 20.6538C27.2429 20.6538 26.6131 20.6503 25.9346 20.2202C25.8525 20.1724 25.8044 20.1392 25.7422 20.0991C25.721 20.0857 25.6216 20.0471 25.5879 20.1519L25.3574 20.7925L25.3477 20.8511C25.3466 20.8966 25.3755 20.911 25.3848 20.9233C25.4914 21.0008 25.6011 21.0576 25.71 21.1206C26.2919 21.4282 26.8405 21.518 27.4141 21.5181C28.5826 21.5181 29.3095 20.896 29.3096 19.895V19.8755C29.3096 18.95 28.4912 18.6124 27.7227 18.3716L27.6221 18.3394C27.042 18.1513 26.5411 17.987 26.541 17.606V17.5864C26.5413 17.26 26.835 17.0191 27.2871 17.019C27.7895 17.0191 28.3862 17.1863 28.7715 17.3979C28.7735 17.3992 28.8856 17.4702 28.9268 17.3618C28.9496 17.3009 29.1441 16.7802 29.1631 16.7212C29.1854 16.6599 29.1462 16.6132 29.1064 16.5894C28.6668 16.3215 28.0596 16.1392 27.4316 16.1392L27.3145 16.1401ZM35.7783 16.1577C35.3806 16.1578 35.0308 16.2289 34.7314 16.3677C34.4343 16.5067 34.1813 16.6985 33.9824 16.937C33.7839 17.1757 33.6344 17.4611 33.5381 17.7856C33.4429 18.108 33.3945 18.4598 33.3945 18.8345C33.3945 19.2092 33.4429 19.5609 33.5381 19.8833C33.6338 20.2079 33.7835 20.4932 33.9824 20.7319C34.1815 20.9705 34.4343 21.1613 34.7314 21.2974C35.0308 21.433 35.3827 21.5024 35.7783 21.5024C36.1741 21.5024 36.5268 21.4331 36.8242 21.2974C37.1214 21.1617 37.3744 20.9705 37.5732 20.7319C37.772 20.4932 37.9212 20.2079 38.0176 19.8833C38.1126 19.5609 38.1611 19.2092 38.1611 18.8345C38.1611 18.4619 38.1126 18.108 38.0176 17.7856L37.9375 17.5493C37.8458 17.3211 37.7244 17.116 37.5752 16.937C37.3761 16.6985 37.1254 16.5058 36.8262 16.3677C36.5288 16.2284 36.1762 16.1577 35.7783 16.1577ZM22.5859 16.1548C22.1735 16.1548 21.7987 16.224 21.4951 16.3657C21.1915 16.5085 20.9354 16.7029 20.7344 16.9458C20.5341 17.1886 20.3825 17.4756 20.2861 17.8042C20.19 18.1287 20.1416 18.4852 20.1416 18.8579C20.1416 19.239 20.1921 19.5932 20.292 19.9136C20.3921 20.236 20.5538 20.5189 20.7695 20.7534C20.9873 20.99 21.2656 21.1744 21.6006 21.3042C21.9336 21.433 22.3359 21.5 22.8008 21.4985C23.7557 21.4954 24.2586 21.2827 24.4639 21.1675C24.5002 21.1469 24.5344 21.1111 24.4912 21.0093L24.2754 20.4038C24.2431 20.3174 24.1575 20.3441 24.1514 20.3462C23.9147 20.4346 23.5792 20.5934 22.7939 20.5913C22.2832 20.5904 21.9018 20.4398 21.6631 20.2026C21.4202 19.9598 21.2992 19.6054 21.2803 19.103L24.5889 19.105C24.5906 19.105 24.6756 19.1031 24.6846 19.019C24.6886 18.9812 24.7976 18.3389 24.5859 17.5972H24.584C24.5011 17.2852 24.2952 16.9683 24.1611 16.8237C23.9475 16.5955 23.7396 16.4342 23.5322 16.3462C23.233 16.219 22.9111 16.1542 22.5859 16.1548ZM49.0361 16.1548C48.6237 16.1548 48.2489 16.224 47.9453 16.3657C47.6417 16.5085 47.3856 16.7029 47.1846 16.9458C46.9838 17.1886 46.8327 17.4756 46.7363 17.8042C46.64 18.1287 46.5918 18.4852 46.5918 18.8579C46.5918 19.239 46.642 19.5932 46.7412 19.9136C46.8415 20.236 47.003 20.5189 47.2207 20.7534C47.4385 20.99 47.7177 21.1744 48.0527 21.3042C48.3857 21.4329 48.7902 21.5 49.2529 21.4985C50.2071 21.4953 50.7096 21.2827 50.915 21.1675C50.9517 21.147 50.9865 21.1112 50.9434 21.0093L50.7275 20.4038C50.6955 20.3173 50.6096 20.3441 50.6035 20.3462C50.3669 20.4346 50.0314 20.5934 49.2461 20.5913C48.7332 20.5904 48.354 20.4398 48.1152 20.2026C47.8724 19.9598 47.7513 19.6054 47.7324 19.103L51.041 19.105C51.0428 19.105 51.1278 19.1031 51.1367 19.019C51.1408 18.9811 51.2495 18.3389 51.0381 17.5972H51.0342C50.9511 17.2852 50.7454 16.9683 50.6113 16.8237C50.3977 16.5955 50.1897 16.4342 49.9824 16.3462C49.6832 16.219 49.3613 16.1542 49.0361 16.1548ZM44.7891 16.144C44.3786 16.144 44.0142 16.2149 43.7021 16.354C43.3902 16.4928 43.1264 16.6847 42.917 16.9233C42.7077 17.162 42.5482 17.4466 42.4414 17.771C42.3357 18.0935 42.2822 18.4479 42.2822 18.8228C42.2823 19.6311 42.5003 20.2866 42.9316 20.7661C43.3631 21.2477 44.0124 21.4907 44.8584 21.4907C45.3588 21.4907 45.8717 21.3896 46.2402 21.2437C46.2402 21.2437 46.3108 21.2095 46.2803 21.1274L46.0391 20.4663L46.0234 20.436C45.9854 20.3813 45.918 20.4053 45.9141 20.4067C45.7723 20.461 45.6202 20.5115 45.459 20.5366C45.2967 20.5621 45.116 20.5747 44.9258 20.5747C44.4547 20.5747 44.0776 20.434 43.8096 20.1558C43.5394 19.8772 43.3885 19.4291 43.3906 18.8218C43.3921 18.269 43.5259 17.8539 43.7656 17.5356C44.0022 17.2219 44.3663 17.0582 44.8477 17.0581C45.2496 17.0581 45.5575 17.1057 45.8799 17.2065C45.8811 17.2071 45.9567 17.2384 45.9932 17.1392C46.0788 16.9026 46.1425 16.7326 46.2344 16.4731C46.2602 16.3992 46.1974 16.3671 46.1738 16.3579C46.0474 16.3085 45.7486 16.228 45.5225 16.1938C45.3109 16.1616 45.0655 16.144 44.7891 16.144ZM15.0254 16.147C14.7782 16.147 14.3783 16.1801 14.1396 16.228C14.1272 16.2305 13.4169 16.3703 13.1221 16.6011C13.1198 16.6025 13.0578 16.6434 13.0928 16.7329L13.3271 17.3608C13.3559 17.4408 13.4333 17.4153 13.4355 17.4146C13.4373 17.4139 13.4612 17.4038 13.4893 17.3872C14.1219 17.0427 14.9238 17.0522 14.9287 17.0522C15.2844 17.0523 15.5609 17.1239 15.7451 17.2651C15.9254 17.4036 16.0176 17.6135 16.0176 18.0532V18.1929C15.7349 18.1518 15.4727 18.1284 15.4727 18.1284L15.4697 18.1206C15.3357 18.1108 15.1614 18.106 14.9541 18.106C14.6715 18.106 14.397 18.1404 14.1416 18.2095C13.8841 18.279 13.652 18.3876 13.4531 18.5308C13.2538 18.673 13.0896 18.859 12.9736 19.0747C12.8566 19.2925 12.7969 19.5484 12.7969 19.8374C12.7969 20.1304 12.8478 20.3841 12.9482 20.5913C13.0467 20.7968 13.1954 20.9742 13.3799 21.1079C13.5635 21.2415 13.79 21.3413 14.0518 21.3999C14.3113 21.4591 14.6044 21.4887 14.9268 21.4888C15.266 21.4888 15.604 21.4599 15.9307 21.4048C16.2087 21.3568 16.4859 21.3034 16.7617 21.2437C16.8704 21.2186 16.991 21.1859 16.9941 21.1851C17.0742 21.1647 17.0695 21.0799 17.0693 21.0767L17.0674 18.061C17.0674 17.3993 16.8909 16.9067 16.542 16.603C16.1944 16.2995 15.685 16.147 15.0254 16.147ZM18.2383 14.1401C18.1829 14.1402 18.1436 14.1857 18.1436 14.2407V21.2915C18.1438 21.3465 18.183 21.391 18.2383 21.3911H19.1143C19.1694 21.3911 19.2088 21.3466 19.209 21.2915V14.2407C19.209 14.1856 19.1695 14.1401 19.1143 14.1401H18.2383ZM41.4639 16.2046C41.0493 16.1787 40.8186 16.2483 40.6113 16.3413C40.4066 16.4337 40.1803 16.5827 40.0547 16.7544L40.0537 16.3521C40.0537 16.2968 40.0147 16.2524 39.959 16.2524H39.1133C39.0584 16.2525 39.0186 16.2968 39.0186 16.3521V21.2739C39.0187 21.3003 39.0293 21.3256 39.0479 21.3442C39.0666 21.363 39.0926 21.3735 39.1191 21.3735H39.9863C40.0127 21.3734 40.038 21.3629 40.0566 21.3442C40.0753 21.3255 40.0858 21.3003 40.0859 21.2739V18.8022C40.0859 18.4715 40.1227 18.1424 40.1953 17.9351C40.2669 17.7302 40.3645 17.5669 40.4844 17.4497C40.5988 17.3365 40.7388 17.2523 40.8926 17.2046C41.0369 17.1632 41.1868 17.1421 41.3369 17.1421C41.5094 17.1422 41.6987 17.1859 41.6992 17.186C41.7626 17.193 41.7978 17.1544 41.8193 17.0972C41.8761 16.9462 42.0369 16.4941 42.0684 16.4038L42.0742 16.3823C42.0742 16.3707 42.0718 16.3589 42.0674 16.3481C42.0628 16.3371 42.0555 16.3263 42.0469 16.3179C42.0383 16.3095 42.0277 16.3027 42.0166 16.2983C41.9594 16.2769 41.6791 16.218 41.4639 16.2046ZM15.1191 18.9419C15.4193 18.9473 15.7189 18.9725 16.0156 19.0181V20.52C16 20.5234 15.5882 20.6112 15.124 20.6392C14.4582 20.6792 14.1598 20.4495 14.1562 20.4458L14.1543 20.4448C14.0248 20.3415 14.0068 20.3157 13.9639 20.2485C13.8985 20.1475 13.8653 20.0038 13.8652 19.8198C13.8652 19.5309 13.9614 19.3215 14.1602 19.1812C14.1589 19.1809 14.4459 18.9336 15.1191 18.9419ZM35.7812 17.0542C36.2167 17.0543 36.5263 17.2048 36.7314 17.5132C36.9391 17.8252 37.0439 18.2691 37.0439 18.8345L37.0391 19.0386C37.0161 19.507 36.9121 19.883 36.7314 20.1597C36.5254 20.4716 36.2145 20.6244 35.7812 20.6245C35.3479 20.6245 35.0371 20.4736 34.834 20.1626C34.6294 19.8485 34.5264 19.3998 34.5264 18.8345C34.5264 18.2693 34.6302 17.8252 34.834 17.5132C35.0367 17.2032 35.3457 17.0542 35.7812 17.0542ZM22.5088 17.0288C22.9418 17.0289 23.2284 17.1996 23.4336 17.5083C23.5695 17.7124 23.6299 17.984 23.6523 18.2876H21.2959C21.3426 17.9736 21.4285 17.7114 21.5635 17.5083C21.7662 17.1984 22.0753 17.0288 22.5088 17.0288ZM48.959 17.0288C49.3923 17.0289 49.6796 17.1993 49.8848 17.5083C50.0208 17.7124 50.0803 17.984 50.1025 18.2876H47.7461C47.7928 17.9736 47.8794 17.7114 48.0146 17.5083C48.2172 17.1987 48.5257 17.0288 48.959 17.0288Z" fill="#4B5563"></path>
</g>
<defs>
<clipPath id="clip0_789_2828">
<rect width="57.1728" height="40" fill="white"></rect>
</clipPath>
</defs>
</svg>