<svg width="144" height="24" viewBox="0 0 144 24" fill="none" xmlns="http://www.w3.org/2000/svg">
<g clip-path="url(#clip0_789_2858)">
<mask id="mask0_789_2858" style="mask-type:luminance" maskUnits="userSpaceOnUse" x="0" y="0" width="144" height="24">
<path d="M143.204 0H0V24H143.204V0Z" fill="white"></path>
</mask>
<g mask="url(#mask0_789_2858)">
<path fill-rule="evenodd" clip-rule="evenodd" d="M38.2682 0.090332L26.0572 23.9614H14.5878L19.698 14.0682H19.4688C15.2529 19.541 8.96262 23.1438 0 23.9614V14.2052C0 14.2052 5.7336 13.8665 9.10422 10.3227H0V0.0905206H10.2322V8.50632L10.4618 8.50538L14.643 0.0905206H22.3814V8.45297L22.611 8.4526L26.9491 0.090332H38.2682Z" fill="#4B5563"></path>
<path d="M104.853 21.327H108.148V2.41162H104.853V21.327Z" fill="#4B5563"></path>
<path fill-rule="evenodd" clip-rule="evenodd" d="M86.6852 21.1335C87.4015 21.4313 88.1297 21.5801 88.8701 21.5801C90.0933 21.5801 91.1876 21.2824 92.1533 20.6869C93.119 20.0914 93.8674 19.2705 94.3986 18.2244C94.9298 17.1702 95.1952 15.9752 95.1952 14.6393C95.1952 13.3034 94.9217 12.1083 94.3745 11.0541C93.8272 9.99993 93.0668 9.18312 92.093 8.60371C91.1193 8.01626 90.0128 7.72654 88.7734 7.73459C87.9849 7.73459 87.2284 7.88749 86.5042 8.1933C85.7798 8.49909 85.1763 8.93365 84.6934 9.49696C84.6562 9.53986 84.62 9.58318 84.5848 9.62692V2.42334H81.2773V21.3267H84.5607L84.5541 19.5608C84.6391 19.6648 84.7298 19.7665 84.8263 19.866C85.3494 20.4053 85.969 20.8277 86.6852 21.1335ZM90.0651 18.0795C89.5259 18.4094 88.9103 18.5745 88.2183 18.5745C87.5342 18.5745 86.9065 18.4054 86.3351 18.0675C85.7638 17.7214 85.3091 17.2507 84.9711 16.6552C84.6412 16.0597 84.4762 15.3837 84.4762 14.6272C84.4682 13.8708 84.6291 13.1947 84.959 12.5992C85.297 11.9957 85.7517 11.5289 86.3231 11.199C86.8944 10.861 87.5261 10.696 88.2183 10.7041C88.9103 10.696 89.5259 10.857 90.0651 11.1869C90.6123 11.5088 91.0308 11.9715 91.3205 12.5751C91.6182 13.1706 91.7671 13.8547 91.7671 14.6272C91.7671 15.3997 91.6182 16.0838 91.3205 16.6793C91.0308 17.2748 90.6123 17.7415 90.0651 18.0795Z" fill="#4B5563"></path>
<path d="M43.041 3.55835H46.8072L50.1762 15.862L53.7601 3.55835H56.8986L60.7855 15.6151L64.0205 3.55835H67.4728L62.3788 21.327H59.1316L55.1793 9.54847L51.5511 21.327H48.2677L43.041 3.55835Z" fill="#4B5563"></path>
<path fill-rule="evenodd" clip-rule="evenodd" d="M73.034 21.6406C71.7222 21.6486 70.5393 21.3588 69.485 20.7714C68.439 20.1759 67.6141 19.3511 67.0105 18.2969C66.415 17.2426 66.1172 16.0396 66.1172 14.6876C66.1172 13.376 66.4231 12.189 67.0346 11.1267C67.6462 10.0645 68.4751 9.23559 69.5212 8.64009C70.5674 8.04459 71.7342 7.74683 73.0219 7.74683C74.4704 7.74683 75.7379 8.06873 76.8242 8.71251C77.9187 9.3563 78.7355 10.2697 79.2746 11.4526C79.8218 12.6276 80.019 13.9754 79.8661 15.4963H69.5264C69.5553 16.1023 69.7064 16.6536 69.98 17.1501C70.2858 17.6973 70.7123 18.1239 71.2594 18.4296C71.8066 18.7354 72.4183 18.8883 73.0943 18.8883C73.6093 18.8803 74.0881 18.7918 74.5307 18.6228C74.9733 18.4458 75.3475 18.2083 75.6534 17.9107C75.9671 17.6128 76.1884 17.2749 76.3172 16.8967H79.7696C79.5604 17.8221 79.1419 18.647 78.5142 19.3712C77.8865 20.0874 77.0978 20.6467 76.1483 21.0491C75.1986 21.4514 74.1605 21.6486 73.034 21.6406ZM69.9921 12.1769C69.7991 12.5132 69.6656 12.8753 69.5912 13.2633H76.4451C76.3954 12.7732 76.2441 12.3265 75.9913 11.9234C75.7017 11.4486 75.3073 11.0825 74.8084 10.825C74.3094 10.5594 73.7461 10.4266 73.1184 10.4266C72.4505 10.4266 71.843 10.5795 71.2958 10.8853C70.7485 11.1911 70.3139 11.6216 69.9921 12.1769Z" fill="#4B5563"></path>
<path d="M97.6225 8.02433C97.6225 6.94597 97.8681 5.98835 98.359 5.15142C98.8498 4.30645 99.5379 3.65059 100.423 3.18385C101.316 2.70904 102.358 2.46361 103.549 2.44751V5.38076C102.994 5.38881 102.519 5.50551 102.125 5.73083C101.739 5.9481 101.441 6.26598 101.232 6.68444C101.039 7.06969 100.935 7.51631 100.92 8.02433H103.477V10.8127H100.918V21.3266H97.6225V10.8127H95.498V8.02433H97.6225Z" fill="#4B5563"></path>
<path fill-rule="evenodd" clip-rule="evenodd" d="M116.526 21.6168C115.182 21.6168 113.979 21.323 112.917 20.7355C111.863 20.1401 111.034 19.3192 110.43 18.2731C109.835 17.2188 109.537 16.0239 109.537 14.6879C109.537 13.3441 109.835 12.1451 110.43 11.0909C111.034 10.0286 111.863 9.20375 112.917 8.61629C113.979 8.02884 115.182 7.73511 116.526 7.73511C117.878 7.73511 119.085 8.02884 120.148 8.61629C121.218 9.20375 122.051 10.0246 122.646 11.0788C123.242 12.133 123.544 13.336 123.552 14.6879C123.544 16.0239 123.242 17.2188 122.646 18.2731C122.059 19.3192 121.23 20.1401 120.16 20.7355C119.089 21.323 117.878 21.6168 116.526 21.6168ZM116.526 18.587C117.234 18.587 117.862 18.426 118.409 18.104C118.957 17.7741 119.379 17.3154 119.677 16.7279C119.975 16.1325 120.123 15.4525 120.123 14.6879C120.123 13.9154 119.975 13.2315 119.677 12.6359C119.379 12.0404 118.957 11.5818 118.409 11.2598C117.862 10.9299 117.234 10.7649 116.526 10.7649C115.826 10.7649 115.203 10.9299 114.655 11.2598C114.116 11.5818 113.698 12.0404 113.4 12.6359C113.102 13.2315 112.957 13.9154 112.965 14.6879C112.965 15.4525 113.114 16.1325 113.412 16.7279C113.718 17.3154 114.136 17.7741 114.667 18.104C115.207 18.426 115.826 18.587 116.526 18.587Z" fill="#4B5563"></path>
<path d="M127.115 8.0249H123.445L127.417 21.3272H130.628L133.24 12.831L136.06 21.3272H139.222L143.206 8.0249H139.887L137.627 16.3047L135.13 8.0249H131.919L129.434 16.4871L127.115 8.0249Z" fill="#4B5563"></path>
</g>
</g>
<defs>
<clipPath id="clip0_789_2858">
<rect width="143.204" height="24" fill="white"></rect>
</clipPath>
</defs>
</svg>