<svg width="124" height="26" viewBox="0 0 124 26" fill="none" xmlns="http://www.w3.org/2000/svg">
<mask id="mask0_1081_939" style="mask-type:luminance" maskUnits="userSpaceOnUse" x="0" y="0" width="124" height="26">
<path d="M124 0H0V26H124V0Z" fill="white"></path>
</mask>
<g mask="url(#mask0_1081_939)">
<path d="M12.5742 25.639V12.699L1.72363 6.18871L11.3761 0.397217L22.1591 6.86701V19.888L12.5742 25.639Z" fill="#111827"></path>
<path d="M0.59375 19.8881V8.30493L4.18815 10.4615V17.6501L10.1786 21.2441V25.6391L0.59375 19.8881Z" fill="#111827"></path>
<path fill-rule="evenodd" clip-rule="evenodd" d="M39.1384 4.99068V18.1201H44.2073V20.5651H36.5371V4.99068H39.1384ZM53.2898 9.69058H55.8131V20.5651H53.2898V19.4261C52.2553 20.3941 51.1426 20.8781 49.9517 20.8781C48.4481 20.8781 47.2051 20.3341 46.2226 19.2481C45.2475 18.1381 44.76 16.7541 44.76 15.0941C44.76 13.4641 45.2475 12.1059 46.2226 11.0192C47.1977 9.93248 48.4183 9.38918 49.8847 9.38918C51.15 9.38918 52.2851 9.91019 53.2898 10.9522V9.69058ZM47.3279 15.0941C47.3279 16.1361 47.6071 16.9851 48.1653 17.6401C48.7384 18.3021 49.4604 18.6331 50.3312 18.6331C51.2617 18.6331 52.0134 18.3131 52.5865 17.6731C53.1596 17.0111 53.4462 16.1701 53.4462 15.1501C53.4462 14.1301 53.1596 13.2891 52.5865 12.627C52.0134 11.9794 51.2691 11.6556 50.3535 11.6556C49.4901 11.6556 48.7682 11.9831 48.1875 12.6381C47.6145 13.3001 47.3279 14.1191 47.3279 15.0941ZM60.575 3.79248V10.9522C61.5798 9.91019 62.7185 9.38918 63.9915 9.38918C65.4575 9.38918 66.6785 9.93618 67.6535 11.0304C68.6285 12.117 69.1155 13.4721 69.1155 15.0941C69.1155 16.7691 68.6245 18.1531 67.6425 19.2481C66.6675 20.3341 65.4355 20.8781 63.9465 20.8781C62.6885 20.8781 61.565 20.3941 60.575 19.4261V20.5651H58.0629V3.79248H60.575ZM66.5485 15.2061C66.5485 14.1641 66.2655 13.3151 65.6995 12.6604C65.1265 11.9905 64.4085 11.6556 63.5445 11.6556C62.6215 11.6556 61.8701 11.9794 61.2895 12.627C60.7163 13.2671 60.4299 14.1011 60.4299 15.1281C60.4299 16.1851 60.7126 17.0291 61.2784 17.6621C61.844 18.3101 62.5885 18.6331 63.5115 18.6331C64.3825 18.6331 65.1045 18.3101 65.6775 17.6621C66.2575 17.0071 66.5485 16.1881 66.5485 15.2061ZM80.7555 15.7191H72.9625C73.0295 16.6131 73.3195 17.3231 73.8335 17.8521C74.3465 18.3731 75.0055 18.6331 75.8095 18.6331C76.4345 18.6331 76.9515 18.4851 77.3615 18.1871C77.7635 17.8891 78.2205 17.3381 78.7345 16.5351L80.8555 17.7181C80.5285 18.2761 80.1825 18.7541 79.8175 19.1531C79.4525 19.5511 79.0615 19.8781 78.6455 20.1351C78.2285 20.3921 77.7785 20.5801 77.2945 20.6991C76.8105 20.8181 76.2855 20.8781 75.7205 20.8781C74.0975 20.8781 72.7945 20.3561 71.8125 19.3141C70.8295 18.2651 70.3385 16.8731 70.3385 15.1391C70.3385 13.4201 70.8145 12.0278 71.7675 10.9634C72.7275 9.91389 74.0005 9.38918 75.5865 9.38918C77.1865 9.38918 78.4515 9.89899 79.3825 10.9187C80.3055 11.931 80.7665 13.3341 80.7665 15.1281L80.7555 15.7191ZM78.1765 13.6651C77.8265 12.3255 76.9815 11.6556 75.6415 11.6556C75.3365 11.6556 75.0505 11.7021 74.7825 11.7951C74.5145 11.8882 74.2705 12.0222 74.0505 12.1971C73.8315 12.372 73.6435 12.5823 73.4875 12.8279C73.3305 13.0731 73.2115 13.3531 73.1295 13.6651H78.1765ZM85.0925 3.79248V20.5651H82.5805V3.79248H85.0925ZM89.8655 3.79248V10.9522C90.8705 9.91019 92.0095 9.38918 93.2825 9.38918C94.7485 9.38918 95.9695 9.93618 96.9445 11.0304C97.9195 12.117 98.4065 13.4721 98.4065 15.0941C98.4065 16.7691 97.9155 18.1531 96.9335 19.2481C95.9585 20.3341 94.7265 20.8781 93.2375 20.8781C91.9795 20.8781 90.8555 20.3941 89.8655 19.4261V20.5651H87.3535V3.79248H89.8655ZM95.8395 15.2061C95.8395 14.1641 95.5565 13.3151 94.9905 12.6604C94.4175 11.9905 93.6995 11.6556 92.8355 11.6556C91.9125 11.6556 91.1615 11.9794 90.5805 12.627C90.0075 13.2671 89.7205 14.1011 89.7205 15.1281C89.7205 16.1851 90.0035 17.0291 90.5695 17.6621C91.1345 18.3101 91.8795 18.6331 92.8025 18.6331C93.6735 18.6331 94.3955 18.3101 94.9685 17.6621C95.5485 17.0071 95.8395 16.1881 95.8395 15.2061ZM99.6295 15.0501C99.6295 13.4791 100.192 12.1432 101.316 11.0415C102.44 9.93988 103.809 9.38918 105.425 9.38918C107.047 9.38918 108.424 9.94368 109.556 11.0528C110.672 12.1617 111.23 13.5241 111.23 15.1391C111.23 16.7691 110.668 18.1351 109.544 19.2361C108.413 20.3301 107.025 20.8781 105.38 20.8781C103.75 20.8781 102.384 20.3191 101.283 19.2031C100.181 18.1011 99.6295 16.7171 99.6295 15.0501ZM102.198 15.0941C102.198 16.1811 102.488 17.0411 103.069 17.6731C103.664 18.3131 104.45 18.6331 105.425 18.6331C106.407 18.6331 107.192 18.3171 107.78 17.6841C108.368 17.0521 108.662 16.2071 108.662 15.1501C108.662 14.0931 108.368 13.2481 107.78 12.6158C107.185 11.9757 106.4 11.6556 105.425 11.6556C104.465 11.6556 103.687 11.9757 103.091 12.6158C102.496 13.2561 102.198 14.0821 102.198 15.0941ZM115.791 14.6811L111.884 9.69058H114.876L117.299 12.8614L119.766 9.69058H122.847L118.828 14.6811L123.483 20.5651H120.492L117.299 16.5011L114.027 20.5651H110.957L115.791 14.6811Z" fill="#111827"></path>
</g>
</svg>