<svg width="120" height="20" viewBox="0 0 120 20" fill="none" xmlns="http://www.w3.org/2000/svg">
<g clip-path="url(#clip0_1122_350)">
<path d="M81.8224 2.8324V4.82685H80.4143V7.26736H81.8224V11.606C81.8224 13.1131 82.1288 14.1306 82.7437 14.7584C83.406 15.3927 84.2953 15.7346 85.212 15.7075C85.9447 15.7249 86.6752 15.621 87.3739 15.3997L87.3461 12.8914C87.0261 12.9653 86.6981 12.9981 86.3699 12.989C85.3645 12.989 85.0574 12.4033 85.0574 11.1193V7.26669H87.4302V4.82617H85.0574V1.93891L81.8224 2.8324ZM69.6463 15.4539H72.9525V9.14926C72.9474 8.89821 72.985 8.64811 73.0637 8.40965C73.3204 7.71678 73.9843 7.25953 74.7232 7.26668C75.9509 7.26668 76.439 8.21577 76.439 9.60957V15.4532H79.7269V9.23333C79.7269 6.03965 78.1237 4.5889 76.0174 4.5889C75.42 4.58802 74.8313 4.73177 74.3015 5.00785C73.7885 5.26139 73.3401 5.62865 72.9904 6.08168H72.9484V0.000732422H69.6463V15.4539ZM64.57 10.7085C64.585 11.0065 64.5471 11.3049 64.4581 11.5898C64.2602 12.3823 63.5449 12.9358 62.7281 12.9287C61.3343 12.9287 60.5533 11.701 60.5533 10.1119C60.5533 8.17238 61.5295 7.085 62.7281 7.085C63.595 7.08867 64.3404 7.69994 64.5137 8.54931C64.5552 8.74651 64.574 8.94779 64.57 9.14926V10.7085ZM67.8749 7.97511C67.8749 6.38471 67.9169 5.49256 67.9596 4.82278H65.0995L64.9876 6.07761H64.9483C64.3208 5.08655 63.204 4.51517 62.0332 4.58618C59.4253 4.58618 57.2071 6.76095 57.2071 10.179C57.2071 13.2331 59.0768 15.3678 61.7119 15.3678C62.8378 15.4083 63.91 14.8854 64.5714 13.9733H64.6093V14.6709C64.6093 16.6369 63.4236 17.4734 61.8475 17.4734C60.7703 17.4657 59.7117 17.1928 58.765 16.6789L58.1101 19.175C59.3049 19.7508 60.6199 20.033 61.9458 19.998C63.4946 20.0872 65.0255 19.6281 66.2696 18.7012C67.4688 17.6273 67.8728 15.9535 67.8728 13.9171L67.8749 7.97511ZM54.3883 0.195973C53.4681 0.156932 52.6905 0.87125 52.6514 1.79146C52.6124 2.71167 53.3267 3.4893 54.2469 3.52834C54.2845 3.52994 54.3222 3.53026 54.3598 3.52931C55.2798 3.59233 56.0767 2.89761 56.1398 1.9776C56.2028 1.0576 55.5081 0.260701 54.5881 0.197682C54.5216 0.193126 54.4549 0.192557 54.3883 0.195973ZM56.0336 4.82617H52.7274V15.4539H56.0336V4.82617ZM41.417 14.7848C42.7148 15.402 44.1356 15.7169 45.5726 15.7061C49.59 15.7061 51.4868 13.5849 51.4868 11.1308C51.4868 9.06656 50.2591 7.71411 47.6796 6.76434C45.7814 6.04032 44.9598 5.6356 44.9598 4.70143C44.9598 3.93403 45.6567 3.2778 47.0932 3.2778C48.1558 3.27678 49.205 3.51521 50.1628 3.97538L50.9018 1.32471C49.7212 0.801973 48.4403 0.544865 47.1495 0.571541C43.705 0.571541 41.6122 2.4826 41.6122 4.97802C41.6122 7.11211 43.2026 8.45236 45.6296 9.30247C47.401 9.93023 48.0979 10.4597 48.0979 11.3667C48.0979 12.3287 47.2891 12.9558 45.7692 12.9558C44.4896 12.9326 43.2312 12.6238 42.0861 12.0521L41.417 14.7848Z" fill="black"></path>
<path d="M116.01 15.4539H119.316V-0.00268555H116.01V15.4539ZM110.905 15.4539H114.211V-0.00268555H110.905V15.4539ZM105.967 11.5897C105.967 11.7775 105.944 11.9646 105.899 12.147C105.65 12.8822 104.959 13.3764 104.183 13.3747C103.525 13.4382 102.94 12.9562 102.877 12.298C102.87 12.2343 102.869 12.1702 102.873 12.1063C102.873 10.8237 104.229 10.419 105.969 10.4325L105.967 11.5897ZM109.175 9.17635C109.175 6.67957 108.045 4.58751 104.502 4.58751C103.07 4.5542 101.652 4.87509 100.373 5.52169L100.987 7.65578C101.878 7.13884 102.887 6.86029 103.917 6.84702C105.549 6.84702 105.856 7.65578 105.856 8.21438V8.36692C102.089 8.35268 99.6072 9.67801 99.6072 12.4399C99.6072 14.2452 101.071 15.7088 102.876 15.7088C102.935 15.7088 102.993 15.7072 103.052 15.704C104.212 15.7499 105.33 15.2672 106.093 14.3916H106.161L106.357 15.4519H109.327C109.206 14.5972 109.155 13.734 109.173 12.871L109.175 9.17635ZM98.8398 12.4548C97.9533 12.7705 97.019 12.931 96.078 12.9293C93.1216 12.9293 91.3773 11.0881 91.3773 8.15947C91.3773 4.89528 93.428 3.30624 96.0502 3.30624C97.0069 3.29987 97.9552 3.48424 98.8398 3.84857L99.5089 1.21282C98.3675 0.749697 97.1417 0.531 95.9105 0.570828C91.4749 0.570828 87.9043 3.34623 87.9043 8.35335C87.9043 12.5239 90.5123 15.7047 95.5756 15.7047C96.8621 15.7414 98.1426 15.5182 99.3408 15.0485L98.8398 12.4548Z" fill="black"></path>
<path d="M0.288086 9.85846L0.324694 9.83609C8.81632 13.8053 20.1742 14.6547 28.2706 9.88693C28.2706 9.88693 27.9682 7.03967 20.2969 4.50696C32.1666 4.38494 36.1711 9.67814 36.1711 9.67814C25.7989 17.7095 9.61559 17.601 0.288086 9.85846Z" fill="black"></path>
<path d="M35.8823 6.42205L35.8538 6.44374C27.3554 2.46842 15.9969 1.61898 7.90048 6.39358C7.90048 6.39358 8.20283 9.23067 15.8735 11.7735C4.0099 11.8888 0 6.59492 0 6.59492C10.3783 -1.4364 26.5623 -1.33675 35.8823 6.42205Z" fill="black"></path>
</g>
<defs>
<clipPath id="clip0_1122_350">
<rect width="119.315" height="20" fill="white"></rect>
</clipPath>
</defs>
</svg>