<svg width="59" height="26" viewBox="0 0 59 26" fill="none" xmlns="http://www.w3.org/2000/svg">
<g clip-path="url(#clip0_1122_334)">
<path d="M58.3026 13.2916C58.3026 9.77198 55.6912 6.86987 52.4128 6.86987C49.1349 6.86987 46.5234 9.77198 46.5234 13.2916C46.5234 16.8112 49.1349 19.7122 52.4128 19.7122C53.6707 19.7087 55.0006 19.36 55.8712 18.4897C56.1363 18.2246 56.3952 17.9996 56.4799 17.6508C56.565 17.3019 56.509 16.9335 56.3247 16.6254C56.1407 16.3173 55.8425 16.0942 55.4954 16.0045C55.0743 15.8957 54.5633 15.9828 54.2517 16.2957C53.7376 16.7336 53.0876 16.9791 52.4128 16.9903C51.1983 16.9903 49.9523 16.1083 49.4603 14.6525H57.1567C57.4726 14.6008 57.7602 14.4196 57.9693 14.1769C58.1785 13.9342 58.2959 13.6256 58.3006 13.3051L58.3026 13.2916ZM49.4626 11.9306C49.9543 10.4728 51.2003 9.59286 52.4152 9.59286C53.6297 9.59286 54.8757 10.4749 55.3678 11.9306H49.4626Z" fill="black"></path>
<path d="M43.4484 8.60668C42.6349 7.84768 41.6233 7.33489 40.5301 7.12776C39.4369 6.92066 38.3076 7.02766 37.2729 7.43645C36.2382 7.8452 35.3406 8.53897 34.6842 9.43719C34.0278 10.3354 33.6396 11.4014 33.5645 12.5114V14.3207C33.6316 15.3392 33.9626 16.3228 34.525 17.1746C35.0874 18.0264 35.8618 18.7173 36.7721 19.1791C37.6823 19.641 38.6971 19.858 39.7166 19.8088C40.7362 19.7596 41.7253 19.4459 42.5869 18.8986V20.0254C42.6023 20.8409 42.3009 21.6307 41.7462 22.2288C41.1916 22.8268 40.4265 23.1867 39.6123 23.2327C38.7977 23.2788 37.9971 23.0074 37.3785 22.4757C36.7599 21.944 36.3714 21.1933 36.2945 20.3812C36.2906 20.2961 36.272 20.2123 36.2394 20.1336C36.1424 19.8303 35.9421 19.5706 35.6734 19.3998C35.4046 19.229 35.0845 19.1578 34.7687 19.1986C34.4529 19.2394 34.1614 19.3897 33.945 19.6233C33.7286 19.8568 33.6009 20.1589 33.5842 20.4769C33.5831 20.497 33.5831 20.5172 33.5842 20.5373C33.5842 20.5373 33.5842 20.5466 33.5842 20.5518C33.5842 20.557 33.5842 20.5581 33.5842 20.5622C33.5842 20.5955 33.5842 20.633 33.5842 20.6736C33.5842 20.686 33.5842 20.6985 33.5842 20.711C33.5842 20.7235 33.5842 20.7401 33.5842 20.7557C33.7675 22.2068 34.4846 23.5375 35.5958 24.4884C36.707 25.4393 38.1326 25.9421 39.5945 25.8989C41.0564 25.8556 42.4498 25.2693 43.5028 24.2544C44.5558 23.2394 45.1932 21.8686 45.2901 20.4093V12.5114C45.192 11.0238 44.5341 9.62848 43.4484 8.60668ZM42.5861 13.9378C42.5936 14.3567 42.5176 14.7729 42.3627 15.1621C42.2075 15.5513 41.9767 15.9057 41.6832 16.2046C41.3893 16.5036 41.0395 16.741 40.653 16.9031C40.2666 17.0652 39.8518 17.1486 39.433 17.1486C39.0141 17.1486 38.5993 17.0652 38.213 16.9031C37.8266 16.741 37.4765 16.5036 37.1829 16.2046C36.8894 15.9057 36.6584 15.5513 36.5034 15.1621C36.3483 14.7729 36.2724 14.3567 36.28 13.9378V12.8974C36.2724 12.4785 36.3483 12.0623 36.5034 11.6731C36.6584 11.2839 36.8894 10.9295 37.1829 10.6306C37.4765 10.3317 37.8266 10.0942 38.213 9.93213C38.5993 9.77007 39.0141 9.68659 39.433 9.68659C39.8518 9.68659 40.2666 9.77007 40.653 9.93213C41.0395 10.0942 41.3893 10.3317 41.6832 10.6306C41.9767 10.9295 42.2075 11.2839 42.3627 11.6731C42.5176 12.0623 42.5936 12.4785 42.5861 12.8974V13.9378Z" fill="black"></path>
<path d="M32.3423 1.06455C32.2764 0.762887 32.0742 0.492838 31.8339 0.299205C31.5936 0.105573 31.2945 0 30.9861 0C30.6777 0 30.3785 0.105573 30.1383 0.299205C29.8981 0.492838 29.6906 0.762887 29.6247 1.06455V7.93713C28.7632 7.38952 27.7742 7.07574 26.755 7.02658C25.7357 6.97742 24.7212 7.19459 23.8111 7.65676C22.901 8.11893 22.1267 8.81018 21.5641 9.66262C21.0016 10.5151 20.6702 11.4994 20.6025 12.5188V14.3276C20.7036 15.8173 21.3659 17.2131 22.4556 18.2326C23.5453 19.252 24.981 19.8191 26.4724 19.8191C27.9638 19.8191 29.3995 19.252 30.4892 18.2326C31.5789 17.2131 32.2412 15.8173 32.3423 14.3276V1.06455ZM26.4735 17.1006C26.059 17.1004 25.6486 17.0185 25.2658 16.8594C24.883 16.7004 24.5353 16.4673 24.2425 16.1736C23.9498 15.8799 23.7177 15.5313 23.5596 15.1477C23.4015 14.7641 23.3204 14.3531 23.3212 13.9381V12.8947C23.3362 12.0675 23.6749 11.2792 24.2646 10.6994C24.8542 10.1197 25.6476 9.79487 26.474 9.79487C27.3004 9.79487 28.0937 10.1197 28.6834 10.6994C29.273 11.2792 29.6118 12.0675 29.6268 12.8947V13.9402C29.6272 14.3551 29.546 14.766 29.3877 15.1494C29.2294 15.5328 28.9972 15.8812 28.7043 16.1747C28.4114 16.4682 28.0637 16.7011 27.6809 16.8599C27.2981 17.0188 26.8878 17.1006 26.4735 17.1006Z" fill="black"></path>
<path fill-rule="evenodd" clip-rule="evenodd" d="M17.9514 7.19556C18.741 7.19556 19.3811 7.83563 19.3811 8.62524V13.9465C19.3811 17.0172 16.8917 19.5066 13.8209 19.5066C10.7502 19.5066 8.26083 17.0172 8.26083 13.9465V12.7564C8.26083 11.2649 7.05167 10.0557 5.5601 10.0557C4.06853 10.0557 2.85938 11.2649 2.85938 12.7564V18.0777C2.85938 18.8672 2.21929 19.5073 1.42969 19.5073C0.640092 19.5073 0 18.8672 0 18.0777V12.7564C0 9.68569 2.48935 7.19634 5.5601 7.19634C8.63086 7.19634 11.1202 9.68569 11.1202 12.7564V13.9465C11.1202 15.438 12.3294 16.6472 13.8209 16.6472C15.3125 16.6472 16.5217 15.438 16.5217 13.9465V8.62524C16.5217 7.83563 17.1618 7.19556 17.9514 7.19556Z" fill="url(#paint0_radial_1122_334)"></path>
</g>
<defs>
<radialGradient id="paint0_radial_1122_334" cx="0" cy="0" r="1" gradientUnits="userSpaceOnUse" gradientTransform="translate(19.9112 7.19556) rotate(153.263) scale(24.1734 24.1734)">
<stop stop-color="#11B8AB"></stop>
<stop offset="0.496528" stop-color="#794AFF"></stop>
<stop offset="1" stop-color="#F75D69"></stop>
</radialGradient>
<clipPath id="clip0_1122_334">
<rect width="58.303" height="26" fill="white"></rect>
</clipPath>
</defs>
</svg>