<svg width="80" height="24" viewBox="0 0 80 24" fill="none" xmlns="http://www.w3.org/2000/svg">
<g clip-path="url(#clip0_1122_340)">
<path d="M27.5328 14.5708L29.1848 13.6378C29.5703 14.6256 30.3412 15.2842 31.7178 15.2842C33.0119 15.2842 33.4799 14.7354 33.4799 14.1591C33.4799 13.3634 32.7366 13.0616 31.1121 12.5951C29.4326 12.1286 27.8081 11.4151 27.8081 9.38458C27.8081 7.35397 29.5427 6.17407 31.415 6.17407C33.2046 6.17407 34.6088 7.07962 35.3247 8.58881L33.5075 9.63151C33.122 8.80831 32.5163 8.25953 31.415 8.25953C30.5063 8.25953 29.9832 8.72602 29.9832 9.32972C29.9832 9.98828 30.3962 10.345 32.0757 10.8389C33.8103 11.3877 35.6551 11.9365 35.6551 14.1317C35.6551 16.1349 34.0031 17.3697 31.6627 17.3697C29.5152 17.3697 28.0834 16.4092 27.4502 14.9275C27.3401 14.7903 27.3951 14.6256 27.5328 14.5708Z" fill="#090D12"></path>
<path d="M44.7968 13.199C44.7968 15.5315 43.0622 17.3151 40.9697 17.3151C39.8133 17.3151 38.9874 16.9034 38.4367 16.1626V20.1963H36.4268V9.57693C36.4268 9.41229 36.5369 9.3025 36.7021 9.3025H38.2439L38.4642 10.2355C39.0148 9.52207 39.8684 9.08301 40.9972 9.08301C43.0622 9.08301 44.7968 10.8666 44.7968 13.199ZM42.7593 13.199C42.7593 11.9093 41.8232 11.0313 40.5842 11.0313C39.3452 11.0313 38.4091 11.9093 38.4091 13.199C38.4091 14.4887 39.3452 15.3668 40.5842 15.3668C41.8508 15.3668 42.7593 14.4887 42.7593 13.199Z" fill="#090D12"></path>
<path d="M45.2646 13.1442C45.2646 10.8118 47.1094 9.00073 49.3946 9.00073C51.7074 9.00073 53.5521 10.8118 53.5521 13.1442C53.5521 15.4766 51.7074 17.2877 49.3946 17.2877C47.1094 17.2602 45.2646 15.4766 45.2646 13.1442ZM51.5697 13.1442C51.5697 11.882 50.6337 10.9764 49.3946 10.9764C48.1832 10.9764 47.2196 11.882 47.2196 13.1442C47.2196 14.4064 48.1556 15.312 49.3946 15.312C50.6337 15.312 51.5697 14.4064 51.5697 13.1442Z" fill="#090D12"></path>
<path d="M56.9383 14.4608V11.2228L58.1222 11.0308C58.1773 10.4271 58.2874 9.82337 58.4526 9.27459H56.9383V7.07935L55.1211 7.62819C55.011 7.65562 54.9284 7.76533 54.9284 7.90255V9.27459H53.8271C53.6619 9.27459 53.5518 9.38431 53.5518 9.54895V11.1954H54.9008V14.4334C54.9008 16.5462 55.8645 17.3694 58.7004 17.0676V15.2291C57.5441 15.3388 56.9383 15.3114 56.9383 14.4608Z" fill="#090D12"></path>
<path d="M59.334 11.662C59.334 8.45158 61.867 5.98193 65.0334 5.98193C68.1997 5.98193 70.7328 8.45158 70.7328 11.662C70.7328 14.8451 68.1997 17.3422 65.0334 17.3422C61.867 17.3422 59.334 14.8451 59.334 11.662ZM68.5576 11.662C68.5576 9.57663 67.0157 8.1223 65.0058 8.1223C63.0234 8.1223 61.454 9.57663 61.454 11.662C61.454 13.7201 62.9959 15.1744 65.0058 15.1744C67.0157 15.1744 68.5576 13.7201 68.5576 11.662Z" fill="#090D12"></path>
<path d="M78.9101 12.321V17.123H76.9002V12.5679C76.9002 11.4977 76.2666 10.9489 75.3581 10.9489C74.3672 10.9489 73.6239 11.5252 73.6239 12.8972V17.123H71.5859V9.57693C71.5859 9.41229 71.6963 9.3025 71.8616 9.3025H73.4038L73.6239 10.1806C74.0915 9.46714 74.9178 9.08301 75.9642 9.08301C77.6161 9.08301 78.9101 10.2355 78.9101 12.321Z" fill="#090D12"></path>
<path d="M11.7016 0C5.23129 0 0 5.07644 0 11.6621C0 18.2752 5.23129 23.3242 11.7016 23.3242C18.1718 23.3242 23.4032 18.2477 23.4032 11.6621C23.4307 5.07644 18.1718 0 11.7016 0ZM11.7016 17.2873C8.59035 17.2873 6.08482 14.8452 6.08482 11.6895C6.08482 8.50649 8.59035 6.09173 11.7016 6.09173C14.8128 6.06429 17.3458 8.50649 17.3458 11.6621C17.3458 14.8452 14.8128 17.2873 11.7016 17.2873Z" fill="#090D12"></path>
<path d="M11.7016 0C5.23129 0 0 5.07644 0 11.6621C0 18.2752 5.23129 23.3242 11.7016 23.3242C18.1718 23.3242 23.4032 18.2477 23.4032 11.6621C23.4307 5.07644 18.1718 0 11.7016 0ZM11.7016 17.2873C8.59035 17.2873 6.08482 14.8452 6.08482 11.6895C6.08482 8.50649 8.59035 6.09173 11.7016 6.09173C14.8128 6.06429 17.3458 8.50649 17.3458 11.6621C17.3458 14.8452 14.8128 17.2873 11.7016 17.2873Z" fill="#090D12"></path>
</g>
<defs>
<clipPath id="clip0_1122_340">
<rect width="79.5429" height="24" fill="white"></rect>
</clipPath>
</defs>
</svg>