<svg width="111" height="22" viewBox="0 0 111 22" fill="none" xmlns="http://www.w3.org/2000/svg">
<path d="M66.201 19.0858H69.739V13.6244C69.739 10.3244 72.6744 10.3823 74.2101 10.6332V6.9086C71.7608 6.6964 70.3028 7.37181 69.6418 8.68411H69.5641L69.5835 6.96651H66.1816V19.0858H66.201Z" fill="#162136"></path>
<path d="M84.5518 19.086H86.7679L90.4226 14.5123L93.5135 19.086H97.6346L92.7748 12.0614L97.032 6.9474H92.9303L88.0704 13.0456H87.9926L88.0315 0.887695H84.5518V19.086Z" fill="#162136"></path>
<path d="M44.6037 19.0859H47.3447L51.5436 11.2894L55.6065 19.0859H58.3864L64.6265 6.94727H60.4858L56.6562 14.6859L53.021 6.94727H50.0468L46.2172 14.7245L42.582 6.94727H38.4414L44.6037 19.0859Z" fill="#162136"></path>
<path d="M78.934 5.21049C80.1365 5.21049 81.1113 4.2428 81.1113 3.0491C81.1113 1.8554 80.1365 0.887695 78.934 0.887695C77.7316 0.887695 76.7568 1.8554 76.7568 3.0491C76.7568 4.2428 77.7316 5.21049 78.934 5.21049Z" fill="#162136"></path>
<path d="M80.6838 6.94727H77.1846V19.0859H80.6838V6.94727Z" fill="#162136"></path>
<path d="M8.19306 7.9895C9.88431 7.9895 10.6813 8.2983 11.906 9.5141L18.4766 16.0369C18.6709 16.2299 18.7098 16.3071 18.7487 16.4228C18.7681 16.4614 18.7681 16.5193 18.7681 16.5579C18.7681 16.5965 18.7681 16.6544 18.7487 16.693C18.7098 16.8088 18.6709 16.886 18.4766 17.079L13.986 21.5562C13.7916 21.7492 13.7139 21.7878 13.5972 21.8264C13.5583 21.8457 13.5 21.8457 13.4611 21.8457C13.4223 21.8457 13.3639 21.8457 13.3251 21.8264C13.2084 21.7878 13.1307 21.7492 12.9363 21.5562L0.203392 8.9158C-0.16596 8.5492 -0.0298834 7.9895 0.592183 7.9895H8.19306Z" fill="#00E05C"></path>
<path d="M26.7383 0.0193005C25.047 0.0193005 24.25 0.328099 23.0253 1.5439L16.4547 8.0667C16.2603 8.2597 16.2214 8.3369 16.1826 8.4526C16.1631 8.4912 16.1631 8.5491 16.1631 8.5877C16.1631 8.6263 16.1631 8.6842 16.1826 8.7228C16.2214 8.8386 16.2603 8.9158 16.4547 9.1088L20.9453 13.5667C21.1397 13.7597 21.2174 13.7983 21.3341 13.8369C21.3729 13.8562 21.4313 13.8562 21.4701 13.8562C21.509 13.8562 21.5673 13.8562 21.6062 13.8369C21.7228 13.7983 21.8006 13.7597 21.995 13.5667L34.7279 0.9263C35.0973 0.5597 34.9612 0 34.3391 0H26.7383V0.0193005Z" fill="#00E05C"></path>
<path d="M107.569 15.0527C107.141 15.6895 106.247 16.4807 104.75 16.4807C103 16.4807 101.756 15.4772 101.484 14.0299H110.99C110.99 13.779 110.99 13.4123 110.99 13.0649C110.99 9.55271 108.443 6.73511 104.672 6.73511C100.978 6.73511 98.1211 9.51411 98.1211 13.0649C98.1211 16.5965 100.92 19.3948 104.672 19.3948C107.471 19.3948 109.163 18.2948 110.251 16.886L107.569 15.0527ZM104.478 9.45621C106.091 9.45621 107.219 10.3439 107.607 11.6176H101.328C101.717 10.3439 102.825 9.45621 104.478 9.45621Z" fill="#162136"></path>
</svg>