<svg width="82" height="22" viewBox="0 0 82 22" fill="none" xmlns="http://www.w3.org/2000/svg">
<g clip-path="url(#clip0_1122_295)">
<mask id="mask0_1122_295" style="mask-type:luminance" maskUnits="userSpaceOnUse" x="0" y="0" width="82" height="22">
<path d="M82 0H0V22H82V0Z" fill="white"></path>
</mask>
<g mask="url(#mask0_1122_295)">
<path d="M19.5271 15.0755L19.5158 15.0393L26.6906 8.43091V5.24683H15.1799V8.43091H22.0552L22.0666 8.4614L14.9619 15.0755V18.2596H26.8062V15.0755H19.5271Z" fill="#201515"></path>
<path d="M33.8731 4.94287C32.5454 4.94287 31.4633 5.1443 30.6269 5.54727C29.8478 5.8984 29.1915 6.477 28.7431 7.20794C28.3143 7.94366 28.045 8.76237 27.9529 9.61031L31.4456 10.1041C31.5719 9.35543 31.8246 8.82476 32.2036 8.51204C32.6345 8.18503 33.1654 8.01979 33.7045 8.04493C34.4134 8.04493 34.9276 8.23563 35.247 8.61693C35.5638 8.99824 35.7247 9.5264 35.7247 10.2223V10.5694H32.3666C30.6572 10.5694 29.4292 10.9507 28.6825 11.7134C27.9359 12.476 27.5632 13.4827 27.5645 14.7334C27.5645 16.0147 27.9371 16.9681 28.6825 17.5934C29.428 18.2188 30.3654 18.5295 31.4948 18.5257C32.8959 18.5257 33.9737 18.0408 34.7278 17.071C35.1734 16.4749 35.4915 15.7927 35.6622 15.0671H35.789L36.2704 18.2512H39.4351V10.188C39.4351 8.52163 38.9988 7.23083 38.1257 6.31563C37.2528 5.40043 35.8351 4.94287 33.8731 4.94287ZM34.98 14.8821C34.4777 15.3035 33.82 15.5132 33.0014 15.5132C32.3268 15.5132 31.8581 15.3944 31.5953 15.1567C31.4673 15.0442 31.3654 14.9048 31.2969 14.7483C31.2285 14.5917 31.1951 14.422 31.1992 14.2511C31.1917 14.0898 31.217 13.9288 31.2734 13.7777C31.3297 13.6266 31.416 13.4886 31.5271 13.3721C31.6472 13.2588 31.7889 13.1712 31.9436 13.1144C32.0983 13.0577 32.2628 13.0332 32.4272 13.0422H35.7304V13.2615C35.737 13.5714 35.6727 13.8788 35.5428 14.1598C35.4126 14.4408 35.2201 14.6879 34.98 14.8821Z" fill="#201515"></path>
<path d="M58.5718 5.24683H54.833V18.2615H58.5718V5.24683Z" fill="#201515"></path>
<path d="M80.6466 5.24683C79.5908 5.24683 78.7583 5.62179 78.1492 6.37176C77.7121 6.91069 77.3798 7.70703 77.1526 8.76075H77.0425L76.5536 5.24683H73.3604V18.2596H77.0996V11.5864C77.0996 10.745 77.2953 10.0998 77.687 9.65112C78.0786 9.20248 78.8012 8.97816 79.8548 8.97816H81.2737V5.24683H80.6466Z" fill="#201515"></path>
<path d="M69.6502 5.6709C68.7775 5.14847 67.6762 4.8879 66.3473 4.88916C64.255 4.88916 62.6177 5.4885 61.4353 6.68713C60.2524 7.88575 59.6614 9.53819 59.6614 11.6444C59.6313 12.9178 59.9076 14.1796 60.4668 15.3223C60.9787 16.3406 61.7758 17.1857 62.7598 17.7533C63.7501 18.3291 64.9282 18.6176 66.2943 18.6188C67.4754 18.6188 68.462 18.4359 69.2542 18.0698C69.999 17.741 70.6474 17.2257 71.138 16.573C71.6049 15.9323 71.9518 15.2113 72.1612 14.4452L68.9398 13.5376C68.8039 14.0358 68.5429 14.4902 68.1817 14.8571C67.8177 15.2231 67.2081 15.4062 66.3529 15.4062C65.3358 15.4062 64.5777 15.1132 64.0788 14.5272C63.7167 14.104 63.4894 13.4995 63.389 12.7159H72.2105C72.2466 12.3499 72.2655 12.0429 72.2655 11.795V10.9847C72.2867 9.89608 72.0634 8.81675 71.6119 7.8273C71.1891 6.92596 70.5052 6.17426 69.6502 5.6709ZM66.2393 7.99127C67.7554 7.99127 68.6148 8.74187 68.8182 10.243H63.4553C63.5404 9.74216 63.7468 9.27002 64.0559 8.86837C64.5476 8.28238 65.2751 7.99002 66.2393 7.99127Z" fill="#201515"></path>
<path d="M56.7427 0.00122085C56.4614 -0.00840376 56.1811 0.038958 55.9184 0.140494C55.6557 0.242031 55.4161 0.395667 55.2133 0.592273C55.0139 0.790766 54.8571 1.02886 54.7538 1.29144C54.6504 1.55402 54.6024 1.83533 54.6127 2.11759C54.6027 2.40165 54.6507 2.68478 54.7544 2.94927C54.8578 3.21376 55.0146 3.45397 55.2143 3.65487C55.4141 3.85577 55.653 4.01307 55.916 4.11697C56.1791 4.22086 56.4604 4.26913 56.7427 4.25874C57.0233 4.2694 57.3029 4.22116 57.564 4.11714C57.8251 4.01307 58.0616 3.85547 58.2587 3.65433C58.4546 3.45113 58.607 3.21026 58.7077 2.94616C58.8084 2.68207 58.8548 2.40022 58.8445 2.11759C58.8574 1.83662 58.812 1.55602 58.711 1.29372C58.6099 1.03142 58.4559 0.793171 58.2584 0.594193C58.0606 0.395217 57.8241 0.239882 57.5634 0.138109C57.3029 0.036337 57.024 -0.00963152 56.7446 0.00312935L56.7427 0.00122085Z" fill="#201515"></path>
<path d="M49.0185 4.88916C47.7449 4.88916 46.7214 5.29145 45.9485 6.09606C45.376 6.69219 44.9559 7.58196 44.6882 8.76536H44.5689L44.0799 5.25142H40.8867V21.9993H44.6256V15.1011H44.7621C44.8761 15.5611 45.0361 16.0082 45.2395 16.4357C45.5559 17.1322 46.0747 17.7158 46.7275 18.1098C47.404 18.4813 48.1663 18.6661 48.9369 18.6456C50.5024 18.6456 51.6942 18.0322 52.5128 16.8056C53.3315 15.5791 53.741 13.8675 53.741 11.6711C53.741 9.54966 53.3448 7.88897 52.5529 6.68903C51.7608 5.48912 50.5826 4.88916 49.0185 4.88916ZM49.3975 14.3194C48.9615 14.9549 48.2793 15.2727 47.3507 15.2727C46.968 15.2905 46.5863 15.2162 46.2377 15.0561C45.8889 14.8959 45.5831 14.6545 45.3459 14.3518C44.8618 13.7404 44.6206 12.9034 44.6219 11.8407V11.5929C44.6219 10.5137 44.8632 9.68755 45.3459 9.11429C45.8283 8.54096 46.4968 8.25755 47.3507 8.26391C48.2958 8.26391 48.9824 8.56578 49.4107 9.16953C49.8391 9.77335 50.0531 10.6154 50.0531 11.6958C50.0558 12.8131 49.8385 13.6876 49.4011 14.3194H49.3975Z" fill="#201515"></path>
<path d="M13.5159 15.0742H0.580078V18.2622H13.5159V15.0742Z" fill="#FF4F00"></path>
</g>
</g>
<defs>
<clipPath id="clip0_1122_295">
<rect width="82" height="22" fill="white"></rect>
</clipPath>
</defs>
</svg>