<svg xmlns="http://www.w3.org/2000/svg" width="1174" height="359" fill="none"><path stroke="#fff" d="M879.605 78.129c81.142 0 154.585 24.548 207.725 64.213 53.14 39.665 85.97 94.423 85.97 154.863 0 60.441-32.83 115.199-85.97 154.864-53.14 39.665-126.583 64.213-207.725 64.213-81.141 0-154.581-24.548-207.725-64.213-53.144-39.665-85.966-94.423-85.966-154.864 0-60.44 32.822-115.198 85.966-154.863 53.144-39.665 126.584-64.213 207.725-64.213Z"></path><ellipse cx="875.148" cy="297.206" stroke="#fff" stroke-dasharray="6 6" rx="289.734" ry="219.577"></ellipse><path stroke="#fff" d="M861.775 78.129c152.465 0 275.865 98.185 275.865 219.076 0 120.892-123.4 219.077-275.865 219.077-152.467 0-275.861-98.186-275.861-219.077 0-120.891 123.394-219.076 275.861-219.076Z"></path><path stroke="#fff" d="M839.488 78.129c140.116 0 253.572 98.15 253.572 219.076 0 120.927-113.455 219.077-253.572 219.077-140.116 0-253.574-98.15-253.574-219.077 0-120.926 113.458-219.076 253.574-219.076Z"></path><path stroke="#fff" d="M810.52 62.6c124.023 0 224.6 105.014 224.6 234.602 0 129.588-100.577 234.601-224.6 234.602-124.024 0-224.602-105.014-224.602-234.602C585.918 167.614 686.496 62.6 810.52 62.6Z"></path><path stroke="#fff" d="M776.344 53.728c104.239 0 188.941 108.882 188.941 243.474 0 134.592-84.702 243.475-188.941 243.475S587.402 431.794 587.402 297.202c0-134.592 84.703-243.473 188.942-243.474Z"></path><path stroke="#fff" stroke-dasharray="6 6" d="M809.069 72.745a171.577 171.577 0 0 1 4.015 4.542l-.379.324c1.3 1.523 2.585 3.083 3.856 4.677l.388-.31a193.121 193.121 0 0 1 3.731 4.836l-.399.3a199.41 199.41 0 0 1 3.54 4.895l.407-.285a213.558 213.558 0 0 1 3.42 5.03l-.415.275a224.853 224.853 0 0 1 3.28 5.125l.422-.262a235.891 235.891 0 0 1 3.132 5.187l-.429.253a249.309 249.309 0 0 1 3.013 5.291l.435-.241a261.065 261.065 0 0 1 2.877 5.342l-.441.232c.932 1.781 1.85 3.585 2.754 5.411l.448-.221a284.92 284.92 0 0 1 2.64 5.489l-.449.211a294.114 294.114 0 0 1 2.512 5.511l.454-.202c.82 1.851 1.628 3.72 2.421 5.611l-.46.193a320.107 320.107 0 0 1 2.283 5.597l.463-.185a325.46 325.46 0 0 1 2.196 5.694l-.465.176a330 330 0 0 1 2.075 5.687l.467-.166a353.558 353.558 0 0 1 1.986 5.761l-.471.16a347.388 347.388 0 0 1 1.874 5.765l.474-.15a367.315 367.315 0 0 1 1.784 5.822l-.477.143a361.295 361.295 0 0 1 1.681 5.831l.479-.135a369.825 369.825 0 0 1 1.591 5.874l-.482.127a389.034 389.034 0 0 1 1.494 5.886l.484-.12c.482 1.961.95 3.935 1.406 5.92h.001l-.488.112c.451 1.964.888 3.941 1.313 5.929l.487-.105c.422 1.976.83 3.963 1.226 5.961l-.49.097c.392 1.977.771 3.966 1.136 5.964l.49-.089c.364 1.988.714 3.986 1.051 5.995l-.49.083c.334 1.987.655 3.985.963 5.992l.491-.076c.307 1.999.602 4.008.883 6.026l-.493.069c.278 1.996.543 4 .796 6.013l.493-.061c.251 2.009.49 4.026.716 6.052l-.495.056c.223 2.001.434 4.011.631 6.028l.495-.048c.198 2.017.383 4.043.554 6.076l-.496.042c.169 2.005.325 4.018.469 6.038l.499-.035v-.001c.144 2.022.273 4.052.39 6.089l-.497.029c.117 2.01.22 4.027.311 6.05l.497-.023c.091 2.023.168 4.053.233 6.089l-.497.016c.065 2.015.117 4.037.156 6.064l.497-.009c.038 2.023.066 4.051.079 6.085l-.499.003a516.73 516.73 0 0 1 0 6.105l.499.002a491.02 491.02 0 0 1-.079 6.085l-.497-.009c-.039 2.027-.091 4.05-.156 6.065l.497.015a467.437 467.437 0 0 1-.233 6.089l-.497-.022c-.091 2.023-.194 4.04-.311 6.05l.497.028a444.726 444.726 0 0 1-.39 6.089l-.499-.035c-.144 2.02-.3 4.033-.469 6.038l.496.041a437.819 437.819 0 0 1-.554 6.076l-.495-.047a444.88 444.88 0 0 1-.631 6.028l.495.055a461.52 461.52 0 0 1-.716 6.052l-.493-.061a451.756 451.756 0 0 1-.796 6.013l.493.069a434.138 434.138 0 0 1-.883 6.026l-.491-.075a425.641 425.641 0 0 1-.963 5.992l.49.082a408.605 408.605 0 0 1-1.051 5.995l-.49-.089a401.144 401.144 0 0 1-1.136 5.965l.489.096a410.02 410.02 0 0 1-1.225 5.96l-.487-.104a402.191 402.191 0 0 1-1.313 5.93l.487.11a397.166 397.166 0 0 1-1.406 5.92l-.484-.118a388.9 388.9 0 0 1-1.494 5.885l.482.126a372.872 372.872 0 0 1-1.591 5.875l-.479-.134a361.295 361.295 0 0 1-1.681 5.831l.477.142a370.541 370.541 0 0 1-1.784 5.822l-.474-.149a347.388 347.388 0 0 1-1.874 5.765l.471.158a350.418 350.418 0 0 1-1.986 5.762l-.467-.166a330.113 330.113 0 0 1-2.075 5.688l.465.175a325.46 325.46 0 0 1-2.196 5.694l-.463-.184a320.107 320.107 0 0 1-2.283 5.597l.46.192c-.793 1.89-1.601 3.76-2.421 5.61l-.454-.201a294.114 294.114 0 0 1-2.512 5.511l.449.211a282.116 282.116 0 0 1-2.641 5.489l-.447-.22a270.868 270.868 0 0 1-2.754 5.411l.441.23a258.916 258.916 0 0 1-2.877 5.343l-.435-.24a249.225 249.225 0 0 1-3.013 5.29l.429.252a238.345 238.345 0 0 1-3.132 5.188l-.422-.261a225.985 225.985 0 0 1-3.28 5.125l.415.273a213.745 213.745 0 0 1-3.42 5.031l-.407-.285a201.475 201.475 0 0 1-3.54 4.897l.399.298a192.78 192.78 0 0 1-3.732 4.835l-.387-.308a183.383 183.383 0 0 1-3.856 4.676l.379.324a171.577 171.577 0 0 1-4.015 4.542l-.367-.337a160.525 160.525 0 0 1-4.194 4.408l.354.351a150.538 150.538 0 0 1-4.361 4.237l-.34-.364a141.935 141.935 0 0 1-4.502 4.026l.324.378a131.678 131.678 0 0 1-4.719 3.859l-.307-.393a123.542 123.542 0 0 1-4.872 3.61l.288.408a115.519 115.519 0 0 1-5.058 3.366l-.265-.422a109.014 109.014 0 0 1-5.2 3.071l.241.437c-1.79.991-3.595 1.922-5.414 2.793l-.215-.451a96.842 96.842 0 0 1-5.538 2.445l.186.462a93.088 93.088 0 0 1-5.705 2.094l-.156-.473a88.491 88.491 0 0 1-5.798 1.699l.123.482c-1.967.504-3.947.94-5.938 1.303l-.089-.491a84.253 84.253 0 0 1-5.983.872l.054.496c-2.009.219-4.03.367-6.06.44l-.017-.499a82.608 82.608 0 0 1-6.062 0l-.018.499a83.69 83.69 0 0 1-6.061-.44l.055-.496a84.114 84.114 0 0 1-5.981-.872l-.09.491a85.725 85.725 0 0 1-5.94-1.303l.124-.482a88.283 88.283 0 0 1-5.797-1.699l-.157.473a93.36 93.36 0 0 1-5.706-2.094l.188-.462a96.533 96.533 0 0 1-5.538-2.445l-.216.451a103.162 103.162 0 0 1-5.414-2.793l.242-.437a109.014 109.014 0 0 1-5.2-3.071l-.266.422c-1.7-1.069-3.387-2.19-5.058-3.366l.289-.408a123.57 123.57 0 0 1-4.873-3.61l-.306.393a132.826 132.826 0 0 1-4.721-3.859l.325-.378a143.047 143.047 0 0 1-4.502-4.026l-.34.365a150.58 150.58 0 0 1-4.361-4.238l.356-.351a160.651 160.651 0 0 1-4.196-4.408l-.368.337a171.393 171.393 0 0 1-4.014-4.543l.379-.322a181.32 181.32 0 0 1-3.855-4.677l-.389.308a190.419 190.419 0 0 1-3.731-4.835l.4-.298a204.237 204.237 0 0 1-3.541-4.897l-.407.285a216.874 216.874 0 0 1-3.421-5.031l.416-.273c-1.107-1.68-2.2-3.389-3.279-5.125l-.422.261a238.385 238.385 0 0 1-3.134-5.188l.431-.252a249.244 249.244 0 0 1-3.014-5.29l-.435.24a254.195 254.195 0 0 1-2.877-5.343l.441-.23a270.868 270.868 0 0 1-2.754-5.411l-.447.22a276.448 276.448 0 0 1-2.642-5.489l.45-.211a294 294 0 0 1-2.511-5.51l-.455.2c-.82-1.85-1.629-3.72-2.421-5.61l.461-.192a305.251 305.251 0 0 1-2.283-5.597l-.464.184a325.58 325.58 0 0 1-2.197-5.695l.467-.174a338.586 338.586 0 0 1-2.074-5.687l-.47.165a341.283 341.283 0 0 1-1.985-5.762l.473-.158a347.39 347.39 0 0 1-1.875-5.765l-.475.149a360.214 360.214 0 0 1-1.783-5.822l.477-.142a371.81 371.81 0 0 1-1.681-5.831l-.481.134a384.065 384.065 0 0 1-1.591-5.875l.484-.126c-.511-1.949-1.01-3.91-1.494-5.885l-.486.118c-.481-1.961-.95-3.934-1.405-5.92l.487-.11a402.21 402.21 0 0 1-1.311-5.93l-.49.104a410.03 410.03 0 0 1-1.224-5.96l.489-.096c-.391-1.977-.77-3.966-1.136-5.965l-.49.089a437.081 437.081 0 0 1-1.052-5.995l.492-.082a425.641 425.641 0 0 1-.963-5.992l-.492.075a434.154 434.154 0 0 1-.882-6.026l.493-.069c-.278-1.995-.544-4-.796-6.013l-.493.061a445.025 445.025 0 0 1-.717-6.052l.495-.055a461.558 461.558 0 0 1-.631-6.028l-.495.047a470.886 470.886 0 0 1-.555-6.076l.498-.041c-.17-2.005-.326-4.018-.469-6.038l-.5.035a461.194 461.194 0 0 1-.391-6.089l.498-.028c-.116-2.01-.22-4.027-.31-6.05l-.497.022a467.408 467.408 0 0 1-.234-6.089l.497-.015a484.991 484.991 0 0 1-.155-6.065l-.498.009a472.238 472.238 0 0 1-.079-6.085l.5-.002a443.234 443.234 0 0 1 0-6.105l-.5-.003c.013-2.034.04-4.062.079-6.085l.498.009c.039-2.027.091-4.049.155-6.064l-.497-.016c.065-2.036.143-4.066.234-6.089l.497.023c.09-2.023.194-4.04.31-6.05l-.498-.029c.118-2.037.247-4.067.391-6.089l.001.001.499.035c.143-2.02.299-4.033.469-6.038l-.498-.042c.172-2.033.358-4.059.555-6.076l.495.048c.198-2.017.408-4.027.631-6.028l-.495-.056c.226-2.026.465-4.043.717-6.052l.493.061c.252-2.013.518-4.017.796-6.013l-.493-.069c.281-2.018.575-4.027.882-6.026l.492.076c.308-2.007.629-4.005.963-5.992l-.492-.083c.338-2.009.689-4.007 1.052-5.995l.49.089c.366-1.998.745-3.987 1.136-5.964l-.49-.097a410.02 410.02 0 0 1 1.225-5.96l.49.104c.424-1.988.861-3.965 1.311-5.929l-.487-.112c.437-1.904.885-3.797 1.346-5.679l.059-.24.486.119c.484-1.975.983-3.937 1.494-5.886l-.484-.126c.517-1.972 1.048-3.93 1.591-5.875l.481.135a371.81 371.81 0 0 1 1.681-5.831l-.477-.143a360.214 360.214 0 0 1 1.783-5.822l.475.15a347.39 347.39 0 0 1 1.875-5.765l-.473-.16c.648-1.936 1.31-3.857 1.985-5.761l.47.166c.678-1.913 1.37-3.808 2.074-5.687l-.467-.175a325.58 325.58 0 0 1 2.197-5.695l.464.185c.747-1.884 1.508-3.75 2.283-5.597l-.461-.193c.792-1.891 1.6-3.76 2.421-5.611l.455.202a294.101 294.101 0 0 1 2.511-5.511l-.45-.211a279.14 279.14 0 0 1 2.641-5.489l.448.221c.904-1.826 1.822-3.63 2.754-5.411l-.441-.232a251.64 251.64 0 0 1 2.877-5.342l.435.241a249.328 249.328 0 0 1 3.014-5.291l-.431-.253a235.911 235.911 0 0 1 3.133-5.187l.423.262a228.336 228.336 0 0 1 3.279-5.125l-.416-.274a216.468 216.468 0 0 1 3.421-5.031l.407.285a203.737 203.737 0 0 1 3.541-4.896l-.4-.3a192.938 192.938 0 0 1 3.731-4.835l.389.31a183.055 183.055 0 0 1 3.855-4.677l-.379-.323c1.17-1.371 2.35-2.715 3.544-4.028l.47-.515.368.338c1.384-1.51 2.783-2.98 4.196-4.41l-.356-.35a150.419 150.419 0 0 1 4.361-4.238l.34.365a141.174 141.174 0 0 1 4.502-4.025l-.325-.38a133.769 133.769 0 0 1 4.573-3.744l.148-.114.306.394a123.783 123.783 0 0 1 4.873-3.61l-.289-.41a116.741 116.741 0 0 1 5.057-3.366l.001.001.266.423a109.103 109.103 0 0 1 5.2-3.071l-.242-.438c1.79-.99 3.595-1.922 5.414-2.793l.216.452a96.874 96.874 0 0 1 5.538-2.445l-.188-.463a93.236 93.236 0 0 1 5.706-2.094l.157.474a88.655 88.655 0 0 1 5.797-1.699l-.124-.483a86.486 86.486 0 0 1 5.94-1.303l.09.491a84.11 84.11 0 0 1 5.981-.871l-.055-.497a83.86 83.86 0 0 1 6.061-.44l.018.498a83.47 83.47 0 0 1 6.062 0l.017-.498a83.89 83.89 0 0 1 6.06.44l-.054.497c2.005.219 4 .51 5.983.871l.089-.491a86.49 86.49 0 0 1 5.938 1.303l-.123.483a88.803 88.803 0 0 1 5.798 1.7l.156-.475a92.965 92.965 0 0 1 5.705 2.094l-.186.463a97.256 97.256 0 0 1 5.538 2.445l.215-.452c1.819.871 3.624 1.802 5.414 2.793l-.241.438c1.747.967 3.481 1.991 5.2 3.071l.265-.423c1.7 1.068 3.386 2.19 5.057 3.366l-.287.409a123.755 123.755 0 0 1 4.872 3.61l.306-.395a132.558 132.558 0 0 1 4.72 3.859l-.324.38a141.174 141.174 0 0 1 4.502 4.025l.341-.365a150.391 150.391 0 0 1 4.36 4.237l-.355.352a159.56 159.56 0 0 1 4.195 4.408l.367-.337Z"></path><path stroke="#fff" d="M685.711 21.568c13.647 0 26.713 7.599 38.659 21.483 11.945 13.883 22.725 34 31.788 58.904 18.125 49.802 29.345 118.637 29.345 194.693 0 76.057-11.22 144.891-29.345 194.693-9.063 24.903-19.843 45.021-31.788 58.904-11.946 13.884-25.012 21.482-38.659 21.483-13.647 0-26.714-7.599-38.66-21.483-11.945-13.883-22.725-34.001-31.788-58.904-18.125-49.802-29.345-118.636-29.345-194.693 0-76.056 11.22-144.891 29.345-194.693 9.063-24.903 19.843-45.021 31.788-58.904 11.946-13.885 25.013-21.483 38.66-21.483Z"></path><path stroke="#fff" stroke-dasharray="6 6" d="M686.121 262.95c.04 2.003.076 4.012.108 6.028l-.499.007c.033 1.998.062 4.002.087 6.011l.498-.007c.026 2.01.049 4.026.067 6.047l-.499.004c.018 1.995.031 3.995.042 6l.499-.003c.011 2.005.018 4.015.021 6.03l-.498.001c.002 1.007.002 2.016.002 3.026 0 1.009 0 2.019-.002 3.026h.499c-.003 2.015-.011 4.025-.022 6.03l-.499-.002a1694.08 1694.08 0 0 1-.042 6l.499.003c-.018 2.022-.041 4.037-.067 6.047l-.498-.006c-.025 2.01-.054 4.014-.087 6.011l.499.007c-.032 2.015-.068 4.024-.108 6.027l-.499-.008c-.04 2.014-.084 4.022-.131 6.024l.498.011c-.047 2.008-.098 4.01-.153 6.005l-.498-.013c-.055 2.02-.114 4.034-.177 6.04l.499.014c-.062 2.006-.129 4.006-.199 5.999l-.498-.017c-.071 2.02-.145 4.033-.223 6.037l.498.019c-.078 2.012-.16 4.016-.246 6.011l-.498-.02a1558.74 1558.74 0 0 1-.269 6.015l.499.023c-.095 2.017-.194 4.024-.296 6.023l-.498-.024c-.103 2.007-.209 4.005-.319 5.993l.498.027a1344.1 1344.1 0 0 1-.345 6.038l-.498-.03c-.119 2.002-.241 3.994-.368 5.976l.498.031c-.13 2.026-.262 4.041-.399 6.045l-.498-.033c-.137 2.005-.277 3.999-.422 5.982l.497.035c-.147 2.022-.298 4.032-.453 6.03l-.497-.037c-.156 2.007-.315 4.003-.478 5.986l.497.04c-.167 2.018-.336 4.023-.51 6.016l-.497-.043c-.176 2.009-.355 4.005-.538 5.988l.496.045c-.187 2.015-.377 4.017-.572 6.004l-.496-.048c-.196 2.01-.397 4.005-.602 5.985l.496.051a982.88 982.88 0 0 1-.637 5.996l-.497-.055a955.427 955.427 0 0 1-.671 5.978l.496.056a929.182 929.182 0 0 1-.71 5.991l-.495-.06a881.035 881.035 0 0 1-.745 5.959l.495.064a859.74 859.74 0 0 1-.79 5.99l-.494-.065c-.27 1.997-.546 3.975-.825 5.93l.494.07c-.289 2.021-.582 4.02-.88 5.996l-.494-.075a732.974 732.974 0 0 1-.916 5.907l.493.077a664.312 664.312 0 0 1-.981 5.983l-.492-.082c-.338 2.002-.68 3.976-1.028 5.921l.491.087c-.357 2-.72 3.971-1.088 5.91l-.489-.093a511.724 511.724 0 0 1-1.16 5.937l.49.099a474.585 474.585 0 0 1-1.223 5.87l-.487-.104a429.44 429.44 0 0 1-1.304 5.872l.485.111c-.461 2.007-.929 3.97-1.402 5.888l-.484-.119a321.066 321.066 0 0 1-1.492 5.817l.482.128a283.016 283.016 0 0 1-1.604 5.771l-.479-.139a231.345 231.345 0 0 1-1.745 5.754l.475.151a189.193 189.193 0 0 1-1.918 5.732l-.471-.165a150.965 150.965 0 0 1-2.108 5.629l.464.184c-.779 1.955-1.57 3.8-2.369 5.533l-.453-.209a80.36 80.36 0 0 1-2.68 5.318l.434.24c-1.057 1.907-2.129 3.62-3.215 5.132l-.405-.291c-1.276 1.775-2.564 3.26-3.861 4.447l.337.368c-1.667 1.527-3.362 2.586-5.079 3.153l-.156-.475a8.872 8.872 0 0 1-2.797.462 8.873 8.873 0 0 1-2.798-.462l-.156.474c-1.718-.568-3.412-1.626-5.079-3.152l.337-.368c-1.297-1.187-2.585-2.672-3.861-4.447l-.405.291c-1.087-1.511-2.158-3.224-3.216-5.131l.435-.241a80.85 80.85 0 0 1-2.68-5.318l-.453.209a114.124 114.124 0 0 1-2.369-5.533l.465-.184a150.934 150.934 0 0 1-2.109-5.629l-.471.165a194.937 194.937 0 0 1-1.918-5.732l.476-.151a231.282 231.282 0 0 1-1.746-5.754l-.479.139a276.788 276.788 0 0 1-1.603-5.771l.482-.128a320.963 320.963 0 0 1-1.493-5.817l-.484.119a378.025 378.025 0 0 1-1.403-5.888l.487-.111a415.013 415.013 0 0 1-1.304-5.872l-.488.104a470.978 470.978 0 0 1-1.223-5.871l.49-.098a511.724 511.724 0 0 1-1.16-5.937l-.49.093c-.368-1.939-.731-3.91-1.088-5.91l.492-.087c-.347-1.945-.69-3.919-1.027-5.921l-.492.083c-.332-1.968-.66-3.963-.982-5.984l.493-.077c-.31-1.945-.615-3.914-.916-5.907l-.494.075a792.916 792.916 0 0 1-.88-5.996l.494-.07a871.427 871.427 0 0 1-.825-5.93l-.495.065a859.74 859.74 0 0 1-.79-5.99l.496-.064a950.131 950.131 0 0 1-.745-5.959l-.496.06a929.182 929.182 0 0 1-.71-5.991l.497-.056c-.228-1.976-.451-3.969-.671-5.978l-.497.054c-.216-1.982-.429-3.981-.638-5.995l.497-.051c-.204-1.98-.404-3.975-.601-5.985l-.498.048c-.195-1.987-.385-3.989-.571-6.004l.498-.045c-.184-1.983-.364-3.979-.539-5.988l-.499.043a1205.49 1205.49 0 0 1-.509-6.016l.498-.04c-.164-1.983-.323-3.979-.479-5.986l-.498.037c-.155-1.998-.306-4.007-.453-6.029l.498-.036c-.144-1.982-.285-3.976-.422-5.981l-.499.032c-.137-2.004-.269-4.019-.398-6.045l.499-.031c-.127-1.982-.249-3.974-.368-5.976l-.499.03c-.119-2.003-.235-4.015-.346-6.038l.499-.027c-.11-1.988-.216-3.986-.318-5.993l-.499.024a1366.38 1366.38 0 0 1-.295-6.023l.5-.023c-.094-1.996-.185-4.002-.271-6.015l-.499.02c-.085-1.995-.167-3.999-.245-6.011l.499-.019c-.078-2.004-.153-4.017-.224-6.037l-.499.017c-.069-1.992-.136-3.992-.199-5.998l.5-.015c-.062-2.006-.121-4.02-.177-6.04l-.499.013c-.054-1.995-.106-3.997-.153-6.005l.5-.011c-.047-2.002-.092-4.01-.132-6.024l-.5.008c-.04-2.003-.076-4.012-.108-6.027l.5-.007a1471.37 1471.37 0 0 1-.087-6.011l-.499.006c-.025-2.009-.048-4.025-.067-6.046l.501-.004c-.017-1.994-.032-3.994-.043-6l-.5.002c-.01-2.005-.017-4.015-.021-6.03h.5a1524.603 1524.603 0 0 1 0-6.052l-.5-.001c.004-2.015.011-4.025.021-6.03l.5.003c.011-2.005.026-4.005.043-6l-.5-.004-.001-.001c.019-2.021.042-4.036.067-6.046l.499.007c.025-2.009.054-4.013.087-6.011l-.5-.007c.013-.827.027-1.653.042-2.478l.066-3.55.5.01c.04-2.014.085-4.023.132-6.024l-.5-.012c.047-2.008.099-4.01.153-6.005l.499.014c.056-2.021.115-4.034.177-6.04l-.5-.016c.063-2.007.13-4.006.199-5.998l.499.017c.071-2.019.146-4.032.224-6.037l-.499-.019c.073-1.876.148-3.744.228-5.606l.017-.406.499.022c.086-2.014.177-4.019.271-6.016l-.5-.023c.094-2.017.193-4.025.295-6.024l.499.025c.102-2.006.208-4.004.318-5.993l-.499-.028c.102-1.851.207-3.694.315-5.529l.031-.508.499.03c.119-2.002.241-3.994.368-5.975l-.499-.033c.129-2.025.261-4.04.398-6.045l.499.034c.137-2.005.278-3.999.422-5.982l-.498-.037c.147-2.021.298-4.031.453-6.028l.498.038c.156-2.008.315-4.003.479-5.986l-.498-.041c.166-2.019.335-4.024.509-6.016l.499.044c.175-2.01.355-4.006.539-5.988l-.498-.046c.175-1.899.354-3.785.537-5.659l.034-.345.498.049c.197-2.01.397-4.006.601-5.986l-.497-.052c.198-1.912.4-3.81.605-5.694l.033-.301.497.055c.22-2.009.443-4.002.671-5.978l-.497-.056c.232-2.015.469-4.012.71-5.991l.496.06c.244-2.005.493-3.991.745-5.959l-.496-.064c.259-2.017.522-4.014.79-5.99l.495.066c.271-1.998.546-3.975.825-5.931l-.494-.07c.289-2.022.582-4.021.88-5.996l.494.075c.301-1.993.606-3.962.916-5.906l-.493-.078c.322-2.022.65-4.017.982-5.985l.492.084c.337-2.001.68-3.975 1.027-5.92l-.492-.088c.357-2 .72-3.971 1.088-5.91l.49.093c.381-2.012.768-3.992 1.16-5.936l-.49-.1c.402-1.992.81-3.95 1.223-5.87l.488.104c.429-1.997.863-3.955 1.304-5.872l-.486-.112c.462-2.007.928-3.97 1.402-5.888l.484.12a321.1 321.1 0 0 1 1.493-5.818l-.482-.128a274.965 274.965 0 0 1 1.603-5.77l.479.14a231.272 231.272 0 0 1 1.746-5.755l-.477-.151a194.635 194.635 0 0 1 1.919-5.733l.471.167a150.868 150.868 0 0 1 2.109-5.63l-.464-.184h-.001a114 114 0 0 1 2.369-5.533l.453.21a80.762 80.762 0 0 1 2.68-5.319l-.435-.242c1.058-1.906 2.129-3.62 3.216-5.13l.405.291c1.276-1.774 2.564-3.26 3.861-4.447l-.337-.369c1.667-1.526 3.361-2.584 5.079-3.151l.156.474a8.87 8.87 0 0 1 2.798-.462c.935 0 1.868.155 2.797.462l.157-.474c1.717.567 3.411 1.625 5.078 3.151l-.337.37c1.297 1.187 2.585 2.671 3.861 4.446l.405-.292c1.086 1.512 2.158 3.225 3.215 5.132l-.434.242a80.297 80.297 0 0 1 2.68 5.318l.453-.21a114 114 0 0 1 2.369 5.532v.001l-.464.185a150.899 150.899 0 0 1 2.108 5.629l.47-.167a191.708 191.708 0 0 1 1.919 5.733l-.475.151a231.464 231.464 0 0 1 1.745 5.754l.479-.14a281.883 281.883 0 0 1 1.604 5.771l-.482.128c.504 1.89 1.001 3.83 1.492 5.818l.484-.12c.473 1.918.941 3.88 1.402 5.888l-.485.112c.44 1.917.875 3.875 1.304 5.872l.487-.104c.412 1.92.822 3.877 1.223 5.87l-.49.1c.392 1.944.779 3.924 1.16 5.936l.489-.094c.368 1.94.731 3.91 1.088 5.91h.001l-.492.088c.348 1.946.69 3.92 1.028 5.921l.491-.084c.332 1.969.66 3.963.982 5.985l-.493.078c.31 1.944.615 3.913.916 5.906l.494-.075v-.001c.298 1.976.591 3.975.88 5.997l-.494.07c.279 1.956.555 3.933.825 5.931l.494-.067a852.2 852.2 0 0 1 .79 5.991l-.495.063c.253 1.968.501 3.955.745 5.96l.495-.06c.241 1.979.478 3.976.71 5.991l-.496.056c.228 1.976.452 3.969.671 5.978l.497-.055v-.001c.217 1.983.429 3.982.637 5.996h.001l-.497.052c.205 1.98.406 3.975.602 5.986l.496-.049c.195 1.986.385 3.987.572 6.003h.001l-.497.047c.183 1.982.362 3.978.538 5.988l.497-.044c.174 1.992.343 3.997.51 6.016l-.497.041c.163 1.983.322 3.978.478 5.986l.497-.039c.155 1.998.306 4.008.453 6.029l-.497.037c.144 1.983.285 3.977.422 5.982l.498-.034c.137 2.005.269 4.02.399 6.045l-.498.032c.127 1.981.249 3.974.368 5.976l.498-.03c.119 2.003.234 4.015.345 6.037l-.498.028c.11 1.989.216 3.987.319 5.993l.498-.025c.102 1.999.201 4.006.296 6.023v.001l-.499.023c.093 1.997.183 4.002.269 6.016l.498-.022c.086 1.996.168 4 .246 6.012l-.498.019c.078 2.005.152 4.018.223 6.037l.498-.017c.07 1.992.137 3.991.199 5.998h.001l-.5.016c.063 2.006.122 4.019.177 6.04l.498-.014c.055 1.995.106 3.997.153 6.005l-.498.012c.047 2.001.091 4.01.131 6.024l.499-.01Z"></path><path stroke="#fff" d="M294.191 78.125c-81.141 0-154.582 24.548-207.725 64.213C33.322 182.003.5 236.761.5 297.201c0 60.441 32.822 115.199 85.966 154.864 53.143 39.665 126.584 64.213 207.725 64.213 81.142 0 154.582-24.548 207.726-64.213 53.144-39.665 85.966-94.423 85.966-154.864 0-60.44-32.823-115.198-85.966-154.863-53.144-39.665-126.584-64.213-207.726-64.213Z"></path><path stroke="#fff" d="M298.648 78.125c-79.908 0-152.233 24.547-204.57 64.211-52.336 39.663-84.663 94.421-84.663 154.865s32.327 115.203 84.663 154.866c52.337 39.664 124.662 64.211 204.57 64.211 79.909 0 152.235-24.547 204.572-64.211 52.336-39.663 84.663-94.422 84.663-154.866 0-60.444-32.327-115.202-84.663-154.865-52.337-39.664-124.663-64.211-204.572-64.211Z"></path><path stroke="#fff" stroke-dasharray="6 6" d="M140.214 125.202a273.734 273.734 0 0 0-4.965 3.21l.275.417a269.61 269.61 0 0 0-4.902 3.321l-.283-.411a268.66 268.66 0 0 0-4.818 3.422l.292.404a260.084 260.084 0 0 0-4.751 3.537l-.301-.398a258.619 258.619 0 0 0-4.659 3.635l.31.39a259.252 259.252 0 0 0-4.584 3.75l-.32-.383a256.708 256.708 0 0 0-4.486 3.846l.33.375a245.801 245.801 0 0 0-4.403 3.961l-.338-.368a243.115 243.115 0 0 0-4.297 4.058l.347.359a237.283 237.283 0 0 0-4.203 4.17l-.355-.35a235.268 235.268 0 0 0-4.09 4.267l.363.341a229.9 229.9 0 0 0-3.985 4.375l-.372-.332a227.7 227.7 0 0 0-3.869 4.473l.382.322a222.476 222.476 0 0 0-3.75 4.576l-.39-.312v-.001a220 220 0 0 0-3.624 4.675l.398.302a212.31 212.31 0 0 0-3.494 4.77l-.406-.291a210.665 210.665 0 0 0-3.363 4.871l.414.277a207.278 207.278 0 0 0-3.218 4.957l-.421-.267a205.078 205.078 0 0 0-3.08 5.056h-.001l.43.254a198.42 198.42 0 0 0-2.924 5.133l-.437-.241a194.987 194.987 0 0 0-2.774 5.23l.443.228a193.534 193.534 0 0 0-2.608 5.297l-.45-.213a190.51 190.51 0 0 0-2.453 5.39l.457.2a188.01 188.01 0 0 0-2.274 5.448l-.464-.185a185.32 185.32 0 0 0-2.108 5.534l.47.17a183.87 183.87 0 0 0-1.925 5.582l-.472-.155a182.098 182.098 0 0 0-1.748 5.657l.48.14c-.55 1.89-1.07 3.789-1.558 5.697l-.483-.124a178.97 178.97 0 0 0-1.372 5.758l.488.107a177.79 177.79 0 0 0-1.178 5.788l-.49-.09c-.36 1.936-.69 3.88-.987 5.833v.001l.494.075a176.368 176.368 0 0 0-.788 5.853l-.495-.057a176.62 176.62 0 0 0-.593 5.887l.497.042a176.157 176.157 0 0 0-.394 5.892l-.497-.025a177.243 177.243 0 0 0-.2 5.916v.001l.5.008a177.325 177.325 0 0 0 0 5.929l-.5.008c.034 1.978.101 3.95.2 5.916l.497-.025c.099 1.971.23 3.936.394 5.893l-.497.04c.165 1.97.363 3.933.593 5.889l.495-.058c.23 1.959.493 3.91.788 5.854l-.494.075c.296 1.953.626 3.897.987 5.834l.49-.091c.36 1.938.753 3.868 1.178 5.789l-.488.106c.426 1.928.883 3.847 1.371 5.757l.484-.122a180.18 180.18 0 0 0 1.556 5.698l-.478.138c.551 1.895 1.135 3.78 1.748 5.656l.472-.154a182.986 182.986 0 0 0 1.924 5.583l-.469.169a185.32 185.32 0 0 0 2.108 5.534l.464-.184a188.01 188.01 0 0 0 2.274 5.448l-.457.199a190.567 190.567 0 0 0 2.452 5.391l.45-.213a193.534 193.534 0 0 0 2.609 5.297l-.443.227a196.581 196.581 0 0 0 2.774 5.231l.438-.24a200.352 200.352 0 0 0 2.923 5.132l-.43.253a201.4 201.4 0 0 0 3.08 5.056l.422-.266a203.28 203.28 0 0 0 3.218 4.956l-.414.278a212.734 212.734 0 0 0 3.363 4.869l.406-.288a214.565 214.565 0 0 0 3.494 4.769l-.398.301a217.487 217.487 0 0 0 3.624 4.675l.39-.312a222.53 222.53 0 0 0 3.75 4.577l-.382.32a224.829 224.829 0 0 0 3.869 4.473l.372-.331a226.891 226.891 0 0 0 3.985 4.375l-.363.34a235.268 235.268 0 0 0 4.09 4.267l.355-.349a237.283 237.283 0 0 0 4.203 4.17l-.347.359a243.065 243.065 0 0 0 4.297 4.057l.338-.367a245.801 245.801 0 0 0 4.403 3.961l-.33.374a256.757 256.757 0 0 0 4.486 3.847l.32-.382a254.83 254.83 0 0 0 4.584 3.749l-.31.389a258.619 258.619 0 0 0 4.659 3.635l.301-.396a264.718 264.718 0 0 0 4.751 3.535l-.292.404a268.617 268.617 0 0 0 4.818 3.421l.283-.409a269.61 269.61 0 0 0 4.902 3.321l-.275.416a273.65 273.65 0 0 0 4.964 3.21l.266-.423a279.471 279.471 0 0 0 5.039 3.108l-.257.427a289.998 289.998 0 0 0 5.098 2.998l.247-.433c1.706.979 3.428 1.943 5.163 2.892l-.24.437c1.726.944 3.467 1.873 5.221 2.786l.23-.442c1.744.908 3.502 1.8 5.273 2.678l-.222.447c1.765.874 3.542 1.732 5.333 2.575l.212-.452c1.778.837 3.568 1.658 5.371 2.464l-.203.455c1.799.804 3.611 1.592 5.435 2.365l.194-.459c1.808.766 3.628 1.516 5.459 2.251l-.186.463c1.831.734 3.674 1.452 5.528 2.155l.177-.466c1.834.696 3.679 1.375 5.536 2.038l-.167.471c1.859.665 3.729 1.314 5.61 1.946l.158-.472c1.858.625 3.726 1.234 5.605 1.828l-.15.475c1.881.595 3.772 1.174 5.673 1.736l.141-.479c1.882.557 3.774 1.098 5.676 1.622l-.132.481c1.899.524 3.808 1.032 5.725 1.524l.124-.482c1.904.488 3.818.961 5.74 1.417l-.116.486c1.915.455 3.839.892 5.771 1.315l.106-.488c1.924.421 3.856.825 5.796 1.213l-.096.489c1.927.386 3.862.755 5.804 1.108l.089-.49c1.94.352 3.889.688 5.844 1.007l-.08.494c1.937.317 3.883.617 5.835.902l.071-.494c1.948.284 3.904.551 5.866.803l-.062.495c1.951.25 3.91.483 5.875.7l.054-.495c1.954.216 3.915.415 5.881.598l-.046.497c1.964.182 3.933.35 5.909.5l.038-.498c1.956.149 3.919.281 5.887.397l-.028.498c1.971.116 3.948.216 5.931.299l.02-.498c1.959.082 3.924.148 5.894.198l-.013.499c1.971.05 3.947.081 5.928.098l.003-.498a367.177 367.177 0 0 0 5.94 0l.004.498c1.981-.017 3.957-.048 5.928-.098h-.001l-.013-.499c1.97-.05 3.935-.116 5.894-.198l.021.498c1.983-.083 3.96-.183 5.931-.299l-.029-.498c1.968-.116 3.931-.248 5.887-.397l.038.498h.001c1.976-.15 3.945-.318 5.909-.5l-.047-.497c1.966-.183 3.927-.382 5.881-.598l.055.495c1.965-.217 3.924-.45 5.875-.7l-.063-.495a347.74 347.74 0 0 0 5.866-.803l.072.494c1.952-.285 3.897-.585 5.835-.902l-.081-.494c1.955-.319 3.904-.655 5.844-1.007l.09.49c1.942-.353 3.877-.722 5.804-1.108l-.097-.489c1.94-.388 3.872-.792 5.796-1.213l.107.488c1.932-.423 3.856-.86 5.771-1.315l-.117-.486c1.922-.456 3.836-.929 5.74-1.417l.125.482c1.917-.492 3.826-1 5.725-1.524l-.133-.481a312.052 312.052 0 0 0 5.676-1.622l.142.479a313.636 313.636 0 0 0 5.673-1.736l-.151-.475a321.983 321.983 0 0 0 5.605-1.828l.159.472a314.025 314.025 0 0 0 5.611-1.947l-.169-.47a298.106 298.106 0 0 0 5.536-2.038l.178.466a311.985 311.985 0 0 0 5.527-2.155l-.186-.463a310.546 310.546 0 0 0 5.459-2.251l.195.459a304.972 304.972 0 0 0 5.435-2.365l-.204-.455a301.545 301.545 0 0 0 5.371-2.464l.213.452c1.79-.843 3.568-1.701 5.333-2.575l-.222-.447c1.771-.878 3.529-1.77 5.272-2.678l.231.442a291.403 291.403 0 0 0 5.221-2.786l-.241-.437a289.341 289.341 0 0 0 5.163-2.892l.249.432a283.785 283.785 0 0 0 5.097-2.997l-.258-.427a275.92 275.92 0 0 0 5.038-3.108l.269.423a271.674 271.674 0 0 0 4.963-3.21l-.276-.416a269.61 269.61 0 0 0 4.902-3.321l.285.409a268.617 268.617 0 0 0 4.818-3.421l-.294-.404a264.64 264.64 0 0 0 4.75-3.535l.304.395a255.013 255.013 0 0 0 4.658-3.634l-.311-.389a258.397 258.397 0 0 0 4.584-3.749l.321.382a256.757 256.757 0 0 0 4.486-3.847l-.331-.374a245.801 245.801 0 0 0 4.403-3.961l.339.367a243.447 243.447 0 0 0 4.297-4.057l-.348-.359a236.264 236.264 0 0 0 4.203-4.17l.356.35a234.256 234.256 0 0 0 4.091-4.267l-.365-.341a223.973 223.973 0 0 0 3.985-4.375l.374.331a228.364 228.364 0 0 0 3.868-4.473l-.383-.32a224.183 224.183 0 0 0 3.75-4.577l.391.312a216.53 216.53 0 0 0 3.624-4.675l-.399-.301a214.56 214.56 0 0 0 3.494-4.769l.407.288a213.086 213.086 0 0 0 3.363-4.869l-.415-.278a204.446 204.446 0 0 0 3.218-4.956l.422.266a200.553 200.553 0 0 0 3.081-5.056l-.431-.253a199.427 199.427 0 0 0 2.923-5.132l.439.24a193.974 193.974 0 0 0 2.774-5.231l-.444-.226a193.87 193.87 0 0 0 2.608-5.298l.452.213a194.603 194.603 0 0 0 2.452-5.391l-.458-.199a188.562 188.562 0 0 0 2.274-5.448l.465.184a183.946 183.946 0 0 0 2.107-5.534l-.469-.169a183.752 183.752 0 0 0 1.924-5.582l.474.154a180.202 180.202 0 0 0 1.747-5.657l-.479-.138c.55-1.89 1.068-3.79 1.556-5.698l.485.123c.488-1.91.945-3.829 1.371-5.758l-.488-.106c.424-1.921.817-3.85 1.177-5.788l.491.09c.361-1.937.691-3.881.987-5.834l-.495-.074c.295-1.944.557-3.896.788-5.855l.496.058c.23-1.956.428-3.918.593-5.888l-.498-.041c.164-1.957.295-3.921.394-5.892l.498.024c.099-1.966.166-3.938.199-5.917l-.5-.007a172.142 172.142 0 0 0 0-5.929l.5-.008c-.033-1.978-.1-3.951-.199-5.917l-.498.026c-.099-1.971-.23-3.936-.394-5.893l.498-.042a176.62 176.62 0 0 0-.593-5.887l-.496.058a177.402 177.402 0 0 0-.788-5.854l.494-.074.001-.001a174.385 174.385 0 0 0-.987-5.834l-.491.091c-.36-1.938-.753-3.868-1.177-5.789l.488-.107a175.317 175.317 0 0 0-1.108-4.715l-.263-1.043-.485.124a180.11 180.11 0 0 0-1.556-5.697l.479-.14a180.202 180.202 0 0 0-1.747-5.657l-.474.155a184.704 184.704 0 0 0-1.924-5.582l.469-.17c-.672-1.855-1.375-3.7-2.107-5.534l-.465.185a188.562 188.562 0 0 0-2.274-5.448l.458-.2a194.544 194.544 0 0 0-2.452-5.39l-.452.213a190.955 190.955 0 0 0-2.608-5.297l.444-.228a192.421 192.421 0 0 0-2.774-5.23l-.439.241a197.805 197.805 0 0 0-2.923-5.133l.431-.254a204.2 204.2 0 0 0-3.081-5.056l-.422.267a208.49 208.49 0 0 0-3.218-4.957l.415-.277a211.01 211.01 0 0 0-3.363-4.871l-.407.291a212.305 212.305 0 0 0-3.494-4.77l.399-.302a219.02 219.02 0 0 0-3.624-4.675l-.001.001-.39.312a224.128 224.128 0 0 0-3.75-4.576l.383-.322a228.42 228.42 0 0 0-3.869-4.473l-.373.332a226.904 226.904 0 0 0-3.985-4.375l.365-.342a234.256 234.256 0 0 0-4.091-4.267l-.356.351a236.264 236.264 0 0 0-4.203-4.17l.348-.359a243.497 243.497 0 0 0-4.297-4.058l-.339.368a245.801 245.801 0 0 0-4.403-3.961l.331-.375a256.708 256.708 0 0 0-4.486-3.846l-.321.383a262.943 262.943 0 0 0-4.584-3.75l.311-.39a258.619 258.619 0 0 0-4.659-3.635l-.303.398a256.6 256.6 0 0 0-4.75-3.537l.293-.404a264.995 264.995 0 0 0-4.817-3.421l-.285.41a269.61 269.61 0 0 0-4.902-3.321l.276-.417a273.65 273.65 0 0 0-4.964-3.21l-.268.423a270.406 270.406 0 0 0-5.038-3.106l.258-.429a283.747 283.747 0 0 0-5.097-2.996l-.249.432a289.304 289.304 0 0 0-5.163-2.891l.241-.439a291.403 291.403 0 0 0-5.221-2.786l-.231.444a292.363 292.363 0 0 0-5.272-2.678l.222-.448a301.447 301.447 0 0 0-5.333-2.576l-.213.453a301.515 301.515 0 0 0-5.371-2.463l.204-.456a305 305 0 0 0-5.435-2.366l-.195.46a310.546 310.546 0 0 0-5.459-2.251l.186-.464a309.678 309.678 0 0 0-5.527-2.155l-.178.467a309.318 309.318 0 0 0-5.536-2.04l.169-.469a314.032 314.032 0 0 0-5.611-1.947l-.159.473a316.96 316.96 0 0 0-5.605-1.828l.151-.476a321.008 321.008 0 0 0-5.673-1.736l-.142.48a321.179 321.179 0 0 0-5.676-1.622l.133-.481a326.416 326.416 0 0 0-5.725-1.525l-.125.483c-1.904-.488-3.818-.96-5.74-1.416l.116-.487h.001a331.104 331.104 0 0 0-5.771-1.315l-.106.488a333.23 333.23 0 0 0-5.797-1.213l.097-.49a335.992 335.992 0 0 0-5.804-1.108l-.09.492c-1.94-.353-3.888-.69-5.843-1.01l.08-.492a340.194 340.194 0 0 0-5.835-.903l-.072.496a340.708 340.708 0 0 0-5.866-.803l.063-.496c-1.951-.25-3.91-.484-5.875-.701l-.054.497a346.305 346.305 0 0 0-5.882-.6l.047-.496a345.96 345.96 0 0 0-5.91-.501l-.038.499a347.104 347.104 0 0 0-5.887-.398l.029-.498a350.262 350.262 0 0 0-5.931-.298l-.021.499a350.758 350.758 0 0 0-5.894-.199l.013-.5c-1.97-.05-3.946-.082-5.926-.098l-.005.5a353.535 353.535 0 0 0-5.94 0l-.003-.5c-1.981.016-3.956.049-5.927.098l.012.5c-1.97.05-3.935.116-5.894.199l-.019-.5c-1.983.084-3.96.183-5.932.3l.028.497c-1.968.116-3.931.25-5.887.398l-.037-.5c-1.976.15-3.945.319-5.909.502l.045.497a342.14 342.14 0 0 0-5.881.599l-.053-.497c-1.966.217-3.924.45-5.876.7l.062.497a337.78 337.78 0 0 0-5.866.803l-.07-.496c-1.953.285-3.898.586-5.836.903l.08.493c-1.956.32-3.904.656-5.844 1.009l-.088-.492c-1.943.353-3.878.723-5.805 1.108l.096.49c-1.94.388-3.872.793-5.796 1.213l-.106-.488c-1.932.422-3.856.86-5.771 1.314v.001l.116.486c-1.922.457-3.836.929-5.74 1.417l-.124-.483c-1.917.492-3.826 1-5.725 1.525l.132.48a321.179 321.179 0 0 0-5.676 1.623l-.141-.48a321.008 321.008 0 0 0-5.673 1.736l.15.476a316.96 316.96 0 0 0-5.605 1.828l-.158-.473a314.7 314.7 0 0 0-5.61 1.946l.167.47a309.318 309.318 0 0 0-5.536 2.04l-.177-.467a315.132 315.132 0 0 0-5.528 2.155l.186.464a310.546 310.546 0 0 0-5.459 2.251l-.194-.46a305 305 0 0 0-5.435 2.366l.203.456a301.515 301.515 0 0 0-5.371 2.463l-.212-.453a298.105 298.105 0 0 0-5.333 2.576l.221.448c-1.771.877-3.528 1.77-5.272 2.678l-.23-.444a288.018 288.018 0 0 0-5.221 2.786l.24.439a289.304 289.304 0 0 0-5.163 2.891l-.247-.433a283.874 283.874 0 0 0-5.098 2.997l.257.429a273.817 273.817 0 0 0-5.039 3.106l-.265-.423Z"></path><path stroke="#fff" d="M334.309 78.125c-140.117 0-253.575 98.15-253.576 219.076 0 120.927 113.459 219.077 253.576 219.077 140.116 0 253.574-98.15 253.574-219.077 0-120.926-113.458-219.076-253.574-219.076Z"></path><path stroke="#fff" d="M363.281 62.598c-124.023 0-224.6 105.014-224.6 234.602 0 129.588 100.577 234.601 224.6 234.602 124.024 0 224.602-105.014 224.602-234.602 0-129.588-100.578-234.602-224.602-234.602Z"></path><path stroke="#fff" d="M400.426 53.732c-104.239 0-188.941 108.882-188.942 243.474 0 134.592 84.703 243.475 188.942 243.475s188.941-108.883 188.941-243.475c0-134.592-84.702-243.474-188.941-243.474Z"></path><path stroke="#fff" d="M441.291 34.877c-40.357 0-76.997 29.234-103.576 76.725-26.57 47.474-43.02 113.093-43.02 185.601s16.45 138.128 43.02 185.603c26.579 47.49 63.219 76.724 103.576 76.724 40.357 0 76.997-29.234 103.576-76.724 26.57-47.475 43.02-113.095 43.02-185.603 0-72.508-16.45-138.127-43.02-185.601-26.579-47.491-63.219-76.725-103.576-76.725Z"></path><path stroke="#fff" stroke-dasharray="6 6" d="M388.081 275.658c-.055 1.997-.1 4-.14 6.008l.498.01a782.654 782.654 0 0 0-.092 5.97l-.498-.005c-.024 1.993-.04 3.992-.048 5.996l.499.002a752.758 752.758 0 0 0 0 6.015l-.499.001c.008 2.004.024 4.003.048 5.996l.498-.005c.023 1.996.054 3.987.092 5.971l-.498.009c.04 2.008.085 4.01.14 6.007l.499-.013c.055 1.995.118 3.985.188 5.968l-.498.016c.07 2.007.15 4.008.237 6.001l.496-.02c.087 1.998.181 3.99.283 5.975l-.498.024c.103 2.001.215 3.995.333 5.981l.498-.028c.12 2.001.246 3.995.381 5.981l-.496.033c.135 1.994.279 3.981.43 5.96l.496-.037c.153 2.003.313 3.998.482 5.985l-.496.041c.169 1.988.344 3.969.528 5.94l.497-.045c.188 2.004.384 3.999.587 5.986l-.496.05c.204 1.988.416 3.967.635 5.937l.495-.055c.223 1.998.453 3.987.692 5.965l-.495.06c.24 1.988.488 3.965.744 5.933l.493-.064c.258 1.991.525 3.973.8 5.942l-.494.068c.277 1.986.561 3.961.854 5.925l.494-.074c.296 1.985.601 3.958.913 5.919l-.494.079c.316 1.983.641 3.953.974 5.911l.492-.083c.335 1.977.679 3.942 1.031 5.894l-.49.088a553.43 553.43 0 0 0 1.095 5.894l.49-.094c.377 1.971.763 3.928 1.157 5.87l-.489.099c.4 1.97.808 3.926 1.224 5.867l.489-.105c.421 1.964.852 3.912 1.291 5.844l-.488.11c.446 1.961.9 3.904 1.363 5.831l.485-.115c.47 1.956.948 3.895 1.436 5.816l-.484.122c.494 1.947.997 3.875 1.509 5.785l.48-.128a433.294 433.294 0 0 0 1.593 5.786l-.478.135a398.858 398.858 0 0 0 1.662 5.723l.477-.141a388.177 388.177 0 0 0 1.766 5.751l-.477.15a374.317 374.317 0 0 0 1.841 5.669l.472-.157c.64 1.919 1.29 3.815 1.949 5.683l-.469.166a337.968 337.968 0 0 0 2.042 5.627l.467-.173a302.817 302.817 0 0 0 2.142 5.565l-.462.183a287.841 287.841 0 0 0 2.273 5.572l.46-.192a264.991 264.991 0 0 0 2.374 5.464l-.454.204c.828 1.848 1.668 3.66 2.518 5.436l.448-.214a218.932 218.932 0 0 0 2.662 5.375l-.444.228c.923 1.801 1.858 3.56 2.804 5.276l.437-.24c.974 1.767 1.96 3.489 2.957 5.163l-.427.254a160.637 160.637 0 0 0 3.176 5.116l.418-.27a140.633 140.633 0 0 0 3.353 4.947l-.406.289a124.017 124.017 0 0 0 3.58 4.794l.391-.308a105.157 105.157 0 0 0 3.801 4.575l-.372.328a91.577 91.577 0 0 0 4.088 4.358l.351-.353a77.519 77.519 0 0 0 4.363 4.035l-.324.379a65.713 65.713 0 0 0 4.723 3.685l.288-.408a55.037 55.037 0 0 0 5.023 3.172l-.242.435a47.324 47.324 0 0 0 5.407 2.587l.186-.464a40.944 40.944 0 0 0 5.633 1.808l-.116.484c1.952.472 3.921.79 5.904.95l.039-.498a36.341 36.341 0 0 0 5.911 0l.04.498a38.146 38.146 0 0 0 5.904-.95l-.117-.484a40.988 40.988 0 0 0 5.633-1.808l.186.463a47.328 47.328 0 0 0 5.408-2.586l-.243-.435a55.037 55.037 0 0 0 5.023-3.172l.288.408h.001a65.954 65.954 0 0 0 4.723-3.686l-.326-.378a77.187 77.187 0 0 0 4.364-4.035l.353.353a91.084 91.084 0 0 0 4.087-4.358l-.373-.328a105.883 105.883 0 0 0 3.801-4.575l.392.308c1.206-1.535 2.4-3.133 3.58-4.794l-.408-.289a139.28 139.28 0 0 0 3.354-4.947l.419.27a161.711 161.711 0 0 0 3.176-5.115l-.428-.255a178.307 178.307 0 0 0 2.957-5.163l.437.24a194.807 194.807 0 0 0 2.805-5.276l-.445-.228a218.932 218.932 0 0 0 2.662-5.375l.449.214a242.58 242.58 0 0 0 2.518-5.436l-.455-.204c.801-1.788 1.593-3.61 2.374-5.464l.461.192a287.841 287.841 0 0 0 2.273-5.572l-.463-.184a302.72 302.72 0 0 0 2.141-5.564l.469.173c.69-1.848 1.37-3.725 2.042-5.627l-.47-.166a345.353 345.353 0 0 0 1.948-5.683l.474.157a374.496 374.496 0 0 0 1.84-5.67l-.477-.149a388.177 388.177 0 0 0 1.766-5.751l.477.141a398.821 398.821 0 0 0 1.663-5.723l-.479-.135a433.338 433.338 0 0 0 1.592-5.786l.482.128c.511-1.91 1.014-3.838 1.508-5.785l-.484-.122c.487-1.921.966-3.86 1.436-5.816l.486.116c.463-1.927.916-3.872 1.362-5.833l-.488-.109c.439-1.932.869-3.88 1.291-5.844l.489.106c.416-1.941.824-3.897 1.224-5.868l-.489-.099c.394-1.942.78-3.899 1.157-5.87l.491.094a553.43 553.43 0 0 0 1.095-5.894l-.491-.088a594.67 594.67 0 0 0 1.031-5.894l.493.083c.333-1.958.657-3.929.973-5.912l-.494-.078c.312-1.961.617-3.934.913-5.919l.494.074c.293-1.964.578-3.939.854-5.925l-.494-.068c.275-1.969.542-3.951.8-5.942l.494.064c.256-1.968.504-3.946.743-5.934l-.495-.059c.239-1.978.469-3.967.692-5.965l.496.055c.219-1.97.431-3.949.635-5.937l-.497-.05c.203-1.986.398-3.982.585-5.986l.499.045c.185-1.971.36-3.952.529-5.94l-.498-.041c.168-1.987.33-3.982.483-5.985l.497.037c.151-1.98.294-3.967.43-5.961l-.497-.032c.135-1.986.261-3.98.381-5.981l.499.028c.118-1.986.23-3.98.333-5.981l-.5-.024c.102-1.985.197-3.977.284-5.975l.497.02c.086-1.993.166-3.994.237-6.001l-.499-.016c.07-1.983.133-3.973.188-5.968l.5.013c.054-1.997.1-4 .139-6.008l-.499-.009c.039-1.984.07-3.974.093-5.97l.499.005c.023-1.993.04-3.992.048-5.996l-.5-.001.006-3.008c0-1.003-.002-2.007-.006-3.008l.5-.002a794.349 794.349 0 0 0-.048-5.996l-.499.006a734.212 734.212 0 0 0-.093-5.97l.499-.01a789.387 789.387 0 0 0-.139-6.008l-.5.014a773.184 773.184 0 0 0-.188-5.968l.499-.017a773.624 773.624 0 0 0-.237-6.001l-.497.021a764.284 764.284 0 0 0-.284-5.974l.5-.026a756.52 756.52 0 0 0-.333-5.981l-.499.029c-.12-2.001-.246-3.995-.381-5.981l.497-.033a745.607 745.607 0 0 0-.43-5.961l-.497.038a740.086 740.086 0 0 0-.483-5.985l.498-.042a679.538 679.538 0 0 0-.529-5.94v.001l-.499.045c-.187-2.004-.382-4-.585-5.986l.496-.051a706.225 706.225 0 0 0-.634-5.937l-.496.056a656.352 656.352 0 0 0-.692-5.965l.495-.06a615.85 615.85 0 0 0-.742-5.933l-.495.065a605.68 605.68 0 0 0-.8-5.942l.494-.07a598.307 598.307 0 0 0-.854-5.925l-.494.075a614.021 614.021 0 0 0-.913-5.919l.494-.079c-.159-1-.321-1.997-.484-2.991l-.489-2.921-.493.084a594.67 594.67 0 0 0-1.031-5.894l.491-.089a553.43 553.43 0 0 0-1.095-5.894l-.491.095a535.366 535.366 0 0 0-1.157-5.87l.49-.099c-.4-1.971-.808-3.927-1.224-5.868l-.001.001-.489.105a508.016 508.016 0 0 0-1.291-5.844l.488-.11a492.454 492.454 0 0 0-1.362-5.833l-.001.001-.485.116a480.54 480.54 0 0 0-1.436-5.816l.484-.123a462.057 462.057 0 0 0-1.508-5.785l-.482.129a433.338 433.338 0 0 0-1.592-5.786l.479-.136a398.821 398.821 0 0 0-1.663-5.723l-.477.143a400.646 400.646 0 0 0-1.766-5.752l.477-.15a374.496 374.496 0 0 0-1.84-5.67l-.474.158a351.905 351.905 0 0 0-1.948-5.683l.47-.167a326.603 326.603 0 0 0-1.956-5.396l-.086-.231-.469.174a301.947 301.947 0 0 0-2.141-5.564l.463-.185a287.087 287.087 0 0 0-2.273-5.572l-.461.194a264.467 264.467 0 0 0-2.374-5.465l.455-.203a242.513 242.513 0 0 0-2.518-5.438l-.449.215a219.11 219.11 0 0 0-2.662-5.375l.445-.229a195.286 195.286 0 0 0-2.805-5.276l-.437.241a178.71 178.71 0 0 0-2.957-5.163l.428-.256a160.928 160.928 0 0 0-3.176-5.115l-.419.271a139.108 139.108 0 0 0-3.354-4.947l.408-.29a124.842 124.842 0 0 0-3.579-4.793l-.393.308a106.773 106.773 0 0 0-3.801-4.574l.373-.33a91.049 91.049 0 0 0-4.087-4.358l-.353.354a77.205 77.205 0 0 0-4.364-4.035l.325-.38h.001a65.926 65.926 0 0 0-4.723-3.685l-.001.001-.289.408a55.16 55.16 0 0 0-5.022-3.172l.243-.436a47.412 47.412 0 0 0-5.408-2.586l-.187.464a41.09 41.09 0 0 0-5.633-1.807l.118-.486a38.144 38.144 0 0 0-5.904-.95l-.04.498a36.796 36.796 0 0 0-5.911 0l-.04-.497a38.13 38.13 0 0 0-5.903.949l.116.486a41.032 41.032 0 0 0-5.633 1.807l-.186-.464v-.001a47.408 47.408 0 0 0-5.407 2.587l.242.436a55.014 55.014 0 0 0-5.023 3.172l-.288-.408v-.001a65.916 65.916 0 0 0-4.723 3.686l.324.38a77.537 77.537 0 0 0-4.363 4.034l-.352-.354a91.049 91.049 0 0 0-4.087 4.358l.372.33a106.035 106.035 0 0 0-3.801 4.574l-.392-.308a123.814 123.814 0 0 0-3.58 4.793l.407.29a140.372 140.372 0 0 0-3.354 4.947l-.417-.271a160.874 160.874 0 0 0-3.176 5.116l.427.255a178.71 178.71 0 0 0-2.957 5.163l-.437-.241a198.077 198.077 0 0 0-2.804 5.277h-.001l.444.228a219.114 219.114 0 0 0-2.661 5.375l-.448-.215c-.85 1.776-1.689 3.59-2.518 5.438l.454.203a264.467 264.467 0 0 0-2.374 5.465l-.46-.194a287.087 287.087 0 0 0-2.273 5.572l.462.185a301.927 301.927 0 0 0-2.142 5.564l-.467-.174a339.33 339.33 0 0 0-2.042 5.627l.469.167a351.876 351.876 0 0 0-1.949 5.683l-.472-.158a374.317 374.317 0 0 0-1.841 5.669v.001l.477.15a388.323 388.323 0 0 0-1.766 5.752l-.477-.143a398.858 398.858 0 0 0-1.662 5.723l.478.136a433.294 433.294 0 0 0-1.593 5.786l-.48-.129a445.297 445.297 0 0 0-1.509 5.785l.484.123c-.488 1.921-.966 3.86-1.436 5.816l-.485-.116a492.03 492.03 0 0 0-1.363 5.831v.001l.488.11c-.439 1.932-.87 3.88-1.291 5.844l-.489-.105a554.693 554.693 0 0 0-1.224 5.867h-.001l.49.099c-.394 1.942-.78 3.899-1.157 5.87l-.49-.095a553.43 553.43 0 0 0-1.095 5.894l.49.089a566.847 566.847 0 0 0-1.031 5.894l-.492-.084a574.282 574.282 0 0 0-.974 5.912v.001l.494.078a614.021 614.021 0 0 0-.913 5.919l-.494-.075a629.515 629.515 0 0 0-.854 5.925l.494.07a605.68 605.68 0 0 0-.8 5.942l-.494-.065a649.06 649.06 0 0 0-.743 5.933l.495.06a656.352 656.352 0 0 0-.692 5.965l-.495-.056c-.219 1.97-.431 3.949-.635 5.937l.496.052a722.737 722.737 0 0 0-.587 5.986l-.497-.046v-.001a720.78 720.78 0 0 0-.528 5.94l.496.042a697.365 697.365 0 0 0-.482 5.985l-.496-.038c-.152 1.98-.295 3.967-.43 5.961l.496.034a751.537 751.537 0 0 0-.382 5.98l-.497-.029a756.52 756.52 0 0 0-.333 5.981l.498.026a764.632 764.632 0 0 0-.283 5.975l-.496-.022a685.477 685.477 0 0 0-.237 6.001l.498.017c-.07 1.983-.133 3.973-.188 5.968l-.499-.014Z"></path><path stroke="#fff" d="M537.865 7.148c-3.279 0-6.557 1.903-9.801 5.706-3.24 3.798-6.388 9.43-9.401 16.731-6.023 14.597-11.459 35.75-16.027 61.925-9.136 52.342-14.788 124.673-14.788 204.58 0 79.907 5.652 152.238 14.788 204.581 4.568 26.175 10.004 47.328 16.027 61.925 3.013 7.3 6.161 12.932 9.401 16.731 3.244 3.803 6.522 5.705 9.801 5.705s6.558-1.902 9.801-5.705c3.24-3.799 6.388-9.431 9.4-16.731 6.024-14.597 11.459-35.75 16.028-61.925 9.135-52.343 14.789-124.674 14.789-204.581 0-79.907-5.654-152.238-14.789-204.58-4.569-26.175-10.004-47.328-16.028-61.925-3.012-7.3-6.16-12.933-9.4-16.732-3.243-3.802-6.522-5.704-9.801-5.705Z"></path><path stroke="#fff" d="M586.898 1.901c-.133.987-.269 2.382-.4 4.173-.289 3.95-.568 9.782-.835 17.3-.533 15.034-1.014 36.792-1.417 63.683-.806 53.78-1.306 128.079-1.306 210.148 0 82.069.5 156.367 1.306 210.148.403 26.89.884 48.649 1.417 63.683.267 7.518.546 13.35.835 17.299.131 1.79.267 3.185.4 4.172.134-.987.269-2.382.4-4.172.289-3.949.569-9.781.836-17.299.533-15.034 1.013-36.793 1.416-63.683.806-53.781 1.305-128.079 1.305-210.148 0-82.069-.499-156.368-1.305-210.148-.403-26.89-.883-48.649-1.416-63.683-.267-7.518-.547-13.35-.836-17.3-.131-1.79-.266-3.186-.4-4.173Z"></path><circle cx="1009.63" cy="191.642" r="4.833" fill="#fff"></circle><circle cx="1089.86" cy="270.382" r="4.833" fill="#fff"></circle><circle cx="1128.49" cy="245.986" r="4.833" fill="#fff"></circle><circle cx="774.087" cy="169.997" r="4.833" fill="#fff"></circle><circle cx="627.779" cy="74.093" r="4.833" fill="#fff"></circle><circle cx="783.783" cy="324.72" r="4.833" fill="#fff"></circle><circle cx="571.318" cy="285.904" r="4.833" fill="#fff"></circle><circle cx="488.376" cy="245.919" r="4.833" fill="#fff"></circle><circle cx="314.185" cy="165.527" r="4.833" fill="#fff"></circle><circle cx="210.263" cy="301.437" r="4.833" fill="#fff"></circle><circle cx="297.923" cy="340.249" r="4.833" fill="#fff"></circle></svg>