<svg width="178" height="178" viewBox="0 0 178 178" fill="none" xmlns="http://www.w3.org/2000/svg">
<g filter="url(#filter0_if_3208_9930)">
<g opacity="0.8">
<path d="M88.7011 177.204C137.579 177.204 177.203 137.58 177.203 88.7018C177.203 39.8236 137.579 0.199951 88.7011 0.199951C39.8228 0.199951 0.199219 39.8236 0.199219 88.7018C0.199219 137.58 39.8228 177.204 88.7011 177.204Z" fill="url(#paint0_radial_3208_9930)" fill-opacity="0.3"></path>
</g>
</g>
<g filter="url(#filter1_if_3208_9930)">
<g opacity="0.8">
<path d="M88.6107 159.351C127.683 159.351 159.358 127.676 159.358 88.6034C159.358 49.5307 127.683 17.856 88.6107 17.856C49.538 17.856 17.8633 49.5307 17.8633 88.6034C17.8633 127.676 49.538 159.351 88.6107 159.351Z" fill="#EDF7FF"></path>
</g>
</g>
<g filter="url(#filter2_if_3208_9930)" data-figma-bg-blur-radius="30">
<path d="M88.7084 54.3535C87.1813 54.3535 85.6692 54.6564 84.2584 55.2448C82.8476 55.8332 81.5657 56.6957 80.486 57.783C79.4062 58.8703 78.5496 60.161 77.9653 61.5816C77.3809 63.0022 77.0801 64.5248 77.0801 66.0624C77.0801 67.6001 77.3809 69.1227 77.9653 70.5433C78.5496 71.9638 79.4062 73.2546 80.486 74.3419C81.5657 75.4292 82.8476 76.2916 84.2584 76.8801C85.6692 77.4685 87.1813 77.7714 88.7084 77.7714C91.7924 77.7714 94.7501 76.5377 96.9308 74.3419C99.1115 72.146 100.337 69.1678 100.337 66.0624C100.337 62.957 99.1115 59.9788 96.9308 57.783C94.7501 55.5871 91.7924 54.3535 88.7084 54.3535ZM114.898 60.2021C112.583 60.2021 110.362 61.1283 108.725 62.7768C107.088 64.4253 106.168 66.6612 106.168 68.9926C106.168 71.324 107.088 73.5599 108.725 75.2084C110.362 76.8569 112.583 77.7831 114.898 77.7831C117.213 77.7831 119.434 76.8569 121.071 75.2084C122.708 73.5599 123.628 71.324 123.628 68.9926C123.628 66.6612 122.708 64.4253 121.071 62.7768C119.434 61.1283 117.213 60.2021 114.898 60.2021ZM62.5186 60.2021C60.2033 60.2021 57.9828 61.1283 56.3456 62.7768C54.7085 64.4253 53.7887 66.6612 53.7887 68.9926C53.7887 71.324 54.7085 73.5599 56.3456 75.2084C57.9828 76.8569 60.2033 77.7831 62.5186 77.7831C64.8339 77.7831 67.0544 76.8569 68.6916 75.2084C70.3288 73.5599 71.2485 71.324 71.2485 68.9926C71.2485 66.6612 70.3288 64.4253 68.6916 62.7768C67.0544 61.1283 64.8339 60.2021 62.5186 60.2021ZM71.2485 89.4627C71.2593 87.9156 71.8772 86.4355 72.9675 85.3453C74.0578 84.2552 75.532 83.6434 77.0685 83.6434H100.348C101.892 83.6434 103.372 84.2608 104.464 85.3599C105.555 86.4589 106.168 87.9495 106.168 89.5037V107.085C106.17 108.929 105.883 110.762 105.319 112.517C104.03 116.495 101.375 119.879 97.8312 122.063C94.2873 124.247 90.0863 125.087 85.9825 124.433C81.8787 123.778 78.141 121.672 75.4405 118.493C72.7401 115.313 71.2538 111.268 71.2485 107.085V89.4627ZM65.4286 89.5037C65.4286 87.3647 65.9931 85.3663 66.9883 83.6434H53.7887C52.2452 83.6434 50.7648 84.2608 49.6734 85.3599C48.5819 86.4589 47.9688 87.9495 47.9688 89.5037V104.155C47.968 106.553 48.5521 108.915 49.6698 111.034C50.7875 113.152 52.4046 114.961 54.3791 116.303C56.3536 117.645 58.6251 118.478 60.9941 118.73C63.3631 118.981 65.7572 118.643 67.9661 117.745C66.2946 114.441 65.4249 110.786 65.4286 107.079V89.5037ZM111.988 89.5037V107.085C111.988 110.923 111.074 114.545 109.451 117.745C111.66 118.643 114.054 118.981 116.423 118.73C118.792 118.478 121.063 117.645 123.038 116.303C125.012 114.961 126.629 113.152 127.747 111.034C128.865 108.915 129.449 106.553 129.448 104.155V89.5037C129.448 87.9495 128.835 86.4589 127.743 85.3599C126.652 84.2608 125.172 83.6434 123.628 83.6434H110.428C111.418 85.3663 111.988 87.3647 111.988 89.5037Z" fill="url(#paint1_linear_3208_9930)"></path>
</g>
<g filter="url(#filter3_if_3208_9930)">
<g opacity="0.8">
<path d="M145.5 175.977C162.332 175.977 175.977 162.332 175.977 145.501C175.977 128.669 162.332 115.024 145.5 115.024C128.668 115.024 115.023 128.669 115.023 145.501C115.023 162.332 128.668 175.977 145.5 175.977Z" fill="url(#paint2_radial_3208_9930)" fill-opacity="0.8"></path>
</g>
</g>
<rect x="142.734" y="126.106" width="5.54119" height="38.7883" rx="2.77059" fill="white"></rect>
<rect x="164.895" y="142.73" width="5.54119" height="38.7883" rx="2.77059" transform="rotate(90 164.895 142.73)" fill="white"></rect>
<defs>
<filter id="filter0_if_3208_9930" x="-3.10078" y="-3.10005" width="183.604" height="183.604" filterUnits="userSpaceOnUse" color-interpolation-filters="sRGB">
<feFlood flood-opacity="0" result="BackgroundImageFix"></feFlood>
<feBlend mode="normal" in="SourceGraphic" in2="BackgroundImageFix" result="shape"></feBlend>
<feColorMatrix in="SourceAlpha" type="matrix" values="0 0 0 0 0 0 0 0 0 0 0 0 0 0 0 0 0 0 127 0" result="hardAlpha"></feColorMatrix>
<feOffset dx="1" dy="1"></feOffset>
<feGaussianBlur stdDeviation="0.1"></feGaussianBlur>
<feComposite in2="hardAlpha" operator="arithmetic" k2="-1" k3="1"></feComposite>
<feColorMatrix type="matrix" values="0 0 0 0 1 0 0 0 0 1 0 0 0 0 1 0 0 0 0.25 0"></feColorMatrix>
<feBlend mode="normal" in2="shape" result="effect1_innerShadow_3208_9930"></feBlend>
<feGaussianBlur stdDeviation="0.1" result="effect2_foregroundBlur_3208_9930"></feGaussianBlur>
</filter>
<filter id="filter1_if_3208_9930" x="-12.1367" y="-12.144" width="201.496" height="201.495" filterUnits="userSpaceOnUse" color-interpolation-filters="sRGB">
<feFlood flood-opacity="0" result="BackgroundImageFix"></feFlood>
<feBlend mode="normal" in="SourceGraphic" in2="BackgroundImageFix" result="shape"></feBlend>
<feColorMatrix in="SourceAlpha" type="matrix" values="0 0 0 0 0 0 0 0 0 0 0 0 0 0 0 0 0 0 127 0" result="hardAlpha"></feColorMatrix>
<feOffset dx="1" dy="1"></feOffset>
<feGaussianBlur stdDeviation="0.1"></feGaussianBlur>
<feComposite in2="hardAlpha" operator="arithmetic" k2="-1" k3="1"></feComposite>
<feColorMatrix type="matrix" values="0 0 0 0 1 0 0 0 0 1 0 0 0 0 1 0 0 0 0.25 0"></feColorMatrix>
<feBlend mode="normal" in2="shape" result="effect1_innerShadow_3208_9930"></feBlend>
<feGaussianBlur stdDeviation="0.1" result="effect2_foregroundBlur_3208_9930"></feGaussianBlur>
</filter>
<filter id="filter2_if_3208_9930" x="17.9688" y="24.3535" width="141.48" height="130.296" filterUnits="userSpaceOnUse" color-interpolation-filters="sRGB">
<feFlood flood-opacity="0" result="BackgroundImageFix"></feFlood>
<feBlend mode="normal" in="SourceGraphic" in2="BackgroundImageFix" result="shape"></feBlend>
<feColorMatrix in="SourceAlpha" type="matrix" values="0 0 0 0 0 0 0 0 0 0 0 0 0 0 0 0 0 0 127 0" result="hardAlpha"></feColorMatrix>
<feOffset dx="1" dy="1"></feOffset>
<feGaussianBlur stdDeviation="0.1"></feGaussianBlur>
<feComposite in2="hardAlpha" operator="arithmetic" k2="-1" k3="1"></feComposite>
<feColorMatrix type="matrix" values="0 0 0 0 1 0 0 0 0 1 0 0 0 0 1 0 0 0 0.25 0"></feColorMatrix>
<feBlend mode="normal" in2="shape" result="effect1_innerShadow_3208_9930"></feBlend>
<feGaussianBlur stdDeviation="0.1" result="effect2_foregroundBlur_3208_9930"></feGaussianBlur>
</filter>
<clipPath id="bgblur_0_3208_9930_clip_path" transform="translate(-17.9688 -24.3535)"><path d="M88.7084 54.3535C87.1813 54.3535 85.6692 54.6564 84.2584 55.2448C82.8476 55.8332 81.5657 56.6957 80.486 57.783C79.4062 58.8703 78.5496 60.161 77.9653 61.5816C77.3809 63.0022 77.0801 64.5248 77.0801 66.0624C77.0801 67.6001 77.3809 69.1227 77.9653 70.5433C78.5496 71.9638 79.4062 73.2546 80.486 74.3419C81.5657 75.4292 82.8476 76.2916 84.2584 76.8801C85.6692 77.4685 87.1813 77.7714 88.7084 77.7714C91.7924 77.7714 94.7501 76.5377 96.9308 74.3419C99.1115 72.146 100.337 69.1678 100.337 66.0624C100.337 62.957 99.1115 59.9788 96.9308 57.783C94.7501 55.5871 91.7924 54.3535 88.7084 54.3535ZM114.898 60.2021C112.583 60.2021 110.362 61.1283 108.725 62.7768C107.088 64.4253 106.168 66.6612 106.168 68.9926C106.168 71.324 107.088 73.5599 108.725 75.2084C110.362 76.8569 112.583 77.7831 114.898 77.7831C117.213 77.7831 119.434 76.8569 121.071 75.2084C122.708 73.5599 123.628 71.324 123.628 68.9926C123.628 66.6612 122.708 64.4253 121.071 62.7768C119.434 61.1283 117.213 60.2021 114.898 60.2021ZM62.5186 60.2021C60.2033 60.2021 57.9828 61.1283 56.3456 62.7768C54.7085 64.4253 53.7887 66.6612 53.7887 68.9926C53.7887 71.324 54.7085 73.5599 56.3456 75.2084C57.9828 76.8569 60.2033 77.7831 62.5186 77.7831C64.8339 77.7831 67.0544 76.8569 68.6916 75.2084C70.3288 73.5599 71.2485 71.324 71.2485 68.9926C71.2485 66.6612 70.3288 64.4253 68.6916 62.7768C67.0544 61.1283 64.8339 60.2021 62.5186 60.2021ZM71.2485 89.4627C71.2593 87.9156 71.8772 86.4355 72.9675 85.3453C74.0578 84.2552 75.532 83.6434 77.0685 83.6434H100.348C101.892 83.6434 103.372 84.2608 104.464 85.3599C105.555 86.4589 106.168 87.9495 106.168 89.5037V107.085C106.17 108.929 105.883 110.762 105.319 112.517C104.03 116.495 101.375 119.879 97.8312 122.063C94.2873 124.247 90.0863 125.087 85.9825 124.433C81.8787 123.778 78.141 121.672 75.4405 118.493C72.7401 115.313 71.2538 111.268 71.2485 107.085V89.4627ZM65.4286 89.5037C65.4286 87.3647 65.9931 85.3663 66.9883 83.6434H53.7887C52.2452 83.6434 50.7648 84.2608 49.6734 85.3599C48.5819 86.4589 47.9688 87.9495 47.9688 89.5037V104.155C47.968 106.553 48.5521 108.915 49.6698 111.034C50.7875 113.152 52.4046 114.961 54.3791 116.303C56.3536 117.645 58.6251 118.478 60.9941 118.73C63.3631 118.981 65.7572 118.643 67.9661 117.745C66.2946 114.441 65.4249 110.786 65.4286 107.079V89.5037ZM111.988 89.5037V107.085C111.988 110.923 111.074 114.545 109.451 117.745C111.66 118.643 114.054 118.981 116.423 118.73C118.792 118.478 121.063 117.645 123.038 116.303C125.012 114.961 126.629 113.152 127.747 111.034C128.865 108.915 129.449 106.553 129.448 104.155V89.5037C129.448 87.9495 128.835 86.4589 127.743 85.3599C126.652 84.2608 125.172 83.6434 123.628 83.6434H110.428C111.418 85.3663 111.988 87.3647 111.988 89.5037Z"></path>
</clipPath><filter id="filter3_if_3208_9930" x="111.723" y="111.724" width="67.5531" height="67.5531" filterUnits="userSpaceOnUse" color-interpolation-filters="sRGB">
<feFlood flood-opacity="0" result="BackgroundImageFix"></feFlood>
<feBlend mode="normal" in="SourceGraphic" in2="BackgroundImageFix" result="shape"></feBlend>
<feColorMatrix in="SourceAlpha" type="matrix" values="0 0 0 0 0 0 0 0 0 0 0 0 0 0 0 0 0 0 127 0" result="hardAlpha"></feColorMatrix>
<feOffset dx="1" dy="1"></feOffset>
<feGaussianBlur stdDeviation="0.1"></feGaussianBlur>
<feComposite in2="hardAlpha" operator="arithmetic" k2="-1" k3="1"></feComposite>
<feColorMatrix type="matrix" values="0 0 0 0 1 0 0 0 0 1 0 0 0 0 1 0 0 0 0.25 0"></feColorMatrix>
<feBlend mode="normal" in2="shape" result="effect1_innerShadow_3208_9930"></feBlend>
<feGaussianBlur stdDeviation="0.1" result="effect2_foregroundBlur_3208_9930"></feGaussianBlur>
</filter>
<radialGradient id="paint0_radial_3208_9930" cx="0" cy="0" r="1" gradientUnits="userSpaceOnUse" gradientTransform="translate(54.2087 50.7588) rotate(51.7) scale(156.704 168.098)">
<stop stop-color="#C7EAFB"></stop>
<stop offset="0.4" stop-color="#8EBBE4" stop-opacity="0.9"></stop>
<stop offset="0.7" stop-color="#0093F7" stop-opacity="0.8"></stop>
<stop offset="0.9" stop-color="#58C7F3"></stop>
</radialGradient>
<linearGradient id="paint1_linear_3208_9930" x1="-12.7716" y1="192.54" x2="129.448" y2="56.4324" gradientUnits="userSpaceOnUse">
<stop stop-color="#0093F7"></stop>
<stop offset="1" stop-color="#8DD1FF"></stop>
</linearGradient>
<radialGradient id="paint2_radial_3208_9930" cx="0" cy="0" r="1" gradientUnits="userSpaceOnUse" gradientTransform="translate(159.502 112.302) rotate(112.38) scale(108.467 116.354)">
<stop stop-color="#C7EAFB"></stop>
<stop offset="0.4" stop-color="#8EBBE4" stop-opacity="0.9"></stop>
<stop offset="0.7" stop-color="#0093F7" stop-opacity="0.8"></stop>
<stop offset="0.9" stop-color="#58C7F3"></stop>
</radialGradient>
</defs>
</svg>