<svg id="Layer_1" height="512" viewBox="0 0 32 32" width="512" xmlns="http://www.w3.org/2000/svg" data-name="Layer 1"><path d="m10.756 11.041c.514-.203.767-.783.564-1.297-.213-.54-.32-1.126-.32-1.744 0-2.757 2.243-5 5-5s5 2.243 5 5c0 .62-.111 1.221-.332 1.787-.2.515.055 1.094.569 1.295.119.046.241.068.362.068.4 0 .778-.242.932-.638.312-.799.469-1.644.469-2.513 0-3.86-3.141-7-7-7s-7 3.14-7 7c0 .869.154 1.703.459 2.476.202.514.784.766 1.297.564z"></path><path d="m17.293 6.16-1.96 1.959-.626-.626c-.391-.391-1.023-.391-1.414 0s-.391 1.023 0 1.414l1.333 1.333c.195.195.451.293.707.293s.512-.098.707-.293l2.667-2.667c.391-.39.391-1.023 0-1.414s-1.023-.391-1.414 0z"></path><path d="m29 13c-.553 0-1 .448-1 1v.823h-1.229c-.385 0-.759-.072-1.114-.214l-2.819-1.128c-1.182-.472-2.486-.479-3.672-.016l-2.712 1.057-3.776-1.212c-1.106-.355-2.308-.312-3.386.119l-2.946 1.179c-.356.143-.732.215-1.116.215h-1.229v-.823c0-.552-.447-1-1-1s-1 .448-1 1v11c0 .552.447 1 1 1s1-.448 1-1v-.177h.667c.645 0 1.283.213 1.8.601l3.702 2.776c1.572 1.179 3.482 1.797 5.412 1.797.864 0 1.731-.124 2.574-.376l3.454-1.036c.793-.238 1.43-.804 1.798-1.533l2.125-1.617c.52-.395 1.164-.612 1.816-.612h.651v.177c0 .552.447 1 1 1s1-.448 1-1v-11c0-.552-.447-1-1-1zm-7.307 13.034c-.105.31-.346.541-.658.634l-3.454 1.036c-2.12.637-4.441.223-6.212-1.105l-3.702-2.776c-.86-.645-1.926-1-3-1h-.667v-6h1.229c.64 0 1.265-.12 1.859-.358l2.946-1.179c.647-.26 1.368-.285 2.031-.072l1.432.459-.991.386c-.756.336-1.326.95-1.605 1.729-.278.779-.229 1.615.141 2.354.828 1.654 2.774 2.462 4.532 1.877l3.042-1.015 2.946 4.125c.189.266.238.595.132.904zm5.655-3.211c-1.087 0-2.161.362-3.027 1.021l-.848.645c-.081-.18-.168-.358-.285-.521l-3.375-4.726c-.255-.357-.712-.505-1.13-.368l-3.743 1.248c-.818.274-1.725-.104-2.11-.875-.123-.246-.14-.525-.047-.784.094-.26.283-.464.492-.559l6.616-2.577c.712-.276 1.493-.272 2.203.01l2.818 1.128c.592.237 1.217.357 1.857.357h1.229v6h-.651z"></path></svg>