<svg width="243" height="243" viewBox="0 0 243 243" fill="none" xmlns="http://www.w3.org/2000/svg">
<g filter="url(#filter0_if_3166_17487)" data-figma-bg-blur-radius="30" style="mix-blend-mode:lighten">
<path fill-rule="evenodd" clip-rule="evenodd" d="M98.3089 2.32425C100.318 1.93944 102.348 1.60303 104.397 1.31638C106.446 1.02973 108.49 0.796168 110.528 0.614649C111.521 0.526152 112.399 1.25989 112.487 2.2535C112.576 3.24712 111.842 4.12434 110.848 4.21284C108.87 4.389 106.886 4.6157 104.897 4.89397C102.909 5.17224 100.939 5.49878 98.9883 5.87222C98.0085 6.05982 97.0622 5.41767 96.8746 4.43792C96.687 3.45817 97.3291 2.51185 98.3089 2.32425ZM123.467 1.94617C123.5 0.949173 124.335 0.16785 125.332 0.201032C129.476 0.338945 133.579 0.689428 137.628 1.24316C138.616 1.37832 139.308 2.2891 139.173 3.27745C139.038 4.26579 138.127 4.95744 137.138 4.82228C133.211 4.28521 129.232 3.94525 125.212 3.81146C124.215 3.77828 123.434 2.94316 123.467 1.94617ZM86.2321 7.15585C86.5376 8.10545 86.0155 9.12294 85.0659 9.42848C81.2373 10.6603 77.504 12.0794 73.8748 13.6738C72.9615 14.075 71.8959 13.6599 71.4947 12.7466C71.0934 11.8333 71.5086 10.7676 72.4219 10.3664C76.1636 8.72262 80.0126 7.25958 83.9594 5.98967C84.909 5.68413 85.9265 6.20625 86.2321 7.15585ZM149.934 5.43175C150.19 4.46753 151.178 3.89315 152.143 4.14884C156.136 5.20782 160.057 6.46791 163.893 7.91906C164.826 8.27202 165.297 9.31451 164.944 10.2475C164.591 11.1805 163.548 11.6508 162.615 11.2978C158.894 9.89006 155.09 8.66776 151.217 7.64059C150.253 7.3849 149.678 6.39597 149.934 5.43175ZM61.7381 17.7716C62.2486 18.6286 61.9677 19.7372 61.1107 20.2477C57.6678 22.2985 54.3456 24.5179 51.1537 26.8928C50.3534 27.4883 49.2218 27.3223 48.6264 26.522C48.0309 25.7216 48.1969 24.5901 48.9972 23.9947C52.2876 21.5464 55.7125 19.2585 59.262 17.1442C60.119 16.6337 61.2276 16.9146 61.7381 17.7716ZM174.955 14.7535C175.42 13.8706 176.512 13.5311 177.395 13.9953C181.041 15.9124 184.584 18.012 188.01 20.2839C188.842 20.8352 189.069 21.9561 188.517 22.7874C187.966 23.6188 186.845 23.8458 186.014 23.2945C182.69 21.0901 179.252 19.0528 175.714 17.1928C174.831 16.7286 174.491 15.6365 174.955 14.7535ZM40.2357 33.6028C40.9244 34.3244 40.8977 35.4677 40.176 36.1564C37.2843 38.9161 34.5377 41.8186 31.9461 44.8508C31.2979 45.6091 30.1578 45.6984 29.3995 45.0503C28.6412 44.4022 28.5519 43.262 29.2 42.5037C31.8709 39.3788 34.7016 36.3874 37.682 33.5431C38.4037 32.8544 39.547 32.8811 40.2357 33.6028ZM197.281 29.3995C197.929 28.6411 199.069 28.5518 199.827 29.2C202.952 31.8708 205.944 34.7016 208.788 37.682C209.477 38.4036 209.45 39.5469 208.728 40.2357C208.007 40.9244 206.863 40.8976 206.175 40.176C203.415 37.2843 200.512 34.5376 197.48 31.946C196.722 31.2979 196.633 30.1578 197.281 29.3995ZM22.7875 53.8135C23.6189 54.3648 23.8459 55.4857 23.2946 56.3171C21.0901 59.6413 19.0529 63.0792 17.1928 66.6172C16.7286 67.5002 15.6366 67.8396 14.7536 67.3754C13.8706 66.9113 13.5312 65.8192 13.9954 64.9362C15.9124 61.2897 18.0121 57.7466 20.284 54.3206C20.8353 53.4893 21.9561 53.2622 22.7875 53.8135ZM215.809 48.6263C216.609 48.0308 217.741 48.1969 218.336 48.9972C220.784 52.2875 223.072 55.7125 225.187 59.2619C225.697 60.1189 225.416 61.2275 224.559 61.738C223.702 62.2486 222.594 61.9676 222.083 61.1106C220.032 57.6678 217.813 54.3455 215.438 51.1536C214.843 50.3533 215.009 49.2218 215.809 48.6263ZM10.2476 77.3873C11.1806 77.7402 11.6508 78.7827 11.2978 79.7157C9.89011 83.4369 8.66781 87.2407 7.64064 91.1142C7.38495 92.0784 6.39601 92.6528 5.43179 92.3971C4.46758 92.1414 3.8932 91.1525 4.14889 90.1883C5.20787 86.1948 6.46796 82.2735 7.9191 78.4375C8.27207 77.5045 9.31456 77.0343 10.2476 77.3873ZM229.584 71.4946C230.498 71.0934 231.563 71.5085 231.965 72.4218C233.608 76.1635 235.071 80.0125 236.341 83.9594C236.647 84.909 236.125 85.9265 235.175 86.232C234.225 86.5375 233.208 86.0154 232.902 85.0658C231.671 81.2373 230.252 77.5039 228.657 73.8748C228.256 72.9615 228.671 71.8958 229.584 71.4946ZM3.27749 103.158C4.26584 103.293 4.95748 104.204 4.82233 105.192C4.28526 109.12 3.94529 113.099 3.81151 117.119C3.77833 118.116 2.94321 118.897 1.94621 118.864C0.949219 118.831 0.167896 117.996 0.201078 116.999C0.338992 112.855 0.689474 108.752 1.24321 104.703C1.37836 103.715 2.28914 103.023 3.27749 103.158ZM237.893 96.8745C238.873 96.6869 239.819 97.3291 240.007 98.3088C240.391 100.318 240.728 102.348 241.015 104.397C241.301 106.446 241.535 108.49 241.716 110.528C241.805 111.521 241.071 112.399 240.077 112.487C239.084 112.576 238.207 111.842 238.118 110.848C237.942 108.87 237.715 106.886 237.437 104.897C237.159 102.909 236.832 100.938 236.459 98.9882C236.271 98.0085 236.913 97.0621 237.893 96.8745ZM2.25355 129.844C3.24716 129.755 4.12439 130.489 4.21288 131.483C4.38904 133.461 4.61574 135.445 4.89401 137.433C5.17228 139.422 5.49882 141.392 5.87227 143.343C6.05987 144.322 5.41771 145.269 4.43796 145.456C3.45822 145.644 2.5119 145.002 2.32429 144.022C1.93949 142.012 1.60308 139.983 1.31643 137.934C1.02978 135.885 0.796215 133.841 0.614695 131.803C0.526198 130.81 1.25994 129.932 2.25355 129.844ZM240.385 123.467C241.382 123.5 242.163 124.335 242.13 125.332C241.992 129.476 241.642 133.579 241.088 137.628C240.953 138.616 240.042 139.308 239.054 139.173C238.065 139.038 237.373 138.127 237.509 137.138C238.046 133.211 238.386 129.232 238.519 125.212C238.553 124.215 239.388 123.434 240.385 123.467ZM7.1559 156.099C8.1055 155.793 9.12299 156.315 9.42853 157.265C10.6604 161.094 12.0795 164.827 13.6738 168.456C14.075 169.369 13.6599 170.435 12.7466 170.836C11.8333 171.238 10.7677 170.822 10.3665 169.909C8.72267 166.167 7.25963 162.318 5.98972 158.372C5.68418 157.422 6.20629 156.404 7.1559 156.099ZM236.899 149.934C237.863 150.189 238.438 151.178 238.182 152.143C237.123 156.136 235.863 160.057 234.412 163.893C234.059 164.826 233.016 165.297 232.083 164.944C231.15 164.591 230.68 163.548 231.033 162.615C232.441 158.894 233.663 155.09 234.69 151.217C234.946 150.252 235.935 149.678 236.899 149.934ZM17.7716 180.593C18.6287 180.082 19.7372 180.363 20.2478 181.22C22.2986 184.663 24.5179 187.985 26.8929 191.177C27.4884 191.978 27.3223 193.109 26.522 193.705C25.7217 194.3 24.5902 194.134 23.9947 193.334C21.5465 190.043 19.2586 186.618 17.1442 183.069C16.6337 182.212 16.9146 181.103 17.7716 180.593ZM227.577 174.955C228.46 175.42 228.8 176.512 228.336 177.395C226.419 181.041 224.319 184.584 222.047 188.01C221.496 188.842 220.375 189.069 219.543 188.517C218.712 187.966 218.485 186.845 219.036 186.014C221.241 182.69 223.278 179.252 225.138 175.714C225.602 174.831 226.694 174.491 227.577 174.955ZM33.6028 202.095C34.3245 201.407 35.4678 201.433 36.1565 202.155C38.9161 205.047 41.8187 207.793 44.8509 210.385C45.6092 211.033 45.6985 212.173 45.0503 212.931C44.4022 213.69 43.2621 213.779 42.5038 213.131C39.3789 210.46 36.3874 207.629 33.5431 204.649C32.8544 203.927 32.8811 202.784 33.6028 202.095ZM53.8136 219.543C54.3649 218.712 55.4857 218.485 56.3171 219.036C59.6414 221.241 63.0792 223.278 66.6173 225.138C67.5002 225.602 67.8397 226.694 67.3755 227.577C66.9113 228.46 65.8192 228.8 64.9363 228.336C61.2897 226.419 57.7466 224.319 54.3207 222.047C53.4893 221.496 53.2623 220.375 53.8136 219.543ZM212.931 197.281C213.69 197.929 213.779 199.069 213.131 199.827C210.46 202.952 207.629 205.944 204.649 208.788C203.927 209.477 202.784 209.45 202.095 208.728C201.407 208.006 201.433 206.863 202.155 206.174C205.047 203.415 207.793 200.512 210.385 197.48C211.033 196.722 212.173 196.632 212.931 197.281ZM193.705 215.809C194.3 216.609 194.134 217.741 193.334 218.336C190.043 220.784 186.618 223.072 183.069 225.187C182.212 225.697 181.103 225.416 180.593 224.559C180.082 223.702 180.363 222.594 181.22 222.083C184.663 220.032 187.985 217.813 191.177 215.438C191.978 214.843 193.109 215.009 193.705 215.809ZM77.3873 232.083C77.7403 231.15 78.7828 230.68 79.7158 231.033C83.437 232.441 87.2407 233.663 91.1142 234.69C92.0785 234.946 92.6528 235.935 92.3971 236.899C92.1415 237.863 91.1525 238.438 90.1883 238.182C86.1948 237.123 82.2735 235.863 78.4376 234.412C77.5046 234.059 77.0344 233.016 77.3873 232.083ZM170.836 229.584C171.238 230.498 170.822 231.563 169.909 231.964C166.167 233.608 162.318 235.071 158.372 236.341C157.422 236.647 156.404 236.125 156.099 235.175C155.793 234.225 156.316 233.208 157.265 232.902C161.094 231.671 164.827 230.251 168.456 228.657C169.369 228.256 170.435 228.671 170.836 229.584ZM103.158 239.053C103.293 238.065 104.204 237.373 105.192 237.509C109.12 238.046 113.099 238.386 117.119 238.519C118.116 238.553 118.897 239.388 118.864 240.385C118.831 241.382 117.996 242.163 116.999 242.13C112.855 241.992 108.752 241.641 104.703 241.088C103.715 240.953 103.023 240.042 103.158 239.053ZM129.844 240.077C129.755 239.084 130.489 238.207 131.483 238.118C133.461 237.942 135.445 237.715 137.434 237.437C139.422 237.159 141.392 236.832 143.343 236.459C144.322 236.271 145.269 236.913 145.456 237.893C145.644 238.873 145.002 239.819 144.022 240.007C142.013 240.391 139.983 240.728 137.934 241.015C135.885 241.301 133.841 241.535 131.803 241.716C130.81 241.805 129.932 241.071 129.844 240.077Z" fill="#96B4C8" fill-opacity="0.5"></path>
</g>
<defs>
<filter id="filter0_if_3166_17487" x="-29.7998" y="-29.7998" width="301.931" height="301.931" filterUnits="userSpaceOnUse" color-interpolation-filters="sRGB">
<feFlood flood-opacity="0" result="BackgroundImageFix"></feFlood>
<feBlend mode="normal" in="SourceGraphic" in2="BackgroundImageFix" result="shape"></feBlend>
<feColorMatrix in="SourceAlpha" type="matrix" values="0 0 0 0 0 0 0 0 0 0 0 0 0 0 0 0 0 0 127 0" result="hardAlpha"></feColorMatrix>
<feOffset dx="1" dy="1"></feOffset>
<feGaussianBlur stdDeviation="0.85"></feGaussianBlur>
<feComposite in2="hardAlpha" operator="arithmetic" k2="-1" k3="1"></feComposite>
<feColorMatrix type="matrix" values="0 0 0 0 1 0 0 0 0 1 0 0 0 0 1 0 0 0 0.5 0"></feColorMatrix>
<feBlend mode="normal" in2="shape" result="effect1_innerShadow_3166_17487"></feBlend>
<feGaussianBlur stdDeviation="0.1" result="effect2_foregroundBlur_3166_17487"></feGaussianBlur>
</filter>
<clipPath id="bgblur_0_3166_17487_clip_path" transform="translate(29.7998 29.7998)"><path fill-rule="evenodd" clip-rule="evenodd" d="M98.3089 2.32425C100.318 1.93944 102.348 1.60303 104.397 1.31638C106.446 1.02973 108.49 0.796168 110.528 0.614649C111.521 0.526152 112.399 1.25989 112.487 2.2535C112.576 3.24712 111.842 4.12434 110.848 4.21284C108.87 4.389 106.886 4.6157 104.897 4.89397C102.909 5.17224 100.939 5.49878 98.9883 5.87222C98.0085 6.05982 97.0622 5.41767 96.8746 4.43792C96.687 3.45817 97.3291 2.51185 98.3089 2.32425ZM123.467 1.94617C123.5 0.949173 124.335 0.16785 125.332 0.201032C129.476 0.338945 133.579 0.689428 137.628 1.24316C138.616 1.37832 139.308 2.2891 139.173 3.27745C139.038 4.26579 138.127 4.95744 137.138 4.82228C133.211 4.28521 129.232 3.94525 125.212 3.81146C124.215 3.77828 123.434 2.94316 123.467 1.94617ZM86.2321 7.15585C86.5376 8.10545 86.0155 9.12294 85.0659 9.42848C81.2373 10.6603 77.504 12.0794 73.8748 13.6738C72.9615 14.075 71.8959 13.6599 71.4947 12.7466C71.0934 11.8333 71.5086 10.7676 72.4219 10.3664C76.1636 8.72262 80.0126 7.25958 83.9594 5.98967C84.909 5.68413 85.9265 6.20625 86.2321 7.15585ZM149.934 5.43175C150.19 4.46753 151.178 3.89315 152.143 4.14884C156.136 5.20782 160.057 6.46791 163.893 7.91906C164.826 8.27202 165.297 9.31451 164.944 10.2475C164.591 11.1805 163.548 11.6508 162.615 11.2978C158.894 9.89006 155.09 8.66776 151.217 7.64059C150.253 7.3849 149.678 6.39597 149.934 5.43175ZM61.7381 17.7716C62.2486 18.6286 61.9677 19.7372 61.1107 20.2477C57.6678 22.2985 54.3456 24.5179 51.1537 26.8928C50.3534 27.4883 49.2218 27.3223 48.6264 26.522C48.0309 25.7216 48.1969 24.5901 48.9972 23.9947C52.2876 21.5464 55.7125 19.2585 59.262 17.1442C60.119 16.6337 61.2276 16.9146 61.7381 17.7716ZM174.955 14.7535C175.42 13.8706 176.512 13.5311 177.395 13.9953C181.041 15.9124 184.584 18.012 188.01 20.2839C188.842 20.8352 189.069 21.9561 188.517 22.7874C187.966 23.6188 186.845 23.8458 186.014 23.2945C182.69 21.0901 179.252 19.0528 175.714 17.1928C174.831 16.7286 174.491 15.6365 174.955 14.7535ZM40.2357 33.6028C40.9244 34.3244 40.8977 35.4677 40.176 36.1564C37.2843 38.9161 34.5377 41.8186 31.9461 44.8508C31.2979 45.6091 30.1578 45.6984 29.3995 45.0503C28.6412 44.4022 28.5519 43.262 29.2 42.5037C31.8709 39.3788 34.7016 36.3874 37.682 33.5431C38.4037 32.8544 39.547 32.8811 40.2357 33.6028ZM197.281 29.3995C197.929 28.6411 199.069 28.5518 199.827 29.2C202.952 31.8708 205.944 34.7016 208.788 37.682C209.477 38.4036 209.45 39.5469 208.728 40.2357C208.007 40.9244 206.863 40.8976 206.175 40.176C203.415 37.2843 200.512 34.5376 197.48 31.946C196.722 31.2979 196.633 30.1578 197.281 29.3995ZM22.7875 53.8135C23.6189 54.3648 23.8459 55.4857 23.2946 56.3171C21.0901 59.6413 19.0529 63.0792 17.1928 66.6172C16.7286 67.5002 15.6366 67.8396 14.7536 67.3754C13.8706 66.9113 13.5312 65.8192 13.9954 64.9362C15.9124 61.2897 18.0121 57.7466 20.284 54.3206C20.8353 53.4893 21.9561 53.2622 22.7875 53.8135ZM215.809 48.6263C216.609 48.0308 217.741 48.1969 218.336 48.9972C220.784 52.2875 223.072 55.7125 225.187 59.2619C225.697 60.1189 225.416 61.2275 224.559 61.738C223.702 62.2486 222.594 61.9676 222.083 61.1106C220.032 57.6678 217.813 54.3455 215.438 51.1536C214.843 50.3533 215.009 49.2218 215.809 48.6263ZM10.2476 77.3873C11.1806 77.7402 11.6508 78.7827 11.2978 79.7157C9.89011 83.4369 8.66781 87.2407 7.64064 91.1142C7.38495 92.0784 6.39601 92.6528 5.43179 92.3971C4.46758 92.1414 3.8932 91.1525 4.14889 90.1883C5.20787 86.1948 6.46796 82.2735 7.9191 78.4375C8.27207 77.5045 9.31456 77.0343 10.2476 77.3873ZM229.584 71.4946C230.498 71.0934 231.563 71.5085 231.965 72.4218C233.608 76.1635 235.071 80.0125 236.341 83.9594C236.647 84.909 236.125 85.9265 235.175 86.232C234.225 86.5375 233.208 86.0154 232.902 85.0658C231.671 81.2373 230.252 77.5039 228.657 73.8748C228.256 72.9615 228.671 71.8958 229.584 71.4946ZM3.27749 103.158C4.26584 103.293 4.95748 104.204 4.82233 105.192C4.28526 109.12 3.94529 113.099 3.81151 117.119C3.77833 118.116 2.94321 118.897 1.94621 118.864C0.949219 118.831 0.167896 117.996 0.201078 116.999C0.338992 112.855 0.689474 108.752 1.24321 104.703C1.37836 103.715 2.28914 103.023 3.27749 103.158ZM237.893 96.8745C238.873 96.6869 239.819 97.3291 240.007 98.3088C240.391 100.318 240.728 102.348 241.015 104.397C241.301 106.446 241.535 108.49 241.716 110.528C241.805 111.521 241.071 112.399 240.077 112.487C239.084 112.576 238.207 111.842 238.118 110.848C237.942 108.87 237.715 106.886 237.437 104.897C237.159 102.909 236.832 100.938 236.459 98.9882C236.271 98.0085 236.913 97.0621 237.893 96.8745ZM2.25355 129.844C3.24716 129.755 4.12439 130.489 4.21288 131.483C4.38904 133.461 4.61574 135.445 4.89401 137.433C5.17228 139.422 5.49882 141.392 5.87227 143.343C6.05987 144.322 5.41771 145.269 4.43796 145.456C3.45822 145.644 2.5119 145.002 2.32429 144.022C1.93949 142.012 1.60308 139.983 1.31643 137.934C1.02978 135.885 0.796215 133.841 0.614695 131.803C0.526198 130.81 1.25994 129.932 2.25355 129.844ZM240.385 123.467C241.382 123.5 242.163 124.335 242.13 125.332C241.992 129.476 241.642 133.579 241.088 137.628C240.953 138.616 240.042 139.308 239.054 139.173C238.065 139.038 237.373 138.127 237.509 137.138C238.046 133.211 238.386 129.232 238.519 125.212C238.553 124.215 239.388 123.434 240.385 123.467ZM7.1559 156.099C8.1055 155.793 9.12299 156.315 9.42853 157.265C10.6604 161.094 12.0795 164.827 13.6738 168.456C14.075 169.369 13.6599 170.435 12.7466 170.836C11.8333 171.238 10.7677 170.822 10.3665 169.909C8.72267 166.167 7.25963 162.318 5.98972 158.372C5.68418 157.422 6.20629 156.404 7.1559 156.099ZM236.899 149.934C237.863 150.189 238.438 151.178 238.182 152.143C237.123 156.136 235.863 160.057 234.412 163.893C234.059 164.826 233.016 165.297 232.083 164.944C231.15 164.591 230.68 163.548 231.033 162.615C232.441 158.894 233.663 155.09 234.69 151.217C234.946 150.252 235.935 149.678 236.899 149.934ZM17.7716 180.593C18.6287 180.082 19.7372 180.363 20.2478 181.22C22.2986 184.663 24.5179 187.985 26.8929 191.177C27.4884 191.978 27.3223 193.109 26.522 193.705C25.7217 194.3 24.5902 194.134 23.9947 193.334C21.5465 190.043 19.2586 186.618 17.1442 183.069C16.6337 182.212 16.9146 181.103 17.7716 180.593ZM227.577 174.955C228.46 175.42 228.8 176.512 228.336 177.395C226.419 181.041 224.319 184.584 222.047 188.01C221.496 188.842 220.375 189.069 219.543 188.517C218.712 187.966 218.485 186.845 219.036 186.014C221.241 182.69 223.278 179.252 225.138 175.714C225.602 174.831 226.694 174.491 227.577 174.955ZM33.6028 202.095C34.3245 201.407 35.4678 201.433 36.1565 202.155C38.9161 205.047 41.8187 207.793 44.8509 210.385C45.6092 211.033 45.6985 212.173 45.0503 212.931C44.4022 213.69 43.2621 213.779 42.5038 213.131C39.3789 210.46 36.3874 207.629 33.5431 204.649C32.8544 203.927 32.8811 202.784 33.6028 202.095ZM53.8136 219.543C54.3649 218.712 55.4857 218.485 56.3171 219.036C59.6414 221.241 63.0792 223.278 66.6173 225.138C67.5002 225.602 67.8397 226.694 67.3755 227.577C66.9113 228.46 65.8192 228.8 64.9363 228.336C61.2897 226.419 57.7466 224.319 54.3207 222.047C53.4893 221.496 53.2623 220.375 53.8136 219.543ZM212.931 197.281C213.69 197.929 213.779 199.069 213.131 199.827C210.46 202.952 207.629 205.944 204.649 208.788C203.927 209.477 202.784 209.45 202.095 208.728C201.407 208.006 201.433 206.863 202.155 206.174C205.047 203.415 207.793 200.512 210.385 197.48C211.033 196.722 212.173 196.632 212.931 197.281ZM193.705 215.809C194.3 216.609 194.134 217.741 193.334 218.336C190.043 220.784 186.618 223.072 183.069 225.187C182.212 225.697 181.103 225.416 180.593 224.559C180.082 223.702 180.363 222.594 181.22 222.083C184.663 220.032 187.985 217.813 191.177 215.438C191.978 214.843 193.109 215.009 193.705 215.809ZM77.3873 232.083C77.7403 231.15 78.7828 230.68 79.7158 231.033C83.437 232.441 87.2407 233.663 91.1142 234.69C92.0785 234.946 92.6528 235.935 92.3971 236.899C92.1415 237.863 91.1525 238.438 90.1883 238.182C86.1948 237.123 82.2735 235.863 78.4376 234.412C77.5046 234.059 77.0344 233.016 77.3873 232.083ZM170.836 229.584C171.238 230.498 170.822 231.563 169.909 231.964C166.167 233.608 162.318 235.071 158.372 236.341C157.422 236.647 156.404 236.125 156.099 235.175C155.793 234.225 156.316 233.208 157.265 232.902C161.094 231.671 164.827 230.251 168.456 228.657C169.369 228.256 170.435 228.671 170.836 229.584ZM103.158 239.053C103.293 238.065 104.204 237.373 105.192 237.509C109.12 238.046 113.099 238.386 117.119 238.519C118.116 238.553 118.897 239.388 118.864 240.385C118.831 241.382 117.996 242.163 116.999 242.13C112.855 241.992 108.752 241.641 104.703 241.088C103.715 240.953 103.023 240.042 103.158 239.053ZM129.844 240.077C129.755 239.084 130.489 238.207 131.483 238.118C133.461 237.942 135.445 237.715 137.434 237.437C139.422 237.159 141.392 236.832 143.343 236.459C144.322 236.271 145.269 236.913 145.456 237.893C145.644 238.873 145.002 239.819 144.022 240.007C142.013 240.391 139.983 240.728 137.934 241.015C135.885 241.301 133.841 241.535 131.803 241.716C130.81 241.805 129.932 241.071 129.844 240.077Z"></path>
</clipPath></defs>
</svg>