<svg width="499" height="499" viewBox="0 0 499 499" fill="none" xmlns="http://www.w3.org/2000/svg">
<g filter="url(#filter0_if_3166_17499)">
<g opacity="0.8">
<path d="M248.77 482.859C376.005 482.859 479.149 379.714 479.149 252.479C479.149 125.244 376.005 22.1001 248.77 22.1001C121.535 22.1001 18.3906 125.244 18.3906 252.479C18.3906 379.714 121.535 482.859 248.77 482.859Z" fill="url(#paint0_radial_3166_17499)" fill-opacity="0.02"></path>
</g>
</g>
<g filter="url(#filter1_f_3166_17499)" data-figma-bg-blur-radius="18.2">
<path d="M249.1 436.1C352.377 436.1 436.1 352.377 436.1 249.1C436.1 145.823 352.377 62.1001 249.1 62.1001C145.822 62.1001 62.0996 145.823 62.0996 249.1C62.0996 352.377 145.822 436.1 249.1 436.1Z" fill="url(#paint1_radial_3166_17499)" fill-opacity="0.1"></path>
</g>
<defs>
<filter id="filter0_if_3166_17499" x="-11.6094" y="-7.8999" width="520.759" height="520.759" filterUnits="userSpaceOnUse" color-interpolation-filters="sRGB">
<feFlood flood-opacity="0" result="BackgroundImageFix"></feFlood>
<feBlend mode="normal" in="SourceGraphic" in2="BackgroundImageFix" result="shape"></feBlend>
<feColorMatrix in="SourceAlpha" type="matrix" values="0 0 0 0 0 0 0 0 0 0 0 0 0 0 0 0 0 0 127 0" result="hardAlpha"></feColorMatrix>
<feOffset dx="1" dy="1"></feOffset>
<feGaussianBlur stdDeviation="0.1"></feGaussianBlur>
<feComposite in2="hardAlpha" operator="arithmetic" k2="-1" k3="1"></feComposite>
<feColorMatrix type="matrix" values="0 0 0 0 1 0 0 0 0 1 0 0 0 0 1 0 0 0 0.25 0"></feColorMatrix>
<feBlend mode="normal" in2="shape" result="effect1_innerShadow_3166_17499"></feBlend>
<feGaussianBlur stdDeviation="0.1" result="effect2_foregroundBlur_3166_17499"></feGaussianBlur>
</filter>
<filter id="filter1_f_3166_17499" x="-0.000389099" y="9.91821e-05" width="498.2" height="498.2" filterUnits="userSpaceOnUse" color-interpolation-filters="sRGB">
<feFlood flood-opacity="0" result="BackgroundImageFix"></feFlood>
<feBlend mode="normal" in="SourceGraphic" in2="BackgroundImageFix" result="shape"></feBlend>
<feGaussianBlur stdDeviation="31.05" result="effect1_foregroundBlur_3166_17499"></feGaussianBlur>
</filter>
<clipPath id="bgblur_0_3166_17499_clip_path" transform="translate(0.000389099 -9.91821e-05)"><path d="M249.1 436.1C352.377 436.1 436.1 352.377 436.1 249.1C436.1 145.823 352.377 62.1001 249.1 62.1001C145.822 62.1001 62.0996 145.823 62.0996 249.1C62.0996 352.377 145.822 436.1 249.1 436.1Z"></path>
</clipPath><radialGradient id="paint0_radial_3166_17499" cx="0" cy="0" r="1" gradientUnits="userSpaceOnUse" gradientTransform="translate(158.983 153.71) rotate(51.7) scale(407.915 437.577)">
<stop stop-color="#C7EAFB"></stop>
<stop offset="0.4" stop-color="#8EBBE4" stop-opacity="0.9"></stop>
<stop offset="0.7" stop-color="#0093F7" stop-opacity="0.8"></stop>
<stop offset="0.9" stop-color="#58C7F3"></stop>
</radialGradient>
<radialGradient id="paint1_radial_3166_17499" cx="0" cy="0" r="1" gradientUnits="userSpaceOnUse" gradientTransform="translate(176.219 168.928) rotate(51.7) scale(331.107 355.183)">
<stop stop-color="#C7EAFB"></stop>
<stop offset="0.4" stop-color="#8EBBE4" stop-opacity="0.9"></stop>
<stop offset="0.7" stop-color="#0093F7" stop-opacity="0.8"></stop>
<stop offset="0.9" stop-color="#58C7F3"></stop>
</radialGradient>
</defs>
</svg>