<svg width="117" height="144" viewBox="0 0 117 144" fill="none" xmlns="http://www.w3.org/2000/svg">
<g filter="url(#filter0_if_3207_9863)" data-figma-bg-blur-radius="30">
<path fill-rule="evenodd" clip-rule="evenodd" d="M4.81377 18.3286C3.36948 7.44974 16.079 0.500127 24.4584 7.58682L107.7 77.9859C116.236 85.2055 111.131 99.1484 99.9506 99.1484H69.2675C65.0795 99.1484 61.1945 101.332 59.017 104.909L41.6285 133.478C35.7433 143.147 20.972 140.039 19.4824 128.818L4.81377 18.3286Z" fill="url(#paint0_linear_3207_9863)"></path>
<path fill-rule="evenodd" clip-rule="evenodd" d="M4.81377 18.3286C3.36948 7.44974 16.079 0.500127 24.4584 7.58682L107.7 77.9859C116.236 85.2055 111.131 99.1484 99.9506 99.1484H69.2675C65.0795 99.1484 61.1945 101.332 59.017 104.909L41.6285 133.478C35.7433 143.147 20.972 140.039 19.4824 128.818L4.81377 18.3286Z" stroke="url(#paint1_linear_3207_9863)" stroke-width="9"></path>
</g>
<defs>
<filter id="filter0_if_3207_9863" x="-29.8008" y="-29.8" width="176.285" height="203.552" filterUnits="userSpaceOnUse" color-interpolation-filters="sRGB">
<feFlood flood-opacity="0" result="BackgroundImageFix"></feFlood>
<feBlend mode="normal" in="SourceGraphic" in2="BackgroundImageFix" result="shape"></feBlend>
<feColorMatrix in="SourceAlpha" type="matrix" values="0 0 0 0 0 0 0 0 0 0 0 0 0 0 0 0 0 0 127 0" result="hardAlpha"></feColorMatrix>
<feOffset dx="1" dy="1"></feOffset>
<feGaussianBlur stdDeviation="0.1"></feGaussianBlur>
<feComposite in2="hardAlpha" operator="arithmetic" k2="-1" k3="1"></feComposite>
<feColorMatrix type="matrix" values="0 0 0 0 1 0 0 0 0 1 0 0 0 0 1 0 0 0 0.25 0"></feColorMatrix>
<feBlend mode="normal" in2="shape" result="effect1_innerShadow_3207_9863"></feBlend>
<feGaussianBlur stdDeviation="0.1" result="effect2_foregroundBlur_3207_9863"></feGaussianBlur>
</filter>
<clipPath id="bgblur_0_3207_9863_clip_path" transform="translate(29.8008 29.8)"><path fill-rule="evenodd" clip-rule="evenodd" d="M4.81377 18.3286C3.36948 7.44974 16.079 0.500127 24.4584 7.58682L107.7 77.9859C116.236 85.2055 111.131 99.1484 99.9506 99.1484H69.2675C65.0795 99.1484 61.1945 101.332 59.017 104.909L41.6285 133.478C35.7433 143.147 20.972 140.039 19.4824 128.818L4.81377 18.3286Z"></path>
</clipPath><linearGradient id="paint0_linear_3207_9863" x1="0.72265" y1="-28.5745" x2="103.44" y2="206.944" gradientUnits="userSpaceOnUse">
<stop stop-color="white"></stop>
<stop offset="1" stop-color="#E2F3FF"></stop>
</linearGradient>
<linearGradient id="paint1_linear_3207_9863" x1="130.281" y1="191.658" x2="-28.0721" y2="-58.1781" gradientUnits="userSpaceOnUse">
<stop stop-color="#B2E0FF"></stop>
<stop offset="1" stop-color="#ECF7FF"></stop>
</linearGradient>
</defs>
</svg>