<svg width="260" height="61" viewBox="0 0 260 61" fill="none" xmlns="http://www.w3.org/2000/svg">
<g filter="url(#filter0_if_2977_45253)" data-figma-bg-blur-radius="30">
<rect x="0.199219" y="0.200195" width="259" height="60.0433" rx="10" fill="white" fill-opacity="0.95"></rect>
</g>
<g clip-path="url(#clip1_2977_45253)">
<path d="M46.6992 30.3906C46.6992 29.4906 46.4992 28.6906 46.3992 27.8906H35.1992V32.4906H41.4992C41.1992 34.0906 40.4992 35.2906 39.1992 36.1906V39.1906H43.1992C45.3992 37.1906 46.6992 33.9906 46.6992 30.3906Z" fill="#4284F4"></path>
<path d="M35.2 42.0906C38.4 42.0906 41.2 41.0906 43.2 39.0906L39.2 36.0906C38.2831 36.6806 37.2443 37.0546 36.1618 37.1845C35.0793 37.3144 33.9814 37.1967 32.951 36.8404C31.9206 36.4841 30.9846 35.8985 30.2135 35.1276C29.4425 34.3568 28.8566 33.4209 28.5 32.3906H24.5V35.3906C26.5 39.3906 30.5 42.0906 35.2 42.0906Z" fill="#34A853"></path>
<path d="M28.4988 32.391C27.9884 30.9002 27.9884 29.2819 28.4988 27.791V24.791H24.4988C23.6711 26.453 23.2402 28.2843 23.2402 30.141C23.2402 31.9977 23.6711 33.8291 24.4988 35.491L28.4988 32.391Z" fill="#FBBC04"></path>
<path d="M35.2 22.8909C37 22.8909 38.5 23.4909 39.8 24.6909L43.2 21.0909C41.8236 19.8683 40.1843 18.9787 38.409 18.4911C36.6337 18.0034 34.77 17.9308 32.9621 18.2789C31.1543 18.6269 29.4507 19.3863 27.9834 20.4981C26.516 21.61 25.3241 23.0446 24.5 24.6909L28.5 27.7909C29.5 24.9909 32.1 22.7909 35.2 22.7909V22.8909Z" fill="#EA4335"></path>
<path d="M64.3995 34.6905C63.4151 34.1733 62.5908 33.3968 62.0157 32.4451C61.4407 31.4933 61.1367 30.4025 61.1367 29.2905C61.1367 28.1785 61.4407 27.0876 62.0157 26.1359C62.5908 25.1841 63.4151 24.4077 64.3995 23.8905C65.2924 23.4405 66.2693 23.1814 67.2679 23.1297C68.2665 23.0781 69.2649 23.235 70.1995 23.5905C70.9995 23.8905 71.5995 24.2905 72.1995 24.8905L71.1995 25.8905C70.6995 25.3905 70.1995 25.0905 69.5995 24.8905C68.8961 24.5998 68.1375 24.467 67.3772 24.5016C66.617 24.5362 65.8736 24.7372 65.1995 25.0905C64.4995 25.4905 63.7995 26.0905 63.3995 26.7905C62.9995 27.4905 62.6995 28.2905 62.6995 29.2905C62.6995 30.2905 62.9995 31.0905 63.3995 31.8905C63.7995 32.5905 64.3995 33.1905 65.1995 33.5905C65.9995 33.9905 66.7995 34.1905 67.5995 34.1905C68.3201 34.2101 69.0365 34.0736 69.6995 33.7905C70.2559 33.5508 70.7642 33.2119 71.1995 32.7905L71.8995 31.6905L72.1995 30.1905H67.5995V28.8905H73.5995V29.7905C73.6067 30.5017 73.5056 31.2098 73.2995 31.8905C73.0995 32.5905 72.6995 33.1905 72.1995 33.6905C71.6044 34.2998 70.8864 34.7755 70.0933 35.0858C69.3002 35.3962 68.45 35.5341 67.5995 35.4905C66.3995 35.4905 65.3995 35.2905 64.3995 34.6905ZM77.1995 34.8905C76.5995 34.4905 75.9995 33.8905 75.5995 33.2905C75.2995 32.5905 75.0995 31.8905 75.0995 30.9905C75.0995 30.1905 75.2995 29.3905 75.5995 28.6905C76.0243 28.0141 76.6146 27.4571 77.3144 27.0722C78.0143 26.6873 78.8007 26.4871 79.5995 26.4905C80.4995 26.4905 81.1995 26.6905 81.8995 27.0905C82.6995 27.4905 83.1995 28.0905 83.5995 28.6905C83.9995 29.3905 84.0995 30.1905 84.0995 30.9905C84.0995 31.8905 83.9995 32.5905 83.5995 33.2905C83.1746 33.9669 82.5844 34.5238 81.8845 34.9087C81.1846 35.2937 80.3982 35.4939 79.5995 35.4905C78.6995 35.4905 77.9995 35.2905 77.2995 34.8905H77.1995ZM81.1995 33.8905L82.1995 32.7905C82.4995 32.2905 82.6995 31.6905 82.6995 31.0905C82.7078 30.4864 82.5335 29.8939 82.1995 29.3905C81.9779 28.9092 81.6329 28.4952 81.1995 28.1905C80.7403 27.9366 80.2242 27.8034 79.6995 27.8034C79.1748 27.8034 78.6587 27.9366 78.1995 28.1905C77.5995 28.4905 77.1995 28.8905 76.9995 29.3905C76.6995 29.7905 76.4995 30.3905 76.4995 31.0905C76.449 31.6489 76.556 32.2103 76.8084 32.711C77.0608 33.2116 77.4485 33.6315 77.9275 33.9231C78.4064 34.2146 78.9575 34.3661 79.5181 34.3603C80.0788 34.3546 80.6266 34.1918 81.0995 33.8905H81.1995ZM87.4995 34.8905C86.7995 34.4905 86.2995 33.8905 85.8995 33.2905C85.4995 32.5905 85.2995 31.8905 85.2995 30.9905C85.2995 30.1905 85.4995 29.3905 85.8995 28.6905C86.2995 27.9905 86.8995 27.4905 87.4995 27.0905C88.1995 26.6905 88.9995 26.4905 89.8995 26.4905C90.7995 26.4905 91.4995 26.6905 92.1995 27.0905C92.8995 27.4905 93.3995 28.0905 93.7995 28.6905C94.1995 29.3905 94.3995 30.1905 94.3995 30.9905C94.3995 31.8905 94.1995 32.5905 93.7995 33.2905C93.3995 33.9905 92.8995 34.4905 92.1995 34.8905C91.485 35.303 90.6745 35.5202 89.8495 35.5202C89.0244 35.5202 88.214 35.303 87.4995 34.8905ZM91.3995 33.8905C91.8995 33.5905 92.1995 33.1905 92.3995 32.7905C92.6995 32.2905 92.8995 31.6905 92.8995 31.0905C92.9377 30.4967 92.7984 29.9049 92.4995 29.3905C92.2504 28.8967 91.8697 28.4814 91.3995 28.1905C90.9403 27.9366 90.4242 27.8034 89.8995 27.8034C89.3748 27.8034 88.8586 27.9366 88.3995 28.1905C87.8995 28.4905 87.4995 28.8905 87.1995 29.3905C86.9995 29.7905 86.7995 30.3905 86.7995 31.0905C86.749 31.6489 86.856 32.2103 87.1084 32.711C87.3608 33.2116 87.7485 33.6315 88.2275 33.9231C88.7064 34.2146 89.2575 34.3661 89.8181 34.3603C90.3788 34.3546 90.9266 34.1918 91.3995 33.8905ZM97.3995 38.3905C96.6995 37.9905 96.1995 37.3905 95.9995 36.6905L97.2995 36.1905C97.4995 36.5905 97.7995 37.0905 98.2995 37.3905C98.6995 37.6905 99.2995 37.7905 99.8995 37.7905C100.663 37.8334 101.414 37.583 101.999 37.0905C102.499 36.5905 102.799 35.8905 102.799 35.0905V34.0905H102.699C102.353 34.5591 101.901 34.9393 101.379 35.1999C100.858 35.4606 100.282 35.5944 99.6995 35.5905C98.9516 35.6076 98.2146 35.4094 97.5763 35.0193C96.938 34.6292 96.4253 34.0638 96.0995 33.3905C95.7522 32.6745 95.5807 31.886 95.5995 31.0905C95.5651 30.3087 95.7307 29.531 96.0807 28.8311C96.4306 28.1311 96.9534 27.532 97.5995 27.0905C98.1995 26.6905 98.8995 26.4905 99.6995 26.4905C100.399 26.4905 100.999 26.6905 101.499 26.9905C101.999 27.1905 102.399 27.5905 102.699 27.9905V26.7905H104.199V34.8905C104.199 36.2905 103.799 37.3905 102.999 37.9905C102.199 38.7905 101.199 39.0905 99.9995 39.0905C98.8995 39.0905 97.9995 38.8905 97.3995 38.3905ZM101.399 33.8905C101.799 33.5905 102.199 33.1905 102.399 32.7905C102.599 32.2905 102.799 31.6905 102.799 30.9905C102.799 30.2905 102.599 29.6905 102.399 29.2905C102.099 28.7905 101.799 28.3905 101.399 28.1905C100.899 27.8905 100.399 27.7905 99.8995 27.7905C99.3995 27.7905 98.8995 27.8905 98.4995 28.1905C97.9995 28.3905 97.6995 28.7905 97.4995 29.1905C97.0995 29.6905 96.9995 30.2905 96.9995 30.9905C96.9995 31.6905 97.0995 32.1905 97.3995 32.7905C97.6382 33.246 97.9978 33.6269 98.4388 33.8915C98.8798 34.1561 99.3852 34.2942 99.8995 34.2905C100.399 34.2905 100.899 34.0905 101.399 33.8905ZM106.299 23.3905H107.799V35.2905H106.299V23.2905V23.3905ZM111.599 34.8905C110.96 34.5073 110.441 33.9531 110.099 33.2905C109.748 32.5926 109.565 31.822 109.565 31.0405C109.565 30.259 109.748 29.4884 110.099 28.7905C110.399 28.0905 110.899 27.4905 111.499 27.0905C112.188 26.662 112.99 26.4528 113.799 26.4905C114.539 26.4586 115.274 26.6277 115.925 26.9799C116.577 27.332 117.121 27.854 117.499 28.4905C117.799 29.1905 117.999 29.9905 117.999 30.7905V31.2905H110.999C110.999 32.0861 111.316 32.8492 111.878 33.4118C112.441 33.9744 113.204 34.2905 113.999 34.2905C115.099 34.2905 115.999 33.6905 116.599 32.6905L117.799 33.2905C117.399 33.9905 116.899 34.4905 116.299 34.8905C115.599 35.2905 114.799 35.4905 113.899 35.4905C113.09 35.5282 112.288 35.3189 111.599 34.8905ZM116.399 30.0905C116.399 29.7905 116.299 29.3905 116.099 29.0905C115.899 28.6905 115.599 28.3905 115.199 28.0905C114.799 27.8905 114.399 27.7905 113.699 27.7905C112.999 27.7905 112.499 27.9905 111.999 28.3905C111.499 28.7905 111.199 29.3905 110.999 30.0905H116.399ZM123.199 23.3905H127.399C128.046 23.3861 128.684 23.5384 129.259 23.8345C129.833 24.1306 130.328 24.5615 130.699 25.0905C131.099 25.6905 131.199 26.1905 131.199 26.8905C131.199 27.5905 131.099 28.1905 130.699 28.7905C130.328 29.3194 129.833 29.7504 129.259 30.0465C128.684 30.3425 128.046 30.4949 127.399 30.4905H124.699V35.3905H123.299V23.3905H123.199ZM127.399 29.0905C127.899 29.0905 128.399 28.9905 128.699 28.7905C128.999 28.4905 129.299 28.2905 129.499 27.8905C129.699 27.5905 129.799 27.2905 129.799 26.8905C129.799 26.4905 129.799 26.1905 129.499 25.8905C129.299 25.4905 128.999 25.1905 128.699 24.9905C128.299 24.7905 127.899 24.6905 127.399 24.6905H124.699V29.0905H127.399ZM134.199 35.0905C133.699 34.8905 133.299 34.4905 132.999 34.0905C132.799 33.6905 132.599 33.1905 132.599 32.6905C132.599 31.6905 132.999 31.0905 133.699 30.5905C134.399 30.0905 135.299 29.7905 136.299 29.7905C137.204 29.7609 138.1 29.9677 138.899 30.3905V29.8905C138.899 29.1905 138.599 28.6905 138.099 28.2905C137.699 27.9905 137.099 27.7905 136.399 27.7905C135.899 27.7905 135.399 27.7905 134.999 28.0905L133.999 28.8905L132.999 28.0905C133.299 27.5905 133.799 27.1905 134.399 26.8905C134.999 26.5905 135.599 26.4905 136.399 26.4905C137.599 26.4905 138.499 26.7905 139.199 27.3905C139.899 27.9905 140.199 28.7905 140.199 29.8905V35.0905H138.799V34.0905C138.495 34.5239 138.081 34.869 137.599 35.0905C137.099 35.4905 136.599 35.5905 135.899 35.5905C135.306 35.6287 134.714 35.4895 134.199 35.1905V35.0905ZM137.399 33.8905C137.832 33.6763 138.2 33.3499 138.464 32.9454C138.728 32.5409 138.878 32.073 138.899 31.5905L137.899 31.0905L136.599 30.9905C135.972 30.9315 135.343 31.0715 134.799 31.3905C134.399 31.7905 134.099 32.1905 134.099 32.6905C134.099 33.0905 134.299 33.4905 134.699 33.7905C135.099 34.0905 135.499 34.1905 136.099 34.1905C136.599 34.1905 137.099 34.1905 137.399 33.8905ZM141.999 26.8905H143.399V28.2905H143.499C143.699 27.6905 144.099 27.2905 144.499 27.0905C145.014 26.7915 145.606 26.6523 146.199 26.6905H146.799V28.1905L145.999 28.0905C145.299 28.0905 144.699 28.2905 144.199 28.7905C143.699 29.2905 143.499 29.8905 143.499 30.6905V35.3905H141.999V26.8905ZM150.999 35.3905L150.199 34.8905L149.699 34.0905L149.499 33.0905V28.0905H147.999V26.6905H149.499V24.3905H150.999V26.7905H153.099V27.9905H150.999V32.7905C150.999 33.1905 150.999 33.5905 151.199 33.7905C151.499 34.0905 151.799 34.1905 152.199 34.1905C152.599 34.1905 152.899 34.1905 153.199 33.8905V35.2905C152.821 35.4511 152.41 35.5196 151.999 35.4905C151.663 35.5428 151.319 35.5084 150.999 35.3905ZM154.799 26.7905H156.199V27.9905H156.299C156.499 27.5905 156.899 27.1905 157.399 26.9905C157.999 26.5905 158.499 26.4905 159.099 26.4905C160.099 26.4905 160.999 26.7905 161.499 27.3905C162.099 27.9905 162.399 28.7905 162.399 29.7905V35.2905H160.899V29.9905C160.899 29.1905 160.699 28.6905 160.299 28.2905C159.999 27.9905 159.399 27.7905 158.799 27.7905C158.299 27.7905 157.799 27.8905 157.499 28.1905C157.099 28.3905 156.799 28.7905 156.599 29.1905C156.399 29.5905 156.299 29.9905 156.299 30.4905V35.2905H154.799V26.7905ZM166.199 34.8905C165.523 34.5223 164.968 33.9667 164.599 33.2905C164.248 32.5926 164.065 31.822 164.065 31.0405C164.065 30.259 164.248 29.4884 164.599 28.7905C164.899 28.0905 165.399 27.4905 165.999 27.0905C166.688 26.662 167.49 26.4528 168.299 26.4905C169.039 26.4586 169.774 26.6277 170.425 26.9799C171.077 27.332 171.621 27.854 171.999 28.4905C172.299 29.1905 172.499 29.9905 172.499 30.7905V31.2905H165.499C165.499 32.0861 165.816 32.8492 166.378 33.4118C166.941 33.9744 167.704 34.2905 168.499 34.2905C169.599 34.2905 170.499 33.6905 171.099 32.6905L172.299 33.2905C171.899 33.9905 171.399 34.4905 170.699 34.8905C170.099 35.2905 169.299 35.4905 168.399 35.4905C167.59 35.5282 166.788 35.3189 166.099 34.8905H166.199ZM170.899 30.0905L170.599 29.0905C170.399 28.6905 170.099 28.3905 169.599 28.0905C169.299 27.8905 168.799 27.7905 168.199 27.7905C167.499 27.7905 166.899 27.9905 166.399 28.3905C165.899 28.7905 165.599 29.3905 165.499 30.0905H170.899ZM174.199 26.7905H175.499V28.0905H175.599C175.939 27.4705 176.486 26.9901 177.144 26.734C177.803 26.4779 178.531 26.4625 179.199 26.6905V28.0905C178.799 27.8905 178.399 27.8905 177.999 27.8905C177.499 27.8905 177.099 27.8905 176.799 28.1905C176.399 28.3905 176.099 28.6905 175.899 29.1905C175.699 29.4905 175.599 29.8905 175.599 30.3905V35.1905H174.199V26.7905Z" fill="#5F6368"></path>
<path d="M64.3995 34.6905C63.4151 34.1733 62.5908 33.3968 62.0157 32.4451C61.4407 31.4933 61.1367 30.4025 61.1367 29.2905C61.1367 28.1785 61.4407 27.0876 62.0157 26.1359C62.5908 25.1841 63.4151 24.4077 64.3995 23.8905C65.2924 23.4405 66.2693 23.1814 67.2679 23.1297C68.2665 23.0781 69.2649 23.235 70.1995 23.5905C70.9995 23.8905 71.5995 24.2905 72.1995 24.8905L71.1995 25.8905C70.6995 25.3905 70.1995 25.0905 69.5995 24.8905C68.8961 24.5998 68.1375 24.467 67.3772 24.5016C66.617 24.5362 65.8736 24.7372 65.1995 25.0905C64.4995 25.4905 63.7995 26.0905 63.3995 26.7905C62.9995 27.4905 62.6995 28.2905 62.6995 29.2905C62.6995 30.2905 62.9995 31.0905 63.3995 31.8905C63.7995 32.5905 64.3995 33.1905 65.1995 33.5905C65.9995 33.9905 66.7995 34.1905 67.5995 34.1905C68.3201 34.2101 69.0365 34.0736 69.6995 33.7905C70.2559 33.5508 70.7642 33.2119 71.1995 32.7905L71.8995 31.6905L72.1995 30.1905H67.5995V28.8905H73.5995V29.7905C73.6067 30.5017 73.5056 31.2098 73.2995 31.8905C73.0995 32.5905 72.6995 33.1905 72.1995 33.6905C71.6044 34.2998 70.8864 34.7755 70.0933 35.0858C69.3002 35.3962 68.45 35.5341 67.5995 35.4905C66.3995 35.4905 65.3995 35.2905 64.3995 34.6905ZM77.1995 34.8905C76.5995 34.4905 75.9995 33.8905 75.5995 33.2905C75.2995 32.5905 75.0995 31.8905 75.0995 30.9905C75.0995 30.1905 75.2995 29.3905 75.5995 28.6905C76.0243 28.0141 76.6146 27.4572 77.3144 27.0722C78.0143 26.6873 78.8007 26.4871 79.5995 26.4905C80.4995 26.4905 81.1995 26.6905 81.8995 27.0905C82.6995 27.4905 83.1995 28.0905 83.5995 28.6905C83.9995 29.3905 84.0995 30.1905 84.0995 30.9905C84.0995 31.8905 83.9995 32.5905 83.5995 33.2905C83.1746 33.9669 82.5844 34.5238 81.8845 34.9087C81.1846 35.2937 80.3982 35.4939 79.5995 35.4905C78.6995 35.4905 77.9995 35.2905 77.2995 34.8905H77.1995ZM81.1995 33.8905L82.1995 32.7905C82.4995 32.2905 82.6995 31.6905 82.6995 31.0905C82.7078 30.4864 82.5335 29.8939 82.1995 29.3905C81.9779 28.9092 81.6329 28.4952 81.1995 28.1905C80.7403 27.9366 80.2242 27.8034 79.6995 27.8034C79.1748 27.8034 78.6587 27.9366 78.1995 28.1905C77.5995 28.4905 77.1995 28.8905 76.9995 29.3905C76.6995 29.7905 76.4995 30.3905 76.4995 31.0905C76.449 31.6489 76.556 32.2103 76.8084 32.711C77.0608 33.2116 77.4485 33.6315 77.9275 33.9231C78.4064 34.2146 78.9575 34.3661 79.5181 34.3603C80.0788 34.3546 80.6266 34.1918 81.0995 33.8905H81.1995ZM87.4995 34.8905C86.7995 34.4905 86.2995 33.8905 85.8995 33.2905C85.4995 32.5905 85.2995 31.8905 85.2995 30.9905C85.2995 30.1905 85.4995 29.3905 85.8995 28.6905C86.2995 27.9905 86.8995 27.4905 87.4995 27.0905C88.1995 26.6905 88.9995 26.4905 89.8995 26.4905C90.7995 26.4905 91.4995 26.6905 92.1995 27.0905C92.8995 27.4905 93.3995 28.0905 93.7995 28.6905C94.1995 29.3905 94.3995 30.1905 94.3995 30.9905C94.3995 31.8905 94.1995 32.5905 93.7995 33.2905C93.3995 33.9905 92.8995 34.4905 92.1995 34.8905C91.485 35.303 90.6745 35.5202 89.8495 35.5202C89.0244 35.5202 88.214 35.303 87.4995 34.8905ZM91.3995 33.8905C91.8995 33.5905 92.1995 33.1905 92.3995 32.7905C92.6995 32.2905 92.8995 31.6905 92.8995 31.0905C92.9377 30.4967 92.7984 29.9049 92.4995 29.3905C92.2504 28.8967 91.8697 28.4814 91.3995 28.1905C90.9403 27.9366 90.4242 27.8034 89.8995 27.8034C89.3748 27.8034 88.8586 27.9366 88.3995 28.1905C87.8995 28.4905 87.4995 28.8905 87.1995 29.3905C86.9995 29.7905 86.7995 30.3905 86.7995 31.0905C86.749 31.6489 86.856 32.2103 87.1084 32.711C87.3608 33.2116 87.7485 33.6315 88.2275 33.9231C88.7064 34.2146 89.2575 34.3661 89.8181 34.3603C90.3788 34.3546 90.9266 34.1918 91.3995 33.8905ZM97.3995 38.3905C96.6995 37.9905 96.1995 37.3905 95.9995 36.6905L97.2995 36.1905C97.4995 36.5905 97.7995 37.0905 98.2995 37.3905C98.6995 37.6905 99.2995 37.7905 99.8995 37.7905C100.663 37.8334 101.414 37.583 101.999 37.0905C102.499 36.5905 102.799 35.8905 102.799 35.0905V34.0905H102.699C102.353 34.5591 101.901 34.9393 101.379 35.1999C100.858 35.4606 100.282 35.5944 99.6995 35.5905C98.9516 35.6076 98.2146 35.4094 97.5763 35.0193C96.938 34.6292 96.4253 34.0638 96.0995 33.3905C95.7522 32.6745 95.5807 31.886 95.5995 31.0905C95.5651 30.3087 95.7307 29.531 96.0807 28.8311C96.4306 28.1311 96.9534 27.532 97.5995 27.0905C98.1995 26.6905 98.8995 26.4905 99.6995 26.4905C100.399 26.4905 100.999 26.6905 101.499 26.9905C101.999 27.1905 102.399 27.5905 102.699 27.9905V26.7905H104.199V34.8905C104.199 36.2905 103.799 37.3905 102.999 37.9905C102.199 38.7905 101.199 39.0905 99.9995 39.0905C98.8995 39.0905 97.9995 38.8905 97.3995 38.3905ZM101.399 33.8905C101.799 33.5905 102.199 33.1905 102.399 32.7905C102.599 32.2905 102.799 31.6905 102.799 30.9905C102.799 30.2905 102.599 29.6905 102.399 29.2905C102.099 28.7905 101.799 28.3905 101.399 28.1905C100.899 27.8905 100.399 27.7905 99.8995 27.7905C99.3995 27.7905 98.8995 27.8905 98.4995 28.1905C97.9995 28.3905 97.6995 28.7905 97.4995 29.1905C97.0995 29.6905 96.9995 30.2905 96.9995 30.9905C96.9995 31.6905 97.0995 32.1905 97.3995 32.7905C97.6382 33.246 97.9978 33.6269 98.4388 33.8915C98.8798 34.1561 99.3852 34.2942 99.8995 34.2905C100.399 34.2905 100.899 34.0905 101.399 33.8905ZM106.299 23.3905H107.799V35.2905H106.299V23.2905V23.3905ZM111.599 34.8905C110.96 34.5073 110.441 33.9531 110.099 33.2905C109.748 32.5926 109.565 31.822 109.565 31.0405C109.565 30.259 109.748 29.4884 110.099 28.7905C110.399 28.0905 110.899 27.4905 111.499 27.0905C112.188 26.662 112.99 26.4528 113.799 26.4905C114.539 26.4586 115.274 26.6277 115.925 26.9799C116.577 27.332 117.121 27.854 117.499 28.4905C117.799 29.1905 117.999 29.9905 117.999 30.7905V31.2905H110.999C110.999 32.0861 111.316 32.8492 111.878 33.4118C112.441 33.9744 113.204 34.2905 113.999 34.2905C115.099 34.2905 115.999 33.6905 116.599 32.6905L117.799 33.2905C117.399 33.9905 116.899 34.4905 116.299 34.8905C115.599 35.2905 114.799 35.4905 113.899 35.4905C113.09 35.5282 112.288 35.3189 111.599 34.8905ZM116.399 30.0905C116.399 29.7905 116.299 29.3905 116.099 29.0905C115.899 28.6905 115.599 28.3905 115.199 28.0905C114.799 27.8905 114.399 27.7905 113.699 27.7905C112.999 27.7905 112.499 27.9905 111.999 28.3905C111.499 28.7905 111.199 29.3905 110.999 30.0905H116.399ZM123.199 23.3905H127.399C128.046 23.3861 128.684 23.5384 129.259 23.8345C129.833 24.1306 130.328 24.5615 130.699 25.0905C131.099 25.6905 131.199 26.1905 131.199 26.8905C131.199 27.5905 131.099 28.1905 130.699 28.7905C130.328 29.3194 129.833 29.7504 129.259 30.0465C128.684 30.3425 128.046 30.4949 127.399 30.4905H124.699V35.3905H123.299V23.3905H123.199ZM127.399 29.0905C127.899 29.0905 128.399 28.9905 128.699 28.7905C128.999 28.4905 129.299 28.2905 129.499 27.8905C129.699 27.5905 129.799 27.2905 129.799 26.8905C129.799 26.4905 129.799 26.1905 129.499 25.8905C129.299 25.4905 128.999 25.1905 128.699 24.9905C128.299 24.7905 127.899 24.6905 127.399 24.6905H124.699V29.0905H127.399ZM134.199 35.0905C133.699 34.8905 133.299 34.4905 132.999 34.0905C132.799 33.6905 132.599 33.1905 132.599 32.6905C132.599 31.6905 132.999 31.0905 133.699 30.5905C134.399 30.0905 135.299 29.7905 136.299 29.7905C137.204 29.7609 138.1 29.9677 138.899 30.3905V29.8905C138.899 29.1905 138.599 28.6905 138.099 28.2905C137.699 27.9905 137.099 27.7905 136.399 27.7905C135.899 27.7905 135.399 27.7905 134.999 28.0905L133.999 28.8905L132.999 28.0905C133.299 27.5905 133.799 27.1905 134.399 26.8905C134.999 26.5905 135.599 26.4905 136.399 26.4905C137.599 26.4905 138.499 26.7905 139.199 27.3905C139.899 27.9905 140.199 28.7905 140.199 29.8905V35.0905H138.799V34.0905C138.495 34.5239 138.081 34.869 137.599 35.0905C137.099 35.4905 136.599 35.5905 135.899 35.5905C135.306 35.6287 134.714 35.4895 134.199 35.1905V35.0905ZM137.399 33.8905C137.832 33.6763 138.2 33.3499 138.464 32.9454C138.728 32.5409 138.878 32.073 138.899 31.5905L137.899 31.0905L136.599 30.9905C135.972 30.9315 135.343 31.0715 134.799 31.3905C134.399 31.7905 134.099 32.1905 134.099 32.6905C134.099 33.0905 134.299 33.4905 134.699 33.7905C135.099 34.0905 135.499 34.1905 136.099 34.1905C136.599 34.1905 137.099 34.1905 137.399 33.8905ZM141.999 26.8905H143.399V28.2905H143.499C143.699 27.6905 144.099 27.2905 144.499 27.0905C145.014 26.7915 145.606 26.6523 146.199 26.6905H146.799V28.1905L145.999 28.0905C145.299 28.0905 144.699 28.2905 144.199 28.7905C143.699 29.2905 143.499 29.8905 143.499 30.6905V35.3905H141.999V26.8905ZM150.999 35.3905L150.199 34.8905L149.699 34.0905L149.499 33.0905V28.0905H147.999V26.6905H149.499V24.3905H150.999V26.7905H153.099V27.9905H150.999V32.7905C150.999 33.1905 150.999 33.5905 151.199 33.7905C151.499 34.0905 151.799 34.1905 152.199 34.1905C152.599 34.1905 152.899 34.1905 153.199 33.8905V35.2905C152.821 35.4511 152.41 35.5196 151.999 35.4905C151.663 35.5428 151.319 35.5084 150.999 35.3905ZM154.799 26.7905H156.199V27.9905H156.299C156.499 27.5905 156.899 27.1905 157.399 26.9905C157.999 26.5905 158.499 26.4905 159.099 26.4905C160.099 26.4905 160.999 26.7905 161.499 27.3905C162.099 27.9905 162.399 28.7905 162.399 29.7905V35.2905H160.899V29.9905C160.899 29.1905 160.699 28.6905 160.299 28.2905C159.999 27.9905 159.399 27.7905 158.799 27.7905C158.299 27.7905 157.799 27.8905 157.499 28.1905C157.099 28.3905 156.799 28.7905 156.599 29.1905C156.399 29.5905 156.299 29.9905 156.299 30.4905V35.2905H154.799V26.7905ZM166.199 34.8905C165.523 34.5223 164.968 33.9667 164.599 33.2905C164.248 32.5926 164.065 31.822 164.065 31.0405C164.065 30.259 164.248 29.4884 164.599 28.7905C164.899 28.0905 165.399 27.4905 165.999 27.0905C166.688 26.662 167.49 26.4528 168.299 26.4905C169.039 26.4586 169.774 26.6277 170.425 26.9799C171.077 27.332 171.621 27.854 171.999 28.4905C172.299 29.1905 172.499 29.9905 172.499 30.7905V31.2905H165.499C165.499 32.0861 165.816 32.8492 166.378 33.4118C166.941 33.9744 167.704 34.2905 168.499 34.2905C169.599 34.2905 170.499 33.6905 171.099 32.6905L172.299 33.2905C171.899 33.9905 171.399 34.4905 170.699 34.8905C170.099 35.2905 169.299 35.4905 168.399 35.4905C167.59 35.5282 166.788 35.3189 166.099 34.8905H166.199ZM170.899 30.0905L170.599 29.0905C170.399 28.6905 170.099 28.3905 169.599 28.0905C169.299 27.8905 168.799 27.7905 168.199 27.7905C167.499 27.7905 166.899 27.9905 166.399 28.3905C165.899 28.7905 165.599 29.3905 165.499 30.0905H170.899ZM174.199 26.7905H175.499V28.0905H175.599C175.939 27.4705 176.486 26.9901 177.144 26.734C177.803 26.4779 178.531 26.4625 179.199 26.6905V28.0905C178.799 27.8905 178.399 27.8905 177.999 27.8905C177.499 27.8905 177.099 27.8905 176.799 28.1905C176.399 28.3905 176.099 28.6905 175.899 29.1905C175.699 29.4905 175.599 29.8905 175.599 30.3905V35.1905H174.199V26.7905Z" stroke="#5F6368" stroke-width="0.3" stroke-miterlimit="10"></path>
</g>
<defs>
<filter id="filter0_if_2977_45253" x="-29.8008" y="-29.7998" width="319" height="120.043" filterUnits="userSpaceOnUse" color-interpolation-filters="sRGB">
<feFlood flood-opacity="0" result="BackgroundImageFix"></feFlood>
<feBlend mode="normal" in="SourceGraphic" in2="BackgroundImageFix" result="shape"></feBlend>
<feColorMatrix in="SourceAlpha" type="matrix" values="0 0 0 0 0 0 0 0 0 0 0 0 0 0 0 0 0 0 127 0" result="hardAlpha"></feColorMatrix>
<feOffset dx="1" dy="1"></feOffset>
<feGaussianBlur stdDeviation="0.1"></feGaussianBlur>
<feComposite in2="hardAlpha" operator="arithmetic" k2="-1" k3="1"></feComposite>
<feColorMatrix type="matrix" values="0 0 0 0 1 0 0 0 0 1 0 0 0 0 1 0 0 0 0.25 0"></feColorMatrix>
<feBlend mode="normal" in2="shape" result="effect1_innerShadow_2977_45253"></feBlend>
<feGaussianBlur stdDeviation="0.1" result="effect2_foregroundBlur_2977_45253"></feGaussianBlur>
</filter>
<clipPath id="bgblur_0_2977_45253_clip_path" transform="translate(29.8008 29.7998)"><rect x="0.199219" y="0.200195" width="259" height="60.0433" rx="10"></rect>
</clipPath><clipPath id="clip1_2977_45253">
<rect width="157" height="24.0173" fill="white" transform="translate(23.1992 18.2129)"></rect>
</clipPath>
</defs>
</svg>