<svg width="260" height="61" viewBox="0 0 260 61" fill="none" xmlns="http://www.w3.org/2000/svg">
<g filter="url(#filter0_if_2977_45263)" data-figma-bg-blur-radius="30">
<rect x="0.199219" y="0.200195" width="259" height="60.0433" rx="10" fill="white" fill-opacity="0.95"></rect>
</g>
<g clip-path="url(#clip1_2977_45263)">
<path d="M40.8996 26.0522V23.1522C41.267 22.9648 41.5743 22.6779 41.7865 22.3243C41.9987 21.9707 42.1072 21.5645 42.0996 21.1522C42.0996 20.5554 41.8626 19.9831 41.4406 19.5612C41.0187 19.1392 40.4464 18.9022 39.8496 18.9022C39.2529 18.9022 38.6806 19.1392 38.2587 19.5612C37.8367 19.9831 37.5996 20.5554 37.5996 21.1522C37.6011 21.5753 37.7245 21.9889 37.9551 22.3437C38.1856 22.6984 38.5136 22.9791 38.8996 23.1522V26.1522C37.8996 26.3522 36.8996 26.7522 35.8996 27.4522L28.1996 21.2522V20.6522C28.2072 20.2772 28.1304 19.9054 27.9747 19.5641C27.8191 19.2229 27.5887 18.9211 27.3006 18.681C27.0125 18.4409 26.6741 18.2687 26.3104 18.1772C25.9467 18.0856 25.5671 18.0771 25.1996 18.1522C24.8401 18.2273 24.5016 18.3807 24.2081 18.6015C23.9146 18.8223 23.6733 19.105 23.5015 19.4296C23.3296 19.7542 23.2314 20.1127 23.2138 20.4795C23.1962 20.8464 23.2597 21.2126 23.3996 21.5522C23.5377 21.872 23.7411 22.1595 23.9967 22.3962C24.2524 22.6328 24.5546 22.8134 24.8842 22.9264C25.2137 23.0394 25.5632 23.0823 25.9103 23.0523C26.2574 23.0223 26.5944 22.92 26.8996 22.7522L34.6996 28.7522C33.9945 29.7832 33.6173 31.0031 33.6173 32.2522C33.6173 33.5012 33.9945 34.7212 34.6996 35.7522L32.3996 38.1522C31.9741 38.0355 31.5219 38.0628 31.1135 38.2299C30.7051 38.397 30.3634 38.6945 30.1417 39.076C29.9199 39.4575 29.8306 39.9016 29.8876 40.3392C29.9445 40.7767 30.1446 41.1832 30.4566 41.4952C30.7686 41.8072 31.1751 42.0073 31.6126 42.0643C32.0502 42.1212 32.4943 42.0319 32.8758 41.8101C33.2573 41.5884 33.5548 41.2467 33.7219 40.8383C33.889 40.4299 33.9163 39.9777 33.7996 39.5522L36.0996 37.2522C37.1211 38.0362 38.3582 38.4885 39.6445 38.548C40.9308 38.6076 42.2044 38.2715 43.2939 37.5851C44.3834 36.8988 45.2364 35.895 45.738 34.7091C46.2397 33.5232 46.3659 32.212 46.0996 30.9522C45.8132 29.7234 45.1644 28.6089 44.2373 27.7531C43.3101 26.8973 42.1474 26.3395 40.8996 26.1522V26.0522ZM39.8996 35.4522C39.4711 35.4656 39.0442 35.3927 38.6443 35.2379C38.2445 35.0831 37.8798 34.8495 37.572 34.551C37.2642 34.2525 37.0195 33.8952 36.8524 33.5003C36.6854 33.1054 36.5994 32.681 36.5996 32.2522C36.5999 31.6236 36.7854 31.009 37.1328 30.4852C37.4802 29.9613 37.9741 29.5514 38.5531 29.3065C39.132 29.0617 39.7702 28.9927 40.3881 29.1083C41.0059 29.2239 41.5761 29.5189 42.0273 29.9565C42.4786 30.394 42.791 30.9548 42.9255 31.5688C43.06 32.1828 43.0107 32.8229 42.7838 33.4091C42.5569 33.9952 42.1623 34.5016 41.6494 34.8649C41.1365 35.2283 40.5279 35.4325 39.8996 35.4522Z" fill="#FF7A59"></path>
<path fill-rule="evenodd" clip-rule="evenodd" d="M113.199 27.0521C112.399 27.0521 111.599 27.4521 110.999 28.0521L109.999 29.0521C109.499 29.7521 109.299 30.6521 109.299 31.5521C109.299 32.5521 110.099 34.2521 110.099 34.2521L111.099 35.2521C111.099 35.2521 112.299 35.9521 112.999 36.1521C114.044 36.3766 115.135 36.2299 116.084 35.7371C117.033 35.2444 117.781 34.4364 118.199 33.4521C118.482 32.7932 118.61 32.0782 118.575 31.362C118.539 30.6457 118.339 29.9471 117.992 29.3198C117.645 28.6924 117.158 28.1529 116.57 27.7425C115.982 27.3321 115.308 27.0618 114.599 26.9521H113.199V27.0521ZM112.599 33.5521C112.952 33.7944 113.365 33.9335 113.792 33.9538C114.22 33.9741 114.644 33.8748 115.018 33.667C115.392 33.4592 115.701 33.1512 115.909 32.7776C116.118 32.404 116.218 31.9796 116.199 31.5521C116.202 31.0895 116.072 30.6357 115.824 30.2454C115.575 29.8551 115.219 29.5449 114.799 29.3521C114.468 29.1895 114.103 29.1087 113.735 29.1165C113.367 29.1243 113.006 29.2204 112.682 29.3968C112.359 29.5732 112.083 29.8248 111.877 30.1302C111.671 30.4357 111.541 30.7862 111.499 31.1521C111.417 31.606 111.468 32.0737 111.646 32.4993C111.823 32.9249 112.119 33.2904 112.499 33.5521H112.599Z" fill="#33475B"></path>
<path d="M98.9992 39.1523V31.7523C98.9724 31.1744 99.0597 30.5968 99.2564 30.0527C99.453 29.5085 99.755 29.0085 100.145 28.5812C100.535 28.154 101.006 27.8078 101.53 27.5626C102.054 27.3174 102.621 27.178 103.199 27.1523C104.091 27.1521 104.964 27.4111 105.711 27.8979C106.459 28.3847 107.048 29.0783 107.409 29.8943C107.769 30.7102 107.884 31.6133 107.741 32.4936C107.597 33.3739 107.2 34.1934 106.599 34.8523C105.799 35.6523 104.599 36.1523 103.499 36.1523C103.035 36.1773 102.571 36.1008 102.139 35.9281C101.707 35.7554 101.318 35.4907 100.999 35.1523V39.1523H98.9992ZM101.099 31.5523C101.084 32.0431 101.22 32.5268 101.488 32.9381C101.756 33.3493 102.144 33.6685 102.599 33.8523C102.881 33.9656 103.183 34.0218 103.487 34.0176C103.791 34.0135 104.091 33.9491 104.37 33.8282C104.649 33.7073 104.902 33.5323 105.113 33.3133C105.324 33.0943 105.489 32.8357 105.599 32.5523C105.799 32.2523 105.799 31.9523 105.799 31.5523C105.784 31.1068 105.645 30.6744 105.398 30.3035C105.15 29.9325 104.805 29.6378 104.399 29.4523C104.118 29.3205 103.813 29.247 103.502 29.2363C103.192 29.2256 102.883 29.2779 102.593 29.39C102.303 29.5022 102.039 29.6718 101.817 29.8888C101.595 30.1057 101.418 30.3655 101.299 30.6523L101.099 31.6523V31.5523ZM122.799 36.2523C121.099 36.2523 119.799 35.2523 119.799 33.4523V26.0523L121.799 25.0523V27.4523H123.799V29.3523H121.799V32.9523C121.799 33.7523 122.199 34.3523 123.499 34.3523H124.199L123.699 36.2523C123.4 36.2871 123.098 36.2871 122.799 36.2523ZM67.9992 36.2523V31.3523H63.3992V36.3523H61.1992V24.1523H63.3992V29.1523H67.9992V24.1523H70.1992V36.2523H67.9992ZM84.7992 36.2523C83.9068 36.2173 83.0462 35.9116 82.3317 35.3757C81.6172 34.8399 81.0827 34.0993 80.7992 33.2523L80.5992 31.6523V24.1523H82.6992V28.1523C83.0182 27.814 83.4072 27.5493 83.8389 27.3766C84.2707 27.2039 84.7349 27.1274 85.1992 27.1523C85.7771 27.1653 86.3467 27.292 86.8756 27.5252C87.4045 27.7584 87.8822 28.0936 88.2815 28.5115C88.6809 28.9294 88.9939 29.4218 89.2029 29.9608C89.4118 30.4997 89.5125 31.0745 89.4992 31.6523C89.4486 32.8468 88.9447 33.977 88.0901 34.813C87.2355 35.649 86.0945 36.128 84.8992 36.1523L84.7992 36.2523ZM85.0992 29.3523C84.6427 29.3764 84.2025 29.5303 83.8304 29.7961C83.4584 30.0618 83.17 30.4283 82.9992 30.8523C82.8582 31.1782 82.7912 31.5314 82.8032 31.8863C82.8151 32.2412 82.9056 32.589 83.0683 32.9047C83.2309 33.2203 83.4615 33.496 83.7436 33.7117C84.0256 33.9275 84.352 34.078 84.6992 34.1523C85.1531 34.2338 85.6207 34.1828 86.0464 34.0055C86.472 33.8281 86.8375 33.532 87.0992 33.1523C87.3992 32.7523 87.4992 32.2523 87.4992 31.7523C87.4998 31.1328 87.2607 30.537 86.832 30.0897C86.4033 29.6424 85.8182 29.3782 85.1992 29.3523H85.0992ZM90.0992 34.3523L91.6992 32.8523C92.2992 33.5523 92.6992 34.1523 93.8992 34.1523C94.0832 34.166 94.268 34.1431 94.4431 34.085C94.6182 34.027 94.78 33.9349 94.9194 33.8141C95.0588 33.6933 95.173 33.5462 95.2553 33.3811C95.3376 33.2161 95.3865 33.0364 95.3992 32.8523C95.3992 30.5523 90.3992 31.8523 90.3992 27.7523C90.3992 25.4523 91.9992 24.1523 94.2992 24.1523C94.9162 24.1737 95.5214 24.3276 96.0735 24.6037C96.6257 24.8798 97.112 25.2716 97.4992 25.7523L96.0992 27.3523C95.5992 26.7523 94.8992 26.3523 94.0992 26.3523C93.8259 26.3316 93.5529 26.3978 93.3194 26.5415C93.086 26.6851 92.9039 26.899 92.7992 27.1523L92.6992 27.6523C92.6992 29.6523 97.6992 28.2523 97.6992 32.7523C97.6992 34.8523 95.8992 36.2523 93.6992 36.2523C93.0161 36.2446 92.3442 36.0779 91.7367 35.7655C91.1292 35.4531 90.6028 35.0035 90.1992 34.4523L90.0992 34.3523ZM71.4992 32.3523V27.1523H73.5992V32.3523C73.6248 32.8122 73.8257 33.2447 74.1605 33.561C74.4953 33.8772 74.9387 34.0531 75.3992 34.0523C75.8598 34.0531 76.3031 33.8772 76.6379 33.561C76.9728 33.2447 77.1736 32.8122 77.1992 32.3523V27.1523H79.2992V32.3523C79.249 33.3611 78.819 34.3135 78.0956 35.0184C77.3722 35.7232 76.409 36.1283 75.3992 36.1523C74.382 36.1527 73.4049 35.7555 72.6763 35.0456C71.9477 34.3357 71.5253 33.3693 71.4992 32.3523Z" fill="#33475B"></path>
<path d="M130.199 23.1523H134.099C134.699 23.1523 135.399 23.1523 135.899 23.3523C136.499 23.4523 136.899 23.7523 137.299 23.9523L138.299 25.0523C138.499 25.5523 138.599 26.0523 138.599 26.7523C138.599 27.3523 138.499 27.8523 138.199 28.3523C137.963 28.7971 137.62 29.1754 137.199 29.4523C136.899 29.7523 136.399 29.9523 135.799 30.1523L133.999 30.3523H131.999V35.9523H130.199V23.1523ZM131.999 28.7523H134.999L135.999 28.3523C136.26 28.1785 136.472 27.9394 136.612 27.6588C136.752 27.3781 136.817 27.0656 136.799 26.7523C136.817 26.4391 136.752 26.1266 136.612 25.8459C136.472 25.5653 136.26 25.3262 135.999 25.1523L134.999 24.7523H131.899V28.7523H131.999ZM145.599 30.3523C145.599 29.7523 145.499 29.3523 145.099 28.9523C144.699 28.6523 144.099 28.5523 143.599 28.5523C143.099 28.5523 142.599 28.5523 142.199 28.7523L141.199 29.4523L140.199 28.4523L141.799 27.4523C142.399 27.2523 142.999 27.1523 143.799 27.1523C144.299 27.1523 144.799 27.1523 145.299 27.4523C145.699 27.5523 146.099 27.8523 146.299 28.1523C146.699 28.4523 146.899 28.7523 146.999 29.1523C147.199 29.5523 147.299 30.0523 147.299 30.4523V34.2523C147.28 34.8188 147.28 35.3858 147.299 35.9523H145.899L145.699 34.6523C145.395 35.1397 144.965 35.5361 144.455 35.8C143.945 36.064 143.373 36.1857 142.799 36.1523C142.499 36.1523 142.099 36.1523 141.799 35.9523C141.399 35.9523 141.099 35.7523 140.799 35.5523L139.999 34.7523C139.799 34.4523 139.799 33.9523 139.799 33.4523C139.799 32.8523 139.899 32.3523 140.299 31.9523C140.599 31.5523 141.099 31.2523 141.599 31.1523C142.199 30.8523 142.799 30.7523 143.599 30.7523L145.599 30.6523V30.3523ZM145.199 31.8523C144.359 31.8881 143.524 31.9884 142.699 32.1523C142.399 32.1523 142.099 32.3523 141.799 32.5523C141.599 32.8523 141.499 33.1523 141.499 33.5523L141.599 34.0523L141.999 34.5523L142.599 34.7523H143.199C143.999 34.7523 144.599 34.5523 144.999 34.0523C145.399 33.6523 145.599 33.0523 145.599 32.2523V31.8523H145.199ZM149.299 29.1523C149.319 28.5525 149.319 27.9522 149.299 27.3523H150.899C150.933 27.8518 150.933 28.3529 150.899 28.8523C151.134 28.336 151.515 27.8998 151.994 27.5977C152.474 27.2955 153.032 27.1407 153.599 27.1523H154.199V28.7523H153.399C152.906 28.7337 152.421 28.8814 152.022 29.1716C151.623 29.4617 151.333 29.8776 151.199 30.3523L150.999 31.3523V35.9523H149.299V29.1523ZM160.699 28.7523H158.399V33.2523C158.399 33.7523 158.499 34.1523 158.699 34.2523C158.899 34.5523 159.199 34.6523 159.699 34.6523C160.009 34.642 160.314 34.5742 160.599 34.4523V35.8523L159.999 35.9523L159.199 36.0523C158.399 36.0523 157.799 35.8523 157.399 35.3523C156.999 34.9523 156.799 34.3523 156.799 33.3523V28.7523H155.099V27.3523H156.799V24.9523H158.399V27.3523H160.699V28.7523ZM163.899 27.3523C163.928 27.8186 163.928 28.2861 163.899 28.7523H163.999L164.499 28.1523L165.099 27.6523C165.603 27.3183 166.195 27.144 166.799 27.1523C167.299 27.1523 167.799 27.1523 168.199 27.4523C168.583 27.6144 168.926 27.8601 169.203 28.1715C169.479 28.4829 169.683 28.8522 169.799 29.2523L169.999 30.6523V35.9523H168.199V31.1523L168.099 30.1523C168.099 29.8523 167.899 29.5523 167.799 29.3523L167.199 28.7523C166.889 28.6004 166.544 28.5315 166.199 28.5523C165.889 28.5523 165.583 28.6246 165.305 28.7635C165.027 28.9023 164.786 29.104 164.599 29.3523C164.199 29.8523 163.999 30.5523 163.999 31.3523V35.9523H162.299V29.1523C162.321 28.5192 162.321 27.8855 162.299 27.2523H163.799L163.899 27.3523ZM178.599 30.8523L178.499 29.9523C178.412 29.6581 178.259 29.3879 178.051 29.1624C177.843 28.937 177.586 28.7625 177.299 28.6523L176.299 28.4523C175.899 28.4523 175.599 28.4523 175.299 28.6523C174.899 28.7523 174.699 28.9523 174.399 29.1523C174.156 29.3836 173.953 29.654 173.799 29.9523L173.599 30.9523H178.599V30.8523ZM180.299 31.5523V32.1523H173.599C173.599 32.5523 173.599 32.8523 173.799 33.1523L174.399 34.0523L175.299 34.5523L176.299 34.7523C176.899 34.7523 177.399 34.6523 177.799 34.3523C178.196 34.1319 178.538 33.8242 178.799 33.4523L179.999 34.4523C179.562 35.0343 178.983 35.4955 178.319 35.7929C177.654 36.0902 176.925 36.2139 176.199 36.1523C175.599 36.1523 174.999 36.0523 174.499 35.8523C173.899 35.6523 173.499 35.3523 172.999 34.8523C172.699 34.5523 172.299 34.0523 172.099 33.4523C171.899 32.9523 171.799 32.3523 171.799 31.6523C171.799 30.9523 171.799 30.3523 172.099 29.8523C172.299 29.2523 172.599 28.8523 173.099 28.3523C173.936 27.5624 175.049 27.1316 176.199 27.1523C176.799 27.1523 177.299 27.3523 177.799 27.5523C178.299 27.7523 178.799 28.0523 179.099 28.4523C179.499 28.8523 179.799 29.2523 179.899 29.8523C180.099 30.3523 180.199 30.9523 180.199 31.6523L180.299 31.5523ZM182.299 29.1523C182.319 28.5525 182.319 27.9522 182.299 27.3523H183.799C183.866 27.8495 183.9 28.3507 183.899 28.8523C184.199 28.3523 184.499 27.8523 184.899 27.6523C185.499 27.2523 185.899 27.1523 186.499 27.1523H187.199V28.7523H186.399C185.89 28.7102 185.381 28.8469 184.962 29.1389C184.542 29.4309 184.237 29.8599 184.099 30.3523L183.999 31.3523V35.9523H182.199V29.1523H182.299Z" fill="#E66E50"></path>
</g>
<defs>
<filter id="filter0_if_2977_45263" x="-29.8008" y="-29.7998" width="319" height="120.043" filterUnits="userSpaceOnUse" color-interpolation-filters="sRGB">
<feFlood flood-opacity="0" result="BackgroundImageFix"></feFlood>
<feBlend mode="normal" in="SourceGraphic" in2="BackgroundImageFix" result="shape"></feBlend>
<feColorMatrix in="SourceAlpha" type="matrix" values="0 0 0 0 0 0 0 0 0 0 0 0 0 0 0 0 0 0 127 0" result="hardAlpha"></feColorMatrix>
<feOffset dx="1" dy="1"></feOffset>
<feGaussianBlur stdDeviation="0.1"></feGaussianBlur>
<feComposite in2="hardAlpha" operator="arithmetic" k2="-1" k3="1"></feComposite>
<feColorMatrix type="matrix" values="0 0 0 0 1 0 0 0 0 1 0 0 0 0 1 0 0 0 0.25 0"></feColorMatrix>
<feBlend mode="normal" in2="shape" result="effect1_innerShadow_2977_45263"></feBlend>
<feGaussianBlur stdDeviation="0.1" result="effect2_foregroundBlur_2977_45263"></feGaussianBlur>
</filter>
<clipPath id="bgblur_0_2977_45263_clip_path" transform="translate(29.8008 29.7998)"><rect x="0.199219" y="0.200195" width="259" height="60.0433" rx="10"></rect>
</clipPath><clipPath id="clip1_2977_45263">
<rect width="165" height="24.0173" fill="white" transform="translate(23.1992 18.2129)"></rect>
</clipPath>
</defs>
</svg>