<svg xmlns:xlink="http://www.w3.org/1999/xlink" xmlns="http://www.w3.org/2000/svg" width="153" height="51" viewBox="0 0 153 51"><path d="M52.7673 21.9603L32.2293 1.42235C31.2811 0.474111 30.0419 0 28.8027 0C27.5636 0 26.3244 0.474111 25.3762 1.42235L21.9603 4.83816L18.5445 1.42235C17.5963 0.474111 16.3571 0 15.1179 0C13.8788 0 12.6396 0.474111 11.6913 1.42235L1.42236 11.6913C-0.474119 13.5878 -0.474119 16.6588 1.42236 18.5445L8.26477 25.3869L1.42236 32.2293C-0.474119 34.1258 -0.474119 37.1968 1.42236 39.0825L11.6913 49.3515C12.6396 50.2997 13.8788 50.7739 15.1179 50.7739C16.3571 50.7739 17.5963 50.2997 18.5445 49.3515L20.8181 47.0779L17.3916 43.6513L15.1179 45.9249L4.84896 35.6559L11.6913 28.8135C13.5878 26.917 13.5878 23.846 11.6913 21.9496L4.84896 15.1072L15.1179 4.83816L35.6559 25.3761L21.9603 39.0717L18.5338 35.6452L25.3762 28.8027C27.2726 26.9063 27.2726 23.8353 25.3762 21.9388L18.5338 15.0964L20.8181 12.812L17.3916 9.3854L15.1072 11.6698C13.2107 13.5663 13.2107 16.6373 15.1072 18.523L21.9496 25.3654L15.1072 32.2078C13.2107 34.1043 13.2107 37.1753 15.1072 39.061L25.3762 49.33C26.2813 50.2351 27.5205 50.7523 28.8027 50.7523C30.085 50.7523 31.3242 50.2459 32.2293 49.33L52.7673 28.792C54.6638 26.8955 54.6638 23.8245 52.7673 21.9388V21.9603ZM28.792 45.9357L25.3762 42.5199L39.0717 28.8243C39.9769 27.9192 40.4941 26.68 40.4941 25.3977C40.4941 24.1154 39.9876 22.8763 39.0717 21.9711L25.3762 8.27553L28.792 4.85972L49.33 25.3977L28.792 45.9357Z" fill="#0093F7"></path><path d="M85.3623 17.4022C85.3623 19.7944 84.2955 21.9495 82.3344 23.555C80.3301 25.1821 77.5069 26.0441 74.1989 26.0441H65.3738C64.8889 26.0441 64.4902 25.6454 64.4902 25.1605V9.14823C64.4902 8.66333 64.8889 8.26465 65.3738 8.26465H73.6709C81.3538 8.26465 85.373 12.8658 85.373 17.3914L85.3623 17.4022ZM81.2137 17.4022C81.2137 14.9346 78.6168 12.4132 73.6601 12.4132H68.628V21.9279H74.1989C76.5372 21.9279 78.466 21.3676 79.7159 20.3547C80.6857 19.5681 81.2137 18.5229 81.2137 17.4022Z" fill="#0A0223"></path><path d="M92.3565 15.1074H98.8972C99.3713 15.1074 99.7485 15.4953 99.7485 15.9586V18.3615C99.7485 18.8357 99.3606 19.2128 98.8972 19.2128H92.3565V21.9067H102.388C102.863 21.9067 103.24 22.2946 103.24 22.7579V25.1608C103.24 25.635 102.852 26.0121 102.388 26.0121H89.07C88.5959 26.0121 88.2188 25.6242 88.2188 25.1608V9.09468C88.2188 8.62056 88.6067 8.24341 89.07 8.24341H102.442C102.916 8.24341 103.294 8.63133 103.294 9.09468V11.5299C103.294 12.004 102.906 12.3812 102.442 12.3812H92.3673V15.075L92.3565 15.1074Z" fill="#0A0223"></path><path d="M118.875 26.0441H107.658C107.173 26.0441 106.785 25.6562 106.785 25.1713V9.1482C106.785 8.6633 107.173 8.27539 107.658 8.27539H110.05C110.535 8.27539 110.923 8.6633 110.923 9.1482V21.9279H118.875C119.36 21.9279 119.748 22.3158 119.748 22.8007V25.1713C119.748 25.6562 119.36 26.0441 118.875 26.0441Z" fill="#0A0223"></path><path d="M133.076 12.3702H127.376V25.1391C127.376 25.6455 126.967 26.0442 126.471 26.0442H124.144C123.637 26.0442 123.239 25.6348 123.239 25.1391V12.3702H117.431C116.924 12.3702 116.525 11.9607 116.525 11.4651V9.13755C116.525 8.63111 116.935 8.23242 117.431 8.23242H133.087C133.594 8.23242 133.992 8.64188 133.992 9.13755V11.4651C133.992 11.9715 133.583 12.3702 133.087 12.3702H133.076Z" fill="#0A0223"></path><path d="M68.4566 32.3694C69.1678 32.3694 69.7927 32.4664 70.3207 32.6496C70.8487 32.8328 71.2905 33.1021 71.6353 33.4577C71.9802 33.8133 72.2603 34.2228 72.4435 34.7185C72.6267 35.2141 72.7452 35.7637 72.7883 36.3671C72.8314 37.0783 72.8314 37.8002 72.7883 38.5114C72.7452 39.1148 72.6375 39.6644 72.4435 40.16C72.2603 40.6557 71.9909 41.076 71.6353 41.4208C71.2905 41.7656 70.8595 42.035 70.3423 42.2289C69.8251 42.4121 69.2217 42.5091 68.5213 42.5091H64.8684C64.7606 42.5091 64.6744 42.466 64.599 42.3906C64.5236 42.3151 64.4805 42.2182 64.4805 42.1104V32.7573C64.4805 32.6496 64.5236 32.5634 64.599 32.4772C64.6744 32.4017 64.7714 32.3586 64.8684 32.3586H68.4458L68.4566 32.3694ZM70.8272 36.3671C70.8056 36.0546 70.7518 35.7745 70.644 35.5051C70.547 35.2357 70.3962 35.0094 70.1914 34.8047C69.9867 34.5999 69.7496 34.4491 69.4479 34.3413C69.1462 34.2336 68.7906 34.1797 68.3812 34.1797H66.4416V40.6988H68.4566C68.8553 40.6988 69.2001 40.645 69.4803 40.5372C69.7712 40.4294 70.0083 40.2786 70.2022 40.0846C70.3962 39.8907 70.547 39.6644 70.644 39.395C70.741 39.1256 70.8056 38.8347 70.8272 38.5222C70.8703 37.811 70.8703 37.0891 70.8272 36.3779V36.3671Z" fill="#0A0223"></path><path d="M80.8586 42.5093C80.7509 42.5093 80.6647 42.4662 80.5893 42.3908C80.5138 42.3154 80.4707 42.2184 80.4707 42.1107V32.7576C80.4707 32.6498 80.5138 32.5636 80.5893 32.4774C80.6647 32.402 80.7617 32.3589 80.8586 32.3589H82.0332C82.1409 32.3589 82.2271 32.402 82.3133 32.4774C82.3887 32.5528 82.4318 32.6498 82.4318 32.7576V42.1107C82.4318 42.2184 82.3887 42.3046 82.3133 42.3908C82.2379 42.4662 82.1409 42.5093 82.0332 42.5093H80.8586Z" fill="#0A0223"></path><path d="M90.1153 36.1189C90.1369 35.5371 90.2446 35.0091 90.4386 34.5349C90.6325 34.0608 90.9127 33.6514 91.2791 33.3065C91.6454 32.9617 92.098 32.7031 92.6368 32.5092C93.1755 32.326 93.8005 32.229 94.5117 32.229C95.3522 32.229 96.0418 32.3368 96.5913 32.5523C97.1409 32.7678 97.5719 33.0264 97.8952 33.3389C98.2185 33.6406 98.4447 33.9531 98.574 34.2763C98.7033 34.5996 98.7788 34.869 98.8003 35.0953C98.8003 35.2138 98.768 35.3 98.6926 35.3754C98.6171 35.4509 98.5201 35.4832 98.4124 35.4832H97.2379C97.1301 35.4832 97.0439 35.4616 96.9793 35.4078C96.9146 35.3539 96.8715 35.3 96.8392 35.2461C96.8176 35.203 96.7637 35.1276 96.6883 34.9875C96.6021 34.8582 96.4728 34.7181 96.3004 34.5781C96.1172 34.438 95.891 34.3087 95.6 34.2009C95.3091 34.0932 94.9535 34.0393 94.5117 34.0393C93.7897 34.0393 93.2079 34.2332 92.7769 34.6212C92.3458 35.0091 92.1088 35.5371 92.0764 36.1944C92.0549 36.5607 92.0441 36.9594 92.0441 37.3797C92.0441 37.7999 92.0441 38.1878 92.0764 38.565C92.1088 39.3624 92.3351 39.9442 92.7769 40.3106C93.2079 40.6769 93.7897 40.8494 94.5117 40.8494C94.8673 40.8494 95.2013 40.8063 95.4923 40.7308C95.7832 40.6554 96.0526 40.5261 96.2681 40.3537C96.4836 40.1813 96.656 39.955 96.7745 39.6641C96.8931 39.3731 96.9577 39.0283 96.9577 38.6188V38.5003H95.1905C95.0828 38.5003 94.9966 38.4572 94.9104 38.3818C94.8242 38.3064 94.7919 38.2094 94.7919 38.1016V37.078C94.7919 36.9702 94.8349 36.884 94.9104 36.7978C94.9858 36.7116 95.0828 36.6793 95.1905 36.6793H98.5202C98.6279 36.6793 98.7141 36.7224 98.8003 36.7978C98.8758 36.8732 98.9188 36.9702 98.9188 37.078V38.6727C98.9188 39.2546 98.8219 39.7826 98.6387 40.2783C98.4555 40.7632 98.1753 41.1834 97.809 41.539C97.4426 41.8946 96.9793 42.164 96.4297 42.3687C95.8802 42.5734 95.2336 42.6704 94.5009 42.6704C93.7682 42.6704 93.1324 42.5734 92.5937 42.3795C92.0549 42.1855 91.6023 41.9161 91.2467 41.5713C90.8911 41.2265 90.6217 40.8063 90.4278 40.3214C90.2446 39.8365 90.1369 39.2977 90.1153 38.7266C90.1153 38.5434 90.0938 38.3387 90.0938 38.1232C90.0938 37.8969 90.0938 37.6706 90.0938 37.4443C90.0938 37.218 90.0938 36.981 90.0938 36.7655C90.0938 36.5392 90.1045 36.3452 90.1153 36.162V36.1189Z" fill="#0A0223"></path><path d="M106.913 42.5093C106.806 42.5093 106.719 42.4662 106.644 42.3908C106.569 42.3154 106.525 42.2184 106.525 42.1107V32.7576C106.525 32.6498 106.569 32.5636 106.644 32.4774C106.719 32.402 106.816 32.3589 106.913 32.3589H108.088C108.196 32.3589 108.282 32.402 108.368 32.4774C108.443 32.5528 108.487 32.6498 108.487 32.7576V42.1107C108.487 42.2184 108.443 42.3046 108.368 42.3908C108.293 42.4662 108.196 42.5093 108.088 42.5093H106.913Z" fill="#0A0223"></path><path d="M123.27 32.3696C123.378 32.3696 123.464 32.4127 123.551 32.4882C123.626 32.5636 123.669 32.6606 123.669 32.7683V33.792C123.669 33.8997 123.626 33.9859 123.551 34.0722C123.475 34.1476 123.378 34.1907 123.27 34.1907H120.663V42.1214C120.663 42.2292 120.62 42.3154 120.544 42.4016C120.469 42.477 120.372 42.5201 120.264 42.5201H119.09C118.982 42.5201 118.896 42.477 118.82 42.4016C118.745 42.3261 118.702 42.2292 118.702 42.1214V34.1907H116.094C115.986 34.1907 115.9 34.1476 115.814 34.0722C115.738 33.9967 115.695 33.8997 115.695 33.792V32.7683C115.695 32.6606 115.738 32.5744 115.814 32.4882C115.889 32.4127 115.986 32.3696 116.094 32.3696H123.26H123.27Z" fill="#0A0223"></path><path d="M134.639 32.3696C134.79 32.3696 134.908 32.4127 134.984 32.4882C135.059 32.5636 135.124 32.6929 135.188 32.8545L138.734 42.0029C138.734 42.0029 138.744 42.0675 138.744 42.0998C138.744 42.2076 138.701 42.2938 138.626 42.38C138.55 42.4554 138.453 42.4985 138.346 42.4985H137.3C137.106 42.4985 136.977 42.4554 136.891 42.38C136.805 42.3046 136.762 42.2184 136.729 42.143L136.104 40.5374H131.525L130.9 42.143C130.867 42.2184 130.814 42.3046 130.738 42.38C130.663 42.4662 130.523 42.4985 130.329 42.4985H129.283C129.176 42.4985 129.09 42.4554 129.003 42.38C128.928 42.3046 128.885 42.2076 128.885 42.0998C128.885 42.0567 128.885 42.0244 128.896 42.0029L132.441 32.8545C132.495 32.6929 132.57 32.5636 132.645 32.4882C132.721 32.4127 132.839 32.3696 132.99 32.3696H134.585H134.639ZM135.436 38.7271L133.841 34.6002L132.247 38.7271H135.436Z" fill="#0A0223"></path><path d="M152.59 40.699C152.698 40.699 152.784 40.7421 152.87 40.8176C152.946 40.893 152.989 40.99 152.989 41.0977V42.1214C152.989 42.2292 152.946 42.3154 152.87 42.4016C152.795 42.4878 152.698 42.5201 152.59 42.5201H146.243C146.136 42.5201 146.049 42.477 145.974 42.4016C145.899 42.3261 145.855 42.2292 145.855 42.1214V32.7683C145.855 32.6606 145.899 32.5744 145.974 32.4882C146.049 32.4127 146.146 32.3696 146.243 32.3696H147.418C147.526 32.3696 147.612 32.4127 147.698 32.4882C147.774 32.5636 147.817 32.6606 147.817 32.7683V40.699H152.59Z" fill="#0A0223"></path><path d="M141.923 15.215L146.18 21.9281H137.678L141.934 15.215M141.934 8.21094C141.643 8.21094 141.352 8.35102 141.169 8.63118L131.019 24.6543C130.641 25.2577 131.072 26.0443 131.784 26.0443H152.095C152.806 26.0443 153.237 25.2577 152.86 24.6543L142.71 8.63118C142.537 8.35102 142.236 8.21094 141.945 8.21094H141.934Z" fill="#0A0223"></path></svg>